<?xml version="1.0" encoding="iso-8859-1"?>
<!-- Generator: Adobe Illustrator 19.0.0, SVG Export Plug-In . SVG Version: 6.00 Build 0)  -->
<svg version="1.1" id="Capa_1" xmlns="http://www.w3.org/2000/svg" xmlns:xlink="http://www.w3.org/1999/xlink" x="0px" y="0px"
	 viewBox="0 0 512.005 512.005" style="enable-background:new 0 0 512.005 512.005;" xml:space="preserve">
<g>
	<path style="fill:#35495E;" d="M511.562,160.576c-3.353,41.401-8.739,110.521-8.739,142.212c-0.022,7.82-1.243,15.59-3.618,23.04
		l-98.428,98.251c-42.548,21.892-74.77,43.167-96.751,54.113c-12.306,6.007-25.573,9.802-39.194,11.211
		c-4.767,0.53-7.592,0.53-7.592,0.53h-2.472c0,0-2.825,0-7.592-0.53c-13.621-1.409-26.888-5.204-39.194-11.211
		c-21.981-10.946-54.203-32.221-96.751-54.113l-98.427-98.251c-2.376-7.45-3.597-15.22-3.619-23.04
		c0-31.691-5.386-100.811-8.739-142.212c-1.783-20.202,1.811-40.516,10.417-58.88c9.8-21.274,21.716-52.348,21.716-79.625
		c0,0,35.134,116.966,93.573,116.966c56.23,0,58.349-86.687,121.025-93.131c2.517-0.328,5.054-0.476,7.592-0.441h2.472
		c2.538-0.034,5.075,0.113,7.592,0.441c62.676,6.444,64.795,93.131,121.026,93.131c58.439,0,93.573-116.966,93.573-116.966
		c0,27.277,11.916,58.35,21.804,79.625C509.771,120.081,513.332,140.384,511.562,160.576z"/>
	<path style="fill:#2C3E50;" d="M264.831,45.906v443.498c-4.767,0.53-7.592,0.53-7.592,0.53h-2.472c0,0-2.825,0-7.592-0.53V45.906
		c2.517-0.328,5.054-0.476,7.592-0.441h2.472C259.777,45.43,262.314,45.577,264.831,45.906z"/>
	<g>
		<circle style="fill:#BDC3C7;" cx="256.004" cy="278.071" r="97.103"/>
		<circle style="fill:#BDC3C7;" cx="70.624" cy="366.347" r="70.621"/>
	</g>
	<circle style="fill:#95A5A5;" cx="52.969" cy="384.002" r="44.138"/>
	<circle style="fill:#BDC3C7;" cx="441.383" cy="366.347" r="70.621"/>
	<circle style="fill:#95A5A5;" cx="459.038" cy="384.002" r="44.138"/>
	<circle style="fill:#BDC3C7;" cx="256.004" cy="278.071" r="26.483"/>
	<path style="fill:#7F8C8D;" d="M237.289,296.786l-24.982,24.982c-11.608-11.576-18.121-27.303-18.097-43.697h35.31
		C229.538,285.09,232.33,291.818,237.289,296.786z"/>
	<path style="fill:#95A5A5;" d="M237.289,259.357c-4.959,4.968-7.752,11.695-7.768,18.714h-35.31
		c-0.024-16.394,6.489-32.12,18.097-43.697L237.289,259.357z"/>
	<g>
		<path style="fill:#7F8C8D;" d="M256.004,216.278v35.31c-7.019,0.016-13.747,2.809-18.714,7.768l-24.982-24.982
			C223.883,222.767,239.61,216.253,256.004,216.278z"/>
		<path style="fill:#7F8C8D;" d="M317.797,278.071h-35.31c-0.017-7.019-2.809-13.747-7.768-18.714l24.982-24.982
			C311.308,245.951,317.821,261.678,317.797,278.071z"/>
	</g>
	<path style="fill:#95A5A5;" d="M317.797,278.071c0.024,16.394-6.489,32.12-18.097,43.697l-24.982-24.982
		c4.959-4.968,7.751-11.695,7.768-18.714H317.797z"/>
	<path style="fill:#7F8C8D;" d="M299.7,321.768c-11.576,11.608-27.303,18.121-43.697,18.097v-35.31
		c7.019-0.016,13.747-2.809,18.714-7.768L299.7,321.768z"/>
	<g>
		<path style="fill:#95A5A5;" d="M256.004,304.554v35.31c-16.394,0.024-32.12-6.489-43.697-18.097l24.982-24.982
			C242.257,301.745,248.984,304.538,256.004,304.554z"/>
		<path style="fill:#95A5A5;" d="M299.7,234.375l-24.982,24.982c-4.967-4.96-11.695-7.752-18.714-7.768v-35.31
			C272.397,216.253,288.124,222.767,299.7,234.375z"/>
	</g>
</g>
<g>
</g>
<g>
</g>
<g>
</g>
<g>
</g>
<g>
</g>
<g>
</g>
<g>
</g>
<g>
</g>
<g>
</g>
<g>
</g>
<g>
</g>
<g>
</g>
<g>
</g>
<g>
</g>
<g>
</g>
</svg>
