<?xml version="1.0" encoding="iso-8859-1"?>
<!-- Generator: Adobe Illustrator 19.0.0, SVG Export Plug-In . SVG Version: 6.00 Build 0)  -->
<svg version="1.1" id="Capa_1" xmlns="http://www.w3.org/2000/svg" xmlns:xlink="http://www.w3.org/1999/xlink" x="0px" y="0px"
	 viewBox="0 0 512 512" style="enable-background:new 0 0 512 512;" xml:space="preserve">
<g>
	<path style="fill:#35495E;" d="M397.241,0h-39.812c-7.818,0-14.709,5.133-16.948,12.623l-12.095,40.342l-5.297,17.655l-1.501,5.032
		c-2.239,7.491-9.13,12.623-16.949,12.623h-97.28c-7.818,0-14.709-5.133-16.948-12.623l-1.501-5.032l-5.297-17.655l-12.094-40.342
		C169.28,5.133,162.389,0,154.571,0h-39.812c-9.739,0.028-17.627,7.916-17.655,17.655v438.201c0,2.062,0.718,4.059,2.03,5.65
		l39.459,47.316c0.457,0.515,0.959,0.988,1.501,1.412c1.523,1.155,3.385,1.776,5.297,1.766H366.61
		c1.912,0.01,3.773-0.61,5.297-1.766c0.542-0.425,1.044-0.897,1.501-1.412l39.459-47.316c1.313-1.59,2.03-3.588,2.03-5.65V17.655
		C414.868,7.916,406.98,0.028,397.241,0z M205.806,503.842l0.024,0.035L205.806,503.842z M206.699,504.99
		c0.754,1.002,1.618,1.915,2.578,2.721C208.323,506.898,207.459,505.986,206.699,504.99L206.699,504.99z M209.955,508.313
		c1.145,0.901,2.411,1.637,3.761,2.186c0.772,0.424,1.606,0.722,2.472,0.883c0.104,0.07,0.229,0.101,0.353,0.088h0.088
		c0.448,0.18,0.928,0.271,1.412,0.265l0.078,0.021C215.151,511.311,212.344,510.127,209.955,508.313L209.955,508.313z"/>
	<path style="fill:#BDC3C7;" d="M97.104,335.448h189.793c26.814,0,48.552,21.737,48.552,48.552s-21.737,48.552-48.552,48.552H97.104
		"/>
	<path style="fill:#95A5A5;" d="M414.897,335.448v97.103h-128c26.814,0,48.552-21.737,48.552-48.552s-21.737-48.552-48.552-48.552
		H414.897z"/>
	<path style="fill:#547580;" d="M114.759,123.586h17.655c9.751,0,17.655,7.904,17.655,17.655v70.621
		c0,9.751-7.904,17.655-17.655,17.655h-17.655c-9.751,0-17.655-7.904-17.655-17.655v-70.621
		C97.104,131.491,105.008,123.586,114.759,123.586z"/>
	<path style="fill:#3F5C6C;" d="M167.724,123.586h17.655c9.751,0,17.655,7.904,17.655,17.655v70.621
		c0,9.751-7.904,17.655-17.655,17.655h-17.655c-9.751,0-17.655-7.904-17.655-17.655v-70.621
		C150.069,131.491,157.974,123.586,167.724,123.586z"/>
	<path style="fill:#547580;" d="M220.69,123.586h17.655c9.751,0,17.655,7.904,17.655,17.655v70.621
		c0,9.751-7.904,17.655-17.655,17.655H220.69c-9.751,0-17.655-7.904-17.655-17.655v-70.621
		C203.035,131.491,210.939,123.586,220.69,123.586z"/>
	<path style="fill:#3F5C6C;" d="M273.655,123.586h17.655c9.751,0,17.655,7.904,17.655,17.655v70.621
		c0,9.751-7.904,17.655-17.655,17.655h-17.655c-9.751,0-17.655-7.904-17.655-17.655v-70.621
		C256,131.491,263.905,123.586,273.655,123.586z"/>
	<path style="fill:#547580;" d="M326.621,123.586h17.655c9.751,0,17.655,7.904,17.655,17.655v70.621
		c0,9.751-7.904,17.655-17.655,17.655h-17.655c-9.751,0-17.655-7.904-17.655-17.655v-70.621
		C308.966,131.491,316.87,123.586,326.621,123.586z"/>
	<g>
		<path style="fill:#3F5C6C;" d="M379.586,123.586h17.655c9.751,0,17.655,7.904,17.655,17.655v70.621
			c0,9.751-7.904,17.655-17.655,17.655h-17.655c-9.751,0-17.655-7.904-17.655-17.655v-70.621
			C361.931,131.491,369.836,123.586,379.586,123.586z"/>
		<path style="fill:#3F5C6C;" d="M114.759,229.517h17.655c9.751,0,17.655,7.904,17.655,17.655v70.621
			c0,9.751-7.904,17.655-17.655,17.655h-17.655c-9.751,0-17.655-7.905-17.655-17.655v-70.621
			C97.104,237.422,105.008,229.517,114.759,229.517z"/>
	</g>
	<path style="fill:#547580;" d="M167.724,229.517h17.655c9.751,0,17.655,7.904,17.655,17.655v70.621
		c0,9.751-7.904,17.655-17.655,17.655h-17.655c-9.751,0-17.655-7.905-17.655-17.655v-70.621
		C150.069,237.422,157.974,229.517,167.724,229.517z"/>
	<path style="fill:#3F5C6C;" d="M220.69,229.517h17.655c9.751,0,17.655,7.904,17.655,17.655v70.621
		c0,9.751-7.904,17.655-17.655,17.655H220.69c-9.751,0-17.655-7.905-17.655-17.655v-70.621
		C203.035,237.422,210.939,229.517,220.69,229.517z"/>
	<path style="fill:#547580;" d="M273.655,229.517h17.655c9.751,0,17.655,7.904,17.655,17.655v70.621
		c0,9.751-7.904,17.655-17.655,17.655h-17.655c-9.751,0-17.655-7.905-17.655-17.655v-70.621
		C256,237.422,263.905,229.517,273.655,229.517z"/>
	<path style="fill:#3F5C6C;" d="M326.621,229.517h17.655c9.751,0,17.655,7.904,17.655,17.655v70.621
		c0,9.751-7.904,17.655-17.655,17.655h-17.655c-9.751,0-17.655-7.905-17.655-17.655v-70.621
		C308.966,237.422,316.87,229.517,326.621,229.517z"/>
	<path style="fill:#547580;" d="M379.586,229.517h17.655c9.751,0,17.655,7.904,17.655,17.655v70.621
		c0,9.751-7.904,17.655-17.655,17.655h-17.655c-9.751,0-17.655-7.905-17.655-17.655v-70.621
		C361.931,237.422,369.836,229.517,379.586,229.517z"/>
	<path style="fill:#3F5C6C;" d="M150.069,449.324v45.021c-0.016,6.767-3.887,12.934-9.975,15.89
		c-0.542-0.425-1.044-0.897-1.501-1.412l-39.459-47.316c-1.313-1.59-2.03-3.588-2.03-5.65v-5.65
		c0.028-9.739,7.916-17.627,17.655-17.655h17.655C141.817,432.571,149.568,439.934,150.069,449.324z"/>
	<path style="fill:#547580;" d="M203.035,450.207v44.138c-0.009,9.475-7.482,17.26-16.948,17.655h-18.362
		c-9.739-0.029-17.627-7.916-17.655-17.655v-45.021c0.501-9.39,8.252-16.753,17.655-16.772h17.655
		C195.118,432.58,203.006,440.468,203.035,450.207z"/>
	<path style="fill:#3F5C6C;" d="M256,449.324v45.021c-0.029,9.433-7.438,17.192-16.86,17.655h-20.127
		c-0.336-0.035-0.664-0.125-0.972-0.265c-0.483,0.006-0.963-0.084-1.412-0.265h-0.088c-0.124,0.013-0.249-0.018-0.353-0.088
		c-0.866-0.161-1.7-0.459-2.472-0.883c-2.877-1.157-5.36-3.119-7.151-5.65c-0.233-0.242-0.44-0.509-0.617-0.794
		c-0.088-0.088-0.177-0.177-0.177-0.265c-0.524-0.854-0.995-1.738-1.412-2.649c-0.895-2.153-1.346-4.465-1.325-6.797v-44.138
		c0.028-9.739,7.916-17.627,17.655-17.655h17.655C247.749,432.571,255.499,439.934,256,449.324z"/>
	<path style="fill:#547580;" d="M308.966,450.207v44.138c-0.072,9.349-7.354,17.055-16.684,17.655h-18.626
		c-9.739-0.029-17.627-7.916-17.655-17.655v-45.021c0.501-9.39,8.252-16.753,17.655-16.772h17.655
		C301.049,432.58,308.937,440.468,308.966,450.207z"/>
	<path style="fill:#3F5C6C;" d="M361.931,449.324v45.021c-0.029,9.739-7.916,17.627-17.655,17.655h-17.655
		c-9.739-0.029-17.627-7.916-17.655-17.655v-44.138c0.028-9.739,7.916-17.627,17.655-17.655h17.655
		C353.68,432.571,361.43,439.934,361.931,449.324z"/>
	<path style="fill:#547580;" d="M414.897,450.207v5.65c0,2.062-0.718,4.059-2.03,5.65l-39.459,47.316
		c-0.457,0.515-0.959,0.988-1.501,1.412c-6.088-2.956-9.959-9.122-9.975-15.89v-45.021c0.501-9.39,8.252-16.753,17.655-16.772
		h17.655C406.98,432.58,414.868,440.468,414.897,450.207z"/>
	<g>
		<polygon style="fill:#2C3E50;" points="188.91,70.621 97.104,70.621 97.104,52.966 183.614,52.966 		"/>
		<polygon style="fill:#2C3E50;" points="414.897,52.966 414.897,70.621 323.09,70.621 328.386,52.966 		"/>
	</g>
</g>
<g>
</g>
<g>
</g>
<g>
</g>
<g>
</g>
<g>
</g>
<g>
</g>
<g>
</g>
<g>
</g>
<g>
</g>
<g>
</g>
<g>
</g>
<g>
</g>
<g>
</g>
<g>
</g>
<g>
</g>
</svg>
