<?xml version="1.0" encoding="iso-8859-1"?>
<!-- Generator: Adobe Illustrator 19.0.0, SVG Export Plug-In . SVG Version: 6.00 Build 0)  -->
<svg version="1.1" id="Capa_1" xmlns="http://www.w3.org/2000/svg" xmlns:xlink="http://www.w3.org/1999/xlink" x="0px" y="0px"
	 viewBox="0 0 512 512" style="enable-background:new 0 0 512 512;" xml:space="preserve">
<g>
	<g>
		<path style="fill:#AF8066;" d="M114.759,79.448c14.626,0,26.483,11.857,26.483,26.483v70.621H88.276v-70.621
			C88.276,91.305,100.133,79.448,114.759,79.448z"/>
		<path style="fill:#AF8066;" d="M291.31,44.138c14.626,0,26.483,11.857,26.483,26.483v79.448h-52.966V70.621
			C264.828,55.995,276.684,44.138,291.31,44.138z"/>
		<path style="fill:#AF8066;" d="M172.138,44.138c17.064,0,30.897,13.833,30.897,30.897v83.862h-61.793V75.034
			C141.241,57.971,155.074,44.138,172.138,44.138z"/>
		<path style="fill:#AF8066;" d="M233.931,0c17.064,0,30.897,13.833,30.897,30.897v119.172h-61.793V30.897
			C203.034,13.833,216.867,0,233.931,0z"/>
	</g>
	<path style="fill:#7D6599;" d="M315.321,287.514c-2.149,39.375-8.211,78.438-18.097,116.612
		c-3.52,12.925-8.464,25.419-14.742,37.252H256v-61.793c0-29.252-23.713-52.966-52.966-52.966s-52.966,23.713-52.966,52.966v61.793
		h-26.483c-35.31-44.138-44.138-211.862-44.138-211.862v-44.138c0.015-4.869,3.958-8.813,8.828-8.828h52.966v-17.655h61.793v-8.828
		h114.759C319.283,195.897,318.458,241.77,315.321,287.514z"/>
	<g>
		<path style="fill:#3D324C;" d="M264.828,150.069v61.793c0,4.875-3.952,8.828-8.828,8.828s-8.828-3.952-8.828-8.828v-61.793
			H264.828z"/>
		<path style="fill:#3D324C;" d="M203.034,158.897v52.966c0,4.875-3.952,8.828-8.828,8.828s-8.828-3.952-8.828-8.828v-52.966
			H203.034z"/>
		<path style="fill:#3D324C;" d="M141.241,176.552v44.138c0,4.875-3.952,8.828-8.828,8.828c-4.875,0-8.828-3.952-8.828-8.828
			v-44.138H141.241z"/>
	</g>
	<g>
		<path style="fill:#AF8066;" d="M256,379.586v61.793H150.069v-61.793c0-29.252,23.713-52.966,52.966-52.966
			S256,350.334,256,379.586z"/>
		<path style="fill:#AF8066;" d="M353.103,264.828l40.701-47.359c4.67-5.345,11.588-8.173,18.665-7.628
			c7.077,0.544,13.482,4.397,17.279,10.393c7.176,11.729-1.098,24.17-6.219,34.888l-13.092,27.404l-4.197,8.785L353.103,264.828z"/>
	</g>
	<path style="fill:#3D324C;" d="M406.069,291.31c0,0-12.006,18.714-16.772,24.364c-5.691,6.172-10.886,12.784-15.537,19.774
		c-32.486,54.113-63.823,63.647-76.535,68.679c9.886-38.174,15.948-77.238,18.097-116.612l37.782-22.687
		C353.103,264.828,388.414,273.655,406.069,291.31z"/>
	<path style="fill:#894B9D;" d="M291.31,450.207v52.966c-0.015,4.869-3.958,8.813-8.828,8.828h-88.276
		c26.483-35.31,0-70.621,0-70.621h88.276C287.352,441.394,291.296,445.338,291.31,450.207z"/>
	<path style="fill:#3D324C;" d="M194.207,512h-70.621c-4.869-0.015-8.813-3.958-8.828-8.828v-52.966
		c0.015-4.869,3.958-8.813,8.828-8.828h70.621C194.207,441.379,220.69,476.69,194.207,512z"/>
</g>
<g>
</g>
<g>
</g>
<g>
</g>
<g>
</g>
<g>
</g>
<g>
</g>
<g>
</g>
<g>
</g>
<g>
</g>
<g>
</g>
<g>
</g>
<g>
</g>
<g>
</g>
<g>
</g>
<g>
</g>
</svg>
