<?xml version="1.0" encoding="iso-8859-1"?>
<!-- Generator: Adobe Illustrator 19.0.0, SVG Export Plug-In . SVG Version: 6.00 Build 0)  -->
<svg version="1.1" id="Capa_1" xmlns="http://www.w3.org/2000/svg" xmlns:xlink="http://www.w3.org/1999/xlink" x="0px" y="0px"
	 viewBox="0 0 512 512" style="enable-background:new 0 0 512 512;" xml:space="preserve">
<g>
	<g>
		<path style="fill:#7F8C8D;" d="M117.153,69.424c-2.302,0.001-4.51-0.913-6.138-2.54c-1.628-1.628-2.542-3.836-2.54-6.138V8.678
			c0-4.793,3.885-8.678,8.678-8.678c4.793,0,8.678,3.885,8.678,8.678v52.068c0.001,2.302-0.913,4.51-2.54,6.138
			C121.663,68.511,119.454,69.425,117.153,69.424z"/>
		<path style="fill:#7F8C8D;" d="M151.864,78.102c-4.793,0-8.678-3.885-8.678-8.678s3.885-8.678,8.678-8.678
			c4.791-0.003,8.675-3.887,8.678-8.678V8.678c0-4.793,3.885-8.678,8.678-8.678c4.793,0,8.678,3.885,8.678,8.678v43.39
			C177.883,66.439,166.236,78.086,151.864,78.102z"/>
	</g>
	<g>
		<path style="fill:#95A5A5;" d="M21.695,78.102h104.136v34.712H21.695c-9.585,0-17.356-7.771-17.356-17.356
			S12.109,78.102,21.695,78.102z"/>
		<rect x="412.203" y="312.407" style="fill:#95A5A5;" width="34.712" height="171.563"/>
		<rect x="108.475" y="104.136" style="fill:#95A5A5;" width="34.712" height="381.831"/>
	</g>
	<rect x="39.051" y="468.61" style="fill:#7F8C8D;" width="173.559" height="34.712"/>
	<path style="fill:#E64C3C;" d="M108.475,60.746h43.39v60.746c0,4.793-3.885,8.678-8.678,8.678h-34.712V60.746z"/>
	<path style="fill:#5E5F62;" d="M455.593,485.966c0,14.378-11.656,26.034-26.034,26.034s-26.034-11.656-26.034-26.034
		s11.656-26.034,26.034-26.034S455.593,471.588,455.593,485.966z"/>
	<path style="fill:#E64C3C;" d="M21.695,286.373h468.61c9.585,0,17.356,7.771,17.356,17.356v8.678
		c0,9.585-7.771,17.356-17.356,17.356H21.695c-9.585,0-17.356-7.771-17.356-17.356v-8.678
		C4.339,294.143,12.109,286.373,21.695,286.373z"/>
	<g>
		<path style="fill:#5E5F62;" d="M13.017,459.932h34.712c4.793,0,8.678,3.885,8.678,8.678v34.712c0,4.793-3.885,8.678-8.678,8.678
			H13.017c-4.793,0-8.678-3.885-8.678-8.678V468.61C4.339,463.817,8.224,459.932,13.017,459.932z"/>
		<path style="fill:#5E5F62;" d="M203.932,459.932h34.712c4.793,0,8.678,3.885,8.678,8.678v34.712c0,4.793-3.885,8.678-8.678,8.678
			h-34.712c-4.793,0-8.678-3.885-8.678-8.678V468.61C195.254,463.817,199.139,459.932,203.932,459.932z"/>
	</g>
</g>
<g>
</g>
<g>
</g>
<g>
</g>
<g>
</g>
<g>
</g>
<g>
</g>
<g>
</g>
<g>
</g>
<g>
</g>
<g>
</g>
<g>
</g>
<g>
</g>
<g>
</g>
<g>
</g>
<g>
</g>
</svg>
