<?xml version="1.0" encoding="iso-8859-1"?>
<!-- Generator: Adobe Illustrator 19.0.0, SVG Export Plug-In . SVG Version: 6.00 Build 0)  -->
<svg version="1.1" id="Capa_1" xmlns="http://www.w3.org/2000/svg" xmlns:xlink="http://www.w3.org/1999/xlink" x="0px" y="0px"
	 viewBox="0 0 512 512" style="enable-background:new 0 0 512 512;" xml:space="preserve">
<g>
	<path style="fill:#D25627;" d="M150.069,476.69V8.828c-0.014-4.869-3.958-8.813-8.828-8.828h-17.655
		c-4.869,0.014-8.813,3.958-8.828,8.828V476.69"/>
	<path style="fill:#E57E25;" d="M70.621,476.69h370.759c4.875,0,8.828,3.952,8.828,8.828v17.655c0,4.875-3.952,8.828-8.828,8.828
		H70.621c-4.875,0-8.828-3.952-8.828-8.828v-17.655C61.793,480.642,65.745,476.69,70.621,476.69z"/>
	<path style="fill:#5E5F62;" d="M423.724,167.724h-88.276c-4.875,0-8.828-3.952-8.828-8.828s3.952-8.828,8.828-8.828h88.276
		c4.875,0,8.828,3.952,8.828,8.828S428.599,167.724,423.724,167.724z"/>
	<polygon style="fill:#F18D46;" points="272.419,476.69 222.455,476.69 150.069,404.303 150.069,354.339 	"/>
	<path style="fill:#E57E25;" d="M344.276,158.897c-0.029,9.739-7.916,17.627-17.655,17.655H150.069v-35.31h176.552
		C336.342,141.311,344.206,149.175,344.276,158.897z"/>
	<polygon style="fill:#F18D46;" points="272.419,176.552 150.069,298.902 150.069,248.938 222.455,176.552 	"/>
	<path style="fill:#7F8C8D;" d="M300.138,123.586v17.655H194.207v-17.655c0.028-9.739,7.916-17.627,17.655-17.655h70.621
		C292.222,105.959,300.109,113.847,300.138,123.586z"/>
</g>
<g>
</g>
<g>
</g>
<g>
</g>
<g>
</g>
<g>
</g>
<g>
</g>
<g>
</g>
<g>
</g>
<g>
</g>
<g>
</g>
<g>
</g>
<g>
</g>
<g>
</g>
<g>
</g>
<g>
</g>
</svg>
