<?xml version="1.0" encoding="iso-8859-1"?>
<!-- Generator: Adobe Illustrator 19.0.0, SVG Export Plug-In . SVG Version: 6.00 Build 0)  -->
<svg version="1.1" id="Capa_1" xmlns="http://www.w3.org/2000/svg" xmlns:xlink="http://www.w3.org/1999/xlink" x="0px" y="0px"
	 viewBox="0 0 512 512" style="enable-background:new 0 0 512 512;" xml:space="preserve">
<g>
	<polygon style="fill:#BDC3C7;" points="484.105,174.874 432.552,124.381 399.801,141.241 459.123,199.857 	"/>
	<g>
		<rect x="370.759" y="123.586" style="fill:#A5A5A4;" width="52.966" height="256"/>
		<rect x="79.448" y="256" style="fill:#A5A5A4;" width="52.966" height="229.517"/>
		<rect x="17.655" y="141.241" style="fill:#A5A5A4;" width="35.31" height="105.931"/>
	</g>
	<polyline style="fill:#5E5F62;" points="19.686,503.172 300.138,503.172 300.138,467.862 19.686,467.862 	"/>
	<g>
		<path style="fill:#7D6599;" d="M283.997,404.554l41.109-41.109c6.622-6.622,15.603-10.342,24.968-10.342h144.271
			c9.751,0,17.655,7.904,17.655,17.655v123.586c0,9.751-7.905,17.655-17.655,17.655H291.31c-9.751,0-17.655-7.905-17.655-17.655
			v-64.822C273.655,420.158,277.375,411.176,283.997,404.554z"/>
		<path style="fill:#7D6599;" d="M347.983,89.865l-10.667,13.672c-1.21,1.551-1.868,3.463-1.868,5.431v32.274
			c0,4.875,3.952,8.828,8.828,8.828h105.931c4.875,0,8.828-3.952,8.828-8.828V35.31c0-4.875-3.952-8.828-8.828-8.828h-48.645
			c-2.726,0-5.299,1.259-6.971,3.412l-24.715,31.81L347.983,89.865z"/>
	</g>
	<path style="fill:#BDC3C7;" d="M312.176,52.887l56.187,57.961c6.97,6.421,17.765,6.2,24.467-0.501
		c6.701-6.701,6.923-17.496,0.501-24.467l-56.187-57.961L312.176,52.887z"/>
	<g>
		<circle style="fill:#5E5F62;" cx="310.731" cy="26.483" r="26.483"/>
		<circle style="fill:#5E5F62;" cx="485.517" cy="201.26" r="26.483"/>
	</g>
	<g>
		<path style="fill:#7D6599;" d="M17.655,220.69h158.897c19.501,0,35.31,15.809,35.31,35.31c0,9.751-7.904,17.655-17.655,17.655
			H17.655C7.904,273.655,0,265.751,0,256v-17.655C0,228.594,7.904,220.69,17.655,220.69z"/>
		<path style="fill:#7D6599;" d="M17.655,0h52.966c4.875,0,8.828,3.952,8.828,8.828v150.069c0,4.875-3.952,8.828-8.828,8.828H17.655
			C7.904,167.724,0,159.82,0,150.069V17.655C0,7.904,7.904,0,17.655,0z"/>
	</g>
	<circle style="fill:#3D324C;" cx="26.483" cy="485.517" r="26.483"/>
</g>
<g>
</g>
<g>
</g>
<g>
</g>
<g>
</g>
<g>
</g>
<g>
</g>
<g>
</g>
<g>
</g>
<g>
</g>
<g>
</g>
<g>
</g>
<g>
</g>
<g>
</g>
<g>
</g>
<g>
</g>
</svg>
