<?xml version="1.0" encoding="iso-8859-1"?>
<!-- Generator: Adobe Illustrator 19.0.0, SVG Export Plug-In . SVG Version: 6.00 Build 0)  -->
<svg version="1.1" id="Capa_1" xmlns="http://www.w3.org/2000/svg" xmlns:xlink="http://www.w3.org/1999/xlink" x="0px" y="0px"
	 viewBox="0 0 512 512" style="enable-background:new 0 0 512 512;" xml:space="preserve">
<g>
	<path style="fill:#A5A5A4;" d="M450.207,0H61.793c-7.027-0.009-13.768,2.778-18.737,7.746s-7.756,11.71-7.746,18.737l0,229.517
		H476.69V26.483c0.009-7.027-2.778-13.768-7.746-18.737C463.975,2.778,457.233-0.009,450.207,0z M308.966,52.966
		c0,9.751-7.904,17.655-17.655,17.655L220.69,70.62c-9.75,0-17.655-7.904-17.655-17.655v-0.001c0-9.75,7.905-17.655,17.655-17.655
		l70.621-0.001C301.061,35.31,308.966,43.214,308.966,52.966L308.966,52.966z"/>
	<path style="fill:#5E5F62;" d="M35.31,256l0,229.517c-0.009,7.027,2.778,13.768,7.746,18.737c4.969,4.969,11.71,7.756,18.737,7.746
		h388.414c7.027,0.009,13.768-2.778,18.737-7.746c4.969-4.969,7.756-11.71,7.746-18.737V256H35.31z M291.31,476.69H220.69
		c-9.751,0-17.655-7.904-17.655-17.655s7.904-17.655,17.655-17.655h70.621c9.751,0,17.655,7.905,17.655,17.655
		S301.061,476.69,291.31,476.69z"/>
	<circle style="fill:#2980BA;" cx="141.241" cy="150.069" r="70.621"/>
	<circle style="fill:#A5A5A4;" cx="141.241" cy="150.069" r="17.655"/>
	<circle style="fill:#2980BA;" cx="370.759" cy="150.069" r="70.621"/>
	<circle style="fill:#A5A5A4;" cx="370.759" cy="150.069" r="17.655"/>
	<circle style="fill:#E4C05C;" cx="123.586" cy="414.897" r="52.966"/>
	<circle style="fill:#5E5F62;" cx="123.586" cy="414.897" r="17.655"/>
	<circle style="fill:#E4C05C;" cx="388.414" cy="414.897" r="52.966"/>
	<circle style="fill:#5E5F62;" cx="388.414" cy="414.897" r="17.655"/>
	<path style="fill:#BDC3C7;" d="M441.379,308.966c-0.071,9.721-7.934,17.585-17.655,17.655H88.276
		c-9.739-0.029-17.627-7.916-17.655-17.655c0.07-9.722,7.934-17.585,17.655-17.655h335.448
		C433.463,291.339,441.351,299.227,441.379,308.966z"/>
	<g>
		<rect x="97.103" y="291.31" style="fill:#ECF0F1;" width="17.655" height="35.31"/>
		<rect x="132.414" y="291.31" style="fill:#ECF0F1;" width="17.655" height="35.31"/>
		<rect x="167.724" y="291.31" style="fill:#ECF0F1;" width="17.655" height="35.31"/>
		<rect x="326.621" y="291.31" style="fill:#ECF0F1;" width="17.655" height="35.31"/>
		<rect x="361.931" y="291.31" style="fill:#ECF0F1;" width="17.655" height="35.31"/>
		<rect x="397.241" y="291.31" style="fill:#ECF0F1;" width="17.655" height="35.31"/>
		<path style="fill:#ECF0F1;" d="M256,361.931l0.004,0.011c2.841,7.197,10.739,11,18.137,8.734l0.011-0.004l-0.006,0.01
			c-3.855,6.709-1.905,15.254,4.48,19.626l0.01,0.007l-0.012,0.002c-7.649,1.169-13.114,8.022-12.551,15.739l0.001,0.012
			l-0.009-0.008c-5.683-5.252-14.448-5.252-20.131,0l-0.009,0.008l0.001-0.012c0.563-7.717-4.902-14.57-12.551-15.739l-0.012-0.002
			l0.01-0.007c6.384-4.372,8.335-12.917,4.48-19.626l-0.006-0.01l0.011,0.004c7.399,2.266,15.296-1.537,18.137-8.734L256,361.931z"
			/>
		<path style="fill:#ECF0F1;" d="M256,176.552l0.004,0.011c2.841,7.197,10.739,11,18.137,8.734l0.011-0.004l-0.006,0.01
			c-3.855,6.709-1.905,15.254,4.48,19.626l0.01,0.007l-0.012,0.002c-7.649,1.169-13.114,8.022-12.551,15.739l0.001,0.012
			l-0.009-0.008c-5.683-5.252-14.448-5.252-20.131,0l-0.009,0.008l0.001-0.012c0.563-7.717-4.902-14.57-12.551-15.739l-0.012-0.002
			l0.01-0.007c6.384-4.372,8.335-12.917,4.48-19.626l-0.006-0.01l0.011,0.004c7.399,2.266,15.296-1.537,18.137-8.734L256,176.552z"
			/>
	</g>
</g>
<g>
</g>
<g>
</g>
<g>
</g>
<g>
</g>
<g>
</g>
<g>
</g>
<g>
</g>
<g>
</g>
<g>
</g>
<g>
</g>
<g>
</g>
<g>
</g>
<g>
</g>
<g>
</g>
<g>
</g>
</svg>
