<?xml version="1.0" encoding="iso-8859-1"?>
<!-- Generator: Adobe Illustrator 19.0.0, SVG Export Plug-In . SVG Version: 6.00 Build 0)  -->
<svg version="1.1" id="Capa_1" xmlns="http://www.w3.org/2000/svg" xmlns:xlink="http://www.w3.org/1999/xlink" x="0px" y="0px"
	 viewBox="0 0 512.024 512.024" style="enable-background:new 0 0 512.024 512.024;" xml:space="preserve">
<g transform="translate(-1)">
	<g>
		<path style="fill:#35495E;" d="M57.631,483.967l3.514-16.914c0.975-4.693,5.569-7.706,10.262-6.731l84.778,17.613
			c4.692,0.975,7.706,5.569,6.731,10.262l-3.514,16.913c-0.975,4.692-5.569,7.706-10.262,6.731l-84.778-17.613
			C59.67,493.253,56.656,488.659,57.631,483.967z"/>
		<path style="fill:#35495E;" d="M201.996,257.525l-8.477-1.761c4.692,0.975,9.285-2.038,10.261-6.73l3.518-16.913
			c0.469-2.254,0.023-4.601-1.239-6.526c-1.262-1.925-3.238-3.269-5.492-3.738l-67.817-14.089
			c-4.692-0.975-9.286,2.038-10.261,6.729l-3.518,16.913c-0.469,2.254-0.023,4.601,1.239,6.526c1.262,1.925,3.238,3.269,5.492,3.738
			l19.148,3.978l-27.633-5.741c-4.692-0.975-9.286,2.038-10.261,6.729L85.808,348.318c-0.469,2.254-0.023,4.601,1.239,6.526
			c1.262,1.925,3.238,3.269,5.492,3.738l8.477,1.762c-4.692-0.975-9.285,2.038-10.261,6.729l-3.518,16.913
			c-0.469,2.254-0.023,4.601,1.239,6.526c1.262,1.925,3.237,3.269,5.491,3.738l-8.484-1.763c-4.692-0.975-9.286,2.038-10.262,6.729
			l-3.518,16.913c-0.469,2.254-0.023,4.601,1.24,6.526c1.262,1.925,3.238,3.269,5.491,3.737l8.477,1.761
			c-4.692-0.975-9.286,2.038-10.261,6.73l-3.518,16.913c-0.469,2.254-0.023,4.601,1.239,6.526c1.262,1.925,3.238,3.269,5.492,3.738
			l67.817,14.088c4.692,0.975,9.286-2.038,10.261-6.729l3.518-16.913c0.469-2.254,0.023-4.601-1.239-6.526
			c-1.262-1.925-3.238-3.269-5.492-3.738l-19.148-3.978l27.633,5.741c4.692,0.975,9.286-2.038,10.261-6.729l3.518-16.913
			c0.469-2.254,0.023-4.601-1.24-6.526c-1.262-1.925-3.238-3.269-5.491-3.738l-8.477-1.761c4.691,0.974,9.285-2.038,10.261-6.729
			l3.517-16.913c0.469-2.254,0.023-4.601-1.24-6.526c-1.262-1.925-3.238-3.269-5.491-3.737l-19.148-3.978l27.633,5.741
			c4.692,0.975,9.286-2.038,10.262-6.73l21.147-101.677c0.469-2.254,0.023-4.601-1.24-6.526
			C206.225,259.337,204.25,257.993,201.996,257.525z"/>
		<path style="fill:#35495E;" d="M117.544,195.745l3.514-16.914c0.975-4.693,5.569-7.706,10.262-6.731l84.779,17.613
			c4.692,0.975,7.706,5.569,6.731,10.262l-3.514,16.914c-0.975,4.692-5.569,7.706-10.262,6.731l-84.779-17.613
			C119.583,205.032,116.569,200.437,117.544,195.745L117.544,195.745z"/>
		<path style="fill:#35495E;" d="M456.417,483.941l-3.517-16.913c-0.976-4.692-5.57-7.705-10.262-6.729l-8.484,1.763
			c2.254-0.469,4.229-1.813,5.491-3.738c1.262-1.925,1.708-4.272,1.239-6.526l-3.518-16.913c-0.975-4.692-5.569-7.704-10.261-6.73
			l8.477-1.761c2.254-0.468,4.229-1.813,5.491-3.737c1.262-1.925,1.708-4.272,1.24-6.526l-3.518-16.913
			c-0.976-4.692-5.57-7.704-10.262-6.729l-27.633,5.741l19.148-3.978c2.254-0.468,4.229-1.813,5.491-3.738
			c1.262-1.925,1.708-4.272,1.239-6.526l-3.517-16.913c-0.976-4.692-5.569-7.704-10.261-6.729l8.477-1.762
			c2.254-0.468,4.229-1.813,5.492-3.738c1.262-1.925,1.708-4.272,1.239-6.526l-21.147-101.676c-0.976-4.692-5.57-7.704-10.262-6.729
			l-27.633,5.741l19.148-3.978c2.254-0.468,4.229-1.813,5.492-3.738c1.262-1.925,1.708-4.272,1.239-6.526l-3.517-16.913
			c-0.976-4.692-5.57-7.704-10.262-6.729l-67.817,14.089c-2.254,0.468-4.229,1.813-5.491,3.738c-1.262,1.925-1.708,4.272-1.24,6.526
			l3.518,16.913c0.976,4.691,5.569,7.704,10.261,6.73l-8.477,1.761c-2.254,0.468-4.229,1.813-5.491,3.737
			c-1.262,1.925-1.708,4.272-1.24,6.526l21.147,101.677c0.976,4.692,5.569,7.704,10.261,6.73l27.633-5.741l-19.148,3.978
			c-2.254,0.468-4.229,1.813-5.491,3.737c-1.262,1.925-1.708,4.272-1.24,6.526l3.518,16.913c0.976,4.691,5.569,7.704,10.261,6.729
			l-8.477,1.761c-2.254,0.468-4.229,1.813-5.492,3.738c-1.262,1.925-1.708,4.272-1.239,6.526l3.517,16.913
			c0.976,4.692,5.57,7.704,10.262,6.729l27.633-5.741l-19.148,3.978c-2.254,0.468-4.229,1.813-5.492,3.738
			c-1.262,1.925-1.708,4.272-1.239,6.526l3.518,16.913c0.976,4.692,5.57,7.705,10.262,6.729l55.072-11.441l-63.55,13.203
			c-2.254,0.468-4.229,1.813-5.491,3.737c-1.262,1.925-1.708,4.272-1.24,6.526l3.518,16.913c0.976,4.691,5.57,7.704,10.261,6.729
			l84.779-17.613c2.254-0.468,4.229-1.813,5.492-3.738C456.44,488.542,456.886,486.194,456.417,483.941z"/>
		<path style="fill:#35495E;" d="M297.924,189.728l84.775-17.633c4.692-0.976,9.287,2.037,10.263,6.729l3.518,16.913
			c0.976,4.693-2.037,9.288-6.729,10.264l-84.775,17.633c-4.692,0.976-9.287-2.037-10.263-6.729l-3.518-16.913
			C290.219,195.299,293.232,190.704,297.924,189.728L297.924,189.728z"/>
		<path style="fill:#35495E;" d="M71.385,460.294l84.778,17.613c4.692,0.975,7.706,5.569,6.731,10.262l-3.514,16.914
			c-0.975,4.693-5.569,7.706-10.262,6.731L64.34,494.201c-4.692-0.975-7.706-5.569-6.731-10.262l3.514-16.914
			C62.098,462.333,66.692,459.32,71.385,460.294L71.385,460.294z"/>
		<path style="fill:#35495E;" d="M85.486,392.482l84.778,17.613c4.692,0.975,7.706,5.569,6.731,10.262l-3.514,16.914
			c-0.975,4.692-5.569,7.706-10.262,6.731l-84.778-17.613c-4.692-0.975-7.706-5.569-6.731-10.262l3.514-16.914
			C76.199,394.521,80.794,391.507,85.486,392.482L85.486,392.482z"/>
		<path style="fill:#35495E;" d="M117.202,239.915l84.778,17.613c4.692,0.975,7.706,5.569,6.731,10.262l-21.124,101.678
			c-0.975,4.692-5.569,7.706-10.262,6.731l-84.778-17.613c-4.692-0.975-7.706-5.569-6.731-10.262l21.124-101.678
			C107.916,241.954,112.51,238.94,117.202,239.915z"/>
	</g>
	<path style="fill:#E64C3C;" d="M86.917,428.149l67.816,14.089c4.692,0.975,7.706,5.569,6.731,10.262l-3.514,16.914
		c-0.975,4.693-5.569,7.706-10.262,6.731l-67.816-14.089c-4.692-0.975-7.706-5.569-6.731-10.262l3.514-16.914
		C77.631,430.188,82.225,427.175,86.917,428.149L86.917,428.149z"/>
	<path style="fill:#35495E;" d="M131.356,172.107l84.778,17.613c4.692,0.975,7.706,5.569,6.731,10.262l-3.514,16.917
		c-0.975,4.692-5.569,7.706-10.262,6.731l-84.778-17.613c-4.692-0.975-7.706-5.569-6.731-10.262l3.514-16.917
		C122.069,174.146,126.664,171.133,131.356,172.107z"/>
	<g>
		<path style="fill:#E64C3C;" d="M132.747,207.768l67.816,14.089c4.692,0.975,7.706,5.569,6.731,10.262l-3.514,16.914
			c-0.975,4.692-5.569,7.706-10.262,6.731l-67.817-14.089c-4.692-0.975-7.706-5.569-6.731-10.262l3.514-16.914
			C123.46,209.806,128.054,206.793,132.747,207.768L132.747,207.768z"/>
		<path style="fill:#E64C3C;" d="M101.021,360.306l67.819,14.09c4.692,0.975,7.706,5.569,6.731,10.262l-3.514,16.917
			c-0.975,4.693-5.569,7.706-10.262,6.731l-67.819-14.09c-4.692-0.975-7.706-5.569-6.731-10.262l3.514-16.917
			C91.735,362.344,96.329,359.331,101.021,360.306z"/>
	</g>
	<polyline style="fill:#BDC3C7;" points="198.405,147.525 190.69,184.407 156.733,177.395 162.973,147.525 	"/>
	<g>
		<path style="fill:#35495E;" d="M449.663,494.222l-84.778,17.613c-4.693,0.975-9.287-2.039-10.262-6.731l-3.514-16.914
			c-0.975-4.693,2.039-9.287,6.731-10.262l84.778-17.613c4.692-0.975,9.287,2.039,10.262,6.731l3.514,16.914
			c0.468,2.253,0.022,4.601-1.24,6.525C453.891,492.41,451.916,493.754,449.663,494.222z"/>
		<path style="fill:#35495E;" d="M435.61,426.362l-84.778,17.613c-4.692,0.975-9.287-2.039-10.262-6.731l-3.514-16.914
			c-0.975-4.692,2.039-9.287,6.731-10.262l84.778-17.613c4.693-0.975,9.287,2.039,10.262,6.731l3.514,16.914
			C443.317,420.793,440.303,425.388,435.61,426.362z"/>
		<path style="fill:#35495E;" d="M421.494,358.582l-84.778,17.613c-4.692,0.975-9.287-2.039-10.262-6.731L305.33,267.783
			c-0.975-4.692,2.039-9.287,6.731-10.262l84.778-17.613c4.692-0.975,9.287,2.039,10.262,6.731l21.125,101.681
			c0.468,2.253,0.022,4.601-1.24,6.525C425.723,356.77,423.748,358.114,421.494,358.582z"/>
	</g>
	<path style="fill:#E64C3C;" d="M434.156,462.054l-67.817,14.089c-4.692,0.975-9.287-2.039-10.262-6.731l-3.514-16.914
		c-0.975-4.692,2.039-9.287,6.731-10.262l67.817-14.089c4.692-0.975,9.287,2.039,10.262,6.731l3.514,16.914
		C441.862,456.485,438.849,461.079,434.156,462.054L434.156,462.054z"/>
	<path style="fill:#35495E;" d="M389.75,206.035l-84.778,17.613c-4.692,0.975-9.287-2.039-10.262-6.731l-3.514-16.914
		c-0.975-4.692,2.039-9.287,6.731-10.262l84.778-17.613c4.693-0.975,9.287,2.039,10.262,6.731l3.514,16.914
		C397.456,200.466,394.443,205.06,389.75,206.035L389.75,206.035z"/>
	<g>
		<path style="fill:#E64C3C;" d="M388.313,241.674l-67.817,14.089c-4.693,0.975-9.287-2.039-10.262-6.731l-3.514-16.914
			c-0.975-4.692,2.039-9.287,6.731-10.262l67.817-14.089c4.692-0.975,9.287,2.039,10.262,6.731l3.514,16.914
			C396.019,236.105,393.005,240.699,388.313,241.674z"/>
		<path style="fill:#E64C3C;" d="M420.017,394.281L352.2,408.371c-4.693,0.975-9.287-2.039-10.262-6.731l-3.514-16.914
			c-0.975-4.692,2.039-9.287,6.731-10.262l67.817-14.089c4.692-0.975,9.287,2.039,10.262,6.731l3.514,16.914
			C427.723,388.712,424.71,393.307,420.017,394.281z"/>
	</g>
	<g>
		<polyline style="fill:#BDC3C7;" points="351.051,147.525 357.281,177.395 323.324,184.407 315.618,147.525 		"/>
		<path style="fill:#BDC3C7;" d="M257.007,121.492c-33.549,0-60.746-27.197-60.746-60.746S223.458,0,257.007,0
			s60.746,27.197,60.746,60.746C317.714,94.279,290.54,121.452,257.007,121.492z M257.007,17.356
			c-23.964,0-43.39,19.426-43.39,43.39s19.426,43.39,43.39,43.39s43.39-19.426,43.39-43.39
			C300.369,36.794,280.959,17.384,257.007,17.356z"/>
		<path style="fill:#BDC3C7;" d="M257.007,86.78c-14.378,0-26.034-11.656-26.034-26.034s11.656-26.034,26.034-26.034
			c14.378,0,26.034,11.656,26.034,26.034C283.026,75.117,271.379,86.764,257.007,86.78z M257.007,52.068
			c-4.793,0-8.678,3.885-8.678,8.678s3.885,8.678,8.678,8.678c4.793,0,8.678-3.885,8.678-8.678
			C265.681,55.955,261.798,52.073,257.007,52.068z"/>
		<path style="fill:#BDC3C7;" d="M170.223,121.492c-2.879,0.001-5.571-1.427-7.186-3.811c-1.614-2.384-1.94-5.414-0.869-8.087
			c12.021-29.058,26.94-56.831,44.53-82.898c2.733-3.936,8.14-4.911,12.076-2.178s4.911,8.14,2.178,12.076
			c-16.792,25.017-31.082,51.626-42.665,79.441C176.969,119.331,173.775,121.493,170.223,121.492z"/>
		<path style="fill:#BDC3C7;" d="M343.796,121.492c-3.551,0.002-6.745-2.16-8.064-5.458c-11.583-27.815-25.873-54.423-42.665-79.441
			c-2.722-3.936-1.744-9.333,2.187-12.063s9.33-1.761,12.067,2.165c17.59,26.067,32.509,53.84,44.53,82.898
			c1.071,2.673,0.745,5.703-0.869,8.087C349.367,120.065,346.675,121.493,343.796,121.492z"/>
	</g>
	<path style="fill:#95A5A5;" d="M152.872,112.814h208.271c9.585,0,17.356,7.771,17.356,17.356l0,0
		c0,9.585-7.771,17.356-17.356,17.356H152.872c-9.585,0-17.356-7.771-17.356-17.356l0,0
		C135.516,120.584,143.286,112.814,152.872,112.814z"/>
</g>
<g>
</g>
<g>
</g>
<g>
</g>
<g>
</g>
<g>
</g>
<g>
</g>
<g>
</g>
<g>
</g>
<g>
</g>
<g>
</g>
<g>
</g>
<g>
</g>
<g>
</g>
<g>
</g>
<g>
</g>
</svg>
