<?xml version="1.0" encoding="iso-8859-1"?>
<!-- Generator: Adobe Illustrator 19.0.0, SVG Export Plug-In . SVG Version: 6.00 Build 0)  -->
<svg version="1.1" id="Capa_1" xmlns="http://www.w3.org/2000/svg" xmlns:xlink="http://www.w3.org/1999/xlink" x="0px" y="0px"
	 viewBox="0 0 512 512" style="enable-background:new 0 0 512 512;" xml:space="preserve">
<g>
	<polygon style="fill:#95A5A5;" points="365.815,414.897 365.815,476.69 291.31,476.69 317.793,414.897 	"/>
	<path style="fill:#7F8C8D;" d="M335.448,159.221L294.4,118.699c-16.688-16.4-43.221-17.085-60.734-1.57l-42.331,37.677
		c-3.844,3.4-6.104,8.243-6.239,13.373c-0.135,5.13,1.866,10.086,5.526,13.683l0.044,0.043c7.017,6.895,18.129,7.318,25.65,0.975
		l29.885-25.293c10.528-8.874,26.073-8.308,35.928,1.308l26.836,26.483L335.448,159.221z"/>
	<polygon style="fill:#BDC3C7;" points="42.549,494.345 422.224,113.258 397.241,88.276 17.655,469.275 	"/>
	<path style="fill:#802F34;" d="M363.997,9.579l-24.968,24.968c-18.352,18.351-9.425,57.862,19.35,93.004
		c3.717,4.578,7.676,8.953,11.86,13.108c4.155,4.184,8.53,8.143,13.108,11.86c35.143,28.775,74.655,37.701,93.007,19.35
		l24.969-24.967L363.997,9.579z"/>
	<path style="fill:#CC4B4C;" d="M482.339,54.303c28.513,35.044,37.252,74.326,18.979,92.599
		c-20.657,20.656-68.149,6.709-106.108-31.249c-37.959-37.869-51.906-85.448-31.25-106.104c18.361-18.361,57.909-9.357,93.043,19.42
		L482.339,54.303z"/>
	<g>
		<path style="fill:#BDC3C7;" d="M506.88,5.164c3.329,3.294,5.177,7.8,5.118,12.484c0.059,4.683-1.789,9.19-5.118,12.484
			l-61.737,60.591c-3.433,3.433-11.86,0.624-18.726-6.242c-6.866-6.866-9.675-15.293-6.242-18.726l61.737-60.591
			C488.819-1.702,499.973-1.702,506.88,5.164z"/>
		<polygon style="fill:#BDC3C7;" points="423.724,476.69 397.241,414.897 353.103,414.897 326.621,476.69 		"/>
	</g>
	<path style="fill:#CC4B4C;" d="M414.897,397.241c-0.071,9.721-7.934,17.585-17.655,17.655h-79.448
		c-9.739-0.029-17.627-7.916-17.655-17.655c0.07-9.722,7.934-17.585,17.655-17.655h79.448
		C406.98,379.615,414.868,387.503,414.897,397.241z"/>
	<path style="fill:#802F34;" d="M35.31,326.626h17.655c9.75,0,17.655,7.904,17.655,17.655v8.828c0,9.75-7.905,17.655-17.655,17.655
		H35.31"/>
	<path style="fill:#7F8C8D;" d="M17.655,476.691h485.517c4.875,0,8.828,3.952,8.828,8.828v17.654c0,4.875-3.952,8.828-8.828,8.828
		H17.655V476.691z"/>
	<path style="fill:#95A5A5;" d="M8.828,326.626H35.31V512H8.828C3.952,512,0,508.048,0,503.173V335.454
		C0,330.578,3.952,326.626,8.828,326.626z"/>
	<path style="fill:#802F34;" d="M353.103,414.897h-35.31c-9.739-0.029-17.627-7.916-17.655-17.655
		c0.07-9.722,7.934-17.585,17.655-17.655h35.31c-9.722,0.07-17.585,7.934-17.655,17.655
		C335.477,406.98,343.365,414.868,353.103,414.897z"/>
</g>
<g>
</g>
<g>
</g>
<g>
</g>
<g>
</g>
<g>
</g>
<g>
</g>
<g>
</g>
<g>
</g>
<g>
</g>
<g>
</g>
<g>
</g>
<g>
</g>
<g>
</g>
<g>
</g>
<g>
</g>
</svg>
