<?xml version="1.0" encoding="iso-8859-1"?>
<!-- Generator: Adobe Illustrator 19.0.0, SVG Export Plug-In . SVG Version: 6.00 Build 0)  -->
<svg version="1.1" id="Capa_1" xmlns="http://www.w3.org/2000/svg" xmlns:xlink="http://www.w3.org/1999/xlink" x="0px" y="0px"
	 viewBox="0 0 504.037 504.037" style="enable-background:new 0 0 504.037 504.037;" xml:space="preserve">
<g transform="translate(0 -1)">
	<g>
		<path style="fill:#BDC3C7;" d="M199.081,297.681l24.305-24.305l58.634,58.634c3.223,3.223,5.033,7.594,5.033,12.152
			c0,4.558-1.811,8.929-5.033,12.152l-0.002,0.002c-3.223,3.223-7.594,5.033-12.151,5.033s-8.929-1.811-12.151-5.033
			L199.081,297.681z"/>
		<path style="fill:#BDC3C7;" d="M354.874,283.4l-0.002,0.002c-6.711,6.711-17.592,6.711-24.303,0l-58.634-58.634l24.305-24.305
			l58.634,58.634C361.585,265.808,361.585,276.689,354.874,283.4z"/>
		<path style="fill:#BDC3C7;" d="M209.176,368.524l12.027,12.027c3.375,3.395,3.375,8.878,0,12.272L111.855,502.171
			c-3.372,3.314-8.778,3.314-12.15,0l-12.15-12.15c-3.344-3.359-3.344-8.79,0-12.15l109.348-109.348
			C200.298,365.149,205.781,365.149,209.176,368.524z"/>
		<path style="fill:#BDC3C7;" d="M489.48,88.22l12.027,12.027c3.375,3.395,3.375,8.878,0,12.272L392.159,221.867
			c-3.372,3.314-8.778,3.314-12.15,0l-12.15-12.15c-3.344-3.359-3.344-8.79,0-12.15L477.207,88.22
			C480.602,84.846,486.085,84.846,489.48,88.22z"/>
	</g>
	<polygon style="fill:#95A5A5;" points="32.911,289.487 13.385,309.099 13.298,309.013 	"/>
	<path style="fill:#802F34;" d="M99.785,392.689l12.033-12.033c3.389-3.389,8.884-3.389,12.273,0l85.024,85.024
		c3.389,3.389,3.389,8.884,0,12.273l-12.033,12.033c-3.389,3.389-8.884,3.389-12.273,0l-85.024-85.024
		C96.396,401.573,96.396,396.078,99.785,392.689z"/>
	<path style="fill:#CC4B4C;" d="M87.621,429.142l12.033-12.033c3.389-3.389,8.884-3.389,12.273,0l60.725,60.725
		c3.389,3.389,3.389,8.884,0,12.273l-12.033,12.033c-3.389,3.389-8.884,3.389-12.273,0l-60.725-60.725
		C84.232,438.025,84.232,432.531,87.621,429.142z"/>
	<path style="fill:#802F34;" d="M488.578,198.477l-12.033,12.033c-3.389,3.389-8.884,3.389-12.273,0l-85.024-85.024
		c-3.389-3.389-3.389-8.884,0-12.273l12.033-12.033c3.389-3.389,8.884-3.389,12.273,0l85.024,85.024
		C491.967,189.593,491.967,195.088,488.578,198.477z"/>
	<path style="fill:#CC4B4C;" d="M500.726,162.022l-12.033,12.033c-3.389,3.389-8.884,3.389-12.273,0l-60.725-60.725
		c-3.389-3.389-3.389-8.884,0-12.273l12.033-12.033c3.389-3.389,8.884-3.389,12.273,0l60.725,60.725
		C504.115,153.138,504.115,158.633,500.726,162.022z"/>
	<g>
		<path style="fill:#7F8C8D;" d="M123.563,234.333l36.457-36.457l67.236,67.236c3.389,3.389,3.389,8.884,0,12.273l-24.184,24.184
			c-3.389,3.389-8.884,3.389-12.273,0L123.563,234.333z"/>
		<path style="fill:#7F8C8D;" d="M300.163,204.471l-24.184,24.184c-3.389,3.389-8.884,3.389-12.273,0L196.47,161.42l36.457-36.457
			l67.236,67.236C303.552,195.587,303.552,201.082,300.163,204.471z"/>
	</g>
	<g>
		<path style="fill:#95A5A5;" d="M342.8,28.194l-10.847,10.847L184.775,186.219L26.836,344.158
			c-1.604,1.624-3.792,2.538-6.075,2.538s-4.47-0.914-6.075-2.538L2.538,332.009C0.914,330.405,0,328.217,0,325.935
			c0-2.283,0.914-4.47,2.538-6.075l10.847-10.761l19.525-19.612l127.566-127.653L288.043,34.268l19.612-19.525l10.761-10.847
			c1.604-1.624,3.792-2.538,6.075-2.538c2.283,0,4.471,0.914,6.075,2.538L342.8,16.044C346.099,19.422,346.099,24.816,342.8,28.194z
			"/>
		<path style="fill:#95A5A5;" d="M331.953,39.041l-19.612,19.525"/>
	</g>
	<g>
		<path style="fill:#7F8C8D;" d="M26.854,271.181l12.033-12.033c3.389-3.389,8.884-3.389,12.273,0l157.862,157.862
			c3.389,3.389,3.389,8.884,0,12.273l-12.033,12.033c-3.389,3.389-8.884,3.389-12.273,0L26.854,283.453
			C23.465,280.064,23.465,274.57,26.854,271.181z"/>
		<path style="fill:#7F8C8D;" d="M439.966,198.363l-12.033,12.033c-3.389,3.389-8.884,3.389-12.273,0L257.798,52.535
			c-3.389-3.389-3.389-8.884,0-12.273l12.033-12.033c3.389-3.389,8.884-3.389,12.273,0l157.862,157.862
			C443.355,189.48,443.355,194.975,439.966,198.363z"/>
	</g>
</g>
<g>
</g>
<g>
</g>
<g>
</g>
<g>
</g>
<g>
</g>
<g>
</g>
<g>
</g>
<g>
</g>
<g>
</g>
<g>
</g>
<g>
</g>
<g>
</g>
<g>
</g>
<g>
</g>
<g>
</g>
</svg>
