<?xml version="1.0" encoding="iso-8859-1"?>
<!-- Generator: Adobe Illustrator 19.0.0, SVG Export Plug-In . SVG Version: 6.00 Build 0)  -->
<svg version="1.1" id="Capa_1" xmlns="http://www.w3.org/2000/svg" xmlns:xlink="http://www.w3.org/1999/xlink" x="0px" y="0px"
	 viewBox="0 0 512 512" style="enable-background:new 0 0 512 512;" xml:space="preserve">
<g>
	<path style="fill:#4482C3;" d="M425.224,255.952c0.009,87.994-54.182,166.903-136.312,198.487s-175.23,9.317-234.181-56.01
		c-6.444-7.133-12.373-14.714-17.743-22.687c-11.064-16.082-19.802-33.645-25.953-52.171c-2.225-6.511-4.082-13.142-5.561-19.862
		c-3.027-13.012-4.801-26.285-5.297-39.636C0.088,261.425,0,258.688,0,255.952c0-3.178,0.088-6.356,0.265-9.534
		c0.54-13.45,2.402-26.815,5.56-39.901c1.551-6.691,3.467-13.292,5.739-19.774c6.372-18.664,15.379-36.321,26.748-52.436v-0.088
		c5.546-7.985,11.652-15.567,18.272-22.687c40.28-43.496,96.892-68.199,156.174-68.149s115.852,24.849,156.059,68.414
		c6.647,7.128,12.755,14.741,18.273,22.775c11.307,16.139,20.282,33.791,26.659,52.436c2.284,6.508,4.2,13.139,5.738,19.862
		C423.331,222.947,425.257,239.422,425.224,255.952z"/>
	<g>
		<path style="fill:#285680;" d="M387.09,134.572c-57.165-14.509-115.992-21.424-174.963-20.568
			c-58.568-0.805-116.994,5.99-173.814,20.215c5.546-7.985,11.652-15.567,18.272-22.687c51.167-10.53,103.305-15.62,155.543-15.183
			c52.632-0.459,105.161,4.72,156.69,15.448C375.464,118.926,381.572,126.538,387.09,134.572z"/>
		<path style="fill:#285680;" d="M419.487,206.87c-46.875-13.771-124.646-22.246-207.36-22.246
			c-82.097,0-159.338,8.298-206.302,21.892c1.551-6.691,3.467-13.292,5.739-19.774c49.169-12.535,121.732-19.774,200.563-19.774
			c79.448,0,152.452,7.327,201.622,20.039C416.033,193.516,417.949,200.147,419.487,206.87z"/>
		<path style="fill:#285680;" d="M293.782,401.342c0.223,2.33-0.489,4.652-1.979,6.457c-1.49,1.805-3.636,2.943-5.966,3.165
			c-23.217,2.119-48.023,3.178-73.71,3.178c-52.877,0.412-105.644-4.856-157.396-15.713c-6.444-7.133-12.373-14.714-17.743-22.687
			c57.211,14.601,116.101,21.576,175.139,20.745c25.159,0,49.346-1.059,72.121-3.178
			C289.099,392.895,293.367,396.491,293.782,401.342z"/>
		<path style="fill:#285680;" d="M278.334,332.84c0.13,2.33-0.671,4.616-2.227,6.354c-1.556,1.739-3.74,2.787-6.07,2.915
			c-17.92,0.971-37.342,1.412-57.909,1.412c-79.095,0-151.834-7.327-201.092-19.95c-2.225-6.511-4.082-13.142-5.561-19.862
			c47.051,13.771,124.469,22.157,206.654,22.157c20.215,0,39.371-0.441,56.938-1.412
			C273.926,324.251,278.051,327.983,278.334,332.84z"/>
		<path style="fill:#285680;" d="M317.881,255.245c-0.014,4.869-3.958,8.813-8.828,8.828H0.177C0.088,261.425,0,258.688,0,255.952
			c0-3.178,0.088-6.356,0.265-9.534h308.789C313.923,246.432,317.867,250.376,317.881,255.245z"/>
	</g>
	<path style="fill:#E57E25;" d="M512,343.521c0,3.001-0.088,5.914-0.353,8.828c-0.356,5.668-1.123,11.303-2.295,16.861
		c-1.379,6.514-3.329,12.895-5.826,19.068c-3.075,8.212-7.105,16.034-12.006,23.305c-5.277,8.094-11.533,15.507-18.625,22.069
		c-44.156,41.511-111.936,44.768-159.868,7.68c-3.16-2.368-6.167-4.933-9.004-7.68c-7.12-6.56-13.405-13.973-18.713-22.069
		c-2.03-3.001-3.885-6.179-5.651-9.446c-2.402-4.454-4.525-9.053-6.356-13.771c-2.468-6.206-4.388-12.615-5.737-19.156
		c-1.245-5.547-2.042-11.186-2.384-16.861c-0.265-2.913-0.353-5.826-0.353-8.828c0-3.001,0.088-5.914,0.353-8.828
		c0-0.441,0.088-0.971,0.088-1.412c0.405-5.226,1.172-10.417,2.295-15.537c1.332-6.506,3.222-12.886,5.65-19.068
		c3.16-8.19,7.217-16.006,12.095-23.305c4.823-7.288,10.416-14.036,16.683-20.127c0.707-0.706,1.412-1.324,2.119-1.942
		c47.439-44.473,121.257-44.473,168.696,0c13.55,12.616,24.081,28.125,30.808,45.374c2.415,6.156,4.305,12.505,5.649,18.979v0.088
		c1.251,5.576,2.048,11.244,2.383,16.949C511.912,337.607,512,340.52,512,343.521z"/>
	<g>
		<path style="fill:#D25627;" d="M491.519,275.372c-33.784-7.931-68.406-11.725-103.106-11.299
			c-34.699-0.425-69.322,3.369-103.106,11.299c4.823-7.288,10.416-14.036,16.684-20.127c0.707-0.706,1.412-1.324,2.119-1.942
			c27.849-4.728,56.056-7.031,84.303-6.886c28.277-0.146,56.513,2.158,84.392,6.886
			C479.901,259.887,486.184,267.296,491.519,275.372z"/>
		<path style="fill:#D25627;" d="M509.263,317.657c-39.913-6.812-80.363-9.974-120.849-9.446
			c-40.491-0.549-80.945,2.642-120.849,9.534c1.332-6.506,3.222-12.886,5.649-19.068c38.118-5.814,76.644-8.53,115.2-8.121
			c38.556-0.409,77.082,2.307,115.2,8.121C506.029,304.833,507.919,311.182,509.263,317.657z"/>
		<path style="fill:#D25627;" d="M491.519,411.582c-5.277,8.094-11.533,15.507-18.625,22.069
			c-27.901,4.803-56.17,7.136-84.481,6.974c-28.281,0.163-56.521-2.171-84.392-6.974c-7.12-6.56-13.405-13.973-18.713-22.069
			c33.779,7.964,68.402,11.787,103.106,11.388C423.117,423.375,457.741,419.551,491.519,411.582z"/>
		<path style="fill:#D25627;" d="M509.352,369.21c-1.379,6.514-3.329,12.895-5.826,19.068c-38.08,5.893-76.581,8.639-115.112,8.21
			c-38.527,0.409-77.024-2.307-115.112-8.121c-2.468-6.206-4.388-12.615-5.737-19.156c39.894,6.975,80.354,10.197,120.849,9.622
			C428.938,379.406,469.428,376.184,509.352,369.21z"/>
		<path style="fill:#D25627;" d="M512,343.521c0,3.001-0.088,5.914-0.353,8.828H265.181c-0.265-2.913-0.353-5.826-0.353-8.828
			c0-3.001,0.088-5.914,0.353-8.828h246.466C511.912,337.607,512,340.52,512,343.521z"/>
	</g>
</g>
<g>
</g>
<g>
</g>
<g>
</g>
<g>
</g>
<g>
</g>
<g>
</g>
<g>
</g>
<g>
</g>
<g>
</g>
<g>
</g>
<g>
</g>
<g>
</g>
<g>
</g>
<g>
</g>
<g>
</g>
</svg>
