<?xml version="1.0" encoding="iso-8859-1"?>
<!-- Generator: Adobe Illustrator 19.0.0, SVG Export Plug-In . SVG Version: 6.00 Build 0)  -->
<svg version="1.1" id="Capa_1" xmlns="http://www.w3.org/2000/svg" xmlns:xlink="http://www.w3.org/1999/xlink" x="0px" y="0px"
	 viewBox="0 0 512 512" style="enable-background:new 0 0 512 512;" xml:space="preserve">
<g>
	<g>
		<path style="fill:#7F8C8D;" d="M196.052,97.108c-2.85-0.007-5.522-1.386-7.179-3.706c-1.656-2.319-2.094-5.295-1.175-7.993
			l4.241-12.362c3.62-10.328,2.882-21.684-2.043-31.457c-5.28-10.453-14.58-18.312-25.767-21.776
			c-9.137-2.862-18.931-2.862-28.069,0c-17.667,5.286-29.864,21.423-30.13,39.862c0.001,4.532,0.776,9.031,2.293,13.302l4.259,12.44
			c1.578,4.613-0.882,9.633-5.496,11.211c-4.613,1.578-9.633-0.882-11.211-5.496l-4.233-12.362
			c-2.162-6.134-3.267-12.591-3.267-19.095C88.519,33.554,105.682,10.61,130.672,3c12.646-3.977,26.208-3.976,38.853,0.004
			c15.719,4.902,28.772,15.981,36.164,30.694c7.058,14.011,8.123,30.288,2.948,45.099l-4.233,12.345
			C203.177,94.708,199.823,97.103,196.052,97.108z"/>
		<path style="fill:#7F8C8D;" d="M407.914,97.108c-2.85-0.007-5.522-1.386-7.179-3.706c-1.656-2.319-2.094-5.295-1.175-7.993
			l4.241-12.362c3.615-10.327,2.878-21.68-2.043-31.453c-5.287-10.455-14.592-18.316-25.785-21.78
			c-9.143-2.862-18.943-2.862-28.086,0c-17.672,5.282-29.873,21.42-30.138,39.862c0.001,4.532,0.776,9.031,2.293,13.302
			l4.267,12.431c1.583,4.613-0.874,9.637-5.487,11.22c-4.613,1.583-9.637-0.874-11.22-5.487l-4.241-12.362
			c-2.161-6.137-3.266-12.597-3.267-19.104C300.339,33.552,317.506,10.607,342.5,3c12.652-3.977,26.22-3.976,38.871,0.004
			c15.724,4.902,28.782,15.98,36.181,30.694c7.058,14.011,8.123,30.288,2.948,45.099l-4.233,12.345
			C415.039,94.708,411.685,97.103,407.914,97.108z"/>
		<path style="fill:#7F8C8D;" d="M196.052,361.935c-2.85-0.007-5.522-1.386-7.179-3.706c-1.656-2.319-2.094-5.295-1.175-7.993
			l4.241-12.362c3.615-10.327,2.878-21.68-2.043-31.453c-5.287-10.455-14.592-18.316-25.785-21.78
			c-9.143-2.862-18.943-2.862-28.086,0c-17.672,5.282-29.873,21.419-30.138,39.862c0.001,4.532,0.776,9.031,2.293,13.302
			l4.267,12.431c1.583,4.613-0.874,9.637-5.487,11.22c-4.613,1.583-9.637-0.874-11.22-5.487L91.5,343.608
			c-2.161-6.137-3.266-12.597-3.267-19.104c0.244-26.125,17.411-49.07,42.405-56.677c12.652-3.977,26.22-3.975,38.871,0.004
			c15.724,4.901,28.782,15.979,36.181,30.694c7.058,14.011,8.123,30.288,2.948,45.099l-4.233,12.345
			C203.178,359.536,199.824,361.931,196.052,361.935z"/>
		<path style="fill:#7F8C8D;" d="M407.914,361.935c-2.85-0.007-5.522-1.386-7.179-3.706c-1.656-2.319-2.094-5.295-1.175-7.993
			l4.241-12.362c3.615-10.327,2.878-21.68-2.043-31.453c-5.287-10.455-14.592-18.316-25.785-21.78
			c-9.143-2.862-18.943-2.862-28.086,0c-17.672,5.282-29.873,21.419-30.138,39.862c0.001,4.532,0.776,9.031,2.293,13.302
			l4.267,12.431c1.583,4.613-0.874,9.637-5.487,11.22c-4.613,1.583-9.637-0.874-11.22-5.487l-4.241-12.362
			c-2.161-6.137-3.266-12.597-3.267-19.104c0.244-26.125,17.411-49.07,42.405-56.677c12.652-3.977,26.22-3.975,38.871,0.004
			c15.724,4.901,28.782,15.979,36.181,30.694c7.058,14.011,8.123,30.288,2.948,45.099l-4.233,12.345
			C415.04,359.536,411.686,361.931,407.914,361.935z"/>
		<rect x="26.483" y="185.379" style="fill:#7F8C8D;" width="459.034" height="35.31"/>
		<rect x="26.483" y="450.207" style="fill:#7F8C8D;" width="459.034" height="35.31"/>
	</g>
	<g>
		<path style="fill:#95A5A5;" d="M8.828,0h17.655c4.875,0,8.828,3.952,8.828,8.828v494.345c0,4.875-3.952,8.828-8.828,8.828H8.828
			C3.952,512,0,508.048,0,503.172V8.828C0,3.952,3.952,0,8.828,0z"/>
		<path style="fill:#95A5A5;" d="M485.517,0h17.655C508.048,0,512,3.952,512,8.828v494.345c0,4.875-3.952,8.828-8.828,8.828h-17.655
			c-4.875,0-8.828-3.952-8.828-8.828V8.828C476.69,3.952,480.642,0,485.517,0z"/>
	</g>
	<circle style="fill:#E57E25;" cx="150.069" cy="123.586" r="61.793"/>
	<circle style="fill:#E6E7E8;" cx="150.069" cy="123.586" r="26.483"/>
	<circle style="fill:#4482C3;" cx="361.931" cy="123.586" r="61.793"/>
	<circle style="fill:#E6E7E8;" cx="361.931" cy="123.586" r="26.483"/>
	<circle style="fill:#D75E72;" cx="150.069" cy="388.414" r="61.793"/>
	<circle style="fill:#E6E7E8;" cx="150.069" cy="388.414" r="26.483"/>
	<circle style="fill:#F0C419;" cx="361.931" cy="388.414" r="61.793"/>
	<circle style="fill:#E6E7E8;" cx="361.931" cy="388.414" r="26.483"/>
</g>
<g>
</g>
<g>
</g>
<g>
</g>
<g>
</g>
<g>
</g>
<g>
</g>
<g>
</g>
<g>
</g>
<g>
</g>
<g>
</g>
<g>
</g>
<g>
</g>
<g>
</g>
<g>
</g>
<g>
</g>
</svg>
