<?xml version="1.0" encoding="iso-8859-1"?>
<!-- Generator: Adobe Illustrator 19.0.0, SVG Export Plug-In . SVG Version: 6.00 Build 0)  -->
<svg version="1.1" id="Capa_1" xmlns="http://www.w3.org/2000/svg" xmlns:xlink="http://www.w3.org/1999/xlink" x="0px" y="0px"
	 viewBox="0 0 512 512" style="enable-background:new 0 0 512 512;" xml:space="preserve">
<g>
	<path style="fill:#E64C3C;" d="M373.492,203.741c-4.913-4.192-9.516-8.736-13.771-13.594
		c-39.381-46.682-65.237-103.25-74.77-163.575C282.677,12.045,270.664,1.02,255.996,0h-1.324
		c-6.491,0.326-12.694,2.776-17.655,6.974c-5.298,4.491-8.755,10.776-9.71,17.655c-9.227,61.049-35.201,118.344-75.034,165.517
		c-4.255,4.859-8.858,9.402-13.771,13.594c-37.477,33.277-58.963,80.971-59.057,131.09c0.255,93.841,73.432,171.309,167.106,176.905
		c3.178,0.177,6.356,0.265,9.446,0.265c73.244,0.02,138.89-45.198,164.977-113.64C447.06,329.919,428.167,252.478,373.492,203.741z"
		/>
	<path style="fill:#2C3E50;" d="M255.996,512c-61.793,0-150.422-137.799-79.448-256c47.128-77.374,74.419-165.19,79.448-255.647
		c5.029,90.457,32.32,178.273,79.448,255.647C406.418,374.201,317.789,512,255.996,512z"/>
	<g>
		<path style="fill:#E6E7E8;" d="M279.893,417.483c-1.655-1.656-3.9-2.586-6.241-2.586s-4.586,0.93-6.241,2.586l-11.414,11.414
			l-11.414-11.414c-3.453-3.41-9.012-3.392-12.443,0.039c-3.432,3.432-3.449,8.99-0.039,12.443l11.414,11.414L232.1,452.793
			c-2.253,2.225-3.142,5.487-2.328,8.547s3.204,5.451,6.264,6.264c3.061,0.813,6.322-0.076,8.547-2.329l11.414-11.414l11.414,11.414
			c3.453,3.41,9.012,3.392,12.443-0.039s3.449-8.99,0.039-12.443l-11.414-11.414l11.414-11.414c1.656-1.655,2.586-3.9,2.586-6.241
			C282.479,421.383,281.548,419.138,279.893,417.483z"/>
		<path style="fill:#E6E7E8;" d="M279.893,346.862c-1.655-1.656-3.9-2.586-6.241-2.586s-4.586,0.93-6.241,2.586l-11.414,11.414
			l-11.414-11.414c-3.453-3.41-9.012-3.392-12.443,0.039c-3.432,3.432-3.449,8.99-0.039,12.443l11.414,11.414L232.1,382.173
			c-2.253,2.225-3.142,5.487-2.328,8.547c0.813,3.06,3.204,5.451,6.264,6.264c3.061,0.813,6.322-0.076,8.547-2.329l11.414-11.414
			l11.414,11.414c3.453,3.41,9.012,3.392,12.443-0.039c3.432-3.432,3.449-8.99,0.039-12.443l-11.414-11.414l11.414-11.414
			c1.656-1.655,2.586-3.9,2.586-6.241C282.479,350.762,281.548,348.517,279.893,346.862z"/>
		<path style="fill:#E6E7E8;" d="M279.893,276.242c-1.655-1.656-3.9-2.586-6.241-2.586s-4.586,0.93-6.241,2.586l-11.414,11.414
			l-11.414-11.414c-3.453-3.41-9.012-3.392-12.443,0.039s-3.449,8.99-0.039,12.443l11.414,11.414L232.1,311.552
			c-2.253,2.225-3.142,5.487-2.328,8.547c0.813,3.06,3.204,5.451,6.264,6.264c3.061,0.813,6.322-0.076,8.547-2.329l11.414-11.414
			l11.414,11.414c3.453,3.41,9.012,3.392,12.443-0.039c3.432-3.432,3.449-8.99,0.039-12.443l-11.414-11.414l11.414-11.414
			c1.656-1.655,2.586-3.9,2.586-6.241C282.479,280.142,281.548,277.897,279.893,276.242z"/>
		<path style="fill:#E6E7E8;" d="M268.479,229.517l11.414-11.414c3.41-3.453,3.392-9.012-0.039-12.443s-8.99-3.449-12.443-0.039
			l-11.414,11.414l-11.414-11.414c-3.453-3.41-9.012-3.392-12.443,0.039s-3.449,8.99-0.039,12.443l11.414,11.414L232.1,240.931
			c-2.253,2.225-3.142,5.487-2.328,8.547c0.813,3.06,3.204,5.451,6.264,6.264c3.061,0.813,6.322-0.076,8.547-2.329L255.996,242
			l11.414,11.414c3.453,3.41,9.012,3.392,12.443-0.039s3.449-8.99,0.039-12.443L268.479,229.517z"/>
	</g>
</g>
<g>
</g>
<g>
</g>
<g>
</g>
<g>
</g>
<g>
</g>
<g>
</g>
<g>
</g>
<g>
</g>
<g>
</g>
<g>
</g>
<g>
</g>
<g>
</g>
<g>
</g>
<g>
</g>
<g>
</g>
</svg>
