<?xml version="1.0" encoding="iso-8859-1"?>
<!-- Generator: Adobe Illustrator 19.0.0, SVG Export Plug-In . SVG Version: 6.00 Build 0)  -->
<svg version="1.1" id="Capa_1" xmlns="http://www.w3.org/2000/svg" xmlns:xlink="http://www.w3.org/1999/xlink" x="0px" y="0px"
	 viewBox="0 0 512 512" style="enable-background:new 0 0 512 512;" xml:space="preserve">
<g>
	<rect x="220.69" y="61.793" style="fill:#35495E;" width="70.621" height="282.483"/>
	<path style="fill:#BDC3C7;" d="M291.31,79.448l60.861-30.431c5.981-2.991,9.76-9.104,9.76-15.791V17.655
		C361.931,7.904,354.027,0,344.276,0H167.724c-9.751,0-17.655,7.904-17.655,17.655v15.571c0,6.687,3.778,12.801,9.76,15.791
		l60.861,30.431H291.31z"/>
	<g>
		<path style="fill:#35495E;" d="M123.586,476.69h51.31v26.483c0,4.875-3.952,8.828-8.828,8.828h-33.655
			c-4.875,0-8.828-3.952-8.828-8.828V476.69z"/>
		<path style="fill:#35495E;" d="M337.103,476.69h51.311v26.483c0,4.875-3.952,8.828-8.828,8.828h-33.655
			c-4.875,0-8.828-3.952-8.828-8.828V476.69z"/>
	</g>
	<path style="fill:#7F8C8D;" d="M388.414,445.087v31.603H123.586v-31.603c0.009-4.223,0.513-8.43,1.501-12.535h261.826
		C387.901,436.657,388.404,440.864,388.414,445.087z"/>
	<path style="fill:#95A5A5;" d="M386.913,432.552H125.087c0.956-3.869,2.318-7.627,4.061-11.211l42.549-84.921
		c2.981-6,9.102-9.795,15.801-9.799h137.004c6.7,0.003,12.82,3.799,15.801,9.799l42.549,84.921
		C384.596,424.925,385.957,428.683,386.913,432.552z"/>
	<polygon style="fill:#35495E;" points="180.718,397.241 198.409,361.931 313.582,361.931 331.282,397.241 	"/>
	<path style="fill:#41767F;" d="M238.345,44.138h-35.31c-4.875,0-8.828-3.952-8.828-8.828s3.952-8.828,8.828-8.828h35.31
		c4.875,0,8.828,3.952,8.828,8.828S243.22,44.138,238.345,44.138z"/>
	<path style="fill:#CC4B4C;" d="M273.655,44.138c-1.153-0.014-2.293-0.254-3.353-0.707c-1.08-0.427-2.069-1.056-2.914-1.853
		c-0.816-0.83-1.448-1.823-1.854-2.914c-0.452-1.061-0.692-2.2-0.706-3.354c-0.081-3.595,2.112-6.85,5.474-8.125
		c3.288-1.374,7.081-0.642,9.621,1.857c1.611,1.693,2.525,3.931,2.56,6.268c-0.014,1.153-0.254,2.293-0.707,3.353
		c-0.427,1.08-1.056,2.069-1.854,2.914C278.229,43.188,275.991,44.101,273.655,44.138z"/>
	<path style="fill:#4C8056;" d="M308.966,44.138c-2.337-0.035-4.575-0.949-6.268-2.56c-0.779-0.859-1.406-1.844-1.854-2.914
		c-0.497-1.047-0.739-2.196-0.706-3.354c0.031-2.338,0.945-4.577,2.56-6.268c2.083-2.07,5.061-2.964,7.94-2.383
		c0.586,0.081,1.154,0.259,1.681,0.526c0.562,0.194,1.095,0.462,1.586,0.797c0.44,0.353,0.888,0.707,1.328,1.06
		c1.626,1.684,2.542,3.927,2.561,6.267c-0.014,1.153-0.254,2.293-0.707,3.353c-0.427,1.08-1.056,2.069-1.854,2.914
		c-0.42,0.379-0.863,0.732-1.328,1.056c-0.491,0.335-1.024,0.603-1.586,0.797c-0.528,0.266-1.096,0.445-1.681,0.53
		C310.086,44.063,309.527,44.122,308.966,44.138z"/>
	<g>
		<path style="fill:#5E5F62;" d="M388.414,147.421V476.69h-17.655V147.421c-0.057-32.641-26.504-59.087-59.145-59.145H291.31v-8.828
			l17.655-8.828h2.648C354.001,70.69,388.345,105.034,388.414,147.421z"/>
		<path style="fill:#5E5F62;" d="M123.586,147.421V476.69h17.655V147.421c0.057-32.641,26.504-59.087,59.145-59.145h20.303v-8.828
			l-17.655-8.828h-2.648C157.999,70.69,123.655,105.034,123.586,147.421z"/>
	</g>
</g>
<g>
</g>
<g>
</g>
<g>
</g>
<g>
</g>
<g>
</g>
<g>
</g>
<g>
</g>
<g>
</g>
<g>
</g>
<g>
</g>
<g>
</g>
<g>
</g>
<g>
</g>
<g>
</g>
<g>
</g>
</svg>
