<?xml version="1.0" encoding="iso-8859-1"?>
<!-- Generator: Adobe Illustrator 19.0.0, SVG Export Plug-In . SVG Version: 6.00 Build 0)  -->
<svg version="1.1" id="Capa_1" xmlns="http://www.w3.org/2000/svg" xmlns:xlink="http://www.w3.org/1999/xlink" x="0px" y="0px"
	 viewBox="0 0 512 512" style="enable-background:new 0 0 512 512;" xml:space="preserve">
<g>
	<g>
		<path style="fill:#2980BA;" d="M256,247.172c-24.734-0.401-47.933-12.064-63.009-31.677
			c-16.706-21.112-25.629-47.335-25.267-74.254c-0.362-26.92,8.561-53.142,25.267-74.254C207.803,47.058,231.169,35.31,256,35.31
			s48.197,11.747,63.009,31.677c16.706,21.112,25.629,47.335,25.267,74.254c0.362,26.92-8.561,53.142-25.267,74.254
			C303.933,235.108,280.734,246.771,256,247.172z M256,52.966c-19.428,0.449-37.592,9.726-49.345,25.203
			c-14.126,17.956-21.64,40.229-21.276,63.073c-0.364,22.844,7.149,45.117,21.276,63.073c11.753,15.476,29.917,24.754,49.345,25.203
			c19.428-0.449,37.592-9.726,49.345-25.203c14.126-17.956,21.639-40.229,21.276-63.073c0.364-22.844-7.149-45.117-21.276-63.073
			C293.592,62.692,275.428,53.415,256,52.966z"/>
		<path style="fill:#2980BA;" d="M256,247.172c-11.06,0-21.224-9.323-29.388-26.966c-10.296-25.027-15.318-51.909-14.75-78.965
			c-0.565-27.058,4.454-53.943,14.746-78.974C234.784,44.629,244.948,35.31,256,35.31c11.06,0,21.224,9.323,29.388,26.966
			c10.296,25.027,15.318,51.909,14.75,78.965c0.565,27.058-4.454,53.943-14.746,78.974C277.216,237.853,267.052,247.172,256,247.172
			z M256,52.966c-2.259,0-7.685,4.453-13.371,16.719c-9.224,22.703-13.687,47.058-13.112,71.556
			c-0.577,24.497,3.888,48.852,13.116,71.552c5.681,12.272,11.103,16.724,13.366,16.724c2.259,0,7.685-4.453,13.371-16.719
			c9.224-22.703,13.687-47.058,13.112-71.556c0.577-24.497-3.888-48.852-13.116-71.552C263.685,57.418,258.263,52.966,256,52.966z"
			/>
		<path style="fill:#2980BA;" d="M256,441.379c-24.734-0.401-47.933-12.064-63.009-31.677c-33.69-43.771-33.69-104.738,0-148.509
			c14.811-19.93,38.178-31.677,63.009-31.677s48.197,11.747,63.009,31.677c33.69,43.771,33.69,104.738,0,148.509
			C303.933,429.315,280.734,440.978,256,441.379z M256,247.172c-19.428,0.449-37.592,9.726-49.345,25.203
			c-28.368,37.264-28.368,88.882,0,126.146c11.753,15.476,29.917,24.754,49.345,25.203c19.428-0.449,37.592-9.726,49.345-25.203
			c28.368-37.264,28.368-88.882,0-126.146C293.592,256.899,275.428,247.621,256,247.172z"/>
		<path style="fill:#2980BA;" d="M256,441.379c-11.06,0-21.224-9.323-29.388-26.966c-10.296-25.027-15.318-51.909-14.75-78.965
			c-0.565-27.058,4.454-53.943,14.746-78.974c8.177-17.638,18.341-26.957,29.392-26.957c11.06,0,21.224,9.323,29.388,26.966
			c10.296,25.027,15.318,51.909,14.75,78.965c0.565,27.058-4.454,53.943-14.746,78.974C277.216,432.06,267.052,441.379,256,441.379z
			 M256,247.172c-2.259,0-7.685,4.453-13.371,16.719c-9.224,22.703-13.687,47.058-13.112,71.556
			c-0.577,24.497,3.888,48.852,13.116,71.552c5.681,12.272,11.103,16.724,13.366,16.724c2.259,0,7.685-4.453,13.371-16.719
			c9.224-22.703,13.687-47.058,13.112-71.556c0.577-24.497-3.888-48.852-13.116-71.552C263.685,251.625,258.263,247.172,256,247.172
			z"/>
		<path style="fill:#2980BA;" d="M254.749,52.966c-0.481,0-0.962-0.03-1.439-0.09c-64.985-8.312-129.469-20.166-193.162-35.509
			c-2.417-0.452-4.531-1.906-5.817-4.002c-1.286-2.096-1.626-4.638-0.935-6.998c2.076-4.885,7.493-7.428,12.577-5.905
			c62.713,15.092,126.202,26.756,190.185,34.94c2.481,0.132,4.8,1.274,6.418,3.16c1.618,1.886,2.394,4.351,2.148,6.823
			C263.676,49.994,259.472,53.189,254.749,52.966z"/>
		<path style="fill:#2980BA;" d="M257.333,52.966c-4.722,0.223-8.924-2.972-9.971-7.582c-0.246-2.472,0.529-4.937,2.146-6.822
			s3.935-3.027,6.416-3.16c63.956-8.184,127.417-19.848,190.103-34.94c5.084-1.534,10.507,1.013,12.572,5.905
			c0.695,2.358,0.358,4.901-0.926,6.997c-1.284,2.096-3.396,3.551-5.813,4.003c-63.668,15.342-128.127,27.196-193.088,35.509
			C258.295,52.935,257.814,52.965,257.333,52.966z"/>
	</g>
	<path style="fill:#5E5F62;" d="M17.655,44.138C17.655,19.761,37.416,0,61.793,0s44.138,19.761,44.138,44.138v8.828H17.655V44.138z"
		/>
	<path style="fill:#4C8056;" d="M105.931,441.379v-17.655H17.655v17.655C7.904,441.379,0,449.284,0,459.034v35.31
		C0,504.095,7.904,512,17.655,512h88.276c9.751,0,17.655-7.905,17.655-17.655v-35.31
		C123.586,449.284,115.682,441.379,105.931,441.379z"/>
	<path style="fill:#71C285;" d="M105.931,370.759v-17.655H17.655v17.655C7.904,370.759,0,378.663,0,388.414v35.31
		c0,9.751,7.904,17.655,17.655,17.655h88.276c9.751,0,17.655-7.904,17.655-17.655v-35.31
		C123.586,378.663,115.682,370.759,105.931,370.759z"/>
	<path style="fill:#4C8056;" d="M105.931,300.138v-17.655H17.655v17.655C7.904,300.138,0,308.042,0,317.793v35.31
		c0,9.751,7.904,17.655,17.655,17.655h88.276c9.751,0,17.655-7.904,17.655-17.655v-35.31
		C123.586,308.042,115.682,300.138,105.931,300.138z"/>
	<path style="fill:#71C285;" d="M105.931,229.517v-17.655H17.655v17.655C7.904,229.517,0,237.422,0,247.172v35.31
		c0,9.751,7.904,17.655,17.655,17.655h88.276c9.751,0,17.655-7.905,17.655-17.655v-35.31
		C123.586,237.422,115.682,229.517,105.931,229.517z"/>
	<path style="fill:#67B9CC;" d="M17.655,44.138h88.276c9.751,0,17.655,7.904,17.655,17.655v150.069
		c0,9.751-7.904,17.655-17.655,17.655H17.655C7.904,229.517,0,221.613,0,211.862V61.793C0,52.042,7.904,44.138,17.655,44.138z"/>
	<path style="fill:#5E5F62;" d="M406.069,44.138C406.069,19.761,425.83,0,450.207,0c24.377,0,44.138,19.761,44.138,44.138v8.828
		h-88.276V44.138z"/>
	<path style="fill:#4C8056;" d="M494.345,441.379v-17.655h-88.276v17.655c-9.751,0-17.655,7.905-17.655,17.655v35.31
		c0,9.751,7.905,17.655,17.655,17.655h88.276c9.751,0,17.655-7.905,17.655-17.655v-35.31
		C512,449.284,504.095,441.379,494.345,441.379z"/>
	<path style="fill:#71C285;" d="M494.345,370.759v-17.655h-88.276v17.655c-9.751,0-17.655,7.905-17.655,17.655v35.31
		c0,9.751,7.905,17.655,17.655,17.655h88.276c9.751,0,17.655-7.904,17.655-17.655v-35.31
		C512,378.663,504.095,370.759,494.345,370.759z"/>
	<path style="fill:#4C8056;" d="M494.345,300.138v-17.655h-88.276v17.655c-9.751,0-17.655,7.904-17.655,17.655v35.31
		c0,9.751,7.905,17.655,17.655,17.655h88.276c9.751,0,17.655-7.904,17.655-17.655v-35.31
		C512,308.042,504.095,300.138,494.345,300.138z"/>
	<path style="fill:#71C285;" d="M494.345,229.517v-17.655h-88.276v17.655c-9.751,0-17.655,7.904-17.655,17.655v35.31
		c0,9.751,7.905,17.655,17.655,17.655h88.276c9.751,0,17.655-7.905,17.655-17.655v-35.31
		C512,237.422,504.095,229.517,494.345,229.517z"/>
	<path style="fill:#67B9CC;" d="M406.069,44.138h88.276c9.751,0,17.655,7.904,17.655,17.655v150.069
		c0,9.751-7.905,17.655-17.655,17.655h-88.276c-9.751,0-17.655-7.904-17.655-17.655V61.793
		C388.414,52.042,396.318,44.138,406.069,44.138z"/>
</g>
<g>
</g>
<g>
</g>
<g>
</g>
<g>
</g>
<g>
</g>
<g>
</g>
<g>
</g>
<g>
</g>
<g>
</g>
<g>
</g>
<g>
</g>
<g>
</g>
<g>
</g>
<g>
</g>
<g>
</g>
</svg>
