<?xml version="1.0" encoding="iso-8859-1"?>
<!-- Generator: Adobe Illustrator 19.0.0, SVG Export Plug-In . SVG Version: 6.00 Build 0)  -->
<svg version="1.1" id="Capa_1" xmlns="http://www.w3.org/2000/svg" xmlns:xlink="http://www.w3.org/1999/xlink" x="0px" y="0px"
	 viewBox="0 0 512 512" style="enable-background:new 0 0 512 512;" xml:space="preserve">
<g>
	<polygon style="fill:#7F8C8D;" points="279.543,44.138 326.621,44.138 326.621,79.448 279.543,79.448 232.457,79.448 
		185.379,79.448 185.379,44.138 232.457,44.138 	"/>
	<path style="fill:#3F5C6C;" d="M414.897,238.345c-0.022,14.617-11.866,26.461-26.483,26.483H123.586
		c-14.626,0-26.483-11.857-26.483-26.483c0-14.626,11.857-26.483,26.483-26.483h264.828c7.027-0.009,13.768,2.778,18.737,7.746
		C412.119,224.577,414.906,231.318,414.897,238.345z"/>
	<rect x="238.345" y="158.897" style="fill:#95A5A5;" width="35.31" height="167.724"/>
	<g>
		<path style="fill:#3F5C6C;" d="M114.759,0h70.621c9.751,0,17.655,7.904,17.655,17.655v123.586c0,9.751-7.904,17.655-17.655,17.655
			h-70.621c-9.751,0-17.655-7.904-17.655-17.655V17.655C97.103,7.904,105.008,0,114.759,0z"/>
		<path style="fill:#3F5C6C;" d="M326.621,0h70.621c9.751,0,17.655,7.904,17.655,17.655v123.586c0,9.751-7.904,17.655-17.655,17.655
			h-70.621c-9.751,0-17.655-7.904-17.655-17.655V17.655C308.966,7.904,316.87,0,326.621,0z"/>
	</g>
	<g>
		<path style="fill:#BDC3C7;" d="M273.655,185.379V8.828c0-4.875-3.952-8.828-8.828-8.828h-17.655c-4.875,0-8.828,3.952-8.828,8.828
			v176.552"/>
		<path style="fill:#BDC3C7;" d="M238.345,300.138h35.31c4.875,0,8.828,3.952,8.828,8.828v150.069h-52.966V308.966
			C229.517,304.09,233.469,300.138,238.345,300.138z"/>
	</g>
	<g>
		<circle style="fill:#7F8C8D;" cx="256" cy="370.759" r="26.483"/>
		<path style="fill:#7F8C8D;" d="M52.966,441.379h406.069c4.875,0,8.828,3.952,8.828,8.828v52.966c0,4.875-3.952,8.828-8.828,8.828
			H52.966c-4.875,0-8.828-3.952-8.828-8.828v-52.966C44.138,445.332,48.09,441.379,52.966,441.379z"/>
	</g>
</g>
<g>
</g>
<g>
</g>
<g>
</g>
<g>
</g>
<g>
</g>
<g>
</g>
<g>
</g>
<g>
</g>
<g>
</g>
<g>
</g>
<g>
</g>
<g>
</g>
<g>
</g>
<g>
</g>
<g>
</g>
</svg>
