<?xml version="1.0" encoding="iso-8859-1"?>
<!-- Generator: Adobe Illustrator 19.0.0, SVG Export Plug-In . SVG Version: 6.00 Build 0)  -->
<svg version="1.1" id="Capa_1" xmlns="http://www.w3.org/2000/svg" xmlns:xlink="http://www.w3.org/1999/xlink" x="0px" y="0px"
	 viewBox="0 0 512.103 512.103" style="enable-background:new 0 0 512.103 512.103;" xml:space="preserve">
<g transform="translate(-1 -1)">
	
		<rect x="4.821" y="452.148" transform="matrix(-0.7071 0.7071 -0.7071 -0.7071 407.411 771.3726)" style="fill:#BDC3C7;" width="78.257" height="35.831"/>
	<path style="fill:#41767F;" d="M432.433,235.092l-27.101-100.988l22.775-22.687l-25.423-25.423l-22.687,22.775L279.716,82.374
		c-6.173-1.63-12.749,0.114-17.302,4.59L86.921,262.457c-4.476,4.553-6.221,11.129-4.59,17.302l26.394,100.281L85.95,402.727
		l25.423,25.423l22.687-22.775l100.988,27.101c6.173,1.63,12.749-0.114,17.302-4.59l175.492-175.492
		C432.319,247.84,434.063,241.265,432.433,235.092z M376.201,251.952L251.379,376.774h-0.088l-37.341,12.535l-60.646-15.89
		c-6.158-1.656-10.968-6.466-12.623-12.623l-15.89-60.646l12.623-37.341l124.822-124.822l36.546-13.506l0.088,0.088l61.881,16.154
		c6.158,1.656,10.968,6.466,12.623,12.623l16.154,61.881l0.088,0.088L376.201,251.952z"/>
	
		<rect x="441.605" y="21.657" transform="matrix(-0.7071 0.7071 -0.7071 -0.7071 837.9921 -267.962)" style="fill:#BDC3C7;" width="65.775" height="35.831"/>
	<path style="fill:#7F8C8D;" d="M16.329,371.121l12.665-12.665c3.499-3.499,9.172-3.499,12.671,0L155.69,472.48
		c3.499,3.499,3.499,9.172,0,12.671l-12.665,12.665c-3.499,3.499-9.172,3.499-12.671,0L16.329,383.793
		C12.83,380.293,12.83,374.62,16.329,371.121z"/>
	<path style="fill:#95A5A5;" d="M3.665,409.126l12.665-12.665c3.499-3.499,9.172-3.499,12.671,0l88.681,88.681
		c3.499,3.499,3.499,9.172,0,12.671l-12.665,12.665c-3.499,3.499-9.172,3.499-12.671,0L3.665,421.797
		C0.166,418.298,0.166,412.625,3.665,409.126z"/>
	<path style="fill:#7F8C8D;" d="M358.413,29.031l12.665-12.665c3.499-3.499,9.172-3.499,12.671,0L497.774,130.39
		c3.499,3.499,3.499,9.172,0,12.671l-12.665,12.665c-3.499,3.499-9.172,3.499-12.671,0L358.413,41.702
		C354.914,38.203,354.914,32.53,358.413,29.031z"/>
	<path style="fill:#95A5A5;" d="M396.42,16.289l12.665-12.665c3.499-3.499,9.172-3.499,12.671,0l88.681,88.681
		c3.499,3.499,3.499,9.172,0,12.671l-12.665,12.665c-3.499,3.499-9.172,3.499-12.671,0L396.42,28.961
		C392.921,25.462,392.921,19.789,396.42,16.289z"/>
	<g>
		<polygon style="fill:#3F5C6C;" points="277.42,402.816 252.438,427.798 87.009,262.369 111.991,237.387 137.415,262.81 
			251.291,376.774 251.379,376.774 		"/>
		<polygon style="fill:#3F5C6C;" points="427.225,253.012 402.243,277.994 236.814,112.565 261.796,87.583 298.783,124.482 
			389.531,215.229 389.619,215.318 		"/>
	</g>
</g>
<g>
</g>
<g>
</g>
<g>
</g>
<g>
</g>
<g>
</g>
<g>
</g>
<g>
</g>
<g>
</g>
<g>
</g>
<g>
</g>
<g>
</g>
<g>
</g>
<g>
</g>
<g>
</g>
<g>
</g>
</svg>
