<?xml version="1.0" encoding="iso-8859-1"?>
<!-- Generator: Adobe Illustrator 19.0.0, SVG Export Plug-In . SVG Version: 6.00 Build 0)  -->
<svg version="1.1" id="Capa_1" xmlns="http://www.w3.org/2000/svg" xmlns:xlink="http://www.w3.org/1999/xlink" x="0px" y="0px"
	 viewBox="0 0 512 512" style="enable-background:new 0 0 512 512;" xml:space="preserve">
<g transform="translate(-1)">
	<path style="fill:#CBB292;" d="M424.702,240c-0.183-9.131-1.001-18.238-2.45-27.255c-4.503-13.159-7.841-26.687-9.975-40.43
		c-0.595-13.631,1.228-27.259,5.385-40.254c7.945-26.748,22.246-51.023,30.367-77.683C453.395,36.58,457.408,18.403,460.034,0
		H53.966c2.669,18.395,6.681,36.569,12.006,54.378c8.121,26.659,22.422,50.935,30.367,77.683c4.186,12.99,6.039,26.618,5.473,40.254
		c-2.122,13.754-5.49,27.286-10.063,40.43c-1.741,9.832-2.85,19.765-3.321,29.738L424.702,240z"/>
	<path style="fill:#41767F;" d="M86.539,295.371h-0.088c-9.799,14.566-42.637,65.854-50.141,110.698
		c-3.034,23.412-4.303,47.019-3.796,70.621c0.093,11.867,1.364,23.695,3.796,35.31H477.69c2.432-11.615,3.703-23.444,3.796-35.31
		c0.507-23.602-0.762-47.209-3.796-70.621c-7.415-44.491-39.812-95.338-49.964-110.345"/>
	<g>
		<path style="fill:#7F6E5D;" d="M188.771,203.034c-3.247,0.005-6.235-1.775-7.776-4.634c-8.053-13.936-22.712-22.746-38.797-23.319
			c-4.875-0.012-8.818-3.974-8.806-8.849c0.012-4.875,3.974-8.818,8.849-8.806c22.545,0.638,43.123,12.99,54.289,32.586
			c1.476,2.734,1.406,6.043-0.184,8.713C194.755,201.395,191.878,203.031,188.771,203.034z"/>
		<path style="fill:#7F6E5D;" d="M325.228,203.034c-3.107-0.003-5.984-1.639-7.575-4.309c-1.591-2.669-1.661-5.979-0.184-8.713
			c11.165-19.596,31.744-31.948,54.289-32.586c4.875,0,8.828,3.952,8.828,8.828s-3.952,8.828-8.828,8.828
			c-16.07,0.586-30.71,9.395-38.754,23.319C331.462,201.259,328.475,203.039,325.228,203.034z"/>
		<path style="fill:#7F6E5D;" d="M197.353,139.711c-47.621,0-69.289-22.198-70.328-23.293c-3.344-3.53-3.205-9.1,0.312-12.458
			s9.088-3.24,12.459,0.264c1.099,1.116,24.888,24.418,80.599,16.03c4.821-0.726,9.317,2.593,10.043,7.414
			c0.726,4.821-2.593,9.317-7.414,10.043C214.53,139.019,205.948,139.688,197.353,139.711z"/>
		<path style="fill:#7F6E5D;" d="M316.689,139.711c-8.595-0.024-17.177-0.692-25.672-2c-3.118-0.47-5.749-2.567-6.902-5.503
			c-1.152-2.935-0.651-6.263,1.315-8.728c1.966-2.466,5.098-3.695,8.216-3.226c55.866,8.414,79.625-15.03,80.608-16.039
			c3.38-3.47,8.925-3.569,12.426-0.221c3.501,3.348,3.652,8.891,0.337,12.424C385.978,117.513,364.305,139.711,316.689,139.711z"/>
		<path style="fill:#7F6E5D;" d="M151.09,81.901c-22.978,0-34.004-22.72-34.461-23.685c-1.358-2.847-1.095-6.202,0.691-8.801
			c1.786-2.6,4.823-4.049,7.968-3.802c3.144,0.247,5.918,2.153,7.276,4.999c0.112,0.224,6.828,13.634,18.526,13.634
			c4.47,0,6.707-1.767,11.349-5.772c8.72-8.577,20.563-13.225,32.789-12.866c4.931-0.036,9.628-2.113,12.973-5.736
			c3.345-3.624,5.04-8.47,4.683-13.389c0-4.875,3.952-8.828,8.828-8.828c4.875,0,8.828,3.952,8.828,8.828
			c0.449,9.63-3.077,19.021-9.754,25.976s-15.916,10.861-25.557,10.804c-7.992-0.332-15.739,2.797-21.259,8.586
			C167.969,78.089,159.744,81.703,151.09,81.901z"/>
		<path style="fill:#7F6E5D;" d="M362.952,81.901c-8.654-0.198-16.879-3.812-22.879-10.052c-5.52-5.789-13.267-8.918-21.259-8.586
			c-9.64,0.056-18.88-3.85-25.557-10.804c-6.676-6.954-10.203-16.346-9.754-25.976c0-4.875,3.952-8.828,8.828-8.828
			s8.828,3.952,8.828,8.828c-0.375,4.923,1.314,9.78,4.662,13.407c3.349,3.628,8.056,5.699,12.993,5.717
			c12.226-0.358,24.069,4.289,32.789,12.866c4.642,4.004,6.879,5.772,11.349,5.772c11.741,0,18.44-13.453,18.504-13.591
			c1.35-2.85,4.119-4.764,7.263-5.019c3.144-0.256,6.185,1.185,7.978,3.78c1.793,2.595,2.066,5.949,0.715,8.8
			C396.956,59.181,385.931,81.901,362.952,81.901z"/>
	</g>
	<path style="fill:#35495E;" d="M481.486,476.69c-0.093,11.867-1.364,23.695-3.796,35.31H36.31
		c-2.432-11.615-3.703-23.444-3.796-35.31H481.486z"/>
	<path style="fill:#3F5C6C;" d="M265.828,336.331V476.69h-17.655V336.331c-0.32-3.355,1.289-6.601,4.153-8.377
		c2.864-1.777,6.487-1.777,9.35,0C264.539,329.73,266.148,332.976,265.828,336.331z"/>
	<rect x="248.172" y="476.69" style="fill:#2C3E50;" width="17.655" height="35.31"/>
	<path style="fill:#804537;" d="M421.946,297.228c-34.196,3.475-65.968,19.249-89.408,44.389c-1.65,1.674-3.893,2.629-6.243,2.659
		H188.764c-2.35-0.03-4.593-0.985-6.243-2.659c-23.44-25.14-55.212-40.914-89.408-44.389c-9.531-0.933-16.74-9.043-16.549-18.618
		v-27.566c-0.191-9.575,7.018-17.685,16.549-18.617c34.196-3.475,65.968-19.249,89.408-44.389c1.65-1.674,3.893-2.629,6.243-2.659
		h137.532c2.35,0.03,4.593,0.985,6.243,2.659c23.44,25.14,55.212,40.914,89.408,44.389c9.531,0.933,16.74,9.043,16.549,18.618
		v27.566C438.686,288.186,431.478,296.295,421.946,297.228z"/>
	<path style="fill:#CB8252;" d="M438.495,251.057v27.542c0.195,9.563-6.99,17.671-16.508,18.626
		c-0.504,0.02-1.006,0.079-1.501,0.177v-0.088c0,0-52.612,2.825-52.612-32.486s52.612-32.486,52.612-32.486
		c0.53,0,1.059,0.088,1.501,0.088C431.505,233.385,438.691,241.493,438.495,251.057z"/>
</g>
<g>
</g>
<g>
</g>
<g>
</g>
<g>
</g>
<g>
</g>
<g>
</g>
<g>
</g>
<g>
</g>
<g>
</g>
<g>
</g>
<g>
</g>
<g>
</g>
<g>
</g>
<g>
</g>
<g>
</g>
</svg>
