<?xml version="1.0" encoding="iso-8859-1"?>
<!-- Generator: Adobe Illustrator 19.0.0, SVG Export Plug-In . SVG Version: 6.00 Build 0)  -->
<svg version="1.1" id="Capa_1" xmlns="http://www.w3.org/2000/svg" xmlns:xlink="http://www.w3.org/1999/xlink" x="0px" y="0px"
	 viewBox="0 0 512 512" style="enable-background:new 0 0 512 512;" xml:space="preserve">
<g>
	<g>
		<rect x="17.655" y="194.207" style="fill:#BDC3C7;" width="476.69" height="35.31"/>
		<rect x="17.655" y="432.552" style="fill:#BDC3C7;" width="476.69" height="35.31"/>
	</g>
	<g>
		<path style="fill:#95A5A5;" d="M8.828,0h17.655c4.875,0,8.828,3.952,8.828,8.828v494.345c0,4.875-3.952,8.828-8.828,8.828H8.828
			C3.952,512,0,508.048,0,503.172V8.828C0,3.952,3.952,0,8.828,0z"/>
		<path style="fill:#95A5A5;" d="M485.517,0h17.655C508.048,0,512,3.952,512,8.828v494.345c0,4.875-3.952,8.828-8.828,8.828h-17.655
			c-4.875,0-8.828-3.952-8.828-8.828V8.828C476.69,3.952,480.642,0,485.517,0z"/>
	</g>
	<path style="fill:#46B29D;" d="M229.517,114.759c0.023,12.935-3.162,25.673-9.269,37.076c-2.736,5.26-6.084,10.179-9.974,14.654
		c-0.265,0.265-0.442,0.53-0.707,0.794c-15.037,17.114-36.716,26.924-59.498,26.924s-44.461-9.81-59.498-26.924
		c-0.265-0.265-0.441-0.53-0.707-0.794c-3.89-4.475-7.238-9.394-9.974-14.654c-12.359-23.172-12.359-50.979,0-74.152
		c2.736-5.26,6.084-10.179,9.974-14.654c0.265-0.265,0.441-0.53,0.707-0.794c15.037-17.114,36.716-26.924,59.498-26.924
		s44.461,9.81,59.498,26.924c0.265,0.265,0.442,0.53,0.707,0.794c3.89,4.475,7.238,9.394,9.974,14.654
		C226.355,89.085,229.54,101.824,229.517,114.759z"/>
	<path style="fill:#4482C3;" d="M441.379,114.759c0.023,12.935-3.162,25.673-9.269,37.076c-2.736,5.26-6.084,10.179-9.974,14.654
		c-0.265,0.265-0.441,0.53-0.707,0.794c-15.037,17.114-36.716,26.924-59.498,26.924c-22.782,0-44.461-9.81-59.498-26.924
		c-0.265-0.265-0.441-0.53-0.707-0.794c-3.89-4.475-7.238-9.394-9.974-14.654c-12.359-23.172-12.359-50.979,0-74.152
		c2.736-5.26,6.084-10.179,9.974-14.654c0.265-0.265,0.441-0.53,0.707-0.794C317.471,45.12,339.15,35.31,361.931,35.31
		c22.782,0,44.461,9.81,59.498,26.924c0.265,0.265,0.441,0.53,0.707,0.794c3.89,4.475,7.238,9.394,9.974,14.654
		C438.217,89.085,441.402,101.824,441.379,114.759z"/>
	<path style="fill:#CC66A1;" d="M229.517,353.103c0.023,12.935-3.162,25.673-9.269,37.076c-2.736,5.26-6.084,10.179-9.974,14.654
		c-0.265,0.265-0.442,0.53-0.707,0.794c-15.037,17.114-36.716,26.924-59.498,26.924s-44.461-9.81-59.498-26.924
		c-0.265-0.265-0.441-0.53-0.707-0.794c-3.89-4.475-7.238-9.394-9.974-14.654c-12.359-23.172-12.359-50.979,0-74.152
		c2.736-5.26,6.084-10.179,9.974-14.654c0.265-0.265,0.441-0.53,0.707-0.794c15.037-17.114,36.716-26.924,59.498-26.924
		s44.461,9.81,59.498,26.924c0.265,0.265,0.442,0.53,0.707,0.794c3.89,4.475,7.238,9.394,9.974,14.654
		C226.355,327.43,229.54,340.169,229.517,353.103z"/>
	<path style="fill:#E64C3C;" d="M441.379,353.103c0.023,12.935-3.162,25.673-9.269,37.076c-2.736,5.26-6.084,10.179-9.974,14.654
		c-0.265,0.265-0.441,0.53-0.707,0.794c-15.037,17.114-36.716,26.924-59.498,26.924c-22.782,0-44.461-9.81-59.498-26.924
		c-0.265-0.265-0.441-0.53-0.707-0.794c-3.89-4.475-7.238-9.394-9.974-14.654c-12.359-23.172-12.359-50.979,0-74.152
		c2.736-5.26,6.084-10.179,9.974-14.654c0.265-0.265,0.441-0.53,0.707-0.794c15.037-17.114,36.716-26.924,59.498-26.924
		c22.782,0,44.461,9.81,59.498,26.924c0.265,0.265,0.441,0.53,0.707,0.794c3.89,4.475,7.238,9.394,9.974,14.654
		C438.217,327.43,441.402,340.169,441.379,353.103z"/>
	<g>
		<path style="fill:#E6E7E8;" d="M107.079,114.759c-0.002,6.614-0.682,13.21-2.03,19.686v0.088
			c-1.107,5.824-2.854,11.508-5.208,16.949c-2.346,5.67-5.465,10.987-9.269,15.801c-0.265-0.265-0.441-0.53-0.707-0.794
			c-3.89-4.475-7.238-9.394-9.974-14.654c6.505-11.256,9.802-24.078,9.533-37.076c0.058-8.115-1.163-16.188-3.619-23.923
			c0-0.088-0.088-0.177-0.088-0.265s0-0.088-0.088-0.088c-0.187-0.427-0.335-0.87-0.441-1.324c-0.1-0.223-0.16-0.462-0.177-0.706
			c-1.33-3.757-3.046-7.366-5.12-10.77c2.736-5.26,6.084-10.179,9.974-14.654c0.265-0.265,0.441-0.53,0.707-0.794
			c3.356,4.288,6.173,8.973,8.386,13.948c2.5,5.364,4.395,10.989,5.65,16.772C106.286,100.1,107.115,107.419,107.079,114.759z"/>
		<path style="fill:#E6E7E8;" d="M210.714,114.759c-0.269,12.998,3.028,25.82,9.534,37.076c-2.736,5.26-6.084,10.179-9.974,14.654
			c-0.265,0.265-0.442,0.53-0.707,0.794c-3.804-4.814-6.923-10.132-9.269-15.801c-2.354-5.441-4.101-11.125-5.208-16.949v-0.088
			c-1.353-6.474-2.033-13.071-2.031-19.686c-0.037-7.34,0.793-14.659,2.472-21.804c1.255-5.783,3.15-11.409,5.65-16.772
			c2.214-4.975,5.03-9.659,8.386-13.948c0.265,0.265,0.442,0.53,0.707,0.794c3.89,4.475,7.238,9.393,9.974,14.654
			c-2.074,3.403-3.79,7.013-5.12,10.77c-0.017,0.244-0.077,0.483-0.177,0.706c-0.176,0.53-0.352,0.971-0.529,1.412
			C211.894,98.382,210.641,106.549,210.714,114.759z"/>
		<path style="fill:#E6E7E8;" d="M206.5,95.517c-0.843-0.001-1.683-0.123-2.491-0.362c-17.571-4.795-35.727-7.111-53.94-6.879
			c-18.213-0.231-36.368,2.084-53.94,6.879c-3.026,0.89-6.297,0.098-8.581-2.077c-2.284-2.176-3.234-5.404-2.491-8.47
			c0.742-3.066,3.063-5.502,6.089-6.393c19.19-5.269,39.023-7.825,58.922-7.595c19.899-0.231,39.732,2.326,58.922,7.595
			c4.209,1.242,6.868,5.386,6.243,9.729C214.608,92.288,210.888,95.514,206.5,95.517L206.5,95.517z"/>
		<path style="fill:#E6E7E8;" d="M150.069,158.897c-17.301,0.218-34.522-2.389-50.983-7.72c-2.99-1.019-5.207-3.559-5.813-6.658
			c-0.606-3.1,0.49-6.288,2.875-8.358c2.385-2.071,5.695-2.709,8.679-1.673c14.614,4.691,29.894,6.972,45.241,6.754
			c15.347,0.218,30.627-2.064,45.241-6.754c2.984-1.036,6.294-0.398,8.679,1.673c2.385,2.071,3.482,5.258,2.875,8.358
			c-0.606,3.1-2.824,5.639-5.813,6.658C184.591,156.507,167.37,159.115,150.069,158.897z"/>
		<path style="fill:#E6E7E8;" d="M318.941,114.759c0.037,7.34-0.793,14.659-2.472,21.804c-1.255,5.783-3.15,11.409-5.65,16.772
			c-2.214,4.975-5.03,9.659-8.386,13.948c-0.265-0.265-0.441-0.53-0.707-0.794c-3.89-4.475-7.238-9.394-9.974-14.654
			c2.074-3.404,3.79-7.013,5.12-10.77c0-0.088,0-0.088,0.088-0.177c0.088-0.265,0.176-0.53,0.264-0.883
			c0.037-0.375,0.157-0.737,0.353-1.059c2.529-7.811,3.781-15.978,3.708-24.188c0.059-8.115-1.163-16.188-3.619-23.923
			c0-0.088-0.088-0.177-0.088-0.265s0-0.088-0.088-0.088c-0.187-0.427-0.335-0.87-0.441-1.324c-0.1-0.223-0.16-0.462-0.177-0.706
			c-1.33-3.757-3.046-7.366-5.12-10.77c2.736-5.26,6.084-10.179,9.974-14.654c0.265-0.265,0.441-0.53,0.707-0.794
			c3.356,4.288,6.173,8.973,8.386,13.948c2.5,5.364,4.395,10.989,5.65,16.772C318.148,100.1,318.978,107.419,318.941,114.759z"/>
		<path style="fill:#E6E7E8;" d="M426.99,141.065c1.33,3.757,3.046,7.366,5.12,10.77c-2.736,5.26-6.084,10.179-9.974,14.654
			c-0.265,0.265-0.441,0.53-0.707,0.794c-3.356-4.288-6.172-8.973-8.386-13.948c-2.5-5.364-4.395-10.989-5.65-16.772
			c-3.296-14.349-3.296-29.259,0-43.608c1.255-5.783,3.15-11.409,5.65-16.772c2.214-4.975,5.03-9.659,8.386-13.948
			c0.265,0.265,0.441,0.53,0.707,0.794c3.89,4.475,7.238,9.394,9.974,14.654c-2.074,3.403-3.79,7.013-5.12,10.77
			c-0.017,0.244-0.077,0.483-0.177,0.706c-0.108,0.086-0.173,0.215-0.176,0.353c-0.088,0.353-0.177,0.618-0.265,0.971
			c-0.024,0-0.046,0.009-0.063,0.025c-0.017,0.017-0.026,0.039-0.025,0.063c-2.529,7.811-3.781,15.978-3.708,24.188
			c-0.059,8.115,1.163,16.188,3.619,23.923c0,0.088,0.088,0.177,0.088,0.265c0,0.088,0,0.088,0.088,0.088
			c0.129,0.311,0.218,0.637,0.265,0.971c0.088,0.353,0.176,0.618,0.264,0.883C426.99,140.977,426.99,140.977,426.99,141.065z"/>
		<path style="fill:#E6E7E8;" d="M418.362,95.517c-0.843-0.001-1.682-0.123-2.491-0.362c-17.572-4.795-35.727-7.111-53.94-6.879
			c-18.213-0.231-36.368,2.084-53.94,6.879c-3.026,0.89-6.297,0.098-8.581-2.077c-2.284-2.176-3.233-5.404-2.491-8.47
			c0.742-3.066,3.063-5.502,6.089-6.393c19.19-5.269,39.023-7.825,58.922-7.595c19.899-0.231,39.732,2.326,58.922,7.595
			c4.209,1.242,6.868,5.386,6.243,9.729C426.471,92.288,422.751,95.514,418.362,95.517L418.362,95.517z"/>
		<path style="fill:#E6E7E8;" d="M361.931,158.897c-19.899,0.231-39.732-2.326-58.922-7.595c-3.026-0.89-5.347-3.327-6.089-6.393
			s0.208-6.294,2.491-8.47c2.284-2.176,5.555-2.967,8.581-2.077c17.572,4.795,35.727,7.111,53.94,6.879
			c18.213,0.231,36.368-2.084,53.94-6.879c4.678-1.376,9.585,1.301,10.961,5.978c1.376,4.678-1.301,9.585-5.978,10.961
			C401.663,156.571,381.83,159.127,361.931,158.897z"/>
		<path style="fill:#E6E7E8;" d="M107.079,353.103c0.037,7.34-0.793,14.659-2.472,21.804c-1.255,5.783-3.15,11.409-5.65,16.772
			c-2.214,4.975-5.03,9.659-8.386,13.948c-0.265-0.265-0.441-0.53-0.707-0.794c-3.89-4.475-7.238-9.394-9.974-14.654
			c2.074-3.404,3.79-7.013,5.12-10.77c0-0.088,0-0.088,0.088-0.177c0.088-0.265,0.176-0.53,0.264-0.883
			c0.078-0.365,0.196-0.721,0.353-1.059c2.529-7.811,3.781-15.978,3.708-24.188c0.058-8.115-1.163-16.188-3.619-23.923
			c0-0.088-0.088-0.177-0.088-0.265c0-0.088,0-0.088-0.088-0.088c-0.187-0.427-0.335-0.87-0.441-1.324
			c-0.1-0.223-0.16-0.462-0.177-0.706c-1.33-3.757-3.046-7.366-5.12-10.77c2.736-5.26,6.084-10.179,9.974-14.654
			c0.265-0.265,0.441-0.53,0.707-0.794c3.356,4.288,6.173,8.973,8.386,13.948c2.5,5.364,4.395,10.989,5.65,16.772
			C106.286,338.445,107.115,345.763,107.079,353.103z"/>
		<path style="fill:#E6E7E8;" d="M215.128,379.41c1.33,3.757,3.046,7.366,5.12,10.77c-2.736,5.26-6.084,10.179-9.974,14.654
			c-0.265,0.265-0.442,0.53-0.707,0.794c-3.356-4.288-6.173-8.973-8.387-13.948c-2.5-5.364-4.395-10.989-5.65-16.772
			c-3.296-14.349-3.296-29.259,0-43.608c1.255-5.783,3.15-11.409,5.65-16.772c2.214-4.975,5.03-9.659,8.386-13.948
			c0.265,0.265,0.442,0.53,0.707,0.794c3.89,4.475,7.238,9.393,9.974,14.654c-2.074,3.404-3.79,7.013-5.12,10.77v0.088l-0.088,0.088
			c0.014,0.181-0.016,0.363-0.088,0.53c-0.092,0.098-0.154,0.221-0.176,0.353c-0.078,0.365-0.196,0.721-0.353,1.059
			c-2.529,7.811-3.781,15.978-3.708,24.188c-0.059,8.115,1.163,16.188,3.619,23.923c0.157,0.339,0.275,0.694,0.353,1.059
			c0.077,0.394,0.195,0.778,0.352,1.148C215.128,379.321,215.128,379.321,215.128,379.41z"/>
		<path style="fill:#E6E7E8;" d="M206.5,333.862c-0.843-0.001-1.683-0.123-2.491-0.362c-17.571-4.795-35.727-7.111-53.94-6.879
			c-18.213-0.231-36.368,2.084-53.94,6.879c-4.678,1.376-9.585-1.301-10.961-5.979c-1.376-4.678,1.301-9.585,5.979-10.961
			c19.19-5.269,39.023-7.825,58.922-7.594c19.899-0.231,39.732,2.326,58.922,7.595c4.209,1.242,6.868,5.386,6.243,9.729
			C214.608,330.633,210.888,333.859,206.5,333.862L206.5,333.862z"/>
		<path style="fill:#E6E7E8;" d="M150.069,397.241c-19.899,0.231-39.732-2.326-58.922-7.595c-4.678-1.376-7.355-6.284-5.979-10.961
			c1.376-4.678,6.284-7.355,10.961-5.979c17.571,4.795,35.727,7.111,53.94,6.88c18.213,0.231,36.368-2.084,53.94-6.879
			c3.026-0.89,6.297-0.098,8.581,2.077c2.284,2.176,3.234,5.404,2.491,8.47c-0.742,3.066-3.064,5.503-6.09,6.393
			C189.801,394.916,169.968,397.472,150.069,397.241z"/>
		<path style="fill:#E6E7E8;" d="M318.941,353.103c0.037,7.34-0.793,14.659-2.472,21.804c-1.255,5.783-3.15,11.409-5.65,16.772
			c-2.214,4.975-5.03,9.659-8.386,13.948c-0.265-0.265-0.441-0.53-0.707-0.794c-3.89-4.475-7.238-9.394-9.974-14.654
			c2.074-3.404,3.79-7.013,5.12-10.77c0-0.088,0-0.088,0.088-0.177c0.088-0.265,0.176-0.618,0.264-0.883
			c0.107-0.454,0.255-0.897,0.442-1.324c4.826-15.583,4.826-32.262,0-47.845c-0.259-0.538-0.466-1.1-0.618-1.677
			c-0.072-0.167-0.102-0.349-0.088-0.53c-0.088-0.088-0.088-0.088-0.088-0.177c-1.33-3.757-3.046-7.366-5.12-10.77
			c2.736-5.26,6.084-10.179,9.974-14.654c0.265-0.265,0.441-0.53,0.707-0.794c3.356,4.288,6.173,8.973,8.386,13.948
			c2.5,5.364,4.395,10.989,5.65,16.772C318.148,338.445,318.978,345.763,318.941,353.103z"/>
		<path style="fill:#E6E7E8;" d="M426.99,379.41c1.33,3.757,3.046,7.366,5.12,10.77c-2.736,5.26-6.084,10.179-9.974,14.654
			c-0.265,0.265-0.441,0.53-0.707,0.794c-3.356-4.288-6.172-8.973-8.386-13.948c-2.5-5.364-4.395-10.989-5.65-16.772
			c-3.296-14.349-3.296-29.259,0-43.608c1.255-5.783,3.15-11.409,5.65-16.772c2.214-4.975,5.03-9.659,8.386-13.948
			c0.265,0.265,0.441,0.53,0.707,0.794c3.89,4.475,7.238,9.394,9.974,14.654c-2.074,3.404-3.79,7.013-5.12,10.77
			c-0.017,0.244-0.077,0.483-0.177,0.706c-0.108,0.085-0.173,0.215-0.176,0.353c-0.088,0.353-0.177,0.618-0.265,0.971
			c-0.024,0-0.046,0.009-0.063,0.025c-0.017,0.017-0.026,0.039-0.025,0.063c-2.529,7.811-3.781,15.978-3.708,24.188
			c-0.059,8.115,1.163,16.188,3.619,23.923c0.187,0.427,0.335,0.87,0.442,1.324c0.088,0.353,0.176,0.618,0.264,0.883
			C426.99,379.321,426.99,379.321,426.99,379.41z"/>
		<path style="fill:#E6E7E8;" d="M418.362,333.862c-0.843-0.001-1.682-0.123-2.491-0.362c-17.572-4.795-35.727-7.111-53.94-6.879
			c-18.213-0.231-36.368,2.084-53.94,6.879c-4.678,1.376-9.585-1.301-10.961-5.979c-1.376-4.678,1.301-9.585,5.979-10.961
			c19.19-5.269,39.023-7.825,58.922-7.594c19.899-0.231,39.732,2.326,58.922,7.595c4.209,1.242,6.868,5.386,6.243,9.729
			C426.471,330.633,422.751,333.859,418.362,333.862L418.362,333.862z"/>
		<path style="fill:#E6E7E8;" d="M361.931,397.241c-19.899,0.231-39.732-2.326-58.922-7.595c-4.678-1.376-7.355-6.284-5.979-10.961
			c1.376-4.678,6.284-7.355,10.961-5.979c17.572,4.795,35.727,7.111,53.94,6.88c18.213,0.231,36.368-2.084,53.94-6.879
			c4.678-1.376,9.585,1.301,10.961,5.979c1.376,4.678-1.301,9.585-5.979,10.961C401.663,394.916,381.83,397.472,361.931,397.241z"/>
	</g>
</g>
<g>
</g>
<g>
</g>
<g>
</g>
<g>
</g>
<g>
</g>
<g>
</g>
<g>
</g>
<g>
</g>
<g>
</g>
<g>
</g>
<g>
</g>
<g>
</g>
<g>
</g>
<g>
</g>
<g>
</g>
</svg>
