<?xml version="1.0" encoding="iso-8859-1"?>
<!-- Generator: Adobe Illustrator 19.0.0, SVG Export Plug-In . SVG Version: 6.00 Build 0)  -->
<svg version="1.1" id="Capa_1" xmlns="http://www.w3.org/2000/svg" xmlns:xlink="http://www.w3.org/1999/xlink" x="0px" y="0px"
	 viewBox="0 0 512.01 512.01" style="enable-background:new 0 0 512.01 512.01;" xml:space="preserve">
<g transform="translate(-1 -1)">
	
		<rect x="12.698" y="439.458" transform="matrix(-0.7071 0.7071 -0.7071 -0.7071 418.4825 744.7424)" style="fill:#84B5CB;" width="84.604" height="39.168"/>
	<path style="fill:#95A5A5;" d="M3.611,385.78l15.212-15.212c3.447-3.447,9.037-3.447,12.484,0L143.459,482.72
		c3.447,3.447,3.447,9.037,0,12.484l-15.212,15.212c-3.447,3.447-9.037,3.447-12.484,0L3.611,398.264
		C0.164,394.817,0.164,389.228,3.611,385.78z"/>
	<path style="fill:#7F8C8D;" d="M3.646,330.397l15.212-15.212c3.447-3.447,9.037-3.447,12.484,0l167.544,167.544
		c3.447,3.447,3.447,9.037,0,12.484l-15.212,15.212c-3.447,3.447-9.037,3.447-12.484,0L3.646,342.881
		C0.199,339.434,0.199,333.845,3.646,330.397z"/>
	
		<rect x="427.39" y="30.931" transform="matrix(0.7071 -0.7071 0.7071 0.7071 100.0203 342.5015)" style="fill:#84B5CB;" width="72.113" height="39.168"/>
	<path style="fill:#95A5A5;" d="M510.399,128.235l-15.212,15.212c-3.447,3.447-9.037,3.447-12.484,0L370.552,31.295
		c-3.447-3.447-3.447-9.037,0-12.484l15.212-15.212c3.447-3.447,9.037-3.447,12.484,0l112.151,112.151
		C513.847,119.198,513.847,124.787,510.399,128.235z"/>
	<path style="fill:#7F8C8D;" d="M510.371,183.613l-15.212,15.212c-3.447,3.447-9.037,3.447-12.484,0L315.131,31.282
		c-3.447-3.447-3.447-9.037,0-12.484l15.212-15.212c3.447-3.447,9.037-3.447,12.484,0l167.544,167.544
		C513.818,174.576,513.818,180.166,510.371,183.613z"/>
	<path style="fill:#84B5CB;" d="M128.905,412.79l39.449-39.449c1.367-1.367,3.108-2.299,5.004-2.678l25.312-5.062
		c3.876-0.775,6.906-3.805,7.682-7.682l5.062-25.312c0.379-1.896,1.311-3.637,2.678-5.004l113.518-113.518
		c1.367-1.367,3.108-2.299,5.004-2.678l25.312-5.062c3.876-0.775,6.906-3.805,7.682-7.682l5.062-25.312
		c0.379-1.896,1.311-3.637,2.678-5.004l39.449-39.448l-27.697-27.697l-39.449,39.449c-1.367,1.367-2.299,3.108-2.678,5.004
		l-5.062,25.312c-0.775,3.876-3.805,6.906-7.682,7.682l-25.312,5.062c-1.896,0.379-3.637,1.311-5.004,2.678L186.395,299.907
		c-1.367,1.367-2.299,3.108-2.678,5.004l-5.062,25.312c-0.775,3.876-3.805,6.906-7.682,7.682l-25.312,5.062
		c-1.896,0.379-3.637,1.311-5.004,2.678l-39.449,39.448L128.905,412.79z"/>
</g>
<g>
</g>
<g>
</g>
<g>
</g>
<g>
</g>
<g>
</g>
<g>
</g>
<g>
</g>
<g>
</g>
<g>
</g>
<g>
</g>
<g>
</g>
<g>
</g>
<g>
</g>
<g>
</g>
<g>
</g>
</svg>
