<?xml version="1.0" encoding="iso-8859-1"?>
<!-- Generator: Adobe Illustrator 19.0.0, SVG Export Plug-In . SVG Version: 6.00 Build 0)  -->
<svg version="1.1" id="Capa_1" xmlns="http://www.w3.org/2000/svg" xmlns:xlink="http://www.w3.org/1999/xlink" x="0px" y="0px"
	 viewBox="0 0 512 512" style="enable-background:new 0 0 512 512;" xml:space="preserve">
<g>
	<g>
		<rect x="114.759" y="361.931" style="fill:#BDC3C7;" width="35.31" height="52.966"/>
		<rect x="238.345" y="361.931" style="fill:#BDC3C7;" width="35.31" height="52.966"/>
		<rect x="361.931" y="361.931" style="fill:#BDC3C7;" width="35.31" height="52.966"/>
		<rect x="114.759" y="97.103" style="fill:#BDC3C7;" width="35.31" height="52.966"/>
		<rect x="238.345" y="97.103" style="fill:#BDC3C7;" width="35.31" height="52.966"/>
		<rect x="361.931" y="97.103" style="fill:#BDC3C7;" width="35.31" height="52.966"/>
	</g>
	<g>
		<path style="fill:#95A5A5;" d="M176.552,141.241v17.655c-0.015,4.869-3.958,8.813-8.828,8.828v17.655H97.103v-17.655
			c-4.869-0.015-8.813-3.958-8.828-8.828v-17.655c0.015-4.869,3.958-8.813,8.828-8.828h70.621
			C172.593,132.428,176.537,136.372,176.552,141.241z"/>
		<path style="fill:#95A5A5;" d="M176.552,353.103v17.655c-0.015,4.869-3.958,8.813-8.828,8.828H97.103
			c-4.869-0.015-8.813-3.958-8.828-8.828v-17.655c0.015-4.869,3.958-8.813,8.828-8.828v-17.655h70.621v17.655
			C172.593,344.29,176.537,348.234,176.552,353.103z"/>
		<path style="fill:#95A5A5;" d="M300.138,141.241v17.655c-0.015,4.869-3.958,8.813-8.828,8.828v17.655H220.69v-17.655
			c-4.869-0.015-8.813-3.958-8.828-8.828v-17.655c0.015-4.869,3.958-8.813,8.828-8.828h70.621
			C296.18,132.428,300.123,136.372,300.138,141.241z"/>
		<path style="fill:#95A5A5;" d="M300.138,353.103v17.655c-0.015,4.869-3.958,8.813-8.828,8.828H220.69
			c-4.869-0.015-8.813-3.958-8.828-8.828v-17.655c0.015-4.869,3.958-8.813,8.828-8.828v-17.655h70.621v17.655
			C296.18,344.29,300.123,348.234,300.138,353.103z"/>
		<path style="fill:#95A5A5;" d="M423.724,141.241v17.655c-0.015,4.869-3.958,8.813-8.828,8.828v17.655h-70.621v-17.655
			c-4.869-0.015-8.813-3.958-8.828-8.828v-17.655c0.015-4.869,3.958-8.813,8.828-8.828h70.621
			C419.766,132.428,423.71,136.372,423.724,141.241z"/>
		<path style="fill:#95A5A5;" d="M423.724,353.103v17.655c-0.015,4.869-3.958,8.813-8.828,8.828h-70.621
			c-4.869-0.015-8.813-3.958-8.828-8.828v-17.655c0.015-4.869,3.958-8.813,8.828-8.828v-17.655h70.621v17.655
			C419.766,344.29,423.71,348.234,423.724,353.103z"/>
	</g>
	<rect x="8.828" y="238.345" style="fill:#46B29D;" width="494.345" height="35.31"/>
	<g>
		<rect x="114.759" y="185.379" style="fill:#A5A5A4;" width="35.31" height="141.241"/>
		<rect x="238.345" y="185.379" style="fill:#A5A5A4;" width="35.31" height="141.241"/>
		<rect x="361.931" y="185.379" style="fill:#A5A5A4;" width="35.31" height="141.241"/>
	</g>
	<g>
		<path style="fill:#527F72;" d="M8.828,0h17.655c4.875,0,8.828,3.952,8.828,8.828v494.345c0,4.875-3.952,8.828-8.828,8.828H8.828
			C3.952,512,0,508.048,0,503.172V8.828C0,3.952,3.952,0,8.828,0z"/>
		<path style="fill:#527F72;" d="M503.172,512h-17.655c-4.875,0-8.828-3.952-8.828-8.828V8.828c0-4.875,3.952-8.828,8.828-8.828
			h17.655C508.048,0,512,3.952,512,8.828v494.345C512,508.048,508.048,512,503.172,512z"/>
	</g>
	<g>
		<path style="fill:#7F8C8D;" d="M185.379,203.034H79.448c-4.875,0-8.828-3.952-8.828-8.828v-17.655
			c0-4.875,3.952-8.828,8.828-8.828h105.931c4.875,0,8.828,3.952,8.828,8.828v17.655
			C194.207,199.082,190.255,203.034,185.379,203.034z"/>
		<path style="fill:#7F8C8D;" d="M79.448,308.966h105.931c4.875,0,8.828,3.952,8.828,8.828v17.655c0,4.875-3.952,8.828-8.828,8.828
			H79.448c-4.875,0-8.828-3.952-8.828-8.828v-17.655C70.621,312.918,74.573,308.966,79.448,308.966z"/>
		<path style="fill:#7F8C8D;" d="M308.966,203.034H203.034c-4.875,0-8.828-3.952-8.828-8.828v-17.655
			c0-4.875,3.952-8.828,8.828-8.828h105.931c4.875,0,8.828,3.952,8.828,8.828v17.655
			C317.793,199.082,313.841,203.034,308.966,203.034z"/>
		<path style="fill:#7F8C8D;" d="M203.034,308.966h105.931c4.875,0,8.828,3.952,8.828,8.828v17.655c0,4.875-3.952,8.828-8.828,8.828
			H203.034c-4.875,0-8.828-3.952-8.828-8.828v-17.655C194.207,312.918,198.159,308.966,203.034,308.966z"/>
		<path style="fill:#7F8C8D;" d="M432.552,203.034H326.621c-4.875,0-8.828-3.952-8.828-8.828v-17.655
			c0-4.875,3.952-8.828,8.828-8.828h105.931c4.875,0,8.828,3.952,8.828,8.828v17.655
			C441.379,199.082,437.427,203.034,432.552,203.034z"/>
		<path style="fill:#7F8C8D;" d="M326.621,308.966h105.931c4.875,0,8.828,3.952,8.828,8.828v17.655c0,4.875-3.952,8.828-8.828,8.828
			H326.621c-4.875,0-8.828-3.952-8.828-8.828v-17.655C317.793,312.918,321.745,308.966,326.621,308.966z"/>
	</g>
</g>
<g>
</g>
<g>
</g>
<g>
</g>
<g>
</g>
<g>
</g>
<g>
</g>
<g>
</g>
<g>
</g>
<g>
</g>
<g>
</g>
<g>
</g>
<g>
</g>
<g>
</g>
<g>
</g>
<g>
</g>
</svg>
