<?xml version="1.0" encoding="iso-8859-1"?>
<!-- Generator: Adobe Illustrator 19.0.0, SVG Export Plug-In . SVG Version: 6.00 Build 0)  -->
<svg version="1.1" id="Capa_1" xmlns="http://www.w3.org/2000/svg" xmlns:xlink="http://www.w3.org/1999/xlink" x="0px" y="0px"
	 viewBox="0 0 512 512" style="enable-background:new 0 0 512 512;" xml:space="preserve">
<g>
	<g>
		<path style="fill:#7D6599;" d="M79.448,256c0.077,19.181-2.176,38.3-6.709,56.938c-5.382,26.933-18.874,51.576-38.665,70.621
			c-45.432-78.971-45.432-176.146,0-255.117c19.791,19.045,33.283,43.687,38.665,70.621C77.272,217.7,79.525,236.82,79.448,256z"/>
		<path style="fill:#7D6599;" d="M512,256c0.09,44.781-11.666,88.788-34.074,127.559c-19.791-19.045-33.283-43.687-38.665-70.621
			c-8.945-37.432-8.945-76.444,0-113.876c5.382-26.933,18.874-51.576,38.665-70.621C500.334,167.212,512.09,211.22,512,256z"/>
	</g>
	<g>
		<path style="fill:#3D324C;" d="M256,0C164.345-0.08,79.665,48.929,34.074,128.442c19.791,19.045,33.283,43.687,38.665,70.621
			c32.574-44.668,102.4-75.476,183.261-75.476s150.687,30.808,183.261,75.476c5.382-26.933,18.874-51.576,38.665-70.621
			C432.335,48.929,347.655-0.08,256,0z M357.341,79.802c-4.325,8.635-14.773,12.209-23.481,8.033
			C309.49,76.435,282.904,70.558,256,70.621c-24.489-0.009-48.735,4.852-71.327,14.301c-8.543,3.71-18.496,0.108-22.687-8.21
			l-0.088-0.088c-2.178-4.323-2.485-9.351-0.849-13.907c1.636-4.556,5.07-8.241,9.5-10.192
			c57.348-24.096,122.206-22.846,178.582,3.443c4.294,2.024,7.587,5.697,9.133,10.185S359.477,75.563,357.341,79.802z"/>
		<path style="fill:#3D324C;" d="M439.261,312.938c-32.574,44.668-102.4,75.476-183.261,75.476s-150.687-30.808-183.261-75.476
			c-5.382,26.933-18.874,51.576-38.665,70.621C79.724,463.013,164.366,512,256,512s176.276-48.987,221.926-128.441
			C458.135,364.514,444.643,339.872,439.261,312.938z M349.131,456.034c-56.376,26.289-121.234,27.539-178.582,3.443
			c-4.43-1.951-7.865-5.636-9.5-10.192c-1.636-4.556-1.329-9.584,0.849-13.907l0.088-0.088c4.19-8.318,14.144-11.92,22.687-8.21
			c22.593,9.448,46.839,14.31,71.327,14.301c26.904,0.063,53.49-5.814,77.859-17.214c8.8-4.217,19.352-0.502,23.57,8.298
			C361.646,441.264,357.931,451.816,349.131,456.034z"/>
	</g>
	<path style="fill:#894B9D;" d="M432.552,256c-0.077,19.181,2.176,38.3,6.709,56.938c-32.574,44.668-102.4,75.476-183.261,75.476
		s-150.687-30.808-183.261-75.476c4.533-18.638,6.785-37.757,6.709-56.938c0.077-19.181-2.176-38.3-6.709-56.938
		c32.574-44.668,102.4-75.476,183.261-75.476s150.687,30.808,183.261,75.476C434.728,217.7,432.475,236.82,432.552,256z"/>
	<g>
		<path style="fill:#3D324C;" d="M27.542,256c7.717,6.638,12.163,16.304,12.182,26.483c0.03,18.308-13.978,33.583-32.221,35.134
			c-1.412-5.738-2.648-11.564-3.619-17.567c4.768,0.179,9.403-1.594,12.835-4.909s5.364-7.886,5.35-12.658
			c-0.028-9.739-7.916-17.627-17.655-17.655c-1.437-0.024-2.868,0.184-4.237,0.618C0.088,262.356,0,259.178,0,256
			c0-3.178,0.088-6.356,0.177-9.446c1.37,0.433,2.801,0.642,4.237,0.618c9.739-0.029,17.627-7.916,17.655-17.655
			c0.014-4.771-1.918-9.342-5.35-12.658s-8.067-5.088-12.835-4.909c0.971-6.003,2.207-11.917,3.619-17.743
			c18.224,1.729,32.163,17.004,32.221,35.31C39.705,239.696,35.259,249.363,27.542,256z"/>
		<path style="fill:#3D324C;" d="M489.931,282.483c-0.014,4.771,1.918,9.342,5.35,12.658c3.432,3.315,8.067,5.088,12.835,4.909
			c-0.971,6.003-2.207,11.829-3.619,17.567c-14.101-1.174-26.122-10.692-30.499-24.148c-4.376-13.456-0.253-28.225,10.46-37.468
			c-7.717-6.638-12.163-16.304-12.182-26.483c0.09-18.294,14.012-33.55,32.221-35.31c1.412,5.826,2.648,11.741,3.619,17.743
			c-4.772-0.193-9.416,1.575-12.851,4.893c-3.435,3.318-5.362,7.898-5.334,12.674c0.029,9.739,7.916,17.627,17.655,17.655
			c1.437,0.024,2.867-0.185,4.237-0.618c0.088,3.09,0.177,6.268,0.177,9.446c0,3.178-0.088,6.356-0.177,9.446
			c-1.37-0.434-2.801-0.642-4.237-0.618C497.847,264.856,489.959,272.744,489.931,282.483z"/>
	</g>
</g>
<g>
</g>
<g>
</g>
<g>
</g>
<g>
</g>
<g>
</g>
<g>
</g>
<g>
</g>
<g>
</g>
<g>
</g>
<g>
</g>
<g>
</g>
<g>
</g>
<g>
</g>
<g>
</g>
<g>
</g>
</svg>
