<?xml version="1.0" encoding="iso-8859-1"?>
<!-- Generator: Adobe Illustrator 19.0.0, SVG Export Plug-In . SVG Version: 6.00 Build 0)  -->
<svg version="1.1" id="Capa_1" xmlns="http://www.w3.org/2000/svg" xmlns:xlink="http://www.w3.org/1999/xlink" x="0px" y="0px"
	 viewBox="0 0 512 512" style="enable-background:new 0 0 512 512;" xml:space="preserve">
<g>
	<g>
		<path style="fill:#5E5F62;" d="M432.552,167.724c-2.341,0.001-4.587-0.929-6.243-2.585c-1.656-1.656-2.585-3.901-2.585-6.243
			v-35.31c0-4.875,3.952-8.828,8.828-8.828s8.828,3.952,8.828,8.828v35.31c0.001,2.341-0.929,4.587-2.585,6.243
			C437.139,166.795,434.893,167.725,432.552,167.724z"/>
		<path style="fill:#5E5F62;" d="M79.448,167.724c-4.875,0-8.828-3.952-8.828-8.828v-35.31c0-4.875,3.952-8.828,8.828-8.828
			c4.875,0,8.828,3.952,8.828,8.828v35.31C88.276,163.772,84.324,167.724,79.448,167.724z"/>
	</g>
	<g>
		<path style="fill:#BDC3C7;" d="M379.586,158.897h61.793c9.751,0,17.655,7.904,17.655,17.655s-7.905,17.655-17.655,17.655h-61.793
			V158.897z"/>
		<path style="fill:#BDC3C7;" d="M132.414,194.207H70.621c-9.751,0-17.655-7.904-17.655-17.655s7.904-17.655,17.655-17.655h61.793
			V194.207z"/>
	</g>
	<path style="fill:#A5A5A4;" d="M256,397.241c-5.485-0.723-9.398-5.679-8.828-11.182V240.699c-0.57-5.502,3.343-10.459,8.828-11.182
		c5.485,0.723,9.398,5.679,8.828,11.182V386.06C265.398,391.562,261.485,396.519,256,397.241z"/>
	<path style="fill:#5E5F62;" d="M229.517,441.379h52.966c4.875,0,8.828,3.952,8.828,8.828v17.655c0,4.875-3.952,8.828-8.828,8.828
		h-52.966c-4.875,0-8.828-3.952-8.828-8.828v-17.655C220.69,445.332,224.642,441.379,229.517,441.379z"/>
	<path style="fill:#A5A5A4;" d="M229.517,476.69h52.966c4.875,0,8.828,3.952,8.828,8.828v17.655c0,4.875-3.952,8.828-8.828,8.828
		h-52.966c-4.875,0-8.828-3.952-8.828-8.828v-17.655C220.69,480.642,224.642,476.69,229.517,476.69z"/>
	<path style="fill:#5E5F62;" d="M229.517,370.759h52.966c4.875,0,8.828,3.952,8.828,8.828v17.655c0,4.875-3.952,8.828-8.828,8.828
		h-52.966c-4.875,0-8.828-3.952-8.828-8.828v-17.655C220.69,374.711,224.642,370.759,229.517,370.759z"/>
	<path style="fill:#A5A5A4;" d="M229.517,406.069h52.966c4.875,0,8.828,3.952,8.828,8.828v17.655c0,4.875-3.952,8.828-8.828,8.828
		h-52.966c-4.875,0-8.828-3.952-8.828-8.828v-17.655C220.69,410.021,224.642,406.069,229.517,406.069z"/>
	<rect x="132.414" y="211.862" style="fill:#3F5C6C;" width="247.172" height="44.138"/>
	<g>
		<path style="fill:#7F8C8D;" d="M123.586,0h17.655c4.875,0,8.828,3.952,8.828,8.828v494.345c0,4.875-3.952,8.828-8.828,8.828
			h-17.655c-4.875,0-8.828-3.952-8.828-8.828V8.828C114.759,3.952,118.711,0,123.586,0z"/>
		<path style="fill:#7F8C8D;" d="M370.759,0h17.655c4.875,0,8.828,3.952,8.828,8.828v494.345c0,4.875-3.952,8.828-8.828,8.828
			h-17.655c-4.875,0-8.828-3.952-8.828-8.828V8.828C361.931,3.952,365.883,0,370.759,0z"/>
	</g>
	<g>
		<path style="fill:#41767F;" d="M97.103,423.724h70.621c9.751,0,17.655,7.905,17.655,17.655l0,0
			c0,9.751-7.904,17.655-17.655,17.655H97.103c-9.751,0-17.655-7.905-17.655-17.655l0,0
			C79.448,431.629,87.353,423.724,97.103,423.724z"/>
		<path style="fill:#41767F;" d="M97.103,344.276h70.621c9.751,0,17.655,7.905,17.655,17.655l0,0
			c0,9.751-7.904,17.655-17.655,17.655H97.103c-9.751,0-17.655-7.905-17.655-17.655l0,0
			C79.448,352.18,87.353,344.276,97.103,344.276z"/>
		<path style="fill:#41767F;" d="M414.897,459.034h-70.621c-9.751,0-17.655-7.905-17.655-17.655l0,0
			c0-9.751,7.904-17.655,17.655-17.655h70.621c9.751,0,17.655,7.905,17.655,17.655l0,0
			C432.552,451.13,424.647,459.034,414.897,459.034z"/>
		<path style="fill:#41767F;" d="M414.897,379.586h-70.621c-9.751,0-17.655-7.905-17.655-17.655l0,0
			c0-9.751,7.904-17.655,17.655-17.655h70.621c9.751,0,17.655,7.905,17.655,17.655l0,0
			C432.552,371.682,424.647,379.586,414.897,379.586z"/>
	</g>
	<g>
		<path style="fill:#95A5A5;" d="M150.069,256h35.31v35.31c0,4.875-3.952,8.828-8.828,8.828h-26.483V256z"/>
		<path style="fill:#95A5A5;" d="M361.931,300.138h-26.483c-4.875,0-8.828-3.952-8.828-8.828V256h35.31V300.138z"/>
	</g>
	<g>
		<path style="fill:#5E5F62;" d="M467.862,70.621c-0.015,4.869-3.958,8.813-8.828,8.828H344.276
			c-14.608-0.043-26.44-11.875-26.483-26.483V35.31c0.043-14.608,11.874-26.44,26.483-26.483h17.655v17.655h-17.655
			c-4.869,0.015-8.813,3.958-8.828,8.828v17.655c0.015,4.869,3.958,8.813,8.828,8.828h114.759
			C463.904,61.808,467.848,65.751,467.862,70.621z"/>
		<path style="fill:#5E5F62;" d="M44.138,70.621c0.015,4.869,3.958,8.813,8.828,8.828h114.759
			c14.608-0.043,26.44-11.875,26.483-26.483V35.31c-0.043-14.608-11.874-26.44-26.483-26.483h-17.655v17.655h17.655
			c4.869,0.015,8.813,3.958,8.828,8.828v17.655c-0.015,4.869-3.958,8.813-8.828,8.828H52.966
			C48.096,61.808,44.152,65.751,44.138,70.621z"/>
	</g>
</g>
<g>
</g>
<g>
</g>
<g>
</g>
<g>
</g>
<g>
</g>
<g>
</g>
<g>
</g>
<g>
</g>
<g>
</g>
<g>
</g>
<g>
</g>
<g>
</g>
<g>
</g>
<g>
</g>
<g>
</g>
</svg>
