<?xml version="1.0" encoding="iso-8859-1"?>
<!-- Generator: Adobe Illustrator 19.0.0, SVG Export Plug-In . SVG Version: 6.00 Build 0)  -->
<svg version="1.1" id="Capa_1" xmlns="http://www.w3.org/2000/svg" xmlns:xlink="http://www.w3.org/1999/xlink" x="0px" y="0px"
	 viewBox="0 0 512 512" style="enable-background:new 0 0 512 512;" xml:space="preserve">
<g>
	<path style="fill:#A5A5A4;" d="M361.931,61.793h26.483c18.731-0.005,36.697,7.434,49.942,20.679
		c13.245,13.245,20.684,31.211,20.679,49.942v105.931h-52.966v-88.276c0.003-9.366-3.717-18.348-10.339-24.971
		c-6.623-6.623-15.605-10.342-24.971-10.339H141.241c-9.366-0.003-18.348,3.717-24.971,10.339
		c-6.623,6.623-10.342,15.605-10.339,24.971v88.276H52.966l0-105.931c-0.005-18.731,7.434-36.697,20.679-49.942
		s31.211-20.684,49.942-20.679H361.931z"/>
	<g>
		<path style="fill:#5E5F62;" d="M35.31,322.383v-75.211c0-4.875,3.952-8.828,8.828-8.828h70.621c4.875,0,8.828,3.952,8.828,8.828
			v75.211H35.31z"/>
		<path style="fill:#5E5F62;" d="M388.414,322.383v-75.211c0-4.875,3.952-8.828,8.828-8.828h70.621c4.875,0,8.828,3.952,8.828,8.828
			v75.211H388.414z"/>
	</g>
	<path style="fill:#8697CB;" d="M167.724,44.138h35.31c9.751,0,17.655,7.904,17.655,17.655v52.966
		c0,9.751-7.904,17.655-17.655,17.655h-35.31c-9.751,0-17.655-7.904-17.655-17.655V61.793
		C150.069,52.042,157.973,44.138,167.724,44.138z"/>
	<path style="fill:#556080;" d="M238.345,44.138h35.31c9.751,0,17.655,7.904,17.655,17.655v52.966
		c0,9.751-7.904,17.655-17.655,17.655h-35.31c-9.751,0-17.655-7.904-17.655-17.655V61.793
		C220.69,52.042,228.594,44.138,238.345,44.138z"/>
	<path style="fill:#8697CB;" d="M308.966,44.138h35.31c9.751,0,17.655,7.904,17.655,17.655v52.966
		c0,9.751-7.905,17.655-17.655,17.655h-35.31c-9.751,0-17.655-7.904-17.655-17.655V61.793
		C291.31,52.042,299.215,44.138,308.966,44.138z"/>
	<circle style="fill:#A5A5A4;" cx="79.448" cy="388.414" r="79.448"/>
	<circle style="fill:#5E5F62;" cx="79.448" cy="388.414" r="44.138"/>
	<path style="fill:#ECF0F1;" d="M88.276,397.241H70.621c-4.875,0-8.828-3.952-8.828-8.828s3.952-8.828,8.828-8.828h17.655
		c4.875,0,8.828,3.952,8.828,8.828S93.151,397.241,88.276,397.241z"/>
	<circle style="fill:#A5A5A4;" cx="432.552" cy="388.414" r="79.448"/>
	<circle style="fill:#5E5F62;" cx="432.552" cy="388.414" r="44.138"/>
	<path style="fill:#ECF0F1;" d="M441.379,397.241h-17.655c-4.875,0-8.828-3.952-8.828-8.828s3.952-8.828,8.828-8.828h17.655
		c4.875,0,8.828,3.952,8.828,8.828S446.255,397.241,441.379,397.241z"/>
</g>
<g>
</g>
<g>
</g>
<g>
</g>
<g>
</g>
<g>
</g>
<g>
</g>
<g>
</g>
<g>
</g>
<g>
</g>
<g>
</g>
<g>
</g>
<g>
</g>
<g>
</g>
<g>
</g>
<g>
</g>
</svg>
