<?xml version="1.0" encoding="iso-8859-1"?>
<!-- Generator: Adobe Illustrator 19.0.0, SVG Export Plug-In . SVG Version: 6.00 Build 0)  -->
<svg version="1.1" id="Capa_1" xmlns="http://www.w3.org/2000/svg" xmlns:xlink="http://www.w3.org/1999/xlink" x="0px" y="0px"
	 viewBox="0 0 512 512" style="enable-background:new 0 0 512 512;" xml:space="preserve">
<g>
	<path style="fill:#A5A5A4;" d="M388.414,300.138h105.931c9.751,0,17.655-7.905,17.655-17.655v-35.31
		c0-9.751-7.905-17.655-17.655-17.655H17.655C7.904,229.517,0,237.422,0,247.172v35.31c0,9.751,7.904,17.655,17.655,17.655H388.414z
		"/>
	<path style="fill:#5E5F62;" d="M141.241,176.552h229.517c9.751,0,17.655,7.904,17.655,17.655v141.241
		c0,9.751-7.904,17.655-17.655,17.655H141.241c-9.751,0-17.655-7.905-17.655-17.655V194.207
		C123.586,184.456,131.491,176.552,141.241,176.552z"/>
	<path style="fill:#CC4B4C;" d="M211.862,0h88.276c19.501,0,35.31,15.809,35.31,35.31V476.69c0,19.501-15.809,35.31-35.31,35.31
		h-88.276c-19.501,0-35.31-15.809-35.31-35.31V35.31C176.552,15.809,192.361,0,211.862,0z"/>
	<g>
		<path style="fill:#802F34;" d="M229.517,35.31h52.966c9.751,0,17.655,7.904,17.655,17.655l0,0c0,9.751-7.905,17.655-17.655,17.655
			h-52.966c-9.751,0-17.655-7.904-17.655-17.655l0,0C211.862,43.215,219.767,35.31,229.517,35.31z"/>
		<path style="fill:#802F34;" d="M229.517,114.759h52.966c9.751,0,17.655,7.904,17.655,17.655l0,0
			c0,9.751-7.905,17.655-17.655,17.655h-52.966c-9.751,0-17.655-7.904-17.655-17.655l0,0
			C211.862,122.663,219.767,114.759,229.517,114.759z"/>
		<path style="fill:#802F34;" d="M229.517,194.207h52.966c9.751,0,17.655,7.904,17.655,17.655l0,0
			c0,9.751-7.905,17.655-17.655,17.655h-52.966c-9.751,0-17.655-7.904-17.655-17.655l0,0
			C211.862,202.111,219.767,194.207,229.517,194.207z"/>
		<path style="fill:#802F34;" d="M229.517,273.655h52.966c9.751,0,17.655,7.904,17.655,17.655l0,0
			c0,9.751-7.905,17.655-17.655,17.655h-52.966c-9.751,0-17.655-7.905-17.655-17.655l0,0
			C211.862,281.56,219.767,273.655,229.517,273.655z"/>
		<path style="fill:#802F34;" d="M229.517,353.103h52.966c9.751,0,17.655,7.904,17.655,17.655l0,0
			c0,9.751-7.905,17.655-17.655,17.655h-52.966c-9.751,0-17.655-7.904-17.655-17.655l0,0
			C211.862,361.008,219.767,353.103,229.517,353.103z"/>
		<path style="fill:#802F34;" d="M229.517,432.552h52.966c9.751,0,17.655,7.904,17.655,17.655l0,0
			c0,9.751-7.905,17.655-17.655,17.655h-52.966c-9.751,0-17.655-7.904-17.655-17.655l0,0
			C211.862,440.456,219.767,432.552,229.517,432.552z"/>
	</g>
</g>
<g>
</g>
<g>
</g>
<g>
</g>
<g>
</g>
<g>
</g>
<g>
</g>
<g>
</g>
<g>
</g>
<g>
</g>
<g>
</g>
<g>
</g>
<g>
</g>
<g>
</g>
<g>
</g>
<g>
</g>
</svg>
