<?xml version="1.0" encoding="iso-8859-1"?>
<!-- Generator: Adobe Illustrator 19.0.0, SVG Export Plug-In . SVG Version: 6.00 Build 0)  -->
<svg version="1.1" id="Capa_1" xmlns="http://www.w3.org/2000/svg" xmlns:xlink="http://www.w3.org/1999/xlink" x="0px" y="0px"
	 viewBox="0 0 512 512" style="enable-background:new 0 0 512 512;" xml:space="preserve">
<g>
	<path style="fill:#2C3E50;" d="M512,286.897v35.31c0,65.854-114.582,119.172-256,119.172S0,388.061,0,322.207v-35.31H512z"/>
	<path style="fill:#35495E;" d="M512,286.897c0,65.854-114.582,119.172-256,119.172S0,352.75,0,286.897
		c0-25.953,17.743-49.964,48.022-69.473h415.956C494.257,236.932,512,260.943,512,286.897z"/>
	<path style="fill:#B0D3F0;" d="M476.69,291.31c0,43.873-98.781,79.448-220.69,79.448S35.31,335.183,35.31,291.31
		c0-121.884,98.806-220.69,220.69-220.69S476.69,169.427,476.69,291.31z"/>
	<path style="fill:#3D324C;" d="M8.828,291.31c-4.875,0-8.828-3.952-8.828-8.828v-89.599c-0.01-14.577,7.179-28.218,19.209-36.45
		c12.03-8.231,27.35-9.991,40.933-4.701l91.711,35.659c4.53,1.776,6.769,6.882,5.006,11.417c-1.763,4.535-6.862,6.789-11.402,5.04
		l-91.716-35.663c-8.151-3.176-17.345-2.121-24.565,2.82c-7.219,4.941-11.532,13.13-11.521,21.878v89.599
		C17.655,287.358,13.703,291.31,8.828,291.31z"/>
	<path style="fill:#7D6599;" d="M177.448,254.75c-1.012,0.001-2.017-0.174-2.97-0.517c-8.096-3.126-15.593-7.623-22.164-13.293
		c-13.608-11.105-18.746-29.577-12.827-46.113c5.919-16.537,21.612-27.552,39.176-27.499c8.676-0.208,17.324,1.077,25.565,3.797
		c4.59,1.643,6.979,6.695,5.336,11.284c-1.643,4.59-6.695,6.979-11.284,5.336c-1.345-0.47-33.418-11.427-42.172,13.03
		c-8.759,24.466,22.987,36.349,24.345,36.845c4.026,1.463,6.421,5.605,5.681,9.824C185.393,251.665,181.732,254.744,177.448,254.75
		L177.448,254.75z"/>
	<g>
		<path style="fill:#3D324C;" d="M194.047,278.358c-3.033-0.001-6.042-0.526-8.897-1.552h-0.004
			c-13.754-4.947-20.911-20.09-16.004-33.858l23.802-66.487c3.188-8.908,10.887-15.438,20.196-17.13
			c9.309-1.693,18.813,1.709,24.933,8.925s7.926,17.147,4.738,26.055l-23.802,66.487
			C215.223,271.329,205.238,278.353,194.047,278.358z M191.099,260.185c4.592,1.631,9.638-0.756,11.289-5.341l23.802-66.483
			c1.636-4.59-0.751-9.639-5.336-11.289c-4.591-1.642-9.643,0.747-11.289,5.336l-23.802,66.487
			C184.128,253.487,186.514,258.535,191.099,260.185L191.099,260.185z"/>
		<path style="fill:#3D324C;" d="M503.172,291.31c-4.875,0-8.828-3.952-8.828-8.828v-89.599c0.01-8.747-4.302-16.935-11.52-21.877
			c-7.218-4.942-16.411-5.999-24.562-2.826l-91.72,35.668c-4.54,1.749-9.64-0.505-11.402-5.04
			c-1.763-4.535,0.476-9.641,5.006-11.417l91.715-35.663c13.583-5.287,28.901-3.525,40.93,4.706
			c12.029,8.232,19.217,21.872,19.208,36.448v89.599C512,287.358,508.048,291.31,503.172,291.31z"/>
	</g>
	<path style="fill:#7D6599;" d="M334.548,254.754c-4.289-0.003-7.956-3.086-8.694-7.311c-0.738-4.225,1.665-8.369,5.698-9.827
		c1.405-0.509,33.091-12.392,24.341-36.841c-8.763-24.47-40.841-13.504-42.194-13.022c-4.588,1.622-9.624-0.775-11.258-5.359
		s0.751-9.626,5.331-11.271c8.24-2.725,16.888-4.01,25.565-3.797c17.564-0.053,33.257,10.962,39.176,27.499
		c5.919,16.537,0.781,35.009-12.828,46.113c-6.571,5.67-14.068,10.166-22.164,13.293
		C336.568,254.577,335.562,254.754,334.548,254.754z"/>
	<path style="fill:#3D324C;" d="M317.953,278.358c-11.189-0.004-21.174-7.026-24.961-17.556l-23.802-66.491
		c-3.189-8.908-1.383-18.84,4.738-26.055c6.12-7.215,15.625-10.617,24.933-8.925s17.007,8.223,20.196,17.13l23.802,66.487
		c4.907,13.768-2.251,28.911-16.004,33.858h-0.004C323.995,277.832,320.985,278.357,317.953,278.358z M294.129,176.552
		c-2.872,0.004-5.563,1.403-7.217,3.751c-1.654,2.348-2.065,5.353-1.102,8.059l23.802,66.487c1.063,2.97,3.63,5.147,6.734,5.711
		c3.104,0.564,6.272-0.571,8.312-2.976c2.04-2.406,2.642-5.717,1.579-8.687l-23.802-66.487
		C301.175,178.904,297.855,176.563,294.129,176.552z"/>
</g>
<g>
</g>
<g>
</g>
<g>
</g>
<g>
</g>
<g>
</g>
<g>
</g>
<g>
</g>
<g>
</g>
<g>
</g>
<g>
</g>
<g>
</g>
<g>
</g>
<g>
</g>
<g>
</g>
<g>
</g>
</svg>
