<?xml version="1.0" encoding="iso-8859-1"?>
<!-- Generator: Adobe Illustrator 19.0.0, SVG Export Plug-In . SVG Version: 6.00 Build 0)  -->
<svg version="1.1" id="Capa_1" xmlns="http://www.w3.org/2000/svg" xmlns:xlink="http://www.w3.org/1999/xlink" x="0px" y="0px"
	 viewBox="0 0 512 512" style="enable-background:new 0 0 512 512;" xml:space="preserve">
<g>
	<g>
		<rect x="185.379" y="414.897" style="fill:#67B9CC;" width="35.31" height="70.621"/>
		<rect x="291.31" y="414.897" style="fill:#67B9CC;" width="35.31" height="70.621"/>
	</g>
	<path style="fill:#5E5F62;" d="M256,317.793c-5.485-0.723-9.398-5.679-8.828-11.182V161.251c-0.57-5.502,3.343-10.459,8.828-11.182
		c5.485,0.723,9.398,5.679,8.828,11.182v145.361C265.398,312.114,261.485,317.071,256,317.793z"/>
	<g>
		<path style="fill:#41767F;" d="M388.414,70.621h-44.138c-4.875,0-8.828-3.952-8.828-8.828V17.655h61.793v44.138
			C397.241,66.668,393.289,70.621,388.414,70.621z"/>
		<path style="fill:#41767F;" d="M114.759,17.655h61.793v44.138c0,4.875-3.952,8.828-8.828,8.828h-44.138
			c-4.875,0-8.828-3.952-8.828-8.828V17.655z"/>
	</g>
	<path style="fill:#A5A5A4;" d="M273.655,35.31h123.586V8.828c0-4.875-3.952-8.828-8.828-8.828H123.586
		c-4.875,0-8.828,3.952-8.828,8.828V35.31H273.655z"/>
	<rect x="238.345" style="fill:#5E5F62;" width="35.31" height="158.897"/>
	<path style="fill:#A5A5A4;" d="M414.897,158.897V476.69h-35.31v-291.31c0-4.875-3.952-8.828-8.828-8.828H141.241
		c-4.875,0-8.828,3.952-8.828,8.828v291.31h-35.31V158.897c0-9.751,7.904-17.655,17.655-17.655h282.483
		C406.992,141.241,414.897,149.146,414.897,158.897z"/>
	<g>
		<path style="fill:#5E5F62;" d="M97.103,459.034h35.31c4.875,0,8.828,3.952,8.828,8.828v35.31c0,4.875-3.952,8.828-8.828,8.828
			h-35.31c-4.875,0-8.828-3.952-8.828-8.828v-35.31C88.276,462.987,92.228,459.034,97.103,459.034z"/>
		<path style="fill:#5E5F62;" d="M379.586,459.034h35.31c4.875,0,8.828,3.952,8.828,8.828v35.31c0,4.875-3.952,8.828-8.828,8.828
			h-35.31c-4.875,0-8.828-3.952-8.828-8.828v-35.31C370.759,462.987,374.711,459.034,379.586,459.034z"/>
	</g>
	<path style="fill:#41767F;" d="M176.552,397.241h158.897c4.875,0,8.828,3.952,8.828,8.828v17.655c0,4.875-3.952,8.828-8.828,8.828
		H176.552c-4.875,0-8.828-3.952-8.828-8.828v-17.655C167.724,401.194,171.676,397.241,176.552,397.241z"/>
	<path style="fill:#A5A5A4;" d="M203.034,291.31h105.931c4.875,0,8.828,3.952,8.828,8.828v17.655c0,4.875-3.952,8.828-8.828,8.828
		H203.034c-4.875,0-8.828-3.952-8.828-8.828v-17.655C194.207,295.263,198.159,291.31,203.034,291.31z"/>
	<path style="fill:#5E5F62;" d="M203.034,326.621h105.931c4.875,0,8.828,3.952,8.828,8.828v17.655c0,4.875-3.952,8.828-8.828,8.828
		H203.034c-4.875,0-8.828-3.952-8.828-8.828v-17.655C194.207,330.573,198.159,326.621,203.034,326.621z"/>
	<g>
		<path style="fill:#A5A5A4;" d="M203.034,361.931h105.931c4.875,0,8.828,3.952,8.828,8.828v17.655c0,4.875-3.952,8.828-8.828,8.828
			H203.034c-4.875,0-8.828-3.952-8.828-8.828v-17.655C194.207,365.883,198.159,361.931,203.034,361.931z"/>
		<polyline style="fill:#A5A5A4;" points="370.759,467.862 300.138,467.862 211.862,467.862 141.241,467.862 141.241,503.172 
			211.862,503.172 300.138,503.172 370.759,503.172 		"/>
	</g>
</g>
<g>
</g>
<g>
</g>
<g>
</g>
<g>
</g>
<g>
</g>
<g>
</g>
<g>
</g>
<g>
</g>
<g>
</g>
<g>
</g>
<g>
</g>
<g>
</g>
<g>
</g>
<g>
</g>
<g>
</g>
</svg>
