<?xml version="1.0" encoding="iso-8859-1"?>
<!-- Generator: Adobe Illustrator 19.0.0, SVG Export Plug-In . SVG Version: 6.00 Build 0)  -->
<svg version="1.1" id="Capa_1" xmlns="http://www.w3.org/2000/svg" xmlns:xlink="http://www.w3.org/1999/xlink" x="0px" y="0px"
	 viewBox="0 0 512 512" style="enable-background:new 0 0 512 512;" xml:space="preserve">
<g>
	<path style="fill:#3F5C6C;" d="M160.542,381.831c-2.302,0.001-4.509-0.913-6.137-2.541c-1.628-1.628-2.542-3.835-2.541-6.137
		V221.288c-0.013-11.977-9.718-21.682-21.695-21.695c-21.535-0.077-38.974-17.516-39.051-39.051V8.678
		C91.119,3.885,95.004,0,99.797,0s8.678,3.885,8.678,8.678v151.864c0.079,11.949,9.746,21.616,21.695,21.695
		c21.557,0.023,39.027,17.493,39.051,39.051v151.864c0.001,2.302-0.913,4.509-2.541,6.137
		C165.052,380.917,162.844,381.831,160.542,381.831z"/>
	<path style="fill:#A5A5A4;" d="M177.898,399.186h-34.712v-43.39c0-4.793,3.885-8.678,8.678-8.678h17.356
		c4.793,0,8.678,3.885,8.678,8.678V399.186z"/>
	<path style="fill:#D1D4D1;" d="M125.831,390.508h104.136v34.712H125.831c-9.585,0-17.356-7.771-17.356-17.356
		S116.245,390.508,125.831,390.508z"/>
	<path style="fill:#3F5C6C;" d="M351.458,321.085c-2.302,0.001-4.509-0.914-6.137-2.541c-1.628-1.628-2.542-3.835-2.541-6.137
		v-91.119c0.023-21.557,17.493-39.027,39.051-39.051c11.947-0.083,21.612-9.748,21.695-21.695V8.678
		c0-4.793,3.885-8.678,8.678-8.678c4.793,0,8.678,3.885,8.678,8.678v151.864c-0.081,21.533-17.517,38.97-39.051,39.051
		c-11.977,0.013-21.682,9.718-21.695,21.695v91.119c0.001,2.302-0.913,4.509-2.541,6.137
		C355.967,320.171,353.759,321.085,351.458,321.085z"/>
	<path style="fill:#A5A5A4;" d="M342.78,286.373h17.356c4.793,0,8.678,3.885,8.678,8.678v52.068h-34.712v-52.068
		C334.102,290.258,337.987,286.373,342.78,286.373z"/>
	<path style="fill:#D1D4D1;" d="M386.169,364.475H282.034v-34.712h104.136c9.585,0,17.356,7.771,17.356,17.356
		C403.525,356.704,395.755,364.475,386.169,364.475z"/>
	<path style="fill:#3F5C6C;" d="M316.746,156.203H195.254c-23.952-0.028-43.362-19.438-43.39-43.39V8.678
		c0-4.793,3.885-8.678,8.678-8.678s8.678,3.885,8.678,8.678v104.136c0.016,14.372,11.662,26.018,26.034,26.034h121.492
		c14.372-0.016,26.018-11.662,26.034-26.034V8.678c0-4.793,3.885-8.678,8.678-8.678c4.793,0,8.678,3.885,8.678,8.678v104.136
		C360.107,136.765,340.698,156.175,316.746,156.203z"/>
	<rect x="238.644" y="78.102" style="fill:#A5A5A4;" width="34.712" height="242.983"/>
	<path style="fill:#D1D4D1;" d="M212.61,26.034h86.78c9.585,0,17.356,7.771,17.356,17.356v52.068
		c0,9.585-7.771,17.356-17.356,17.356h-86.78c-9.585,0-17.356-7.771-17.356-17.356V43.39
		C195.254,33.804,203.025,26.034,212.61,26.034z"/>
	<path style="fill:#5E5F62;" d="M229.966,286.373h52.068c9.585,0,17.356,7.771,17.356,17.356v182.237h-86.78V303.729
		C212.61,294.143,220.381,286.373,229.966,286.373z"/>
	<g>
		<path style="fill:#41767F;" d="M247.322,78.102h-17.356c-4.793,0-8.678-3.885-8.678-8.678s3.885-8.678,8.678-8.678h17.356
			c4.793,0,8.678,3.885,8.678,8.678S252.115,78.102,247.322,78.102z"/>
		<path style="fill:#41767F;" d="M282.034,78.102c-2.297-0.034-4.497-0.933-6.161-2.517c-0.347-0.436-0.695-0.869-1.042-1.301
			c-0.33-0.483-0.592-1.009-0.78-1.564c-0.25-0.493-0.427-1.02-0.525-1.564c-0.094-0.573-0.151-1.153-0.169-1.733
			c0.03-2.298,0.929-4.499,2.517-6.161c2.514-2.426,6.221-3.142,9.458-1.826c1.051,0.442,2.02,1.06,2.865,1.826
			c1.584,1.664,2.483,3.864,2.517,6.161c-0.017,0.581-0.077,1.16-0.178,1.733c-0.091,0.545-0.265,1.072-0.517,1.564
			c-0.191,0.553-0.453,1.078-0.78,1.564c-0.347,0.432-0.695,0.864-1.042,1.301c-0.846,0.764-1.814,1.38-2.864,1.822
			C284.288,77.852,283.168,78.088,282.034,78.102z"/>
	</g>
	<rect x="108.475" y="468.61" style="fill:#D1D4D1;" width="295.051" height="34.712"/>
	<g>
		<path style="fill:#5E5F62;" d="M99.797,459.932h17.356c4.793,0,8.678,3.885,8.678,8.678v34.712c0,4.793-3.885,8.678-8.678,8.678
			H99.797c-4.793,0-8.678-3.885-8.678-8.678V468.61C91.119,463.817,95.004,459.932,99.797,459.932z"/>
		<path style="fill:#5E5F62;" d="M394.847,459.932h17.356c4.793,0,8.678,3.885,8.678,8.678v34.712c0,4.793-3.885,8.678-8.678,8.678
			h-17.356c-4.793,0-8.678-3.885-8.678-8.678V468.61C386.169,463.817,390.055,459.932,394.847,459.932z"/>
	</g>
</g>
<g>
</g>
<g>
</g>
<g>
</g>
<g>
</g>
<g>
</g>
<g>
</g>
<g>
</g>
<g>
</g>
<g>
</g>
<g>
</g>
<g>
</g>
<g>
</g>
<g>
</g>
<g>
</g>
<g>
</g>
</svg>
