<?xml version="1.0" encoding="iso-8859-1"?>
<!-- Generator: Adobe Illustrator 19.0.0, SVG Export Plug-In . SVG Version: 6.00 Build 0)  -->
<svg version="1.1" id="Capa_1" xmlns="http://www.w3.org/2000/svg" xmlns:xlink="http://www.w3.org/1999/xlink" x="0px" y="0px"
	 viewBox="0 0 512 512" style="enable-background:new 0 0 512 512;" xml:space="preserve">
<g transform="translate(0 -1)">
	<g>
		<path style="fill:#A5A5A4;" d="M512,257c-0.232-2.019-0.578-4.023-1.036-6.003c-4.331-20.392-25.329-88.011-116.195-132.767
			l-24.011,24.011c24.617,11.252,47.281,26.361,67.137,44.756L512,257z"/>
		<rect x="52.966" y="265.828" style="fill:#A5A5A4;" width="35.31" height="97.103"/>
	</g>
	<circle style="fill:#5E5F62;" cx="339.862" cy="252.587" r="22.069"/>
	<g>
		<polygon style="fill:#A5A5A4;" points="52.966,433.552 70.621,362.932 35.311,362.932 17.655,433.552 		"/>
		<polygon style="fill:#A5A5A4;" points="459.035,432.228 443.957,370.656 479.162,371.759 494.345,432.228 		"/>
	</g>
	<g>
		<path style="fill:#5E5F62;" d="M61.793,460.035H8.828c-4.875,0-8.828-3.952-8.828-8.828v-17.655c0-4.875,3.952-8.828,8.828-8.828
			h52.966c4.875,0,8.828,3.952,8.828,8.828v17.655C70.621,456.083,66.669,460.035,61.793,460.035z"/>
		<path style="fill:#5E5F62;" d="M450.207,424.725h52.966c4.875,0,8.828,3.952,8.828,8.828v17.655c0,4.875-3.952,8.828-8.828,8.828
			h-52.966c-4.875,0-8.828-3.952-8.828-8.828v-17.655C441.38,428.677,445.332,424.725,450.207,424.725z"/>
	</g>
	<path style="fill:#35495E;" d="M438.75,81.519l-84.936,84.936c-3.447,3.447-9.037,3.447-12.484,0l-12.484-12.484
		c-3.447-3.447-3.447-9.037,0-12.484l84.936-84.936c3.447-3.447,9.037-3.447,12.484,0l12.484,12.484
		C442.197,72.482,442.197,78.072,438.75,81.519z"/>
	<path style="fill:#D1D4D1;" d="M512,265.828v97.103c-0.071,9.721-7.934,17.585-17.655,17.655H17.655
		C7.917,380.558,0.029,372.67,0,362.932c-0.025-4.684,1.855-9.177,5.208-12.447c3.27-3.353,7.763-5.233,12.447-5.208h414.897
		c-43.878,0-79.448-35.57-79.448-79.448s35.57-79.448,79.448-79.448S512,221.95,512,265.828z"/>
	<circle style="fill:#35495E;" cx="432.552" cy="265.828" r="44.138"/>
	<path style="fill:#5E5F62;" d="M17.655,248.173h105.931c9.751,0,17.655,7.904,17.655,17.655l0,0
		c0,9.751-7.904,17.655-17.655,17.655H17.655C7.905,283.483,0,275.579,0,265.828l0,0C0,256.077,7.905,248.173,17.655,248.173z"/>
</g>
<g>
</g>
<g>
</g>
<g>
</g>
<g>
</g>
<g>
</g>
<g>
</g>
<g>
</g>
<g>
</g>
<g>
</g>
<g>
</g>
<g>
</g>
<g>
</g>
<g>
</g>
<g>
</g>
<g>
</g>
</svg>
