<?xml version="1.0" encoding="iso-8859-1"?>
<!-- Generator: Adobe Illustrator 19.0.0, SVG Export Plug-In . SVG Version: 6.00 Build 0)  -->
<svg version="1.1" id="Capa_1" xmlns="http://www.w3.org/2000/svg" xmlns:xlink="http://www.w3.org/1999/xlink" x="0px" y="0px"
	 viewBox="0 0 503.942 503.942" style="enable-background:new 0 0 503.942 503.942;" xml:space="preserve">
<g>
	<g>
		<polygon style="fill:#BDC3C7;" points="52.361,477.908 69.717,408.484 35.005,408.484 17.649,477.908 		"/>
		<polygon style="fill:#BDC3C7;" points="451.547,476.606 439.919,430.318 471.333,417.162 486.259,476.606 		"/>
	</g>
	<polygon style="fill:#A5A5A4;" points="451.547,17.976 451.547,321.705 416.835,321.705 416.835,52.688 	"/>
	<path style="fill:#BDC3C7;" d="M466.333,27.087l-83.496,83.496c-3.389,3.389-8.884,3.389-12.273,0l-12.273-12.273
		c-3.389-3.389-3.389-8.884,0-12.273l83.496-83.496c3.389-3.389,8.884-3.389,12.273,0l12.273,12.273
		C469.722,18.203,469.722,23.698,466.333,27.087z"/>
	<g>
		<path style="fill:#A5A5A4;" d="M52.361,269.637c-23.952-0.028-43.362-19.438-43.39-43.39v-17.356c0-4.793,3.885-8.678,8.678-8.678
			s8.678,3.885,8.678,8.678v17.356c0.016,14.372,11.662,26.018,26.034,26.034c4.793,0,8.678,3.885,8.678,8.678
			C61.039,265.752,57.153,269.637,52.361,269.637z"/>
		<rect x="95.75" y="260.959" style="fill:#A5A5A4;" width="34.712" height="69.424"/>
	</g>
	<g>
		<path style="fill:#CC4B4C;" d="M182.53,278.315H69.717c-9.585,0-17.356-7.771-17.356-17.356l0,0
			c0-9.585,7.771-17.356,17.356-17.356H182.53c9.585,0,17.356,7.771,17.356,17.356l0,0
			C199.886,270.544,192.116,278.315,182.53,278.315z"/>
		<path style="fill:#CC4B4C;" d="M17.649,208.891L17.649,208.891c-9.585,0-17.356-7.771-17.356-17.356V96.078
			c0-9.585,7.771-17.356,17.356-17.356l0,0c9.585,0,17.356,7.771,17.356,17.356v95.458
			C35.005,201.121,27.234,208.891,17.649,208.891z"/>
	</g>
	<path style="fill:#BDC3C7;" d="M191.208,330.383v52.068h-34.712v-26.034c-0.014-4.787-3.891-8.664-8.678-8.678H78.395
		c-4.787,0.014-8.664,3.891-8.678,8.678v26.034H35.005v-52.068c0.028-9.574,7.782-17.328,17.356-17.356h121.492
		C183.426,313.055,191.18,320.809,191.208,330.383z"/>
	<path style="fill:#A5A5A4;" d="M378.132,417.162H8.971c-4.793,0-8.678-3.885-8.678-8.678v-17.356c0-4.793,3.885-8.678,8.678-8.678
		h364.475L378.132,417.162z"/>
	<path style="fill:#CC4B4C;" d="M330.056,359.508v38.825c-0.398,19.574,15.138,35.77,34.712,36.185h72.287
		c37.533-0.796,67.324-31.851,66.56-69.384v-0.01c0.718-22.484-9.912-43.823-28.29-56.794c-18.379-12.971-42.046-15.837-62.99-7.628
		l-60.459,25.209C338.505,331.7,329.907,344.939,330.056,359.508z"/>
	<g>
		<path style="fill:#5E5F62;" d="M61.039,503.942H8.971c-4.793,0-8.678-3.885-8.678-8.678v-17.356c0-4.793,3.885-8.678,8.678-8.678
			h52.068c4.793,0,8.678,3.885,8.678,8.678v17.356C69.717,500.057,65.831,503.942,61.039,503.942z"/>
		<path style="fill:#5E5F62;" d="M442.869,469.23h52.068c4.793,0,8.678,3.885,8.678,8.678v17.356c0,4.793-3.885,8.678-8.678,8.678
			h-52.068c-4.793,0-8.678-3.885-8.678-8.678v-17.356C434.191,473.115,438.076,469.23,442.869,469.23z"/>
	</g>
	<circle style="fill:#802F34;" cx="434.191" cy="365.094" r="34.712"/>
	<path style="fill:#D1D4D1;" d="M442.166,361.675c-1.888-4.402-6.987-6.441-11.39-4.555l-55.347,23.72l-4.526-4.525
		c-3.397-3.336-8.848-3.312-12.215,0.055c-3.367,3.367-3.392,8.818-0.055,12.215l17.356,17.356c3.297,3.332,8.651,3.423,12.06,0.206
		c3.409-3.217,3.629-8.567,0.494-12.052l49.064-21.027c2.116-0.905,3.786-2.615,4.641-4.752
		C443.103,366.18,443.074,363.791,442.166,361.675z"/>
</g>
<g>
</g>
<g>
</g>
<g>
</g>
<g>
</g>
<g>
</g>
<g>
</g>
<g>
</g>
<g>
</g>
<g>
</g>
<g>
</g>
<g>
</g>
<g>
</g>
<g>
</g>
<g>
</g>
<g>
</g>
</svg>
