<?xml version="1.0" encoding="iso-8859-1"?>
<!-- Generator: Adobe Illustrator 19.0.0, SVG Export Plug-In . SVG Version: 6.00 Build 0)  -->
<svg version="1.1" id="Capa_1" xmlns="http://www.w3.org/2000/svg" xmlns:xlink="http://www.w3.org/1999/xlink" x="0px" y="0px"
	 viewBox="0 0 511.99 511.99" style="enable-background:new 0 0 511.99 511.99;" xml:space="preserve">
<g transform="translate(0 -1)">
	<path style="fill:#3F5C6C;" d="M419.307,62.783c-4.875,0.007-8.833-3.939-8.841-8.815s3.939-8.833,8.815-8.841
		c1.931-0.009,47.285-0.672,62.448-38.59c1.82-4.515,6.95-6.706,11.47-4.898s6.723,6.934,4.926,11.458
		C478.471,62.218,421.712,62.783,419.307,62.783z"/>
	<path style="fill:#7F8C8D;" d="M429.9,262.993c0-0.088,0-0.177-0.088-0.177c-10.505-26.394-10.505-76.447-10.505-76.447h-35.31
		c-0.307,21.296-9.919,41.391-26.306,54.996L429.9,262.993z"/>
	<path style="fill:#5E5F62;" d="M399.523,142.232c-2.577,0.005-5.026-1.122-6.698-3.082l-68.493-79.451
		c-3.173-3.699-2.747-9.271,0.953-12.444s9.271-2.747,12.444,0.953l68.493,79.451c2.248,2.616,2.766,6.301,1.325,9.435
		C406.106,140.227,402.972,142.234,399.523,142.232z"/>
	<polygon style="fill:#BDC3C7;" points="136.824,127.666 136.824,308.985 101.514,318.783 101.514,127.666 	"/>
	<path style="fill:#547580;" d="M48.548,477.68h406.069V324.923c0-53.846-45.634-94.307-94.703-83.968L98.476,296.04
		c-29.935,7.312-50.723,34.504-49.928,65.309V477.68z"/>
	<g>
		<path style="fill:#3F5C6C;" d="M22.066,477.68h26.483v26.483c0,4.875-3.952,8.828-8.828,8.828H22.066
			c-4.875,0-8.828-3.952-8.828-8.828v-17.655C13.238,481.632,17.19,477.68,22.066,477.68z"/>
		<path style="fill:#3F5C6C;" d="M454.617,477.68H481.1c4.875,0,8.828,3.952,8.828,8.828v17.655c0,4.875-3.952,8.828-8.828,8.828
			h-17.655c-4.875,0-8.828-3.952-8.828-8.828V477.68z"/>
	</g>
	<circle style="fill:#ECF0F1;" cx="331.031" cy="362.921" r="79.448"/>
	<path style="fill:#7F8C8D;" d="M348.686,398.232h-8.828v-35.31c0-4.875-3.952-8.828-8.828-8.828s-8.828,3.952-8.828,8.828v35.31
		h-8.828c-4.875,0-8.828,3.952-8.828,8.828s3.952,8.828,8.828,8.828h35.31c4.875,0,8.828-3.952,8.828-8.828
		S353.562,398.232,348.686,398.232z"/>
	<g>
		<path style="fill:#BDC3C7;" d="M401.652,45.128h17.655V186.37h-35.31V62.783C383.997,53.033,391.901,45.128,401.652,45.128z"/>
		<path style="fill:#BDC3C7;" d="M280.664,60.201l56.616-56.616c3.447-3.447,9.037-3.447,12.484,0l14.001,14.001
			c3.447,3.447,3.447,9.037,0,12.484l-56.616,56.616c-3.447,3.447-9.037,3.447-12.484,0l-14.001-14.001
			C277.216,69.238,277.216,63.649,280.664,60.201z"/>
	</g>
	<rect x="101.514" y="212.852" style="fill:#7F8C8D;" width="35.31" height="17.655"/>
	<path style="fill:#3F5C6C;" d="M66.204,109.013v33.218c0,4.875,3.952,8.828,8.828,8.828h100.114
		c8.088,0,14.644-6.556,14.644-14.644c0-6.905-4.824-12.872-11.576-14.319L76.881,100.382c-2.607-0.559-5.326,0.091-7.399,1.767
		S66.204,106.348,66.204,109.013z"/>
</g>
<g>
</g>
<g>
</g>
<g>
</g>
<g>
</g>
<g>
</g>
<g>
</g>
<g>
</g>
<g>
</g>
<g>
</g>
<g>
</g>
<g>
</g>
<g>
</g>
<g>
</g>
<g>
</g>
<g>
</g>
</svg>
