<?xml version="1.0" encoding="iso-8859-1"?>
<!-- Generator: Adobe Illustrator 19.0.0, SVG Export Plug-In . SVG Version: 6.00 Build 0)  -->
<svg version="1.1" id="Capa_1" xmlns="http://www.w3.org/2000/svg" xmlns:xlink="http://www.w3.org/1999/xlink" x="0px" y="0px"
	 viewBox="0 0 512.057 512.057" style="enable-background:new 0 0 512.057 512.057;" xml:space="preserve">
<g>
	
		<rect x="0.481" y="449.191" transform="matrix(-0.7071 0.7071 -0.7071 -0.7071 406.2778 767.5527)" style="fill:#BDC3C7;" width="87.385" height="37.456"/>
	<path style="fill:#95A5A5;" d="M49.563,396.427l12.245-16.801l70.621,70.621l-16.801,12.245c4.561,4.561,4.561,11.956,0,16.516
		l-16.516,16.516c-4.561,4.561-11.956,4.561-16.516,0l-66.064-66.065c-4.561-4.561-4.561-11.956,0-16.516l16.516-16.516
		C37.608,391.866,45.002,391.866,49.563,396.427z"/>
	<path style="fill:#7F8C8D;" d="M165.179,446.009c2.203,2.182,3.442,5.153,3.442,8.254c0,3.1-1.239,6.072-3.442,8.254
		l-16.508,16.508c-4.582,4.502-11.926,4.502-16.508,0L33.03,379.891c-4.502-4.582-4.502-11.926,0-16.508l16.508-16.508
		c2.181-2.203,5.153-3.443,8.254-3.443c3.101,0,6.072,1.24,8.254,3.443l3.266,3.266l17.302-17.39l94.897,94.897l-17.302,17.39
		L165.179,446.009z"/>
	
		<rect x="429.518" y="23.203" transform="matrix(-0.7071 0.7071 -0.7071 -0.7071 832.1436 -260.8229)" style="fill:#BDC3C7;" width="81.144" height="37.456"/>
	<path style="fill:#95A5A5;" d="M396.402,49.588l-16.801,12.245l70.621,70.621l12.245-16.801c4.561,4.561,11.956,4.561,16.516,0
		l16.516-16.516c4.561-4.561,4.561-11.956,0-16.516l-66.065-66.064c-4.561-4.561-11.956-4.561-16.516,0l-16.516,16.516
		C391.841,37.633,391.841,45.027,396.402,49.588z"/>
	<path style="fill:#7F8C8D;" d="M478.999,148.696l-16.508,16.508c-2.181,2.203-5.153,3.443-8.254,3.443
		c-3.101,0-6.072-1.24-8.254-3.443l-0.971-0.971l-16.861,16.772L333.256,86.02l16.772-16.772l-3.178-3.178
		c-2.203-2.182-3.443-5.153-3.443-8.254s1.239-6.072,3.443-8.254l16.508-16.508c4.582-4.502,11.926-4.502,16.508,0l99.133,99.134
		C483.502,136.77,483.502,144.115,478.999,148.696z"/>
	<g>
		
			<rect x="178.874" y="201.487" transform="matrix(-0.7071 0.7071 -0.7071 -0.7071 560.2811 395.6149)" style="fill:#3F5C6C;" width="38.665" height="224.716"/>
		
			<rect x="295.698" y="85.876" transform="matrix(-0.7071 0.7071 -0.7071 -0.7071 675.8984 116.5015)" style="fill:#3F5C6C;" width="36.246" height="224.716"/>
	</g>
	<path style="fill:#41767F;" d="M454.194,173.502L338.552,57.86c-8.747-8.774-20.626-13.705-33.015-13.705
		c-12.389,0-24.268,4.931-33.015,13.705L57.835,272.547c-8.774,8.747-13.705,20.626-13.705,33.015s4.931,24.268,13.705,33.015
		l115.641,115.641c8.747,8.773,20.626,13.705,33.015,13.705s24.268-4.931,33.015-13.705l214.687-214.687
		c8.774-8.747,13.705-20.626,13.705-33.015C467.899,194.128,462.967,182.249,454.194,173.502z M424.533,219.935L219.91,424.558
		c-3.298,3.306-7.777,5.164-12.447,5.164c-4.67,0-9.148-1.858-12.447-5.164L87.496,317.038c-3.306-3.299-5.164-7.777-5.164-12.447
		c0-4.67,1.858-9.148,5.164-12.447L292.119,87.521c3.298-3.306,7.777-5.164,12.447-5.164s9.148,1.858,12.447,5.164l107.521,107.52
		c3.306,3.299,5.164,7.777,5.164,12.447S427.839,216.636,424.533,219.935z"/>
</g>
<g>
</g>
<g>
</g>
<g>
</g>
<g>
</g>
<g>
</g>
<g>
</g>
<g>
</g>
<g>
</g>
<g>
</g>
<g>
</g>
<g>
</g>
<g>
</g>
<g>
</g>
<g>
</g>
<g>
</g>
</svg>
