<?xml version="1.0" encoding="iso-8859-1"?>
<!-- Generator: Adobe Illustrator 19.0.0, SVG Export Plug-In . SVG Version: 6.00 Build 0)  -->
<svg version="1.1" id="Capa_1" xmlns="http://www.w3.org/2000/svg" xmlns:xlink="http://www.w3.org/1999/xlink" x="0px" y="0px"
	 viewBox="0 0 511.999 511.999" style="enable-background:new 0 0 511.999 511.999;" xml:space="preserve">
<g>
	<g>
		<path style="fill:#5E5F62;" d="M59.733,264.533h-51.2c-2.869,0-5.545-1.441-7.124-3.836c-1.579-2.395-1.848-5.423-0.718-8.059
			l24.908-58.121v-75.05c0-4.713,3.821-8.533,8.533-8.533s8.533,3.821,8.533,8.533v75.05l24.909,58.121
			c1.131,2.636,0.861,5.664-0.718,8.059C65.278,263.092,62.601,264.533,59.733,264.533z M21.474,247.466h25.317l-12.658-29.538
			L21.474,247.466z"/>
		<path style="fill:#5E5F62;" d="M503.466,264.533h-51.2c-2.869,0-5.545-1.441-7.124-3.836c-1.579-2.395-1.849-5.423-0.718-8.059
			l24.909-58.121v-75.05c0-4.713,3.821-8.533,8.533-8.533s8.533,3.821,8.533,8.533v75.05l24.909,58.121
			c1.131,2.636,0.862,5.665-0.717,8.06C509.012,263.092,506.335,264.533,503.466,264.533z M465.208,247.466h25.317l-12.658-29.538
			L465.208,247.466z"/>
	</g>
	<g>
		<polygon style="fill:#A5A5A4;" points="51.199,102.4 161.023,203.861 161.109,203.861 136.533,230.4 26.709,129.024 		"/>
		<polygon style="fill:#A5A5A4;" points="461.909,102.4 352.085,203.861 351.999,203.861 376.575,230.4 486.399,129.024 		"/>
	</g>
	<path style="fill:#E57E25;" d="M341.333,187.733h26.659c7.616,0.216,14.731,3.847,19.375,9.888
		c4.643,6.041,6.323,13.85,4.573,21.266l-6.874,32.282c-1.494,7.668-8.153,13.243-15.965,13.364h-226.2
		c-7.812-0.121-14.471-5.696-15.965-13.364l-6.874-32.282c-1.75-7.416-0.071-15.225,4.573-21.266
		c4.643-6.041,11.758-9.672,19.375-9.888H341.333z"/>
	<path style="fill:#A5A5A4;" d="M341.333,8.533h21.435c7.537,0,14.181,4.944,16.347,12.163l21.951,73.171H110.933l21.951-73.171
		c2.166-7.219,8.81-12.163,16.347-12.163H341.333z"/>
	<rect x="170.666" y="8.533" style="fill:#D1D4D1;" width="170.667" height="477.867"/>
	<g>
		<path style="fill:#E57E25;" d="M72.773,149.554l-0.019,0.019c-10.3,10.3-26.697,11.208-38.072,2.109l-15.42-12.336
			c-6.349-5.08-10.235-12.623-10.685-20.742c-0.45-8.119,2.579-16.045,8.329-21.795l3.103-3.103
			c5.75-5.75,13.676-8.779,21.795-8.329c8.119,0.45,15.662,4.336,20.742,10.685l12.336,15.42
			C83.981,122.857,83.073,139.254,72.773,149.554z"/>
		<path style="fill:#E57E25;" d="M439.226,149.554l0.019,0.019c10.3,10.3,26.697,11.208,38.072,2.109l15.42-12.336
			c6.349-5.08,10.235-12.623,10.685-20.742c0.45-8.119-2.579-16.045-8.329-21.795l-3.103-3.103
			c-5.75-5.75-13.676-8.779-21.795-8.329c-8.119,0.45-15.662,4.336-20.742,10.685l-12.336,15.42
			C428.017,122.857,428.926,139.254,439.226,149.554z"/>
	</g>
	<path style="fill:#A5A5A4;" d="M238.933,238.933v25.6h-34.133v-25.6c0.014-4.707,3.826-8.519,8.533-8.533h17.067
		C235.106,230.414,238.919,234.226,238.933,238.933z"/>
	<rect x="204.799" y="264.533" style="fill:#5E5F62;" width="34.133" height="34.133"/>
	<rect x="204.799" y="298.666" style="fill:#A5A5A4;" width="34.133" height="34.133"/>
	<g>
		<rect x="204.799" y="332.8" style="fill:#5E5F62;" width="34.133" height="34.133"/>
		<path style="fill:#5E5F62;" d="M238.933,401.066v25.6c-0.014,4.707-3.826,8.519-8.533,8.533h-17.067
			c-4.707-0.014-8.519-3.826-8.533-8.533v-25.6H238.933z"/>
	</g>
	<rect x="204.799" y="366.933" style="fill:#A5A5A4;" width="34.133" height="34.133"/>
	<path style="fill:#5E5F62;" d="M307.199,401.066v25.6c-0.014,4.707-3.826,8.519-8.533,8.533h-17.067
		c-4.707-0.014-8.519-3.826-8.533-8.533v-25.6H307.199z"/>
	<rect x="273.066" y="366.933" style="fill:#A5A5A4;" width="34.133" height="34.133"/>
	<rect x="273.066" y="332.8" style="fill:#5E5F62;" width="34.133" height="34.133"/>
	<rect x="273.066" y="298.666" style="fill:#A5A5A4;" width="34.133" height="34.133"/>
	<rect x="273.066" y="264.533" style="fill:#5E5F62;" width="34.133" height="34.133"/>
	<path style="fill:#A5A5A4;" d="M307.199,238.933v25.6h-34.133v-25.6c0.014-4.707,3.826-8.519,8.533-8.533h17.067
		C303.373,230.414,307.185,234.226,307.199,238.933z"/>
	<path style="fill:#5E5F62;" d="M93.866,469.333h324.267c4.713,0,8.533,3.82,8.533,8.533v17.067c0,4.713-3.82,8.533-8.533,8.533
		H93.866c-4.713,0-8.533-3.82-8.533-8.533v-17.067C85.333,473.153,89.153,469.333,93.866,469.333z"/>
</g>
<g>
</g>
<g>
</g>
<g>
</g>
<g>
</g>
<g>
</g>
<g>
</g>
<g>
</g>
<g>
</g>
<g>
</g>
<g>
</g>
<g>
</g>
<g>
</g>
<g>
</g>
<g>
</g>
<g>
</g>
</svg>
