<?xml version="1.0" encoding="iso-8859-1"?>
<!-- Generator: Adobe Illustrator 19.0.0, SVG Export Plug-In . SVG Version: 6.00 Build 0)  -->
<svg version="1.1" id="Capa_1" xmlns="http://www.w3.org/2000/svg" xmlns:xlink="http://www.w3.org/1999/xlink" x="0px" y="0px"
	 viewBox="0 0 512 512" style="enable-background:new 0 0 512 512;" xml:space="preserve">
<g>
	<g>
		<path style="fill:#BDC3C7;" d="M317.793,238.345h79.448c38.984,0.045,70.576,31.636,70.621,70.621v114.759h-35.31V317.793
			c0-24.377-19.761-44.138-44.138-44.138H123.586c-24.377,0-44.138,19.761-44.138,44.138v105.931h-35.31V308.966
			c0.045-38.984,31.636-70.576,70.621-70.621H317.793z"/>
		<path style="fill:#BDC3C7;" d="M26.483,114.759h459.034c4.875,0,8.828,3.952,8.828,8.828v17.655c0,4.875-3.952,8.828-8.828,8.828
			H26.483c-4.875,0-8.828-3.952-8.828-8.828v-17.655C17.655,118.711,21.608,114.759,26.483,114.759z"/>
	</g>
	<path style="fill:#95A5A5;" d="M61.793,79.448h17.655c4.875,0,8.828,3.952,8.828,8.828v88.276c0,4.875-3.952,8.828-8.828,8.828
		H61.793c-4.875,0-8.828-3.952-8.828-8.828V88.276C52.966,83.401,56.918,79.448,61.793,79.448z"/>
	<path style="fill:#7F8C8D;" d="M97.104,61.793h17.655c4.875,0,8.828,3.952,8.828,8.828v123.586c0,4.875-3.952,8.828-8.828,8.828
		H97.104c-4.875,0-8.828-3.952-8.828-8.828V70.621C88.276,65.745,92.228,61.793,97.104,61.793z"/>
	<path style="fill:#95A5A5;" d="M432.552,79.448h17.655c4.875,0,8.828,3.952,8.828,8.828v88.276c0,4.875-3.952,8.828-8.828,8.828
		h-17.655c-4.875,0-8.828-3.952-8.828-8.828V88.276C423.724,83.401,427.677,79.448,432.552,79.448z"/>
	<path style="fill:#7F8C8D;" d="M397.242,61.793h17.655c4.875,0,8.828,3.952,8.828,8.828v123.586c0,4.875-3.952,8.828-8.828,8.828
		h-17.655c-4.875,0-8.828-3.952-8.828-8.828V70.621C388.414,65.745,392.366,61.793,397.242,61.793z"/>
	<g>
		<path style="fill:#A5A5A4;" d="M229.517,8.828v387.531h-35.31V8.828c0.015-4.869,3.958-8.813,8.828-8.828h17.655
			C225.559,0.015,229.503,3.958,229.517,8.828z"/>
		<path style="fill:#A5A5A4;" d="M317.793,8.828v387.531h-35.31V8.828c0.015-4.869,3.958-8.813,8.828-8.828h17.655
			C313.835,0.015,317.779,3.958,317.793,8.828z"/>
	</g>
	<path style="fill:#95A5A5;" d="M370.759,423.724H141.242c-14.619-0.016-26.467-11.863-26.483-26.483v-35.31
		c0-4.875,3.952-8.828,8.828-8.828s8.828,3.952,8.828,8.828v35.31c0.006,4.873,3.955,8.821,8.828,8.828h229.517
		c4.873-0.006,8.821-3.955,8.828-8.828v-35.31c0-4.875,3.952-8.828,8.828-8.828s8.828,3.952,8.828,8.828v35.31
		C397.226,411.861,385.378,423.708,370.759,423.724z"/>
	<path style="fill:#5E5F62;" d="M353.104,88.276v102.312c-0.018,2.314-0.936,4.53-2.56,6.179l-30.19,30.19
		c-0.723,0.737-1.596,1.309-2.56,1.677c-1.114,0.591-2.358,0.895-3.619,0.883H197.826c-1.261,0.012-2.505-0.291-3.619-0.883
		c-0.964-0.368-1.837-0.94-2.56-1.677l-30.19-30.19c-1.624-1.649-2.542-3.865-2.56-6.179V88.276
		c-0.003-9.366,3.717-18.349,10.339-24.971c6.623-6.623,15.605-10.342,24.971-10.339h123.586
		c9.366-0.003,18.349,3.717,24.971,10.339C349.387,69.927,353.106,78.91,353.104,88.276z"/>
	<path style="fill:#3F5C6C;" d="M351.515,389.738l-14.919,114.759c-0.63,4.333-4.361,7.537-8.739,7.503H184.144
		c-4.378,0.033-8.11-3.17-8.739-7.503l-14.919-114.759c-0.403-2.548,0.335-5.145,2.019-7.1c1.683-1.955,4.141-3.071,6.721-3.052
		h173.55c2.58-0.019,5.038,1.097,6.721,3.052C351.179,384.593,351.917,387.19,351.515,389.738z"/>
	<rect x="185.379" y="344.276" style="fill:#41767F;" width="141.241" height="35.31"/>
	<g>
		<path style="fill:#95A5A5;" d="M97.104,432.552H26.483c-4.875,0-8.828-3.952-8.828-8.828c0-4.875,3.952-8.828,8.828-8.828h70.621
			c4.875,0,8.828,3.952,8.828,8.828C105.931,428.599,101.979,432.552,97.104,432.552z"/>
		<path style="fill:#95A5A5;" d="M485.517,432.552h-70.621c-4.875,0-8.828-3.952-8.828-8.828c0-4.875,3.952-8.828,8.828-8.828
			h70.621c4.875,0,8.828,3.952,8.828,8.828C494.345,428.599,490.393,432.552,485.517,432.552z"/>
	</g>
</g>
<g>
</g>
<g>
</g>
<g>
</g>
<g>
</g>
<g>
</g>
<g>
</g>
<g>
</g>
<g>
</g>
<g>
</g>
<g>
</g>
<g>
</g>
<g>
</g>
<g>
</g>
<g>
</g>
<g>
</g>
</svg>
