<?xml version="1.0" encoding="iso-8859-1"?>
<!-- Generator: Adobe Illustrator 19.0.0, SVG Export Plug-In . SVG Version: 6.00 Build 0)  -->
<svg version="1.1" id="Capa_1" xmlns="http://www.w3.org/2000/svg" xmlns:xlink="http://www.w3.org/1999/xlink" x="0px" y="0px"
	 viewBox="0 0 512 512" style="enable-background:new 0 0 512 512;" xml:space="preserve">
<g>
	<g>
		<path style="fill:#BDC3C7;" d="M358.491,141.246c-3.516,0.001-6.698-2.085-8.099-5.31L327.353,82.97
			c-1.258-2.892-0.878-6.236,0.998-8.771s4.961-3.878,8.095-3.522c3.134,0.356,5.839,2.358,7.097,5.25l23.039,52.966
			c1.184,2.729,0.916,5.87-0.714,8.358C364.238,139.739,361.466,141.24,358.491,141.246L358.491,141.246z"/>
		<path style="fill:#BDC3C7;" d="M312.405,141.246c-2.974-0.005-5.747-1.507-7.376-3.995s-1.898-5.63-0.714-8.358l23.039-52.966
			c1.945-4.471,7.146-6.518,11.616-4.573c4.471,1.945,6.518,7.146,4.573,11.616l-23.039,52.966
			C319.102,139.16,315.921,141.245,312.405,141.246z"/>
	</g>
	<path style="fill:#7F8C8D;" d="M211.862,423.724c9.751,0,17.655,7.905,17.655,17.655v52.966h-35.31v-52.966
		C194.207,431.629,202.111,423.724,211.862,423.724z"/>
	<path style="fill:#CC4B4C;" d="M326.621,123.586h17.655c29.252,0,52.966,23.713,52.966,52.966v238.345
		c0,29.252-23.713,52.966-52.966,52.966h-17.655c-29.252,0-52.966-23.713-52.966-52.966V176.552
		C273.655,147.3,297.369,123.586,326.621,123.586z"/>
	<rect x="273.655" y="176.552" style="fill:#802F34;" width="123.586" height="17.655"/>
	<ellipse style="fill:#E6E7E8;" cx="335.448" cy="313.379" rx="26.483" ry="22.069"/>
	<path style="fill:#7F8C8D;" d="M335.448,88.276c-15.79-1.327-27.586-15.09-26.483-30.897c-1.104-15.807,10.693-29.57,26.483-30.897
		c15.79,1.327,27.586,15.09,26.483,30.897C363.035,73.186,351.238,86.949,335.448,88.276z M335.448,44.138
		c-4.703,0-8.828,6.19-8.828,13.241s4.125,13.241,8.828,13.241s8.828-6.19,8.828-13.241S340.151,44.138,335.448,44.138z"/>
	<path style="fill:#BDC3C7;" d="M467.862,17.655c-0.029,9.739-7.916,17.627-17.655,17.655H185.379
		c-16.392-0.012-32.117,6.494-43.708,18.086c-11.591,11.591-18.098,27.315-18.086,43.708v406.069h-35.31V88.276
		C88.293,39.53,127.806,0.018,176.552,0h273.655C459.946,0.028,467.834,7.916,467.862,17.655z"/>
	<path style="fill:#95A5A5;" d="M52.966,476.69h185.379c4.875,0,8.828,3.952,8.828,8.828v17.655c0,4.875-3.952,8.828-8.828,8.828
		H52.966c-4.875,0-8.828-3.952-8.828-8.828v-17.655C44.138,480.642,48.09,476.69,52.966,476.69z"/>
</g>
<g>
</g>
<g>
</g>
<g>
</g>
<g>
</g>
<g>
</g>
<g>
</g>
<g>
</g>
<g>
</g>
<g>
</g>
<g>
</g>
<g>
</g>
<g>
</g>
<g>
</g>
<g>
</g>
<g>
</g>
</svg>
