<?xml version="1.0" encoding="iso-8859-1"?>
<!-- Generator: Adobe Illustrator 19.0.0, SVG Export Plug-In . SVG Version: 6.00 Build 0)  -->
<svg version="1.1" id="Capa_1" xmlns="http://www.w3.org/2000/svg" xmlns:xlink="http://www.w3.org/1999/xlink" x="0px" y="0px"
	 viewBox="0 0 512 512" style="enable-background:new 0 0 512 512;" xml:space="preserve">
<g>
	<polygon style="fill:#A5A5A4;" points="339.862,157.422 380.557,344.276 384.353,361.931 414.897,503.172 467.862,503.172 
		437.319,361.931 433.523,344.276 392.828,157.422 	"/>
	<polygon style="fill:#BDC3C7;" points="380.557,344.276 384.353,361.931 437.319,361.931 433.523,344.276 	"/>
	<g>
		<rect x="238.345" y="264.828" style="fill:#A5A5A4;" width="35.31" height="132.414"/>
		<polygon style="fill:#A5A5A4;" points="169.931,164.785 131.443,344.276 127.647,361.931 97.103,503.172 44.138,503.172 
			74.681,361.931 78.477,344.276 116.966,164.785 		"/>
	</g>
	<path style="fill:#3F5C6C;" d="M415.267,176.552H96.733c-5.384-0.08-10.434-2.623-13.703-6.902
		c-3.269-4.279-4.395-9.82-3.057-15.035l34.551-141.241c1.834-7.789,8.758-13.314,16.76-13.373h249.432
		c8.002,0.059,14.926,5.584,16.76,13.373l34.551,141.241c1.339,5.215,0.212,10.757-3.057,15.035
		C425.701,173.929,420.651,176.472,415.267,176.552z"/>
	<path style="fill:#BDC3C7;" d="M414.897,459.034V512h-26.483l-94.543-85.981c-1.648-1.482-3.787-2.3-6.003-2.295h-63.735
		c-2.216-0.004-4.355,0.813-6.003,2.295L123.586,512H97.103v-52.966h26.483l92.072-83.686c3.25-2.923,7.458-4.556,11.829-4.59
		h57.026c4.371,0.034,8.579,1.667,11.829,4.59l92.072,83.686H414.897z"/>
	<path style="fill:#3F5C6C;" d="M211.862,238.345h88.276c9.751,0,17.655,7.904,17.655,17.655v17.655
		c0,9.751-7.904,17.655-17.655,17.655h-88.276c-9.751,0-17.655-7.904-17.655-17.655V256
		C194.207,246.249,202.111,238.345,211.862,238.345z"/>
	<polygon style="fill:#BDC3C7;" points="131.443,344.276 127.647,361.931 74.681,361.931 78.477,344.276 	"/>
	<g>
		<path style="fill:#547580;" d="M220.69,123.586c-2.342,0.003-4.588-0.928-6.241-2.586l-14.034-14.034
			c-3.447-3.447-3.447-9.036,0-12.483c3.447-3.447,9.036-3.447,12.483,0l14.034,14.035c2.524,2.525,3.279,6.321,1.913,9.619
			C227.477,121.435,224.259,123.585,220.69,123.586z"/>
		<path style="fill:#547580;" d="M181.759,84.655c-2.342,0.003-4.588-0.928-6.241-2.586l-14.034-14.034
			c-3.394-3.456-3.369-9.001,0.056-12.426c3.425-3.425,8.97-3.45,12.426-0.056L188,69.586c2.524,2.525,3.279,6.321,1.913,9.619
			C188.547,82.504,185.329,84.654,181.759,84.655L181.759,84.655z"/>
		<path style="fill:#547580;" d="M167.724,123.586c-3.57-0.001-6.788-2.152-8.154-5.45c-1.366-3.298-0.611-7.094,1.913-9.619
			l14.034-14.034c3.447-3.447,9.036-3.447,12.483,0c3.447,3.447,3.447,9.036,0,12.483L173.965,121
			C172.312,122.658,170.066,123.589,167.724,123.586z"/>
		<path style="fill:#547580;" d="M206.655,84.655c-3.57-0.001-6.788-2.152-8.154-5.45c-1.366-3.298-0.611-7.094,1.913-9.619
			l14.034-14.034c3.456-3.394,9.001-3.369,12.426,0.056c3.425,3.425,3.45,8.97,0.056,12.426l-14.034,14.035
			C211.243,83.727,208.997,84.658,206.655,84.655z"/>
		<path style="fill:#547580;" d="M344.276,123.586c-2.342,0.003-4.588-0.928-6.241-2.586L324,106.965
			c-3.447-3.447-3.447-9.036,0-12.483c3.447-3.447,9.036-3.447,12.483,0l14.034,14.035c2.524,2.525,3.279,6.321,1.913,9.619
			C351.064,121.435,347.846,123.585,344.276,123.586z"/>
		<path style="fill:#547580;" d="M305.345,84.655c-2.342,0.003-4.588-0.928-6.241-2.586l-14.034-14.034
			c-3.394-3.456-3.369-9.001,0.056-12.426c3.425-3.425,8.97-3.45,12.426-0.056l14.035,14.034c2.524,2.525,3.279,6.321,1.913,9.619
			C312.133,82.504,308.915,84.654,305.345,84.655L305.345,84.655z"/>
		<path style="fill:#547580;" d="M291.31,123.586c-3.57-0.001-6.788-2.152-8.154-5.45s-0.611-7.094,1.913-9.619l14.034-14.034
			c3.447-3.447,9.036-3.447,12.483,0c3.447,3.447,3.447,9.036,0,12.483L297.551,121C295.898,122.658,293.652,123.589,291.31,123.586
			z"/>
		<path style="fill:#547580;" d="M330.241,84.655c-3.57-0.001-6.788-2.152-8.154-5.45c-1.366-3.298-0.611-7.094,1.913-9.619
			l14.034-14.034c2.223-2.264,5.49-3.16,8.556-2.348c3.067,0.812,5.462,3.207,6.274,6.274c0.812,3.067-0.085,6.333-2.348,8.556
			l-14.034,14.035C334.829,83.727,332.583,84.658,330.241,84.655z"/>
	</g>
	<g>
		<path style="fill:#35495E;" d="M211.862,88.276c0.061,8.496-5.896,15.849-14.22,17.551c-8.324,1.703-16.689-2.721-19.969-10.558
			c-3.28-7.838-0.557-16.901,6.499-21.633c7.056-4.733,16.474-3.814,22.482,2.194C210.007,79.099,211.887,83.592,211.862,88.276z"/>
		<path style="fill:#35495E;" d="M335.448,88.276c0.061,8.496-5.896,15.849-14.22,17.551c-8.324,1.703-16.689-2.721-19.969-10.558
			c-3.28-7.838-0.557-16.901,6.499-21.633c7.056-4.733,16.474-3.814,22.482,2.194C333.593,79.099,335.473,83.592,335.448,88.276z"/>
	</g>
	<g>
		<path style="fill:#5E5F62;" d="M44.138,459.034h79.448V512H44.138c-4.875,0-8.828-3.952-8.828-8.828v-35.31
			C35.31,462.987,39.263,459.034,44.138,459.034z"/>
		<path style="fill:#5E5F62;" d="M467.862,512h-79.448v-52.966h79.448c4.875,0,8.828,3.952,8.828,8.828v35.31
			C476.69,508.048,472.737,512,467.862,512z"/>
	</g>
</g>
<g>
</g>
<g>
</g>
<g>
</g>
<g>
</g>
<g>
</g>
<g>
</g>
<g>
</g>
<g>
</g>
<g>
</g>
<g>
</g>
<g>
</g>
<g>
</g>
<g>
</g>
<g>
</g>
<g>
</g>
</svg>
