<?xml version="1.0" encoding="iso-8859-1"?>
<!-- Generator: Adobe Illustrator 19.0.0, SVG Export Plug-In . SVG Version: 6.00 Build 0)  -->
<svg version="1.1" id="Capa_1" xmlns="http://www.w3.org/2000/svg" xmlns:xlink="http://www.w3.org/1999/xlink" x="0px" y="0px"
	 viewBox="0 0 512 512" style="enable-background:new 0 0 512 512;" xml:space="preserve">
<g>
	<g>
		<path style="fill:#5E5F62;" d="M158.897,308.966h70.621c9.722-0.07,17.585-7.934,17.655-17.655
			c-0.029-9.739-7.916-17.627-17.655-17.655h-70.621V308.966z"/>
		<path style="fill:#5E5F62;" d="M494.345,308.966h-70.621c-9.722-0.07-17.585-7.934-17.655-17.655
			c0.029-9.739,7.916-17.627,17.655-17.655h70.621V308.966z"/>
	</g>
	<g>
		<path style="fill:#D1D4D1;" d="M344.276,0h51.207c6.517,0,12.504,3.59,15.574,9.338l98.862,185.12
			c1.367,2.559,2.082,5.416,2.082,8.317v123.846c-0.014,4.869-3.958,8.813-8.828,8.828h-17.655
			c-4.869-0.014-8.813-3.958-8.828-8.828v-118.92c0-1.497-0.381-2.97-1.107-4.279L384.932,39.859
			c-1.556-2.807-4.512-4.548-7.721-4.548h-101.18c-3.209,0-6.165,1.742-7.721,4.548l-90.651,163.563
			c-0.726,1.31-1.107,2.782-1.107,4.279v118.92c-0.014,4.869-3.958,8.813-8.828,8.828h-17.655c-4.869-0.014-8.813-3.958-8.828-8.828
			V202.775c0-2.901,0.715-5.758,2.082-8.317l98.862-185.12C245.255,3.59,251.242,0,257.759,0H344.276z"/>
		<rect x="35.31" y="459.034" style="fill:#D1D4D1;" width="291.31" height="35.31"/>
	</g>
	<rect x="308.966" y="229.517" style="fill:#A5A5A4;" width="35.31" height="282.483"/>
	<g>
		<path style="fill:#F18D46;" d="M300.138,194.207h52.966c9.751,0,17.655,7.904,17.655,17.655v123.586
			c0,9.751-7.904,17.655-17.655,17.655h-52.966c-9.751,0-17.655-7.905-17.655-17.655V211.862
			C282.483,202.111,290.387,194.207,300.138,194.207z"/>
		<path style="fill:#F18D46;" d="M282.483,388.414h88.276c9.751,0,17.655,7.905,17.655,17.655l0,0
			c0,9.751-7.904,17.655-17.655,17.655h-88.276c-9.751,0-17.655-7.905-17.655-17.655l0,0
			C264.828,396.318,272.732,388.414,282.483,388.414z"/>
	</g>
	<rect x="308.966" y="0" style="fill:#A5A5A4;" width="35.31" height="194.207"/>
	<path style="fill:#D1D4D1;" d="M61.793,0H8.828C3.958,0.015,0.015,3.958,0,8.828v494.345c0.015,4.869,3.958,8.813,8.828,8.828
		h52.966c4.869-0.015,8.813-3.958,8.828-8.828V8.828C70.606,3.958,66.662,0.015,61.793,0z"/>
	<path style="fill:#5E5F62;" d="M70.621,467.862v35.31c-0.015,4.869-3.958,8.813-8.828,8.828H8.828
		c-4.869-0.015-8.813-3.958-8.828-8.828v-35.31H70.621z"/>
	<rect y="423.724" style="fill:#A5A5A4;" width="70.621" height="44.138"/>
	<g>
		<rect y="379.586" style="fill:#5E5F62;" width="70.621" height="44.138"/>
		<path style="fill:#5E5F62;" d="M44.138,0v360.607c0.347,5.235-3.595,9.769-8.828,10.152c-5.232-0.383-9.175-4.917-8.828-10.152V0
			H44.138z"/>
	</g>
	<rect y="335.448" style="fill:#A5A5A4;" width="70.621" height="44.138"/>
</g>
<g>
</g>
<g>
</g>
<g>
</g>
<g>
</g>
<g>
</g>
<g>
</g>
<g>
</g>
<g>
</g>
<g>
</g>
<g>
</g>
<g>
</g>
<g>
</g>
<g>
</g>
<g>
</g>
<g>
</g>
</svg>
