<?xml version="1.0" encoding="iso-8859-1"?>
<!-- Generator: Adobe Illustrator 19.0.0, SVG Export Plug-In . SVG Version: 6.00 Build 0)  -->
<svg version="1.1" id="Capa_1" xmlns="http://www.w3.org/2000/svg" xmlns:xlink="http://www.w3.org/1999/xlink" x="0px" y="0px"
	 viewBox="0 0 512 512" style="enable-background:new 0 0 512 512;" xml:space="preserve">
<g>
	<g>
		<path style="fill:#547580;" d="M423.017,459.034H88.983c1.32-17.433,4.698-34.649,10.063-51.288l68.679-213.539h176.552
			l68.679,213.539C418.319,424.386,421.697,441.601,423.017,459.034z"/>
		<path style="fill:#547580;" d="M88.276,476.69v26.483c-0.014,4.869-3.958,8.813-8.828,8.828H61.793
			c-4.869-0.014-8.813-3.958-8.828-8.828V476.69H88.276z"/>
		<path style="fill:#547580;" d="M459.034,476.69v26.483c-0.014,4.869-3.958,8.813-8.828,8.828h-17.655
			c-4.869-0.014-8.813-3.958-8.828-8.828V476.69H459.034z"/>
	</g>
	<g>
		<rect x="141.241" y="406.069" style="fill:#95A5A5;" width="229.517" height="52.966"/>
		<polyline style="fill:#95A5A5;" points="167.724,370.759 167.724,317.793 344.276,317.793 344.276,370.759 		"/>
		<polyline style="fill:#95A5A5;" points="194.207,282.483 194.207,229.517 317.793,229.517 317.793,282.483 		"/>
	</g>
	<g>
		<polygon style="fill:#3F5C6C;" points="317.793,229.517 291.31,194.207 220.69,194.207 194.207,229.517 		"/>
		<polygon style="fill:#3F5C6C;" points="141.241,406.069 167.724,370.759 344.276,370.759 370.759,406.069 		"/>
		<polygon style="fill:#3F5C6C;" points="167.724,317.793 194.207,282.483 317.793,282.483 344.276,317.793 		"/>
		<path style="fill:#3F5C6C;" d="M167.724,194.207L99.046,407.746c-5.365,16.64-8.742,33.855-10.063,51.288
			c-0.442,5.826-0.707,11.741-0.707,17.655h-35.31c-0.003-23.4,3.63-46.659,10.77-68.943L126.5,212.568
			c3.526-10.959,13.733-18.382,25.245-18.361L167.724,194.207z"/>
		<path style="fill:#3F5C6C;" d="M459.034,476.69h-35.31c0-5.914-0.265-11.829-0.707-17.655
			c-1.32-17.433-4.698-34.649-10.063-51.288l-68.679-213.539l15.978,0c11.513-0.021,21.719,7.402,25.246,18.361l62.765,195.178
			C455.404,430.031,459.037,453.289,459.034,476.69z"/>
	</g>
	<path style="fill:#BDC3C7;" d="M185.379,158.897h141.241c9.751,0,17.655,7.904,17.655,17.655v17.655H167.724v-17.655
		C167.724,166.801,175.629,158.897,185.379,158.897z"/>
	<rect x="238.345" y="70.621" style="fill:#95A5A5;" width="35.31" height="88.276"/>
	<path style="fill:#BDC3C7;" d="M211.862,0h88.276c9.751,0,17.655,7.904,17.655,17.655v35.31c0,9.751-7.904,17.655-17.655,17.655
		h-88.276c-9.751,0-17.655-7.904-17.655-17.655v-35.31C194.207,7.904,202.111,0,211.862,0z"/>
	<g>
		<path style="fill:#41767F;" d="M247.172,44.138h-17.655c-4.875,0-8.828-3.952-8.828-8.828s3.952-8.828,8.828-8.828h17.655
			c4.875,0,8.828,3.952,8.828,8.828S252.048,44.138,247.172,44.138z"/>
		<path style="fill:#41767F;" d="M282.483,44.138c-0.564-0.016-1.126-0.075-1.681-0.177c-0.583-0.085-1.147-0.264-1.672-0.53
			c-0.565-0.194-1.101-0.462-1.595-0.797c-0.461-0.324-0.902-0.677-1.319-1.056c-0.798-0.844-1.427-1.833-1.854-2.914
			c-0.943-2.138-0.943-4.573,0-6.711c0.837-2.196,2.541-3.951,4.711-4.853c2.17-0.902,4.616-0.871,6.763,0.086
			c1.07,0.45,2.055,1.077,2.915,1.857c0.799,0.842,1.428,1.83,1.854,2.909c0.943,2.138,0.943,4.573,0,6.711
			c-0.427,1.08-1.056,2.069-1.854,2.914C287.057,43.187,284.819,44.102,282.483,44.138z"/>
	</g>
</g>
<g>
</g>
<g>
</g>
<g>
</g>
<g>
</g>
<g>
</g>
<g>
</g>
<g>
</g>
<g>
</g>
<g>
</g>
<g>
</g>
<g>
</g>
<g>
</g>
<g>
</g>
<g>
</g>
<g>
</g>
</svg>
