<?xml version="1.0" encoding="iso-8859-1"?>
<!-- Generator: Adobe Illustrator 19.0.0, SVG Export Plug-In . SVG Version: 6.00 Build 0)  -->
<svg version="1.1" id="Capa_1" xmlns="http://www.w3.org/2000/svg" xmlns:xlink="http://www.w3.org/1999/xlink" x="0px" y="0px"
	 viewBox="0 0 512 512" style="enable-background:new 0 0 512 512;" xml:space="preserve">
<g>
	<rect x="203.035" y="8.828" style="fill:#A5A5A4;" width="105.931" height="467.862"/>
	<polygon style="fill:#95A5A5;" points="276.18,494.345 397.242,494.345 397.242,459.034 276.18,459.034 235.82,459.034 
		114.759,459.034 114.759,494.345 235.82,494.345 	"/>
	<path style="fill:#D1D4D1;" d="M247.173,273.655h17.655c4.875,0,8.828,3.952,8.828,8.828v220.69c0,4.875-3.952,8.828-8.828,8.828
		h-17.655c-4.875,0-8.828-3.952-8.828-8.828v-220.69C238.345,277.607,242.297,273.655,247.173,273.655z"/>
	<path style="fill:#5E5F62;" d="M256,220.69c-2.341,0.001-4.587-0.929-6.243-2.585c-1.656-1.656-2.585-3.901-2.585-6.243V52.966
		c0-4.875,3.952-8.828,8.828-8.828c4.875,0,8.828,3.952,8.828,8.828v158.897c0.001,2.341-0.929,4.587-2.585,6.243
		C260.587,219.76,258.342,220.69,256,220.69z"/>
	<g>
		<path style="fill:#F18D46;" d="M203.035,388.414h105.931c9.751,0,17.655,7.905,17.655,17.655l0,0
			c0,9.751-7.904,17.655-17.655,17.655H203.035c-9.751,0-17.655-7.904-17.655-17.655l0,0
			C185.38,396.318,193.284,388.414,203.035,388.414z"/>
		<path style="fill:#F18D46;" d="M185.38,300.138h52.966v35.31H185.38c-9.751,0-17.655-7.905-17.655-17.655
			S175.629,300.138,185.38,300.138z"/>
		<path style="fill:#F18D46;" d="M273.656,300.138h52.966c9.751,0,17.655,7.904,17.655,17.655s-7.904,17.655-17.655,17.655h-52.966
			V300.138z"/>
	</g>
	<path style="fill:#7F8C8D;" d="M273.656,35.31h97.103c4.869,0.014,8.813,3.958,8.828,8.828v459.034
		c0.014,4.869,3.958,8.813,8.828,8.828h17.655c4.869-0.014,8.813-3.958,8.828-8.828V17.655C414.868,7.916,406.981,0.029,397.242,0
		H114.759c-9.739,0.029-17.627,7.916-17.655,17.655v485.517c0.014,4.869,3.958,8.813,8.828,8.828h17.655
		c4.869-0.014,8.813-3.958,8.828-8.828V44.138c0.014-4.869,3.958-8.813,8.828-8.828H273.656z"/>
	<g>
		<path style="fill:#BDC3C7;" d="M238.345,0h35.31v61.793c0,9.751-7.904,17.655-17.655,17.655c-9.751,0-17.655-7.904-17.655-17.655
			V0z"/>
		<path style="fill:#BDC3C7;" d="M450.207,153.688c0.001,5.233-2.461,10.162-6.645,13.304c-4.184,3.143-9.604,4.133-14.629,2.674
			l-14.036-4.149l-35.31-10.328l-42.019-12.359c-5.004-1.496-10.263-1.946-15.448-1.324L256,149.363l-66.119-7.857
			c-5.186-0.622-10.444-0.172-15.448,1.324l-42.019,12.359l-35.31,10.328l-14.036,4.149c-1.52,0.45-3.094,0.688-4.679,0.706
			c-8.266-0.041-15.255-6.131-16.427-14.313c-1.172-8.182,3.826-15.989,11.748-18.349l23.393-6.886l35.31-10.328l42.019-12.359
			c5.018-1.424,10.268-1.844,15.448-1.236L256,114.759l66.119-7.857c5.181-0.608,10.43-0.188,15.448,1.236l42.019,12.359
			l35.31,10.328l23.393,6.886C445.362,139.81,450.211,146.311,450.207,153.688z"/>
	</g>
	<rect x="203.035" y="185.379" style="fill:#5E5F62;" width="105.931" height="35.31"/>
</g>
<g>
</g>
<g>
</g>
<g>
</g>
<g>
</g>
<g>
</g>
<g>
</g>
<g>
</g>
<g>
</g>
<g>
</g>
<g>
</g>
<g>
</g>
<g>
</g>
<g>
</g>
<g>
</g>
<g>
</g>
</svg>
