<?xml version="1.0" encoding="iso-8859-1"?>
<!-- Generator: Adobe Illustrator 19.0.0, SVG Export Plug-In . SVG Version: 6.00 Build 0)  -->
<svg version="1.1" id="Capa_1" xmlns="http://www.w3.org/2000/svg" xmlns:xlink="http://www.w3.org/1999/xlink" x="0px" y="0px"
	 viewBox="0 0 512 512" style="enable-background:new 0 0 512 512;" xml:space="preserve">
<g>
	<path style="fill:#A5A5A4;" d="M282.483,450.207h-88.276c-9.751,0-17.655-7.905-17.655-17.655V300.138
		c0-4.875-3.952-8.828-8.828-8.828h-61.793V256h88.276c9.751,0,17.655,7.904,17.655,17.655v132.414c0,4.875,3.952,8.828,8.828,8.828
		h61.793V450.207z"/>
	<rect x="335.448" y="264.828" style="fill:#BDC3C7;" width="35.31" height="247.172"/>
	<path style="fill:#D1D4D1;" d="M114.759,0H61.793c-4.869,0.015-8.813,3.958-8.828,8.828v494.345
		c0.015,4.869,3.958,8.813,8.828,8.828h52.966c4.869-0.015,8.813-3.958,8.828-8.828V8.828C123.572,3.958,119.628,0.015,114.759,0z"
		/>
	<path style="fill:#5E5F62;" d="M123.586,467.862v35.31c-0.015,4.869-3.958,8.813-8.828,8.828H61.793
		c-4.869-0.015-8.813-3.958-8.828-8.828v-35.31H123.586z"/>
	<rect x="52.966" y="423.724" style="fill:#A5A5A4;" width="70.621" height="44.138"/>
	<g>
		<rect x="52.966" y="379.586" style="fill:#5E5F62;" width="70.621" height="44.138"/>
		<path style="fill:#5E5F62;" d="M97.103,0v360.607c0.347,5.235-3.595,9.769-8.828,10.152c-5.232-0.383-9.175-4.917-8.828-10.152V0
			H97.103z"/>
	</g>
	<g>
		<path style="fill:#CC4B4C;" d="M282.483,0h141.241c9.751,0,17.655,7.904,17.655,17.655v247.172
			c0,9.751-7.904,17.655-17.655,17.655H282.483c-9.751,0-17.655-7.904-17.655-17.655V17.655C264.828,7.904,272.732,0,282.483,0z"/>
		<path style="fill:#CC4B4C;" d="M264.828,317.793h176.552c9.751,0,17.655,7.905,17.655,17.655v17.655
			c0,9.751-7.905,17.655-17.655,17.655H264.828c-9.751,0-17.655-7.904-17.655-17.655v-17.655
			C247.172,325.698,255.077,317.793,264.828,317.793z"/>
		<path style="fill:#CC4B4C;" d="M273.655,406.069h158.897c14.626,0,26.483,11.857,26.483,26.483l0,0
			c0,14.626-11.857,26.483-26.483,26.483H273.655c-14.626,0-26.483-11.857-26.483-26.483l0,0
			C247.172,417.926,259.029,406.069,273.655,406.069z"/>
	</g>
	<rect x="52.966" y="335.448" style="fill:#A5A5A4;" width="70.621" height="44.138"/>
</g>
<g>
</g>
<g>
</g>
<g>
</g>
<g>
</g>
<g>
</g>
<g>
</g>
<g>
</g>
<g>
</g>
<g>
</g>
<g>
</g>
<g>
</g>
<g>
</g>
<g>
</g>
<g>
</g>
<g>
</g>
</svg>
