<?xml version="1.0" encoding="iso-8859-1"?>
<!-- Generator: Adobe Illustrator 19.0.0, SVG Export Plug-In . SVG Version: 6.00 Build 0)  -->
<svg version="1.1" id="Capa_1" xmlns="http://www.w3.org/2000/svg" xmlns:xlink="http://www.w3.org/1999/xlink" x="0px" y="0px"
	 viewBox="0 0 512 512" style="enable-background:new 0 0 512 512;" xml:space="preserve">
<g>
	<path style="fill:#BDC3C7;" d="M25.6,98.133H8.533C3.821,98.133,0,94.313,0,89.6s3.821-8.533,8.533-8.533H25.6
		c4.713,0,8.533,3.821,8.533,8.533S30.313,98.133,25.6,98.133z"/>
	<path style="fill:#95A5A5;" d="M59.733,64c0-4.713-3.821-8.533-8.533-8.533H34.133c-4.713,0-8.533,3.821-8.533,8.533v51.2
		c0,4.713,3.821,8.533,8.533,8.533H51.2c4.713,0,8.533-3.821,8.533-8.533h8.533V64H59.733z"/>
	<g>
		<rect x="128" y="89.6" style="fill:#7F8C8D;" width="34.133" height="145.067"/>
		<rect x="349.867" y="89.6" style="fill:#7F8C8D;" width="34.133" height="145.067"/>
	</g>
	<g>
		<path style="fill:#95A5A5;" d="M162.133,388.267V473.6h-51.2v-256c0.014-4.707,3.826-8.52,8.533-8.533h42.667V388.267z"/>
		<path style="fill:#95A5A5;" d="M349.867,388.267V473.6h51.2v-256c-0.014-4.707-3.826-8.52-8.533-8.533h-42.667V388.267z"/>
	</g>
	<g>
		<path style="fill:#BDC3C7;" d="M503.467,98.133H486.4c-4.713,0-8.533-3.821-8.533-8.533s3.82-8.533,8.533-8.533h17.067
			c4.713,0,8.533,3.821,8.533,8.533S508.18,98.133,503.467,98.133z"/>
		<polygon style="fill:#BDC3C7;" points="238.933,251.733 238.933,388.267 238.933,422.4 238.933,490.667 273.067,490.667 
			273.067,422.4 273.067,388.267 273.067,251.733 		"/>
	</g>
	<path style="fill:#7F8C8D;" d="M110.933,456.533h51.2c9.426,0,17.067,7.641,17.067,17.067l0,0c0,9.426-7.641,17.067-17.067,17.067
		h-51.2c-9.426,0-17.067-7.641-17.067-17.067l0,0C93.867,464.174,101.508,456.533,110.933,456.533z"/>
	<path style="fill:#95A5A5;" d="M460.8,123.733h17.067c4.713,0,8.533-3.821,8.533-8.533V64c0-4.713-3.82-8.533-8.533-8.533H460.8
		c-4.713,0-8.533,3.821-8.533,8.533h-8.533v51.2h8.533C452.267,119.913,456.087,123.733,460.8,123.733z"/>
	<path style="fill:#7F8C8D;" d="M401.067,490.667h-51.2c-9.426,0-17.067-7.641-17.067-17.067l0,0
		c0-9.426,7.641-17.067,17.067-17.067h51.2c9.426,0,17.067,7.641,17.067,17.067l0,0
		C418.133,483.026,410.492,490.667,401.067,490.667z"/>
	<path style="fill:#5E5F62;" d="M426.24,98.133H85.76c-3.148,0.154-6.125-1.438-7.745-4.142c-1.62-2.704-1.62-6.079,0-8.783
		c1.62-2.704,4.597-4.296,7.745-4.142h340.48c3.148-0.154,6.125,1.438,7.745,4.142c1.62,2.704,1.62,6.079,0,8.783
		C432.365,96.695,429.388,98.287,426.24,98.133z"/>
	<g>
		<path style="fill:#F18D46;" d="M162.133,354.133h187.733c9.426,0,17.067,7.641,17.067,17.067l0,0
			c0,9.426-7.641,17.067-17.067,17.067H162.133c-9.426,0-17.067-7.641-17.067-17.067l0,0
			C145.067,361.774,152.708,354.133,162.133,354.133z"/>
		<path style="fill:#F18D46;" d="M213.333,21.333h85.333c9.426,0,17.067,7.641,17.067,17.067v264.533
			c0,9.426-7.641,17.067-17.067,17.067h-85.333c-9.426,0-17.067-7.641-17.067-17.067V38.4
			C196.267,28.974,203.908,21.333,213.333,21.333z"/>
	</g>
	<g>
		<path style="fill:#7F8C8D;" d="M68.267,38.4h17.067c4.713,0,8.533,3.821,8.533,8.533v85.333c0,4.713-3.82,8.533-8.533,8.533
			H68.267c-4.713,0-8.533-3.82-8.533-8.533V46.933C59.733,42.221,63.554,38.4,68.267,38.4z"/>
		<path style="fill:#7F8C8D;" d="M443.733,140.8h-17.067c-4.713,0-8.533-3.82-8.533-8.533V46.933c0-4.713,3.82-8.533,8.533-8.533
			h17.067c4.713,0,8.533,3.82,8.533,8.533v85.333C452.267,136.98,448.446,140.8,443.733,140.8z"/>
	</g>
</g>
<g>
</g>
<g>
</g>
<g>
</g>
<g>
</g>
<g>
</g>
<g>
</g>
<g>
</g>
<g>
</g>
<g>
</g>
<g>
</g>
<g>
</g>
<g>
</g>
<g>
</g>
<g>
</g>
<g>
</g>
</svg>
