<?xml version="1.0" encoding="iso-8859-1"?>
<!-- Generator: Adobe Illustrator 19.0.0, SVG Export Plug-In . SVG Version: 6.00 Build 0)  -->
<svg version="1.1" id="Capa_1" xmlns="http://www.w3.org/2000/svg" xmlns:xlink="http://www.w3.org/1999/xlink" x="0px" y="0px"
	 viewBox="0 0 512 512" style="enable-background:new 0 0 512 512;" xml:space="preserve">
<g>
	<g>
		<path style="fill:#5E5F62;" d="M35.31,300.138c-4.875,0-8.828-3.952-8.828-8.828v-61.793c0-4.875,3.952-8.828,8.828-8.828
			s8.828,3.952,8.828,8.828v61.793C44.138,296.186,40.186,300.138,35.31,300.138z"/>
		<path style="fill:#5E5F62;" d="M476.69,300.138c-2.341,0.001-4.587-0.929-6.243-2.585c-1.656-1.656-2.585-3.901-2.585-6.243
			v-61.793c0-4.875,3.952-8.828,8.828-8.828s8.828,3.952,8.828,8.828v61.793c0.001,2.341-0.929,4.587-2.585,6.243
			C481.277,299.209,479.031,300.139,476.69,300.138z"/>
	</g>
	<path style="fill:#D1D4D1;" d="M317.793,35.31h35.31v450.207h35.31V17.655C388.385,7.916,380.497,0.029,370.759,0H141.241
		c-9.739,0.029-17.627,7.916-17.655,17.655v467.862h35.31V35.31H317.793z"/>
	<path style="fill:#5E5F62;" d="M256,203.034c-4.875,0-8.828-3.952-8.828-8.828v-79.448c0-4.875,3.952-8.828,8.828-8.828
		s8.828,3.952,8.828,8.828v79.448C264.828,199.082,260.875,203.034,256,203.034z"/>
	<g>
		<rect x="238.345" y="406.069" style="fill:#BDC3C7;" width="35.31" height="79.448"/>
		<rect x="238.345" y="326.621" style="fill:#BDC3C7;" width="35.31" height="79.448"/>
	</g>
	<g>
		<rect x="79.448" y="467.862" style="fill:#A5A5A4;" width="353.103" height="35.31"/>
		<rect x="158.897" y="229.517" style="fill:#A5A5A4;" width="194.207" height="44.138"/>
	</g>
	<rect x="158.897" y="273.655" style="fill:#5E5F62;" width="194.207" height="44.138"/>
	<g>
		<path style="fill:#F18D46;" d="M238.345,185.379h35.31c9.751,0,17.655,7.904,17.655,17.655v123.586
			c0,9.751-7.904,17.655-17.655,17.655h-35.31c-9.751,0-17.655-7.904-17.655-17.655V203.034
			C220.69,193.284,228.594,185.379,238.345,185.379z"/>
		<path style="fill:#F18D46;" d="M220.69,388.414h70.621c4.875,0,8.828,3.952,8.828,8.828v17.655c0,4.875-3.952,8.828-8.828,8.828
			H220.69c-4.875,0-8.828-3.952-8.828-8.828v-17.655C211.862,392.366,215.814,388.414,220.69,388.414z"/>
	</g>
	<g>
		<path style="fill:#5E5F62;" d="M52.966,459.034h17.655c4.875,0,8.828,3.952,8.828,8.828v35.31c0,4.875-3.952,8.828-8.828,8.828
			H52.966c-4.875,0-8.828-3.952-8.828-8.828v-35.31C44.138,462.987,48.09,459.034,52.966,459.034z"/>
		<path style="fill:#5E5F62;" d="M441.379,459.034h17.655c4.875,0,8.828,3.952,8.828,8.828v35.31c0,4.875-3.952,8.828-8.828,8.828
			h-17.655c-4.875,0-8.828-3.952-8.828-8.828v-35.31C432.552,462.987,436.504,459.034,441.379,459.034z"/>
	</g>
	<path style="fill:#A5A5A4;" d="M467.862,70.621H44.138c-9.739,0.028-17.627,7.916-17.655,17.655v141.241h35.31V114.759
		c0.015-4.869,3.958-8.813,8.828-8.828h370.759c4.869,0.015,8.813,3.958,8.828,8.828v114.759h35.31V88.276
		C485.489,78.537,477.601,70.649,467.862,70.621z"/>
	<path style="fill:#5E5F62;" d="M317.793,0v105.931c-0.029,9.739-7.916,17.627-17.655,17.655h-88.276
		c-9.739-0.029-17.627-7.916-17.655-17.655V0H317.793z"/>
</g>
<g>
</g>
<g>
</g>
<g>
</g>
<g>
</g>
<g>
</g>
<g>
</g>
<g>
</g>
<g>
</g>
<g>
</g>
<g>
</g>
<g>
</g>
<g>
</g>
<g>
</g>
<g>
</g>
<g>
</g>
</svg>
