<?xml version="1.0" encoding="iso-8859-1"?>
<!-- Generator: Adobe Illustrator 19.0.0, SVG Export Plug-In . SVG Version: 6.00 Build 0)  -->
<svg version="1.1" id="Capa_1" xmlns="http://www.w3.org/2000/svg" xmlns:xlink="http://www.w3.org/1999/xlink" x="0px" y="0px"
	 viewBox="0 0 512 512" style="enable-background:new 0 0 512 512;" xml:space="preserve">
<g>
	<g>
		<rect x="238.345" y="203.034" style="fill:#D1D4D1;" width="35.31" height="90.483"/>
		<polygon style="fill:#D1D4D1;" points="305.329,432.552 423.724,432.552 423.724,485.517 305.329,485.517 206.671,485.517 
			88.276,485.517 88.276,432.552 206.671,432.552 		"/>
	</g>
	<rect x="114.759" y="238.345" style="fill:#A5A5A4;" width="52.966" height="105.048"/>
	<path style="fill:#D1D4D1;" d="M203.034,185.379v35.31c-0.009,24.373-19.765,44.129-44.138,44.138h-35.31
		c-24.373-0.009-44.129-19.765-44.138-44.138v-35.31c0.009,24.373,19.765,44.129,44.138,44.138h35.31
		C183.27,229.508,203.026,209.752,203.034,185.379z"/>
	<path style="fill:#5E5F62;" d="M123.586,0h35.31c24.377,0,44.138,19.761,44.138,44.138v141.241
		c0,24.377-19.761,44.138-44.138,44.138h-35.31c-24.377,0-44.138-19.761-44.138-44.138V44.138C79.448,19.761,99.209,0,123.586,0z"/>
	<path style="fill:#D1D4D1;" d="M105.931,317.793h105.931v52.966H105.931c-14.626,0-26.483-11.857-26.483-26.483
		C79.448,329.65,91.305,317.793,105.931,317.793z"/>
	<path style="fill:#A5A5A4;" d="M300.138,300.138v185.379C300.138,500.171,280.364,512,256,512s-44.138-11.829-44.138-26.483
		V300.138c0,14.654,19.774,26.483,44.138,26.483S300.138,314.792,300.138,300.138z"/>
	<ellipse style="fill:#547580;" cx="256" cy="300.138" rx="44.138" ry="26.483"/>
	<path style="fill:#5E5F62;" d="M61.793,406.069h35.31c4.875,0,8.828,3.952,8.828,8.828v88.276c0,4.875-3.952,8.828-8.828,8.828
		h-35.31c-4.875,0-8.828-3.952-8.828-8.828v-88.276C52.966,410.021,56.918,406.069,61.793,406.069z"/>
	<rect x="344.276" y="238.345" style="fill:#A5A5A4;" width="52.966" height="105.048"/>
	<path style="fill:#D1D4D1;" d="M432.552,185.379v35.31c-0.009,24.373-19.765,44.129-44.138,44.138h-35.31
		c-24.373-0.009-44.129-19.765-44.138-44.138v-35.31c0.009,24.373,19.765,44.129,44.138,44.138h35.31
		C412.787,229.508,432.543,209.752,432.552,185.379z"/>
	<path style="fill:#5E5F62;" d="M353.103,0h35.31c24.377,0,44.138,19.761,44.138,44.138v141.241
		c0,24.377-19.761,44.138-44.138,44.138h-35.31c-24.377,0-44.138-19.761-44.138-44.138V44.138C308.966,19.761,328.727,0,353.103,0z"
		/>
	<rect x="203.034" y="167.724" style="fill:#84B5CB;" width="105.931" height="52.966"/>
	<path style="fill:#D1D4D1;" d="M406.069,370.759H300.138v-52.966h105.931c14.626,0,26.483,11.857,26.483,26.483
		C432.552,358.902,420.695,370.759,406.069,370.759z"/>
	<path style="fill:#5E5F62;" d="M450.207,512h-35.31c-4.875,0-8.828-3.952-8.828-8.828v-88.276c0-4.875,3.952-8.828,8.828-8.828
		h35.31c4.875,0,8.828,3.952,8.828,8.828v88.276C459.034,508.048,455.082,512,450.207,512z"/>
</g>
<g>
</g>
<g>
</g>
<g>
</g>
<g>
</g>
<g>
</g>
<g>
</g>
<g>
</g>
<g>
</g>
<g>
</g>
<g>
</g>
<g>
</g>
<g>
</g>
<g>
</g>
<g>
</g>
<g>
</g>
</svg>
