<?xml version="1.0" encoding="iso-8859-1"?>
<!-- Generator: Adobe Illustrator 19.0.0, SVG Export Plug-In . SVG Version: 6.00 Build 0)  -->
<svg version="1.1" id="Capa_1" xmlns="http://www.w3.org/2000/svg" xmlns:xlink="http://www.w3.org/1999/xlink" x="0px" y="0px"
	 viewBox="0 0 512 512" style="enable-background:new 0 0 512 512;" xml:space="preserve">
<g>
	<g>
		<path style="fill:#7F8C8D;" d="M450.207,417.81c-4.875,0-8.827-3.952-8.828-8.828V233.056c0.003-2.954-1.475-5.714-3.935-7.349
			l-75.996-50.638c-2.658-1.735-4.18-4.764-3.986-7.932s2.074-5.989,4.924-7.386c2.85-1.398,6.231-1.157,8.855,0.629l75.996,50.638
			c7.377,4.905,11.806,13.18,11.797,22.039v175.927C459.034,413.858,455.082,417.81,450.207,417.81z"/>
		<path style="fill:#7F8C8D;" d="M61.793,423.724c-4.875,0-8.828-3.952-8.828-8.828v-181.84
			c-0.009-8.859,4.421-17.133,11.797-22.039l75.229-50.616c4.045-2.721,9.529-1.648,12.25,2.397
			c2.721,4.045,1.648,9.529-2.397,12.25l-75.259,50.638c-2.476,1.635-3.965,4.404-3.966,7.371v181.84
			C70.621,419.772,66.668,423.724,61.793,423.724z"/>
	</g>
	<g>
		<rect x="132.414" y="97.103" style="fill:#95A5A5;" width="35.31" height="300.138"/>
		<rect x="344.276" y="97.103" style="fill:#95A5A5;" width="35.31" height="300.138"/>
	</g>
	<g>
		<path style="fill:#7F8C8D;" d="M44.138,459.034h52.966v44.138c0,4.875-3.952,8.828-8.828,8.828h-35.31
			c-4.875,0-8.828-3.952-8.828-8.828V459.034z"/>
		<path style="fill:#7F8C8D;" d="M414.897,459.034h52.966v44.138c0,4.875-3.952,8.828-8.828,8.828h-35.31
			c-4.875,0-8.828-3.952-8.828-8.828V459.034z"/>
	</g>
	<path style="fill:#5E5F62;" d="M485.517,442.615v25.247c-0.015,4.869-3.958,8.813-8.828,8.828H35.31
		c-4.869-0.015-8.813-3.958-8.828-8.828v-25.247c-0.003-11.809,5.893-22.838,15.713-29.396l90.218-60.116h247.172l90.218,60.116
		C479.625,419.777,485.52,430.807,485.517,442.615z"/>
	<path style="fill:#7F8C8D;" d="M123.586,0h264.828c9.751,0,17.655,7.904,17.655,17.655v105.931c0,9.751-7.905,17.655-17.655,17.655
		H123.586c-9.751,0-17.655-7.904-17.655-17.655V17.655C105.931,7.904,113.836,0,123.586,0z"/>
	<path style="fill:#B0D3F0;" d="M150.069,35.31h70.621c4.875,0,8.828,3.952,8.828,8.828v52.966c0,4.875-3.952,8.828-8.828,8.828
		h-70.621c-4.875,0-8.828-3.952-8.828-8.828V44.138C141.241,39.263,145.194,35.31,150.069,35.31z"/>
	<path style="fill:#ECF0F1;" d="M273.655,35.31h17.655c4.875,0,8.828,3.952,8.828,8.828v17.655c0,4.875-3.952,8.828-8.828,8.828
		h-17.655c-4.875,0-8.828-3.952-8.828-8.828V44.138C264.828,39.263,268.78,35.31,273.655,35.31z"/>
	<path style="fill:#E64C3C;" d="M344.276,35.31h17.655c4.875,0,8.828,3.952,8.828,8.828v17.655c0,4.875-3.952,8.828-8.828,8.828
		h-17.655c-4.875,0-8.828-3.952-8.828-8.828V44.138C335.448,39.263,339.401,35.31,344.276,35.31z"/>
	<path style="fill:#E6E7E8;" d="M300.138,114.759h-35.31c-4.875,0-8.828-3.952-8.828-8.828c0-4.875,3.952-8.828,8.828-8.828h35.31
		c4.875,0,8.828,3.952,8.828,8.828C308.966,110.806,305.013,114.759,300.138,114.759z"/>
	<g>
		<path style="fill:#65DDB9;" d="M335.448,114.759c-2.337-0.035-4.575-0.949-6.268-2.56c-0.78-0.859-1.409-1.844-1.858-2.914
			c-0.937-2.139-0.937-4.572,0-6.711c0.427-1.08,1.058-2.068,1.858-2.91c2.536-2.508,6.333-3.242,9.621-1.858
			c1.081,0.428,2.07,1.059,2.914,1.858c1.611,1.693,2.525,3.931,2.56,6.268c-0.014,1.153-0.254,2.293-0.707,3.353
			c-0.449,1.069-1.076,2.054-1.854,2.914C340.022,113.809,337.785,114.723,335.448,114.759z"/>
		<path style="fill:#65DDB9;" d="M370.759,114.759c-2.348,0.023-4.607-0.9-6.267-2.56c-1.66-1.66-2.583-3.919-2.56-6.267
			c0.012-1.154,0.251-2.295,0.703-3.358c0.449-1.069,1.077-2.053,1.857-2.91c0.827-0.818,1.819-1.451,2.909-1.858
			c3.294-1.331,7.063-0.604,9.626,1.858c2.546,2.525,3.312,6.341,1.937,9.653C377.587,112.628,374.345,114.779,370.759,114.759z"/>
	</g>
	<path style="fill:#A5A5A4;" d="M479.956,423.724H32.044c2.579-4.199,6.043-7.784,10.152-10.505l37.252-24.806h353.103
		l37.252,24.806C473.912,415.94,477.377,419.525,479.956,423.724z"/>
</g>
<g>
</g>
<g>
</g>
<g>
</g>
<g>
</g>
<g>
</g>
<g>
</g>
<g>
</g>
<g>
</g>
<g>
</g>
<g>
</g>
<g>
</g>
<g>
</g>
<g>
</g>
<g>
</g>
<g>
</g>
</svg>
