<?xml version="1.0" encoding="iso-8859-1"?>
<!-- Generator: Adobe Illustrator 19.0.0, SVG Export Plug-In . SVG Version: 6.00 Build 0)  -->
<svg version="1.1" id="Capa_1" xmlns="http://www.w3.org/2000/svg" xmlns:xlink="http://www.w3.org/1999/xlink" x="0px" y="0px"
	 viewBox="0 0 512 512" style="enable-background:new 0 0 512 512;" xml:space="preserve">
<g>
	<g>
		<path style="fill:#5E5F62;" d="M134.797,158.897c-3.178,5.456-3.178,12.199,0,17.655H52.966c-4.875,0-8.828-3.952-8.828-8.828
			s3.952-8.828,8.828-8.828H134.797z"/>
		<path style="fill:#5E5F62;" d="M238.345,167.724c0.003,3.101,0.825,6.146,2.383,8.828h-36.899
			c-0.535-2.704-0.801-5.454-0.794-8.21c0.007,2.756-0.259,5.506-0.794,8.21h-36.899c3.178-5.456,3.178-12.199,0-17.655h36.899
			c0.492,2.621,0.757,5.279,0.794,7.945c0.037-2.666,0.303-5.324,0.794-7.945h36.899
			C239.17,161.578,238.348,164.623,238.345,167.724z"/>
		<path style="fill:#5E5F62;" d="M344.276,167.724c0.003,3.101,0.825,6.146,2.383,8.828H309.76c-0.535-2.704-0.801-5.454-0.794-8.21
			c0.007,2.756-0.259,5.506-0.794,8.21h-36.899c3.178-5.456,3.178-12.199,0-17.655h36.899c0.492,2.621,0.757,5.279,0.794,7.945
			c0.037-2.666,0.303-5.324,0.794-7.945h36.899C345.101,161.578,344.279,164.623,344.276,167.724z"/>
		<path style="fill:#5E5F62;" d="M467.862,167.724c-0.015,4.869-3.958,8.813-8.828,8.828h-81.832c3.178-5.456,3.178-12.199,0-17.655
			h81.832C463.904,158.911,467.848,162.855,467.862,167.724z"/>
	</g>
	<g>
		<path style="fill:#95A5A5;" d="M202.24,158.897c-4.279-25.479-26.336-44.14-52.171-44.14s-47.892,18.661-52.171,44.14h36.899
			c3.995-6.92,12.141-10.294,19.859-8.226c7.719,2.068,13.086,9.063,13.086,17.054s-5.367,14.985-13.086,17.054
			c-7.719,2.068-15.864-1.306-19.859-8.226H97.898c4.279,25.479,26.336,44.14,52.171,44.14s47.892-18.661,52.171-44.14
			c0.535-2.704,0.801-5.454,0.794-8.21v-1.501C202.997,164.175,202.732,161.517,202.24,158.897z M202.24,158.897h-36.899
			c3.154,5.456,3.157,12.18,0.009,17.639c-3.148,5.459-8.97,8.824-15.272,8.828s-12.127-3.356-15.281-8.812H97.898
			c4.279,25.479,26.336,44.14,52.171,44.14s47.892-18.661,52.171-44.14c0.535-2.704,0.801-5.454,0.794-8.21v-1.501
			C202.997,164.175,202.732,161.517,202.24,158.897z M202.24,158.897h-36.899c3.154,5.456,3.157,12.18,0.009,17.639
			c-3.148,5.459-8.97,8.824-15.272,8.828s-12.127-3.356-15.281-8.812H97.898c4.279,25.479,26.336,44.14,52.171,44.14
			s47.892-18.661,52.171-44.14c0.535-2.704,0.801-5.454,0.794-8.21v-1.501C202.997,164.175,202.732,161.517,202.24,158.897z
			 M202.24,158.897c-4.279-25.479-26.336-44.14-52.171-44.14s-47.892,18.661-52.171,44.14h36.899
			c3.995-6.92,12.141-10.294,19.859-8.226c7.719,2.068,13.086,9.063,13.086,17.054s-5.367,14.985-13.086,17.054
			c-7.719,2.068-15.864-1.306-19.859-8.226H97.898c4.279,25.479,26.336,44.14,52.171,44.14s47.892-18.661,52.171-44.14
			c0.535-2.704,0.801-5.454,0.794-8.21v-1.501C202.997,164.175,202.732,161.517,202.24,158.897z M202.24,158.897
			c-4.279-25.479-26.336-44.14-52.171-44.14s-47.892,18.661-52.171,44.14c-1.06,5.837-1.06,11.818,0,17.655
			c4.279,25.479,26.336,44.14,52.171,44.14s47.892-18.661,52.171-44.14c0.535-2.704,0.801-5.454,0.794-8.21v-1.501
			C202.997,164.175,202.732,161.517,202.24,158.897z M150.069,185.379c-8.017,0.02-15.046-5.352-17.132-13.093
			c-2.086-7.741,1.291-15.917,8.232-19.929c6.941-4.012,15.711-2.858,21.378,2.814c5.666,5.671,6.813,14.443,2.794,21.38
			C162.195,182.014,156.372,185.38,150.069,185.379z M202.24,158.897c-4.279-25.479-26.336-44.14-52.171-44.14
			s-47.892,18.661-52.171,44.14h36.899c3.995-6.92,12.141-10.294,19.859-8.226c7.719,2.068,13.086,9.063,13.086,17.054
			s-5.367,14.985-13.086,17.054c-7.719,2.068-15.864-1.306-19.859-8.226H97.898c4.279,25.479,26.336,44.14,52.171,44.14
			s47.892-18.661,52.171-44.14c0.535-2.704,0.801-5.454,0.794-8.21v-1.501C202.997,164.175,202.732,161.517,202.24,158.897z
			 M202.24,158.897h-36.899c3.154,5.456,3.157,12.18,0.009,17.639c-3.148,5.459-8.97,8.824-15.272,8.828s-12.127-3.356-15.281-8.812
			H97.898c4.279,25.479,26.336,44.14,52.171,44.14s47.892-18.661,52.171-44.14c0.535-2.704,0.801-5.454,0.794-8.21v-1.501
			C202.997,164.175,202.732,161.517,202.24,158.897z M202.24,158.897c-4.279-25.479-26.336-44.14-52.171-44.14
			s-47.892,18.661-52.171,44.14h36.899c3.995-6.92,12.141-10.294,19.859-8.226c7.719,2.068,13.086,9.063,13.086,17.054
			s-5.367,14.985-13.086,17.054c-7.719,2.068-15.864-1.306-19.859-8.226H97.898c4.279,25.479,26.336,44.14,52.171,44.14
			s47.892-18.661,52.171-44.14c0.535-2.704,0.801-5.454,0.794-8.21v-1.501C202.997,164.175,202.732,161.517,202.24,158.897z"/>
		<path style="fill:#95A5A5;" d="M240.728,158.897h-36.899c-0.492,2.621-0.757,5.279-0.794,7.945v1.501
			c-0.007,2.756,0.259,5.506,0.794,8.21h36.899C237.55,171.096,237.55,164.353,240.728,158.897z M240.728,158.897h-36.899
			c-0.492,2.621-0.757,5.279-0.794,7.945v1.501c-0.007,2.756,0.259,5.506,0.794,8.21h36.899
			C237.55,171.096,237.55,164.353,240.728,158.897z M240.728,158.897h-36.899c-0.492,2.621-0.757,5.279-0.794,7.945v1.501
			c-0.007,2.756,0.259,5.506,0.794,8.21h36.899C237.55,171.096,237.55,164.353,240.728,158.897z M308.171,158.897
			c-4.279-25.479-26.336-44.14-52.171-44.14s-47.892,18.661-52.171,44.14c-0.492,2.621-0.757,5.279-0.794,7.945v1.501
			c-0.007,2.756,0.259,5.506,0.794,8.21c4.279,25.479,26.336,44.14,52.171,44.14s47.892-18.661,52.171-44.14
			c0.535-2.704,0.801-5.454,0.794-8.21v-1.501C308.928,164.175,308.663,161.517,308.171,158.897z M256,185.379
			c-8.017,0.02-15.046-5.352-17.132-13.093c-2.086-7.741,1.291-15.917,8.232-19.929c6.941-4.012,15.711-2.858,21.378,2.814
			c5.666,5.671,6.813,14.443,2.794,21.38C268.126,182.014,262.303,185.38,256,185.379z M240.728,158.897h-36.899
			c-0.492,2.621-0.757,5.279-0.794,7.945v1.501c-0.007,2.756,0.259,5.506,0.794,8.21h36.899
			C237.55,171.096,237.55,164.353,240.728,158.897z M240.728,158.897h-36.899c-0.492,2.621-0.757,5.279-0.794,7.945v1.501
			c-0.007,2.756,0.259,5.506,0.794,8.21h36.899C237.55,171.096,237.55,164.353,240.728,158.897z M240.728,158.897h-36.899
			c-0.492,2.621-0.757,5.279-0.794,7.945v1.501c-0.007,2.756,0.259,5.506,0.794,8.21h36.899
			C237.55,171.096,237.55,164.353,240.728,158.897z"/>
		<path style="fill:#95A5A5;" d="M346.659,158.897H309.76c-0.492,2.621-0.757,5.279-0.794,7.945v1.501
			c-0.007,2.756,0.259,5.506,0.794,8.21h36.899C343.481,171.096,343.481,164.353,346.659,158.897z M346.659,158.897H309.76
			c-0.492,2.621-0.757,5.279-0.794,7.945v1.501c-0.007,2.756,0.259,5.506,0.794,8.21h36.899
			C343.481,171.096,343.481,164.353,346.659,158.897z M346.659,158.897H309.76c-0.492,2.621-0.757,5.279-0.794,7.945v1.501
			c-0.007,2.756,0.259,5.506,0.794,8.21h36.899C343.481,171.096,343.481,164.353,346.659,158.897z M346.659,158.897H309.76
			c-0.492,2.621-0.757,5.279-0.794,7.945v1.501c-0.007,2.756,0.259,5.506,0.794,8.21h36.899
			C343.481,171.096,343.481,164.353,346.659,158.897z M414.102,158.897c-4.279-25.479-26.336-44.14-52.171-44.14
			s-47.892,18.661-52.171,44.14c-0.492,2.621-0.757,5.279-0.794,7.945v1.501c-0.007,2.756,0.259,5.506,0.794,8.21
			c4.279,25.479,26.336,44.14,52.171,44.14s47.892-18.661,52.171-44.14C415.162,170.714,415.162,164.734,414.102,158.897z
			 M361.931,185.379c-8.017,0.02-15.046-5.352-17.132-13.093s1.291-15.917,8.232-19.929c6.941-4.012,15.711-2.858,21.378,2.814
			c5.666,5.671,6.813,14.443,2.794,21.38C374.057,182.014,368.234,185.38,361.931,185.379z M346.659,158.897H309.76
			c-0.492,2.621-0.757,5.279-0.794,7.945v1.501c-0.007,2.756,0.259,5.506,0.794,8.21h36.899
			C343.481,171.096,343.481,164.353,346.659,158.897z M346.659,158.897H309.76c-0.492,2.621-0.757,5.279-0.794,7.945v1.501
			c-0.007,2.756,0.259,5.506,0.794,8.21h36.899C343.481,171.096,343.481,164.353,346.659,158.897z M346.659,158.897H309.76
			c-0.492,2.621-0.757,5.279-0.794,7.945v1.501c-0.007,2.756,0.259,5.506,0.794,8.21h36.899
			C343.481,171.096,343.481,164.353,346.659,158.897z"/>
	</g>
	<path style="fill:#35495E;" d="M494.345,8.828v485.517h-35.31V44.138c-0.015-4.869-3.958-8.813-8.828-8.828H61.793
		c-4.869,0.015-8.813,3.958-8.828,8.828v450.207h-35.31V8.828C17.67,3.958,21.613,0.015,26.483,0h459.034
		C490.387,0.015,494.33,3.958,494.345,8.828z"/>
	<g>
		<path style="fill:#2C3E50;" d="M8.828,476.69h52.966c4.875,0,8.828,3.952,8.828,8.828v17.655c0,4.875-3.952,8.828-8.828,8.828
			H8.828C3.952,512,0,508.048,0,503.172v-17.655C0,480.642,3.952,476.69,8.828,476.69z"/>
		<path style="fill:#2C3E50;" d="M450.207,476.69h52.966c4.875,0,8.828,3.952,8.828,8.828v17.655c0,4.875-3.952,8.828-8.828,8.828
			h-52.966c-4.875,0-8.828-3.952-8.828-8.828v-17.655C441.379,480.642,445.332,476.69,450.207,476.69z"/>
	</g>
	<g>
		<path style="fill:#95A5A5;" d="M97.103,256c-43.704,0.006-79.197,35.311-79.436,79.014c-0.239,43.704,34.866,79.394,78.568,79.877
			s79.588-34.421,80.316-78.119v-1.324C176.548,291.572,140.98,256.004,97.103,256z M97.103,353.103
			c-9.751,0-17.655-7.905-17.655-17.655s7.904-17.655,17.655-17.655s17.655,7.905,17.655,17.655
			C114.73,345.187,106.842,353.075,97.103,353.103z M97.103,256c-43.704,0.006-79.197,35.311-79.436,79.014
			c-0.239,43.704,34.866,79.394,78.568,79.877s79.588-34.421,80.316-78.119v-1.324C176.548,291.572,140.98,256.004,97.103,256z
			 M97.103,353.103c-9.751,0-17.655-7.905-17.655-17.655s7.904-17.655,17.655-17.655s17.655,7.905,17.655,17.655
			C114.73,345.187,106.842,353.075,97.103,353.103z"/>
		<path style="fill:#95A5A5;" d="M256,256c-43.877,0.004-79.445,35.572-79.448,79.448v1.324
			c0.728,43.358,36.084,78.125,79.448,78.125s78.72-34.767,79.448-78.125v-1.324C335.445,291.572,299.877,256.004,256,256z
			 M256,353.103c-9.751,0-17.655-7.905-17.655-17.655s7.904-17.655,17.655-17.655c9.751,0,17.655,7.905,17.655,17.655
			C273.627,345.187,265.739,353.075,256,353.103z"/>
		<path style="fill:#95A5A5;" d="M414.897,256c-43.877,0.004-79.445,35.572-79.448,79.448v1.324
			c0.725,43.703,36.614,78.613,80.32,78.13s78.815-36.177,78.575-79.885C494.104,291.31,458.605,256.003,414.897,256z
			 M414.897,353.103c-9.751,0-17.655-7.905-17.655-17.655s7.905-17.655,17.655-17.655s17.655,7.905,17.655,17.655
			C432.523,345.187,424.635,353.075,414.897,353.103z"/>
	</g>
</g>
<g>
</g>
<g>
</g>
<g>
</g>
<g>
</g>
<g>
</g>
<g>
</g>
<g>
</g>
<g>
</g>
<g>
</g>
<g>
</g>
<g>
</g>
<g>
</g>
<g>
</g>
<g>
</g>
<g>
</g>
</svg>
