<?xml version="1.0" encoding="iso-8859-1"?>
<!-- Generator: Adobe Illustrator 19.0.0, SVG Export Plug-In . SVG Version: 6.00 Build 0)  -->
<svg version="1.1" id="Capa_1" xmlns="http://www.w3.org/2000/svg" xmlns:xlink="http://www.w3.org/1999/xlink" x="0px" y="0px"
	 viewBox="0 0 512.354 512.354" style="enable-background:new 0 0 512.354 512.354;" xml:space="preserve">
<g transform="translate(0 -1)">
	
		<rect x="5.669" y="279.591" transform="matrix(0.9141 0.4054 -0.4054 0.9141 123.6886 13.1462)" style="fill:#BDC3C7;" width="50.282" height="37.941"/>
	<path style="fill:#7F8C8D;" d="M128.772,253.226l-16.139-7.158c-2.14-0.949-4.57-1.01-6.754-0.167
		c-2.185,0.842-3.945,2.518-4.894,4.658l-9.401,21.196c1.976-4.457-0.035-9.671-4.491-11.648l-16.139-7.158
		c-2.14-0.949-4.57-1.009-6.754-0.167c-2.185,0.842-3.945,2.518-4.894,4.658l-39.847,89.846c-1.976,4.457,0.034,9.671,4.49,11.648
		l16.14,7.158c4.457,1.976,9.671-0.034,11.648-4.49l0.394-0.887l-9.794,22.084c-0.949,2.14-1.009,4.57-0.167,6.754
		c0.842,2.185,2.518,3.945,4.658,4.894l16.139,7.158c4.457,1.976,9.672-0.034,11.648-4.491l13.802,10.309l61.793-132.414
		l-16.946-10.135C135.239,260.417,133.228,255.202,128.772,253.226z"/>
	<path style="fill:#95A5A5;" d="M40.085,366.096l-16.139-7.158c-4.457-1.977-6.467-7.192-4.491-11.648l39.833-89.814
		c1.977-4.457,7.192-6.467,11.648-4.491l16.139,7.158c4.457,1.977,6.467,7.192,4.491,11.648l-39.833,89.814
		C49.757,366.062,44.542,368.073,40.085,366.096z"/>
	
		<rect x="87.083" y="95.692" transform="matrix(0.9141 0.4054 -0.4054 0.9141 56.0158 -35.1454)" style="fill:#BDC3C7;" width="47.784" height="37.941"/>
	<path style="fill:#7F8C8D;" d="M202.283,87.558L186.144,80.4c-2.14-0.949-4.57-1.009-6.754-0.167s-3.945,2.518-4.894,4.658
		l-21.474,48.417l14.316-32.278c0.949-2.14,1.009-4.57,0.167-6.754c-0.842-2.185-2.518-3.945-4.658-4.894l-16.139-7.157
		c-4.457-1.976-9.671,0.034-11.648,4.49l-28.631,64.557c-0.949,2.14-1.009,4.57-0.167,6.754c0.842,2.185,2.518,3.945,4.658,4.894
		l16.139,7.158c4.457,1.976,9.671-0.034,11.648-4.49l-7.158,16.139c-1.976,4.457,0.034,9.672,4.491,11.648l16.139,7.158
		c2.14,0.949,4.57,1.009,6.754,0.167c2.185-0.842,3.945-2.518,4.894-4.658l12.864,8.347l52.966-97.103l-22.883-8.078
		c0.949-2.14,1.009-4.57,0.167-6.754C206.099,90.268,204.424,88.507,202.283,87.558z"/>
	<path style="fill:#95A5A5;" d="M127.054,170.036l-16.139-7.158c-4.457-1.977-6.467-7.192-4.491-11.648l28.631-64.557
		c1.977-4.457,7.192-6.467,11.648-4.491l16.139,7.158c4.457,1.977,6.467,7.192,4.491,11.648l-28.631,64.557
		C136.726,170.002,131.511,172.012,127.054,170.036z"/>
	
		<rect x="369.697" y="97.338" transform="matrix(-0.9141 0.4054 -0.4054 -0.9141 808.323 61.4116)" style="fill:#BDC3C7;" width="55.923" height="37.941"/>
	<path style="fill:#7F8C8D;" d="M380.801,181.725l-7.158-16.139c1.977,4.456,7.192,6.467,11.648,4.49l16.139-7.158
		c2.14-0.949,3.816-2.709,4.658-4.894c0.842-2.184,0.782-4.614-0.167-6.754L377.29,86.714c-1.977-4.456-7.192-6.467-11.648-4.49
		l-16.139,7.157c-2.14,0.949-3.816,2.71-4.658,4.894c-0.842,2.185-0.782,4.614,0.167,6.754l14.316,32.278l-21.474-48.417
		c-0.949-2.14-2.71-3.816-4.894-4.658s-4.614-0.782-6.754,0.167l-16.139,7.158c-2.14,0.949-3.816,2.71-4.658,4.894
		c-0.842,2.185-0.782,4.614,0.167,6.754l-14.126,8.078l44.138,97.103l12.935-8.347c0.949,2.14,2.71,3.816,4.894,4.658
		c2.185,0.842,4.614,0.782,6.754-0.167l16.139-7.158C380.766,191.397,382.777,186.182,380.801,181.725z"/>
	<path style="fill:#95A5A5;" d="M349.505,89.376l16.139-7.158c4.457-1.977,9.672,0.034,11.648,4.491l28.631,64.556
		c1.977,4.457-0.034,9.672-4.491,11.648l-16.139,7.158c-4.457,1.977-9.672-0.034-11.648-4.491l-28.631-64.556
		C343.038,96.568,345.048,91.353,349.505,89.376z"/>
	
		<rect x="456.335" y="279.567" transform="matrix(-0.9141 0.4054 -0.4054 -0.9141 1042.7078 376.225)" style="fill:#BDC3C7;" width="50.353" height="37.941"/>
	<path style="fill:#7F8C8D;" d="M492.892,347.286l-39.847-89.846c-0.949-2.14-2.71-3.816-4.894-4.658
		c-2.185-0.842-4.614-0.782-6.754,0.167l-16.139,7.158c-4.456,1.977-6.467,7.191-4.491,11.648l-9.401-21.196
		c-0.949-2.14-2.71-3.816-4.894-4.658c-2.185-0.842-4.614-0.782-6.754,0.167l-16.139,7.158c-4.456,1.977-6.467,7.192-4.49,11.648
		l-17.017,10.135l52.966,132.414l22.701-10.309c0.949,2.14,2.71,3.816,4.894,4.658s4.614,0.782,6.754-0.167l16.139-7.158
		c2.14-0.949,3.816-2.71,4.658-4.894s0.782-4.614-0.167-6.754l-9.795-22.084l0.394,0.887c0.949,2.14,2.71,3.816,4.894,4.658
		c2.185,0.842,4.614,0.782,6.754-0.167l16.139-7.158C492.858,356.957,494.868,351.742,492.892,347.286z"/>
	<path style="fill:#95A5A5;" d="M425.255,260.132l16.139-7.158c4.457-1.977,9.672,0.034,11.648,4.491l39.833,89.814
		c1.977,4.457-0.034,9.672-4.491,11.648l-16.139,7.158c-4.457,1.977-9.672-0.034-11.648-4.491l-39.833-89.814
		C418.788,267.324,420.799,262.109,425.255,260.132z"/>
	<rect x="238.484" y="354.457" style="fill:#BDC3C7;" width="35.31" height="44.138"/>
	<path style="fill:#7F8C8D;" d="M335.587,433.905h-26.483c4.875,0,8.828-3.952,8.828-8.828v-26.483c0-4.875-3.952-8.828-8.828-8.828
		H203.173c-4.875,0-8.828,3.952-8.828,8.828v26.483c0,4.875,3.952,8.828,8.828,8.828h-26.483c-4.875,0-8.828,3.952-8.828,8.828
		v26.483c0,4.875,3.952,8.828,8.828,8.828v8.828h158.897v-8.828c4.875,0,8.828-3.952,8.828-8.828v-26.483
		C344.415,437.858,340.463,433.905,335.587,433.905z"/>
	<path style="fill:#95A5A5;" d="M203.173,389.767h105.931c4.875,0,8.828,3.952,8.828,8.828v26.483c0,4.875-3.952,8.828-8.828,8.828
		H203.173c-4.875,0-8.828-3.952-8.828-8.828v-26.483C194.346,393.72,198.298,389.767,203.173,389.767z"/>
	<path style="fill:#35495E;" d="M473.474,478.043h-38.577L264.172,93.249c-1.406-3.18-4.556-5.231-8.033-5.231
		c-3.477,0-6.626,2.051-8.033,5.231L77.38,478.043H37.656L248.106,6.297C249.483,3.084,252.643,1,256.139,1
		c3.496,0,6.656,2.084,8.033,5.297L473.474,478.043z"/>
	<path style="fill:#2C3E50;" d="M512.139,495.698c-0.071,9.721-7.934,17.585-17.655,17.655H17.794
		c-9.739-0.029-17.627-7.916-17.655-17.655c-0.025-4.684,1.855-9.177,5.208-12.447c3.27-3.353,7.763-5.233,12.447-5.208h476.69
		C504.223,478.072,512.11,485.96,512.139,495.698z"/>
</g>
<g>
</g>
<g>
</g>
<g>
</g>
<g>
</g>
<g>
</g>
<g>
</g>
<g>
</g>
<g>
</g>
<g>
</g>
<g>
</g>
<g>
</g>
<g>
</g>
<g>
</g>
<g>
</g>
<g>
</g>
</svg>
