<svg height="512pt" viewBox="0 0 512 512" width="512pt" xmlns="http://www.w3.org/2000/svg"><path d="m512 256c0 141.386719-114.613281 256-256 256s-256-114.613281-256-256 114.613281-256 256-256 256 114.613281 256 256zm0 0" fill="#94d400"/><path d="m37.5 218.5h437v75h-437zm0 0" fill="#ebf0f3"/><path d="m140.476562 319h-55.953124c-5.261719 0-9.523438-4.261719-9.523438-9.523438v-106.953124c0-5.261719 4.261719-9.523438 9.523438-9.523438h55.953124c5.261719 0 9.523438 4.261719 9.523438 9.523438v106.953124c0 5.261719-4.261719 9.523438-9.523438 9.523438zm0 0" fill="#ffe854"/><path d="m427.476562 319h-55.953124c-5.261719 0-9.523438-4.261719-9.523438-9.523438v-106.953124c0-5.261719 4.261719-9.523438 9.523438-9.523438h55.953124c5.261719 0 9.523438 4.261719 9.523438 9.523438v106.953124c0 5.261719-4.261719 9.523438-9.523438 9.523438zm0 0" fill="#ffe854"/><path d="m127.5 193h-42.976562c-5.261719 0-9.523438 4.261719-9.523438 9.523438v106.953124c0 5.261719 4.261719 9.523438 9.523438 9.523438h42.976562zm0 0" fill="#ffcf11"/><path d="m427.476562 193h-42.976562v126h42.976562c5.261719 0 9.523438-4.261719 9.523438-9.523438v-106.953124c0-5.261719-4.261719-9.523438-9.523438-9.523438zm0 0" fill="#ffcf11"/><path d="m512 121.410156v134.589844c0 48.898438-13.710938 94.589844-37.5 133.449219-3.460938 5.671875-7.140625 11.191406-11.03125 16.550781h-11.058594c-8.511718 0-15.410156-6.898438-15.410156-15.410156v-269.179688c0-8.511718 6.898438-15.410156 15.410156-15.410156h44.179688c8.511718 0 15.410156 6.898438 15.410156 15.410156zm0 0" fill="#232d47"/><path d="m75 121.410156v269.179688c0 5.621094-3.011719 10.53125-7.5 13.230468-2.308594 1.390626-5.019531 2.179688-7.910156 2.179688h-11.058594c-3.890625-5.359375-7.570312-10.878906-11.03125-16.550781-23.789062-38.859375-37.5-84.550781-37.5-133.449219v-134.589844c0-8.511718 6.898438-15.410156 15.410156-15.410156h44.179688c2.890625 0 5.601562.789062 7.910156 2.179688 4.488281 2.699218 7.5 7.609374 7.5 13.230468zm0 0" fill="#232d47"/><path d="m112.5 84.089844v343.820312c0 8.511719-6.898438 15.410156-15.410156 15.410156h-15.589844c-.019531-.03125-.050781-.050781-.070312-.070312-4.789063-4.480469-9.417969-9.128906-13.859376-13.960938-6.789062-7.378906-13.148437-15.148437-19.039062-23.289062-3.890625-5.359375-7.570312-10.878906-11.03125-16.550781v-305.359375c0-8.511719 6.898438-15.410156 15.410156-15.410156h44.179688c8.511718 0 15.410156 6.898437 15.410156 15.410156zm0 0" fill="#3e4a68"/><path d="m81.429688 443.25c.480468.050781.980468.070312 1.480468.070312h-1.410156c-.019531-.03125-.050781-.050781-.070312-.070312zm0 0" fill="#3e4a68"/><path d="m81.429688 68.75c-7.359376.699219-13.210938 6.578125-13.859376 13.960938-.050781.449218-.070312.910156-.070312 1.378906v343.820312c0 .46875.019531.929688.070312 1.378906-6.789062-7.378906-13.148437-15.148437-19.039062-23.289062-3.890625-5.359375-7.570312-10.878906-11.03125-16.550781v-305.359375c0-8.511719 6.898438-15.410156 15.410156-15.410156h30c-.5 0-1 .019531-1.480468.070312zm0 0" fill="#303a59"/><path d="m474.5 84.089844v305.359375c-3.460938 5.671875-7.140625 11.191406-11.03125 16.550781-8.648438 11.941406-18.308594 23.109375-28.839844 33.390625-1.359375 1.320313-2.738281 2.628906-4.128906 3.929687h-15.589844c-8.511718 0-15.410156-6.898437-15.410156-15.410156v-343.820312c0-8.511719 6.898438-15.410156 15.410156-15.410156h44.179688c8.511718 0 15.410156 6.898437 15.410156 15.410156zm0 0" fill="#3e4a68"/><path d="m474.5 84.089844v305.359375c-8.71875 14.261719-18.808594 27.601562-30.058594 39.839843.039063-.449218.058594-.917968.058594-1.378906v-343.820312c0-.460938-.019531-.929688-.058594-1.378906-.363281-4-2.242187-7.570313-5.070312-10.101563-2.382813-2.140625-5.441406-3.539063-8.800782-3.859375-.492187-.050781-.980468-.070312-1.480468-.070312h30c8.511718 0 15.410156 6.898437 15.410156 15.410156zm0 0" fill="#303a59"/><path d="m327.371094 307.339844h-142.742188c-7.023437 0-12.714844-5.691406-12.714844-12.710938v-77.257812c0-7.019532 5.691407-12.710938 12.714844-12.710938h142.742188c7.023437 0 12.714844 5.691406 12.714844 12.710938v77.257812c0 7.019532-5.691407 12.710938-12.714844 12.710938zm0 0" fill="#3e4a68"/><g fill="#303a59"><path d="m205.550781 294.628906v-77.257812c0-7.019532 5.691407-12.710938 12.710938-12.710938h-33.632813c-7.023437 0-12.714844 5.691406-12.714844 12.710938v77.257812c0 7.019532 5.691407 12.710938 12.714844 12.710938h33.632813c-7.019531 0-12.710938-5.691406-12.710938-12.710938zm0 0"/><path d="m256 230c9.289062 0 16.816406 7.527344 16.816406 16.816406v60.523438h-33.632812v-60.523438c0-9.289062 7.527344-16.816406 16.816406-16.816406zm0 0"/><path d="m323.269531 230c-9.289062 0-16.820312 7.527344-16.820312 16.816406v60.523438h20.976562c6.996094-.027344 12.660157-5.707032 12.660157-12.710938v-47.8125c0-9.289062-7.53125-16.816406-16.816407-16.816406zm0 0"/></g></svg>