<svg height="512pt" viewBox="0 0 512 512" width="512pt" xmlns="http://www.w3.org/2000/svg"><path d="m512 256c0 141.386719-114.613281 256-256 256s-256-114.613281-256-256 114.613281-256 256-256 256 114.613281 256 256zm0 0" fill="#ffcf11"/><path d="m96.105469 70.339844h142.894531v134.316406h-142.894531zm0 0" fill="#232d47"/><path d="m173.949219 1.296875c1.03125.621094 1.949219 1.441406 2.667969 2.453125l47.382812 66.589844v134.316406l-47.382812 66.59375c-.71875 1.011719-1.636719 1.828125-2.667969 2.453125zm0 0" fill="#303a59"/><path d="m66.105469 204.660156v-120.339844c4.367187-4.828124 8.921875-9.492187 13.644531-13.976562h352.5c37.300781 35.421875 63.9375 81.960938 74.597656 134.316406zm0 0" fill="#066ae7"/><path d="m506.847656 204.660156h-440.742187v-40h429.097656c4.917969 12.867188 8.839844 26.230469 11.644531 40zm0 0" fill="#045bba"/><path d="m310.484375 137.5c0 24.097656-5.644531 46.894531-15.667969 67.160156h-228.710937v-134.320312h228.710937c10.023438 20.265625 15.667969 43.0625 15.667969 67.160156zm0 0" fill="#045bba"/><path d="m295.484375 137.5c0 75.664062-61.339844 137-137.003906 137-75.660157 0-137-61.335938-137-137s61.339843-137 137-137c75.664062 0 137.003906 61.335938 137.003906 137zm0 0" fill="#0c99e6"/><path d="m255.484375 137.5c0-68.867188-50.820313-125.863281-117-135.542969 6.527344-.953125 13.203125-1.457031 20-1.457031 75.664063 0 137 61.335938 137 137s-61.339844 137-137 137c-6.796875 0-13.472656-.503906-20-1.457031 66.179687-9.679688 117-66.675781 117-135.542969zm0 0" fill="#066ae7"/><path d="m5.253906 307.839844h440.640625v119.839844c-4.53125 5.011718-9.265625 9.839843-14.179687 14.476562h-351.429688c-37.460937-35.371094-64.253906-81.917969-75.03125-134.316406zm0 0" fill="#e32828"/><path d="m445.894531 402.15625v25.523438c-.75.832031-1.515625 1.648437-2.28125 2.472656-.492187.527344-.980469 1.058594-1.476562 1.585937-.804688.851563-1.617188 1.691407-2.433594 2.53125-.433594.449219-.871094.894531-1.308594 1.34375-.886719.898438-1.777343 1.789063-2.671875 2.671875-.328125.324219-.660156.644532-.992187.96875-.996094.972656-2 1.945313-3.015625 2.902344h-351.429688s0 0-.003906-.003906c-12.808594-12.09375-24.363281-25.5-34.464844-39.996094zm0 0" fill="#aa1e1e"/><path d="m445.894531 307.839844v119.839844c-4.53125 5.011718-9.265625 9.839843-14.179687 14.476562h-214.53125c-10.023438-20.261719-15.667969-43.0625-15.667969-67.160156 0-24.09375 5.644531-46.894532 15.667969-67.15625zm0 0" fill="#aa1e1e"/><path d="m353.519531 237.996094c70.765625 0 128.996094 53.660156 136.238281 122.511718-32.53125 72.652344-97.9375 127.363282-177.292968 145.230469-55.605469-17.441406-95.949219-69.378906-95.949219-130.738281 0-75.664062 61.339844-137.003906 137.003906-137.003906zm0 0" fill="#ff3345"/><path d="m353.519531 237.996094c6.792969 0 13.46875.503906 20 1.460937-66.183593 9.679688-117.003906 66.671875-117.003906 135.542969 0 55.054688 32.480469 102.515625 79.320313 124.285156-7.640626 2.507813-15.433594 4.667969-23.371094 6.453125-55.605469-17.441406-95.949219-69.378906-95.949219-130.738281 0-75.664062 61.339844-137.003906 137.003906-137.003906zm0 0" fill="#e32828"/></svg>