<svg height="512pt" viewBox="0 0 512 512" width="512pt" xmlns="http://www.w3.org/2000/svg"><path d="m512 256c0 141.386719-114.613281 256-256 256s-256-114.613281-256-256 114.613281-256 256-256 256 114.613281 256 256zm0 0" fill="#0c99e6"/><path d="m443.988281 429.746094v-295.367188c0-5.5-2.519531-10.699218-6.835937-14.109375l-44.671875-35.269531-28.816407-47.5h-215.332031l-28.8125 47.5-44.671875 35.269531c-4.320312 3.40625-6.835937 8.609375-6.835937 14.109375v295.367188c46.765625 50.574218 113.671875 82.253906 187.988281 82.253906s141.222656-31.679688 187.988281-82.253906zm0 0" fill="#3e4a68"/><path d="m119.519531 85-44.671875 35.269531c-4.320312 3.40625-6.835937 8.609375-6.835937 14.109375v295.367188c14.789062 15.992187 31.582031 30.109375 50 41.917968v-337.285156c0-5.5 2.519531-10.699218 6.835937-14.109375l44.671875-35.269531 28.816407-47.5h-50zm0 0" fill="#303a59"/><path d="m119.519531 29h272.960938v56h-272.960938zm0 0" fill="#232d47"/><path d="m392.5 58h-273c-3.589844 0-6.5-2.910156-6.5-6.5v-45c0-3.589844 2.910156-6.5 6.5-6.5h273c3.589844 0 6.5 2.910156 6.5 6.5v45c0 3.589844-2.910156 6.5-6.5 6.5zm0 0" fill="#3e4a68"/><path d="m163 51.5v-45c0-3.589844 2.910156-6.5 6.5-6.5h-50c-3.589844 0-6.5 2.910156-6.5 6.5v45c0 3.589844 2.910156 6.5 6.5 6.5h50c-3.589844 0-6.5-2.910156-6.5-6.5zm0 0" fill="#303a59"/><path d="m68.011719 166.351562h375.976562v262.140626h-375.976562zm0 0" fill="#ff3345"/><path d="m68.011719 166.351562h50v262.140626h-50zm0 0" fill="#e32828"/><path d="m366.746094 252.175781h-14.652344v-16.71875c0-4.4375-3.601562-8.035156-8.039062-8.035156h-26.15625c-4.4375 0-8.035157 3.597656-8.035157 8.035156v48.199219h-107.726562v-48.199219c0-4.4375-3.597657-8.035156-8.035157-8.035156h-26.15625c-4.4375 0-8.039062 3.597656-8.039062 8.035156v16.71875h-14.652344c-3.566406 0-6.460937 2.894531-6.460937 6.460938v77.566406c0 3.570313 2.894531 6.460937 6.460937 6.460937h14.652344v16.722657c0 4.4375 3.601562 8.035156 8.039062 8.035156h26.15625c4.4375 0 8.035157-3.597656 8.035157-8.035156v-47.578125h107.726562v47.578125c0 4.4375 3.597657 8.035156 8.039063 8.035156h26.152344c4.441406 0 8.039062-3.597656 8.039062-8.035156v-16.722657h14.652344c3.566406 0 6.460937-2.890624 6.460937-6.460937v-77.566406c0-3.566407-2.894531-6.460938-6.460937-6.460938zm0 0" fill="#232d47"/><g fill="#ffcf11"><path d="m68.011719 166.351562h375.976562v26.4375h-375.976562zm0 0"/><path d="m68.011719 166.351562h50v26.4375h-50zm0 0"/><path d="m68.011719 401.011719h375.976562v26.4375h-375.976562zm0 0"/><path d="m68.011719 401.011719h50v26.4375h-50zm0 0"/></g></svg>