<svg height="512pt" viewBox="0 0 512 512" width="512pt" xmlns="http://www.w3.org/2000/svg"><path d="m512 256c0 141.386719-114.613281 256-256 256s-256-114.613281-256-256 114.613281-256 256-256 256 114.613281 256 256zm0 0" fill="#0fe1c2"/><path d="m5.152344 204.660156h410.742187v-134.320312h-336.144531c-37.300781 35.421875-63.9375 81.964844-74.597656 134.320312zm0 0" fill="#8c4cd1"/><path d="m5.152344 204.660156h410.742187v-40h-399.101562c-4.917969 12.867188-8.835938 26.230469-11.640625 40zm0 0" fill="#6e35b8"/><path d="m273 70.339844h142.894531v134.316406h-142.894531zm0 0" fill="#6e35b8"/><path d="m451.597656 0h-108.945312c-2.886719 0-5.59375 1.398438-7.269532 3.75l-47.382812 66.589844v134.316406l47.382812 66.59375c1.675782 2.351562 4.382813 3.75 7.269532 3.75h108.945312c4.925782 0 8.921875-3.996094 8.921875-8.921875v-257.15625c0-4.929687-3.996093-8.921875-8.921875-8.921875zm0 0" fill="#9c68e1"/><path d="m338.050781 1.296875c-1.03125.621094-1.949219 1.441406-2.667969 2.453125l-47.382812 66.589844v134.316406l47.382812 66.59375c.71875 1.011719 1.636719 1.828125 2.667969 2.453125zm0 0" fill="#8c4cd1"/><path d="m96.105469 307.339844v134.316406h336.144531c37.300781-35.421875 63.9375-81.960938 74.597656-134.316406zm0 0" fill="#ffcf11"/><path d="m96.105469 401.660156v40h336.144531c12.746094-12.105468 24.246094-25.511718 34.289062-40zm0 0" fill="#ff9e00"/><path d="m96.105469 307.339844h142.894531v134.316406h-142.894531zm0 0" fill="#ff9e00"/><path d="m169.347656 237h-108.945312c-4.925782 0-8.921875 3.992188-8.921875 8.921875v164.058594c32.285156 42.8125 77.699219 75.160156 130.261719 91.066406l42.257812-59.390625v-134.316406l-47.382812-66.589844c-1.675782-2.351562-4.382813-3.75-7.269532-3.75zm0 0" fill="#ffe854"/><path d="m173.949219 238.296875v260.269531c2.578125.871094 5.179687 1.6875 7.792969 2.480469l42.257812-59.390625v-134.316406l-47.382812-66.589844c-.71875-1.011719-1.636719-1.832031-2.667969-2.453125zm0 0" fill="#ffcf11"/></svg>