<svg height="512pt" viewBox="0 0 512 512" width="512pt" xmlns="http://www.w3.org/2000/svg"><path d="m512 256c0 141.386719-114.613281 256-256 256s-256-114.613281-256-256 114.613281-256 256-256 256 114.613281 256 256zm0 0" fill="#ff3345"/><path d="m37.5 218.5h437v75h-437zm0 0" fill="#ebf0f3"/><path d="m81.429688 443.25c.480468.050781.980468.070312 1.480468.070312h-1.410156c-.019531-.03125-.050781-.050781-.070312-.070312zm0 0" fill="#3e4a68"/><path d="m512 83.089844v172.910156c0 48.898438-13.710938 94.589844-37.5 133.449219-8.710938 14.230469-18.769531 27.550781-30 39.769531-3.941406 4.28125-8.03125 8.429688-12.238281 12.441406h-18.351563c-7.960937 0-14.410156-6.449218-14.410156-14.410156v-344.160156c0-7.960938 6.449219-14.410156 14.410156-14.410156h83.679688c7.960937 0 14.410156 6.449218 14.410156 14.410156zm0 0" fill="#3e4a68"/><path d="m474.5 68.679688v320.769531c-8.710938 14.230469-18.769531 27.550781-30 39.769531-3.941406 4.28125-8.03125 8.429688-12.238281 12.441406h-18.351563c-7.960937 0-14.410156-6.449218-14.410156-14.410156v-344.160156c0-7.960938 6.449219-14.410156 14.410156-14.410156zm0 0" fill="#303a59"/><path d="m112.5 83.089844v344.160156c0 7.960938-6.449219 14.410156-14.410156 14.410156h-18.351563c-4.207031-4.011718-8.296875-8.160156-12.238281-12.441406-11.230469-12.21875-21.289062-25.539062-30-39.769531-23.789062-38.859375-37.5-84.550781-37.5-133.449219v-172.910156c0-7.960938 6.449219-14.410156 14.410156-14.410156h83.679688c7.960937 0 14.410156 6.449218 14.410156 14.410156zm0 0" fill="#3e4a68"/><path d="m112.5 83.089844v344.160156c0 7.960938-6.449219 14.410156-14.410156 14.410156h-18.351563c-4.207031-4.011718-8.296875-8.160156-12.238281-12.441406-11.230469-12.21875-21.289062-25.539062-30-39.769531v-320.769531h60.589844c7.960937 0 14.410156 6.449218 14.410156 14.410156zm0 0" fill="#303a59"/><path d="m327.371094 307.339844h-142.742188c-7.023437 0-12.714844-5.691406-12.714844-12.710938v-77.257812c0-7.019532 5.691407-12.710938 12.714844-12.710938h142.742188c7.023437 0 12.714844 5.691406 12.714844 12.710938v77.257812c0 7.019532-5.691407 12.710938-12.714844 12.710938zm0 0" fill="#ffcf11"/><g fill="#ff9e00"><path d="m205.550781 294.628906v-77.257812c0-7.019532 5.691407-12.710938 12.710938-12.710938h-33.632813c-7.023437 0-12.714844 5.691406-12.714844 12.710938v77.257812c0 7.019532 5.691407 12.710938 12.714844 12.710938h33.632813c-7.019531 0-12.710938-5.691406-12.710938-12.710938zm0 0"/><path d="m256 230c9.289062 0 16.816406 7.527344 16.816406 16.816406v60.523438h-33.632812v-60.523438c0-9.289062 7.527344-16.816406 16.816406-16.816406zm0 0"/><path d="m323.269531 230c-9.289062 0-16.820312 7.527344-16.820312 16.816406v60.523438h20.976562c6.996094-.027344 12.660157-5.707032 12.660157-12.710938v-47.8125c0-9.289062-7.53125-16.816406-16.816407-16.816406zm0 0"/></g><path d="m82.5 68.679688v372.980468h-2.761719c-4.207031-4.011718-8.296875-8.160156-12.238281-12.441406v-360.539062zm0 0" fill="#232d47"/><path d="m444.5 68.679688v360.539062c-3.941406 4.28125-8.03125 8.429688-12.238281 12.441406h-2.761719v-372.980468zm0 0" fill="#232d47"/></svg>