<svg height="512pt" viewBox="0 0 512 512" width="512pt" xmlns="http://www.w3.org/2000/svg"><path d="m512 256c0 141.386719-114.613281 256-256 256s-256-114.613281-256-256 114.613281-256 256-256 256 114.613281 256 256zm0 0" fill="#ffcf11"/><path d="m131.394531 479.660156c36.878907 20.589844 79.367188 32.339844 124.605469 32.339844s87.726562-11.75 124.605469-32.339844l12.957031-325.523437h-275.125zm0 0" fill="#3e4a68"/><path d="m120.527344 206.636719h270.945312l2.089844-52.5h-275.125zm0 0" fill="#303a59"/><path d="m168.4375 154.136719h-50l12.957031 325.519531c15.976563 8.921875 33.003907 16.179688 50.855469 21.539062zm0 0" fill="#303a59"/><path d="m133.4375 12.5h75.175781v76h-75.175781zm0 0" fill="#3e4a68"/><path d="m133.4375 12.5h30v76h-30zm0 0" fill="#303a59"/><path d="m220.066406 25h-98.085937c-1.957031 0-3.542969-1.585938-3.542969-3.542969v-17.914062c0-1.957031 1.585938-3.542969 3.542969-3.542969h98.085937c1.957032 0 3.546875 1.585938 3.546875 3.542969v17.914062c0 1.957031-1.585937 3.542969-3.546875 3.542969zm0 0" fill="#63b0ff"/><path d="m158.4375 21.457031v-17.914062c0-1.957031 1.585938-3.542969 3.542969-3.542969h-40c-1.957031 0-3.542969 1.585938-3.542969 3.542969v17.914062c0 1.957031 1.585938 3.542969 3.542969 3.542969h40c-1.957031 0-3.542969-1.585938-3.542969-3.542969zm0 0" fill="#0c99e6"/><path d="m387.386719 82.96875-261.273438-28.492188c-4.097656-.445312-7.675781 2.765626-7.675781 6.886719v85.847657c0 3.824218 3.101562 6.925781 6.925781 6.925781h261.273438c3.824219 0 6.925781-3.101563 6.925781-6.925781v-57.355469c0-3.539063-2.660156-6.503907-6.175781-6.886719zm0 0" fill="#0c99e6"/><path d="m168.4375 147.207031v-85.84375c0-.78125.128906-1.53125.367188-2.230469l-42.691407-4.65625c-4.097656-.445312-7.675781 2.761719-7.675781 6.886719v85.84375c0 3.828125 3.101562 6.929688 6.925781 6.929688h50c-3.824219 0-6.925781-3.101563-6.925781-6.929688zm0 0" fill="#066ae7"/><path d="m413.816406 191.636719h-315.632812c-7.28125 0-13.183594-5.902344-13.183594-13.183594v-48.636719c0-7.277344 5.902344-13.179687 13.183594-13.179687h315.632812c7.28125 0 13.183594 5.902343 13.183594 13.179687v48.636719c0 7.28125-5.902344 13.183594-13.183594 13.183594zm0 0" fill="#63b0ff"/><g fill="#0c99e6"><path d="m234.113281 116.636719h25.5v75h-25.5zm0 0"/><path d="m285.113281 116.636719h25.5v75h-25.5zm0 0"/><path d="m336.113281 116.636719h25.5v75h-25.5zm0 0"/><path d="m135 178.453125v-48.636719c0-7.277344 5.902344-13.179687 13.183594-13.179687h-50c-7.28125 0-13.183594 5.902343-13.183594 13.179687v48.636719c0 7.28125 5.902344 13.183594 13.183594 13.183594h50c-7.28125 0-13.183594-5.902344-13.183594-13.183594zm0 0"/></g><path d="m266 362.445312c0 2.03125 1.644531 3.679688 3.675781 3.679688h66.039063c8.078125 0 15.027344 6.207031 15.40625 14.273438.40625 8.613281-6.457032 15.726562-14.984375 15.726562h-66.460938c-2.03125 0-3.675781 1.644531-3.675781 3.675781v29.390625c0 2.03125 1.644531 3.679688 3.675781 3.679688h66.039063c8.074218 0 15.027344 6.207031 15.40625 14.273437.40625 8.613281-6.460938 15.726563-14.984375 15.726563h-66.460938c-2.03125 0-3.679687 1.644531-3.679687 3.675781v45.242187c41.5-1.597656 80.460937-13.0625 114.609375-32.128906l7.582031-190.53125h-48.871094c-40.492187 0-73.316406 32.824219-73.316406 73.316406zm0 0" fill="#303a59"/></svg>