<svg height="512pt" viewBox="0 0 512 512" width="512pt" xmlns="http://www.w3.org/2000/svg"><path d="m512 256c0 141.386719-114.613281 256-256 256s-256-114.613281-256-256 114.613281-256 256-256 256 114.613281 256 256zm0 0" fill="#94d400"/><path d="m385.558594 287.410156h-259.117188c-13.804687 0-25-11.191406-25-25v-179.742187c0-45.582031 37.085938-82.667969 82.667969-82.667969h143.78125c45.582031 0 82.667969 37.085938 82.667969 82.667969v179.742187c0 13.808594-11.195313 25-25 25zm-234.117188-50h209.117188v-154.742187c0-18.015625-14.65625-32.667969-32.667969-32.667969h-143.78125c-18.011719 0-32.667969 14.652344-32.667969 32.667969zm0 0" fill="#3e4a68"/><path d="m345.558594 146.597656v75.8125h-179.117188v-75.8125c0-7.347656-7.550781-12.335937-14.269531-9.363281-18.6875 8.273437-36.394531 18.816406-52.773437 31.488281-8.148438 6.304688-12.957032 15.992188-12.957032 26.289063v67.398437c0 22.09375 17.910156 40 40 40h259.117188c22.089844 0 40-17.90625 40-40v-67.398437c0-10.296875-4.8125-19.984375-12.957032-26.289063-16.378906-12.671875-34.085937-23.214844-52.773437-31.488281-6.71875-2.972656-14.269531 2.015625-14.269531 9.363281zm0 0" fill="#ffcf11"/><path d="m256 512c110.066406 0 203.898438-69.46875 240.074219-166.945312-13.398438-120.738282-115.761719-214.636719-240.074219-214.636719s-226.675781 93.898437-240.074219 214.636719c36.175781 97.476562 130.007813 166.945312 240.074219 166.945312zm0 0" fill="#3e4a68"/><path d="m15.925781 345.054688c12.542969 33.796874 32.019531 64.214843 56.695313 89.550781-5.34375-19.96875-8.195313-40.957031-8.195313-62.613281 0-124.976563 94.902344-227.78125 216.574219-240.292969-8.21875-.84375-16.558594-1.28125-25-1.28125-124.3125 0-226.675781 93.898437-240.074219 214.636719zm0 0" fill="#303a59"/><path d="m256 488.570312c-64.28125 0-116.574219-52.296874-116.574219-116.578124 0-64.277344 52.292969-116.574219 116.574219-116.574219s116.574219 52.296875 116.574219 116.574219c0 64.28125-52.292969 116.578124-116.574219 116.578124zm0 0" fill="#ffcf11"/><path d="m189.425781 371.992188c0-55.699219 39.269531-102.390626 91.574219-113.867188-8.058594-1.769531-16.421875-2.707031-25-2.707031-64.28125 0-116.574219 52.296875-116.574219 116.574219 0 64.28125 52.292969 116.578124 116.574219 116.578124 8.578125 0 16.941406-.941406 25-2.710937-52.304688-11.472656-91.574219-58.167969-91.574219-113.867187zm0 0" fill="#ff9e00"/><g fill="#303a59"><path d="m191.320312 415.714844v-88.375c0-1.515625.6875-2.648438 2.070313-3.40625 1.378906-.753906 3.046875-1.132813 5.003906-1.132813s3.625.378907 5.007813 1.132813c1.378906.757812 2.070312 1.890625 2.070312 3.40625v40.582031l32.574219-43.121094c.886719-1.335937 2.222656-2 4.003906-2 1.867188 0 3.691407.777344 5.472657 2.335938 1.78125 1.558593 2.671874 3.226562 2.671874 5.003906 0 1.070313-.359374 2.003906-1.070312 2.804687l-25.632812 32.039063 30.441406 46.324219c.53125.800781.800781 1.648437.800781 2.539062 0 1.691406-.871094 3.269532-2.605469 4.738282s-3.625 2.203124-5.675781 2.203124c-2.226563 0-3.917969-.890624-5.070313-2.671874l-27.234374-41.25-8.675782 10.945312v27.902344c0 1.425781-.691406 2.558594-2.070312 3.40625-1.382813.847656-3.050782 1.265625-5.007813 1.265625-1.867187 0-3.515625-.417969-4.9375-1.265625-1.425781-.847656-2.136719-1.980469-2.136719-3.40625zm0 0"/><path d="m260.738281 391.417969v-38.847657c0-10.234374 2.714844-17.757812 8.144531-22.5625 5.425782-4.808593 12.550782-7.210937 21.359376-7.210937 8.988281 0 16.308593 2.25 21.960937 6.742187 5.652344 4.496094 8.476563 10.480469 8.476563 17.957032 0 2.582031-.554688 4.363281-1.667969 5.339844-1.113281.980468-2.914063 1.46875-5.40625 1.46875-4.628907 0-6.988281-1.558594-7.074219-4.671876-.980469-9.523437-6.273438-14.285156-15.886719-14.285156-10.503906 0-15.753906 5.742188-15.753906 17.222656v38.847657c0 11.480469 5.25 17.222656 15.753906 17.222656 5.070313 0 8.988281-1.429687 11.746094-4.292969 2.757813-2.863281 4.140625-7.199218 4.140625-13.011718v-11h-13.484375c-1.425781 0-2.535156-.546876-3.335937-1.648438-.804688-1.097656-1.203126-2.441406-1.203126-4.023438 0-1.40625.398438-2.683593 1.203126-3.828124.800781-1.140626 1.910156-1.714844 3.335937-1.714844h22.964844c1.421875 0 2.554687.46875 3.402343 1.402344.84375.9375 1.269532 2.070312 1.269532 3.40625v17.484374c0 10.238282-2.738282 17.757813-8.210938 22.5625-5.476562 4.808594-12.75 7.210938-21.828125 7.210938s-16.332031-2.402344-21.761719-7.210938c-5.429687-4.804687-8.144531-12.324218-8.144531-22.558593zm0 0"/></g></svg>