<svg height="512pt" viewBox="0 0 512 512" width="512pt" xmlns="http://www.w3.org/2000/svg"><path d="m512 256c0 141.386719-114.613281 256-256 256s-256-114.613281-256-256 114.613281-256 256-256 256 114.613281 256 256zm0 0" fill="#ff3345"/><path d="m512 256c0 141.386719-114.613281 256-256 256s-256-114.613281-256-256 114.613281-256 256-256 256 114.613281 256 256zm0 0" fill="#ff3345"/><path d="m120.5 473.21875c9.597656 5.996094 19.609375 11.390625 30 16.097656v-358.136718h-30zm0 0" fill="#ffcf11"/><path d="m120.5 220.179688v253.039062c4.894531 3.058594 9.894531 5.960938 15 8.6875v-316.726562h15v-34h-30zm0 0" fill="#ff9e00"/><path d="m361.5 489.316406c10.390625-4.707031 20.402344-10.101562 30-16.097656v-342.039062h-30zm0 0" fill="#ffcf11"/><path d="m361.5 220.179688v269.136718c5.09375-2.304687 10.089844-4.785156 15-7.410156v-316.726562h15v-34h-30zm0 0" fill="#ff9e00"/><path d="m507.507812 148.679688h-503.015624c-2.480469 0-4.492188-2.011719-4.492188-4.492188v-26.011719c0-2.484375 2.011719-4.496093 4.492188-4.496093h503.015624c2.480469 0 4.492188 2.011718 4.492188 4.496093v26.011719c0 2.480469-2.011719 4.492188-4.492188 4.492188zm0 0" fill="#ebf0f3"/><path d="m102.839844 163.679688h-15.679688c-3.035156 0-5.492187-2.457032-5.492187-5.492188v-54.011719c0-3.035156 2.457031-5.496093 5.492187-5.496093h15.679688c3.035156 0 5.492187 2.460937 5.492187 5.496093v54.011719c0 3.03125-2.457031 5.492188-5.492187 5.492188zm0 0" fill="#ffcf11"/><path d="m424.839844 163.679688h-15.679688c-3.035156 0-5.492187-2.457032-5.492187-5.492188v-54.011719c0-3.035156 2.457031-5.496093 5.492187-5.496093h15.679688c3.035156 0 5.492187 2.460937 5.492187 5.496093v54.011719c0 3.03125-2.457031 5.492188-5.492187 5.492188zm0 0" fill="#ffcf11"/><g fill="#c7d9ff"><path d="m166 113.679688h15v35h-15zm0 0"/><path d="m136 113.679688h15v35h-15zm0 0"/><path d="m196 113.679688h15v35h-15zm0 0"/><path d="m331 113.679688h15v35h-15zm0 0"/><path d="m301 113.679688h15v35h-15zm0 0"/><path d="m361 113.679688h15v35h-15zm0 0"/></g><path d="m477.320312 227.277344h-20.640624c-8.109376 0-14.679688-6.574219-14.679688-14.679688v-162.835937c0-8.105469 6.570312-14.675781 14.679688-14.675781h20.640624c8.109376 0 14.679688 6.570312 14.679688 14.675781v162.835937c0 8.105469-6.570312 14.679688-14.679688 14.679688zm0 0" fill="#232d47"/><path d="m451.15625 243.117188h-18.3125c-8.75 0-15.84375-7.089844-15.84375-15.839844v-192.191406c0-8.75 7.09375-15.84375 15.84375-15.84375h18.3125c8.75 0 15.84375 7.09375 15.84375 15.84375v192.191406c0 8.75-7.09375 15.839844-15.84375 15.839844zm0 0" fill="#3e4a68"/><path d="m451.15625 19.242188h-18.3125c-.285156 0-.5625.027343-.84375.042968 8.355469.441406 15 7.332032 15 15.800782v192.191406c0 8.464844-6.644531 15.359375-15 15.796875.28125.015625.558594.042969.84375.042969h18.3125c8.75 0 15.84375-7.089844 15.84375-15.839844v-192.191406c0-8.75-7.09375-15.84375-15.84375-15.84375zm0 0" fill="#303a59"/><path d="m34.679688 35.085938h20.640624c8.109376 0 14.679688 6.570312 14.679688 14.675781v162.835937c0 8.105469-6.570312 14.679688-14.679688 14.679688h-20.640624c-8.109376 0-14.679688-6.574219-14.679688-14.679688v-162.835937c0-8.105469 6.570312-14.675781 14.679688-14.675781zm0 0" fill="#232d47"/><path d="m60.84375 19.242188h18.3125c8.75 0 15.84375 7.09375 15.84375 15.84375v192.191406c0 8.75-7.09375 15.839844-15.84375 15.839844h-18.3125c-8.75 0-15.84375-7.089844-15.84375-15.839844v-192.191406c0-8.75 7.09375-15.84375 15.84375-15.84375zm0 0" fill="#3e4a68"/><path d="m65 227.277344v-192.191406c0-8.46875 6.644531-15.359376 15-15.800782-.28125-.015625-.558594-.042968-.84375-.042968h-18.3125c-8.75 0-15.84375 7.09375-15.84375 15.84375v192.191406c0 8.75 7.09375 15.839844 15.84375 15.839844h18.3125c.285156 0 .5625-.027344.84375-.042969-8.355469-.4375-15-7.332031-15-15.796875zm0 0" fill="#303a59"/><path d="m188.5 502.988281c9.78125 2.667969 19.789062 4.773438 30 6.269531v-155.925781h-30zm0 0" fill="#ebf0f3"/><path d="m293.5 509.257812c10.210938-1.5 20.21875-3.605468 30-6.269531v-149.65625h-30zm0 0" fill="#ebf0f3"/><path d="m188.5 353.332031v149.65625c4.941406 1.347657 9.941406 2.558594 15 3.613281v-113.269531h15v-40zm0 0" fill="#c7d9ff"/><path d="m293.5 353.332031v155.925781c5.050781-.742187 10.050781-1.625 15-2.65625v-113.269531h15v-40zm0 0" fill="#c7d9ff"/><path d="m325.332031 378.332031h-138.664062c-13.808594 0-25-11.191406-25-25 0-13.804687 11.191406-25 25-25h138.667969c13.804687 0 25 11.195313 25 25-.003907 13.808594-11.195313 25-25.003907 25zm0 0" fill="#3e4a68"/><path d="m201.667969 353.332031c0-13.804687 11.191406-25 25-25h-40c-13.808594 0-25 11.195313-25 25 0 13.808594 11.191406 25 25 25h40c-13.808594 0-25-11.191406-25-25zm0 0" fill="#303a59"/></svg>