<svg height="512pt" viewBox="0 0 512 512" width="512pt" xmlns="http://www.w3.org/2000/svg"><path d="m512 256c0 141.386719-114.613281 256-256 256s-256-114.613281-256-256 114.613281-256 256-256 256 114.613281 256 256zm0 0" fill="#0fe1c2"/><path d="m385.558594 287.410156h-259.117188c-13.804687 0-25-11.191406-25-25v-179.742187c0-45.582031 37.085938-82.667969 82.667969-82.667969h143.78125c45.582031 0 82.667969 37.085938 82.667969 82.667969v179.742187c0 13.808594-11.195313 25-25 25zm-234.117188-50h209.117188v-154.742187c0-18.015625-14.65625-32.667969-32.667969-32.667969h-143.78125c-18.011719 0-32.667969 14.652344-32.667969 32.667969zm0 0" fill="#066ae7"/><path d="m256 96.292969c-124.925781 0-228.929688 89.488281-251.460938 207.855469 22.53125 118.363281 126.535157 207.851562 251.460938 207.851562s228.929688-89.488281 251.460938-207.851562c-22.53125-118.367188-126.535157-207.855469-251.460938-207.855469zm0 0" fill="#0c99e6"/><path d="m498.796875 337.292969h-418.347656c1.332031-23.046875 5.707031-45.277344 12.742187-66.292969h405.605469c-3.449219-10.308594-7.53125-20.324219-12.210937-30h-381.191407c11.867188-24.539062 27.542969-46.882812 46.246094-66.292969h288.722656c-10.589843-10.992187-22.15625-21.035156-34.554687-30h-219.621094c31.875-23.042969 69.261719-38.933593 109.8125-45.296875.003906 0 .003906-.003906.003906-.007812-13.035156-2.042969-26.394531-3.109375-40.003906-3.109375-124.925781 0-228.929688 89.488281-251.460938 207.855469 12.441407 65.355468 49.726563 121.894531 101.652344 159.441406h299.617188c12.398437-8.96875 23.964844-19.007813 34.554687-30h-347.171875c-7.035156-21.015625-11.410156-43.246094-12.742187-66.296875h406.136719c4.679687-9.675781 8.761718-19.691407 12.210937-30zm0 0" fill="#066ae7"/></svg>