<svg height="512pt" viewBox="0 0 512 512" width="512pt" xmlns="http://www.w3.org/2000/svg"><path d="m512 256c0 141.386719-114.613281 256-256 256s-256-114.613281-256-256 114.613281-256 256-256 256 114.613281 256 256zm0 0" fill="#303a59"/><path d="m113.203125 386h48.9375c8.851563 0 16.03125-7.179688 16.03125-16.03125v-240c0-8.855469-7.179687-16.03125-16.03125-16.03125h-48.9375c-8.851563 0-16.03125 7.175781-16.03125 16.03125v240c0 8.851562 7.175781 16.03125 16.03125 16.03125zm0 0" fill="#19b89e"/><path d="m133.417969 113.9375v72.210938c0 12.433593 4.511719 24.445312 12.699219 33.800781 16.933593 19.355469 16.933593 48.25 0 67.601562-8.1875 9.359375-12.699219 21.367188-12.699219 33.800781v159.4375c36.40625 19.894532 78.171875 31.210938 122.582031 31.210938s86.175781-11.316406 122.582031-31.210938v-159.4375c0-12.433593-4.511719-24.445312-12.699219-33.800781-16.933593-19.351562-16.933593-48.25 0-67.601562 8.1875-9.355469 12.699219-21.367188 12.699219-33.800781v-72.214844h-245.164062zm0 0" fill="#ebf0f3"/><path d="m183.417969 146.917969v-32.984375h-50v72.214844c0 12.433593 4.511719 24.445312 12.699219 33.800781 16.933593 19.351562 16.933593 48.25 0 67.601562-8.1875 9.355469-12.699219 21.367188-12.699219 33.800781v159.4375c15.734375 8.601563 32.476562 15.582032 50 20.757813v-49.421875h149.582031c8.285156 0 15-6.714844 15-15s-6.714844-15-15-15h-149.582031v-30h149.582031c8.285156 0 15-6.714844 15-15s-6.714844-15-15-15h-149.582031v-3.832031c0-14.40625 11.679687-26.089844 26.085937-26.089844h169.082032v-10.851563c0-12.433593-4.515626-24.445312-12.703126-33.800781-16.933593-19.351562-16.933593-48.25 0-67.601562 8.1875-9.355469 12.703126-21.367188 12.703126-33.800781v-13.144532h-169.082032c-14.40625 0-26.085937-11.679687-26.085937-26.085937zm0 0" fill="#c7d9ff"/><path d="m133.417969 113.9375v39.5625h245.164062v-39.5625zm0 0" fill="#c7d9ff"/><path d="m218.410156 12.5h75.179688v76h-75.179688zm0 0" fill="#ebf0f3"/><path d="m218.410156 12.5h30v76h-30zm0 0" fill="#c7d9ff"/><path d="m218.410156 12.5h75.179688v27.5h-75.179688zm0 0" fill="#c7d9ff"/><path d="m305.042969 25h-98.085938c-1.957031 0-3.546875-1.585938-3.546875-3.542969v-17.914062c0-1.957031 1.589844-3.542969 3.546875-3.542969h98.085938c1.957031 0 3.546875 1.585938 3.546875 3.542969v17.914062c0 1.957031-1.589844 3.542969-3.546875 3.542969zm0 0" fill="#66fade"/><path d="m243.410156 21.457031v-17.914062c0-1.957031 1.589844-3.542969 3.546875-3.542969h-40c-1.957031 0-3.546875 1.585938-3.546875 3.542969v17.914062c0 1.957031 1.589844 3.542969 3.546875 3.542969h40c-1.957031 0-3.546875-1.585938-3.546875-3.542969zm0 0" fill="#0fe1c2"/><path d="m363.8125 113.5h-215.625c-5.808594 0-10.515625-4.707031-10.515625-10.515625v-28.96875c0-5.808594 4.707031-10.515625 10.515625-10.515625h215.625c5.808594 0 10.515625 4.707031 10.515625 10.515625v28.96875c0 5.808594-4.707031 10.515625-10.515625 10.515625zm0 0" fill="#19b89e"/><path d="m382.484375 138.5h-252.96875c-5.808594 0-10.515625-4.707031-10.515625-10.515625v-28.96875c0-5.808594 4.707031-10.515625 10.515625-10.515625h252.96875c5.808594 0 10.515625 4.707031 10.515625 10.515625v28.96875c0 5.808594-4.707031 10.515625-10.515625 10.515625zm0 0" fill="#66fade"/><path d="m169 127.984375v-28.96875c0-5.808594 4.707031-10.515625 10.515625-10.515625h-50c-5.808594 0-10.515625 4.707031-10.515625 10.515625v28.96875c0 5.808594 4.707031 10.515625 10.515625 10.515625h50c-5.808594 0-10.515625-4.707031-10.515625-10.515625zm0 0" fill="#0fe1c2"/></svg>