<svg height="512pt" viewBox="0 0 512 512" width="512pt" xmlns="http://www.w3.org/2000/svg"><path d="m512 256c0 141.386719-114.613281 256-256 256s-256-114.613281-256-256 114.613281-256 256-256 256 114.613281 256 256zm0 0" fill="#303a59"/><path d="m512 99.5v182.058594h-1.261719c-1.128906 11.410156-3.007812 22.601562-5.597656 33.519531-1.191406 5.0625-2.53125 10.070313-4.03125 15-3.480469 11.542969-7.75 22.730469-12.757813 33.523437-2.363281 5.089844-4.882812 10.097657-7.570312 15-6.421875 11.757813-13.75 22.96875-21.890625 33.519532-3.96875 5.160156-8.140625 10.167968-12.492187 15-12.757813 14.199218-27.097657 26.957031-42.71875 38.007812h-299.210938c-8.949219 0-16.21875-7.117187-16.488281-15.988281-.011719-.171875-.011719-.339844-.011719-.511719v-349.128906c0-9.109375 7.382812-16.5 16.5-16.5h391.03125c9.109375 0 16.5 7.390625 16.5 16.5zm0 0" fill="#0c99e6"/><path d="m171.75 121.011719h340.25v15h-340.25zm0 0" fill="#066ae7"/><path d="m171.75 169.527344h340.25v15h-340.25zm0 0" fill="#066ae7"/><path d="m171.75 218.046875h340.25v15h-340.25zm0 0" fill="#066ae7"/><path d="m171.75 266.558594h340.25v15h-340.25zm0 0" fill="#066ae7"/><path d="m505.140625 315.078125c-1.191406 5.0625-2.53125 10.070313-4.03125 15h-329.359375v-15zm0 0" fill="#066ae7"/><path d="m488.351562 363.601562c-2.363281 5.089844-4.882812 10.097657-7.570312 15h-309.03125v-15zm0 0" fill="#066ae7"/><path d="m458.890625 412.121094c-3.96875 5.160156-8.140625 10.167968-12.492187 15h-274.648438v-15zm0 0" fill="#066ae7"/><path d="m87.964844 99.5v349.128906c0 9.109375 7.386718 16.5 16.5 16.5h58.203125c17.089843-8.601562 28.265625-20.832031 28.265625-36.546875v-345.164062c0-.140625-.007813-.277344-.011719-.417969h-86.457031c-9.113282 0-16.5 7.386719-16.5 16.5zm0 0" fill="#066ae7"/><path d="m0 83.417969c0-20.183594 39.382812-36.546875 87.964844-36.546875 48.582031 0 87.96875 16.363281 87.96875 36.546875v345.164062h-175.933594zm0 0" fill="#63b0ff"/><g fill="#0c99e6"><path d="m107.964844 47.824219c-6.425782-.621094-13.117188-.949219-20-.949219-48.582032-.003906-87.964844 16.359375-87.964844 36.542969v345.164062h40v-345.164062c0-17.324219 29.019531-31.832031 67.964844-35.59375zm0 0"/><path d="m175.933594 99.675781c-58.183594-25.113281-117.75-25.113281-175.933594 0 0-6 0-9 0-15 58.183594-25.113281 117.75-25.113281 175.933594 0zm0 0"/><path d="m175.933594 148.191406c-58.183594-25.109375-117.75-25.113281-175.933594 0 0-6 0-9 0-15 58.183594-25.113281 117.75-25.109375 175.933594 0zm0 0"/><path d="m175.933594 196.710938c-58.183594-25.113282-117.75-25.113282-175.933594 0 0-6 0-9 0-15 58.183594-25.113282 117.75-25.113282 175.933594 0zm0 0"/><path d="m175.933594 245.226562c-58.183594-25.109374-117.75-25.113281-175.933594 0 0-6 0-9 0-15 58.183594-25.113281 117.75-25.109374 175.933594 0zm0 0"/><path d="m175.933594 293.746094c-58.183594-25.113282-117.75-25.113282-175.933594 0 0-6 0-9 0-15 58.183594-25.113282 117.75-25.113282 175.933594 0zm0 0"/><path d="m175.933594 342.261719c-58.183594-25.109375-117.75-25.113281-175.933594 0 0-6 0-9 0-15 58.183594-25.113281 117.75-25.109375 175.933594 0zm0 0"/><path d="m175.933594 390.78125c-58.183594-25.113281-117.75-25.113281-175.933594 0 0-6 0-9 0-15 58.183594-25.113281 117.75-25.113281 175.933594 0zm0 0"/><path d="m175.933594 428.582031c0-20.183593-39.386719-36.542969-87.96875-36.542969-48.582032 0-87.964844 16.359376-87.964844 36.542969 0 20.183594 39.382812 36.546875 87.964844 36.546875 48.582031 0 87.96875-16.363281 87.96875-36.546875zm0 0"/></g><path d="m132.636719 428.582031c0-5.355469-20-9.699219-44.671875-9.699219-24.667969 0-44.667969 4.34375-44.667969 9.699219 0 5.359375 20 9.699219 44.667969 9.699219 24.671875 0 44.671875-4.339844 44.671875-9.699219zm0 0" fill="#066ae7"/></svg>