<svg height="512pt" viewBox="0 0 512 512" width="512pt" xmlns="http://www.w3.org/2000/svg"><path d="m512 256c0 141.386719-114.613281 256-256 256s-256-114.613281-256-256 114.613281-256 256-256 256 114.613281 256 256zm0 0" fill="#94d400"/><path d="m319.8125 91.699219 40.1875-31.699219h37.375v-60h-37.375l-49.6875 39.191406c-15.472656 12.207032-34.605469 18.84375-54.3125 18.84375s-38.839844-6.640625-54.3125-18.84375l-49.6875-39.191406h-37.375v60h37.375l40.1875 31.699219c21.085938 16.628906 33.386719 42.003906 33.386719 68.855469v98.601562h60.851562v-98.601562c0-26.851563 12.300781-52.226563 33.386719-68.855469zm0 0" fill="#232d47"/><path d="m446.808594 210.910156v215.761719c-46.878906 52.367187-115 85.328125-190.808594 85.328125-46.578125 0-90.25-12.441406-127.878906-34.191406-23.621094-13.636719-44.851563-30.9375-62.929688-51.136719v-215.761719c0-4.390625 1.777344-8.371094 4.660156-11.25 2.867188-2.878906 6.847657-4.660156 11.238282-4.660156 8.789062 0 15.910156-7.121094 15.910156-15.910156v-167.339844c0-6.488281 5.261719-11.75 11.75-11.75h43.25v70.660156c0 28.71875 11.640625 54.71875 30.460938 73.539063 18.820312 18.820312 44.820312 30.460937 73.539062 30.460937 57.441406 0 104-46.558594 104-104v-70.660156h43.25c6.488281 0 11.75 5.261719 11.75 11.75v167.339844c0 4.390625 1.78125 8.371094 4.660156 11.25s6.859375 4.660156 11.25 4.660156c8.78125 0 15.898438 7.121094 15.898438 15.910156zm0 0" fill="#3e4a68"/><path d="m128.121094 0v477.808594c-23.621094-13.636719-44.851563-30.9375-62.929688-51.136719v-215.761719c0-4.390625 1.777344-8.371094 4.660156-11.25 2.867188-2.878906 6.847657-4.660156 11.238282-4.660156 8.789062 0 15.910156-7.121094 15.910156-15.910156v-167.339844c0-6.488281 5.261719-11.75 11.75-11.75zm0 0" fill="#303a59"/><path d="m287.96875 232.492188h-63.941406c-2.839844 0-5.144532-2.304688-5.144532-5.144532v-16.710937c0-2.839844 2.304688-5.144531 5.144532-5.144531h63.941406c2.84375 0 5.144531 2.304687 5.144531 5.144531v16.710937c0 2.839844-2.300781 5.144532-5.144531 5.144532zm0 0" fill="#fff"/></svg>