<svg height="512pt" viewBox="0 0 512 512.0003" width="512pt" xmlns="http://www.w3.org/2000/svg"><path d="m512 256c0 141.386719-114.613281 256-256 256-141.382812 0-256-114.613281-256-256 0-141.382812 114.617188-256 256-256 141.386719 0 256 114.617188 256 256zm0 0" fill="#0fe1c2"/><path d="m293.5 2.742188c-12.242188-1.796876-24.761719-2.742188-37.5-2.742188s-25.257812.945312-37.5 2.742188v506.515624c12.242188 1.796876 24.761719 2.742188 37.5 2.742188s25.257812-.945312 37.5-2.742188zm0 0" fill="#3e4a68"/><path d="m258.5.03125c-.832031-.0078125-1.664062-.03125-2.5-.03125-12.738281 0-25.257812.945312-37.5 2.742188v506.515624c12.242188 1.796876 24.761719 2.742188 37.5 2.742188.835938 0 1.667969-.023438 2.5-.03125zm0 0" fill="#303a59"/><path d="m439.230469 85.09375h-366.460938c-3.554687 0-6.4375-2.882812-6.4375-6.4375v-25.664062c0-3.554688 2.882813-6.4375 6.4375-6.4375h366.460938c3.554687 0 6.4375 2.882812 6.4375 6.4375v25.664062c0 3.554688-2.882813 6.4375-6.4375 6.4375zm0 0" fill="#ebf0f3"/><path d="m161.480469 102.59375h-18.429688c-2.496093 0-4.519531-2.023438-4.519531-4.519531v-64.5c0-2.496094 2.023438-4.519531 4.519531-4.519531h18.429688c2.496093 0 4.519531 2.023437 4.519531 4.519531v64.5c0 2.496093-2.023438 4.519531-4.519531 4.519531zm0 0" fill="#0c99e6"/><path d="m368.949219 102.59375h-18.429688c-2.496093 0-4.519531-2.023438-4.519531-4.519531v-64.5c0-2.496094 2.023438-4.519531 4.519531-4.519531h18.429688c2.496093 0 4.519531 2.023437 4.519531 4.519531v64.5c0 2.496093-2.023438 4.519531-4.519531 4.519531zm0 0" fill="#0c99e6"/><path d="m412.105469 131.648438h-46.9375c-3 0-5.433594-2.433594-5.433594-5.4375v-120.777344c0-3 2.433594-5.433594 5.433594-5.433594h46.9375c3 0 5.433593 2.433594 5.433593 5.433594v120.777344c0 3.003906-2.433593 5.4375-5.433593 5.4375zm0 0" fill="#3e4a68"/><path d="m398.269531 0h-33.101562c-3 0-5.433594 2.433594-5.433594 5.433594v120.78125c0 3 2.433594 5.433594 5.433594 5.433594h33.101562zm0 0" fill="#303a59"/><path d="m375.148438 0h7.707031v131.648438h-7.707031zm0 0" fill="#232d47"/><path d="m99.894531 0h46.9375c3 0 5.433594 2.433594 5.433594 5.433594v120.777344c0 3.003906-2.433594 5.4375-5.433594 5.4375h-46.9375c-3 0-5.433593-2.433594-5.433593-5.4375v-120.777344c0-3 2.433593-5.433594 5.433593-5.433594zm0 0" fill="#3e4a68"/><path d="m113.730469 131.648438h33.101562c3 0 5.433594-2.433594 5.433594-5.4375v-120.777344c0-3-2.433594-5.433594-5.433594-5.433594h-33.101562zm0 0" fill="#303a59"/><path d="m136.851562 131.648438h-7.707031v-131.648438h7.707031zm0 0" fill="#232d47"/><path d="m217.265625 93.09375h-23.53125c-6.277344 0-11.367187-5.089844-11.367187-11.367188v-56.265624c0-6.28125 5.089843-11.367188 11.367187-11.367188h23.53125c6.277344 0 11.367187 5.085938 11.367187 11.367188v56.261718c0 6.28125-5.089843 11.371094-11.367187 11.371094zm0 0" fill="#3e4a68"/><path d="m202.367188 81.722656v-56.261718c0-6.28125 5.089843-11.367188 11.367187-11.367188h-20c-6.277344 0-11.367187 5.085938-11.367187 11.367188v56.261718c0 6.28125 5.089843 11.367188 11.367187 11.367188h20c-6.277344.003906-11.367187-5.085938-11.367187-11.367188zm0 0" fill="#303a59"/><path d="m318.265625 93.09375h-23.53125c-6.277344 0-11.367187-5.089844-11.367187-11.367188v-56.265624c0-6.28125 5.089843-11.367188 11.367187-11.367188h23.53125c6.277344 0 11.367187 5.085938 11.367187 11.367188v56.261718c0 6.28125-5.089843 11.371094-11.367187 11.371094zm0 0" fill="#3e4a68"/><path d="m303.367188 81.722656v-56.261718c0-6.28125 5.089843-11.367188 11.367187-11.367188h-20c-6.277344 0-11.367187 5.085938-11.367187 11.367188v56.261718c0 6.28125 5.089843 11.367188 11.367187 11.367188h20c-6.277344.003906-11.367187-5.085938-11.367187-11.367188zm0 0" fill="#303a59"/><path d="m217.265625 473.445312h-23.53125c-6.277344 0-11.367187-5.089843-11.367187-11.367187v-56.265625c0-6.277344 5.089843-11.367188 11.367187-11.367188h23.53125c6.277344 0 11.367187 5.089844 11.367187 11.367188v56.265625c0 6.277344-5.089843 11.367187-11.367187 11.367187zm0 0" fill="#3e4a68"/><path d="m202.367188 462.078125v-56.265625c0-6.277344 5.089843-11.367188 11.367187-11.367188h-20c-6.277344 0-11.367187 5.089844-11.367187 11.367188v56.265625c0 6.277344 5.089843 11.367187 11.367187 11.367187h20c-6.277344 0-11.367187-5.089843-11.367187-11.367187zm0 0" fill="#303a59"/><path d="m318.265625 473.445312h-23.53125c-6.277344 0-11.367187-5.089843-11.367187-11.367187v-56.265625c0-6.277344 5.089843-11.367188 11.367187-11.367188h23.53125c6.277344 0 11.367187 5.089844 11.367187 11.367188v56.265625c0 6.277344-5.089843 11.367187-11.367187 11.367187zm0 0" fill="#3e4a68"/><path d="m303.367188 462.078125v-56.265625c0-6.277344 5.089843-11.367188 11.367187-11.367188h-20c-6.277344 0-11.367187 5.089844-11.367187 11.367188v56.265625c0 6.277344 5.089843 11.367187 11.367187 11.367187h20c-6.277344 0-11.367187-5.089843-11.367187-11.367187zm0 0" fill="#303a59"/><path d="m489.230469 275.269531h-466.460938c-3.554687 0-6.4375-2.882812-6.4375-6.4375v-25.664062c0-3.554688 2.882813-6.4375 6.4375-6.4375h466.460938c3.554687 0 6.4375 2.882812 6.4375 6.4375v25.664062c0 3.554688-2.882813 6.4375-6.4375 6.4375zm0 0" fill="#ebf0f3"/><path d="m161.480469 292.769531h-18.429688c-2.496093 0-4.519531-2.023437-4.519531-4.519531v-64.5c0-2.496094 2.023438-4.519531 4.519531-4.519531h18.429688c2.496093 0 4.519531 2.023437 4.519531 4.519531v64.5c0 2.496094-2.023438 4.519531-4.519531 4.519531zm0 0" fill="#ffcf11"/><path d="m368.949219 292.769531h-18.429688c-2.496093 0-4.519531-2.023437-4.519531-4.519531v-64.5c0-2.496094 2.023438-4.519531 4.519531-4.519531h18.429688c2.496093 0 4.519531 2.023437 4.519531 4.519531v64.5c0 2.496094-2.023438 4.519531-4.519531 4.519531zm0 0" fill="#ffcf11"/><path d="m462.105469 321.824219h-46.9375c-3 0-5.433594-2.433594-5.433594-5.4375v-120.777344c0-3 2.433594-5.433594 5.433594-5.433594h46.9375c3 0 5.433593 2.433594 5.433593 5.433594v120.777344c0 3.003906-2.433593 5.4375-5.433593 5.4375zm0 0" fill="#3e4a68"/><path d="m448.269531 190.175781h-33.101562c-3 0-5.433594 2.433594-5.433594 5.4375v120.777344c0 3 2.433594 5.433594 5.433594 5.433594h33.101562zm0 0" fill="#303a59"/><path d="m425.148438 190.175781h7.707031v131.648438h-7.707031zm0 0" fill="#232d47"/><path d="m412.105469 351.824219h-46.9375c-3 0-5.433594-2.433594-5.433594-5.4375v-180.777344c0-3 2.433594-5.433594 5.433594-5.433594h46.9375c3 0 5.433593 2.433594 5.433593 5.433594v180.777344c0 3.003906-2.433593 5.4375-5.433593 5.4375zm0 0" fill="#3e4a68"/><path d="m398.269531 160.175781h-33.101562c-3 0-5.433594 2.433594-5.433594 5.4375v180.777344c0 3 2.433594 5.433594 5.433594 5.433594h33.101562zm0 0" fill="#303a59"/><path d="m375.148438 160.175781h7.707031v191.648438h-7.707031zm0 0" fill="#232d47"/><path d="m49.894531 190.175781h46.9375c3 0 5.433594 2.433594 5.433594 5.4375v120.777344c0 3-2.433594 5.433594-5.433594 5.433594h-46.9375c-3 0-5.433593-2.433594-5.433593-5.433594v-120.78125c0-3 2.433593-5.433594 5.433593-5.433594zm0 0" fill="#3e4a68"/><path d="m63.730469 321.824219h33.101562c3 0 5.433594-2.433594 5.433594-5.4375v-120.777344c0-3-2.433594-5.433594-5.433594-5.433594h-33.101562zm0 0" fill="#303a59"/><path d="m86.851562 321.824219h-7.707031v-131.648438h7.707031zm0 0" fill="#232d47"/><path d="m99.894531 160.175781h46.9375c3 0 5.433594 2.433594 5.433594 5.4375v180.777344c0 3-2.433594 5.433594-5.433594 5.433594h-46.9375c-3 0-5.433593-2.433594-5.433593-5.433594v-180.78125c0-3 2.433593-5.433594 5.433593-5.433594zm0 0" fill="#3e4a68"/><path d="m113.730469 351.824219h33.101562c3 0 5.433594-2.433594 5.433594-5.4375v-180.777344c0-3-2.433594-5.433594-5.433594-5.433594h-33.101562zm0 0" fill="#303a59"/><path d="m136.851562 351.824219h-7.707031v-191.648438h7.707031zm0 0" fill="#232d47"/><path d="m217.265625 283.269531h-23.53125c-6.277344 0-11.367187-5.089843-11.367187-11.367187v-56.265625c0-6.277344 5.089843-11.367188 11.367187-11.367188h23.53125c6.277344 0 11.367187 5.089844 11.367187 11.367188v56.265625c0 6.277344-5.089843 11.367187-11.367187 11.367187zm0 0" fill="#3e4a68"/><path d="m202.367188 271.902344v-56.265625c0-6.277344 5.089843-11.367188 11.367187-11.367188h-20c-6.277344 0-11.367187 5.089844-11.367187 11.367188v56.265625c0 6.277344 5.089843 11.367187 11.367187 11.367187h20c-6.277344 0-11.367187-5.089843-11.367187-11.367187zm0 0" fill="#303a59"/><path d="m318.265625 283.269531h-23.53125c-6.277344 0-11.367187-5.089843-11.367187-11.367187v-56.265625c0-6.277344 5.089843-11.367188 11.367187-11.367188h23.53125c6.277344 0 11.367187 5.089844 11.367187 11.367188v56.265625c0 6.277344-5.089843 11.367187-11.367187 11.367187zm0 0" fill="#3e4a68"/><path d="m303.367188 271.902344v-56.265625c0-6.277344 5.089843-11.367188 11.367187-11.367188h-20c-6.277344 0-11.367187 5.089844-11.367187 11.367188v56.265625c0 6.277344 5.089843 11.367187 11.367187 11.367187h20c-6.277344 0-11.367187-5.089843-11.367187-11.367187zm0 0" fill="#303a59"/></svg>