<svg height="512pt" viewBox="0 0 512 512" width="512pt" xmlns="http://www.w3.org/2000/svg"><path d="m512 256c0 141.386719-114.613281 256-256 256s-256-114.613281-256-256 114.613281-256 256-256 256 114.613281 256 256zm0 0" fill="#ff3345"/><path d="m491.925781 355.535156-10.925781-188.457031v-18.597656c0-5.421875-4.394531-9.816407-9.816406-9.816407h-430.367188c-5.421875 0-9.816406 4.394532-9.816406 9.816407v18.597656l-10.925781 188.457031c37.609375 89.039063 124.152343 152.339844 225.925781 156.25v-103.789062c0-5.523438 4.476562-10 10-10s10 4.476562 10 10v103.789062c101.773438-3.910156 188.316406-67.210937 225.925781-156.25zm0 0" fill="#3e4a68"/><path d="m30.621094 182.078125h450.757812c.164063 0 .324219-.019531.488282-.023437l-.867188-14.976563v-18.597656c0-5.421875-4.394531-9.816407-9.816406-9.816407h-430.367188c-5.421875 0-9.816406 4.394532-9.816406 9.816407v18.597656l-.867188 14.976563c.164063.003906.324219.023437.488282.023437zm0 0" fill="#303a59"/><path d="m31 148.480469v18.597656l-10.925781 188.457031c11.402343 26.996094 27.308593 51.625 46.769531 72.957032l15.15625-261.414063v-18.597656c0-5.421875 4.394531-9.816407 9.816406-9.816407h-51c-5.421875 0-9.816406 4.394532-9.816406 9.816407zm0 0" fill="#303a59"/><path d="m455.542969 129.578125h-399.085938c-2.277343 0-4.125-1.84375-4.125-4.121094v-66.753906c0-2.277344 1.847657-4.125 4.125-4.125h399.085938c2.277343 0 4.125 1.847656 4.125 4.125v66.753906c0 2.277344-1.847657 4.121094-4.125 4.121094zm0 0" fill="#ebf0f3"/><g fill="#c7d9ff"><path d="m115.75 54.578125h25.5v75h-25.5zm0 0"/><path d="m166.75 54.578125h25.5v75h-25.5zm0 0"/><path d="m319.75 54.578125h25.5v75h-25.5zm0 0"/><path d="m370.75 54.578125h25.5v75h-25.5zm0 0"/><path d="m421.75 54.578125h25.5v75h-25.5zm0 0"/><path d="m102.332031 125.457031v-66.753906c0-2.277344 1.847657-4.125 4.125-4.125h-50c-2.277343 0-4.125 1.847656-4.125 4.125v66.753906c0 2.277344 1.847657 4.121094 4.125 4.121094h50c-2.277343 0-4.125-1.84375-4.125-4.121094zm0 0"/></g><path d="m481.378906 167.078125h-450.757812c-2.273438 0-4.121094-1.84375-4.121094-4.121094v-66.753906c0-2.277344 1.847656-4.125 4.121094-4.125h450.757812c2.277344 0 4.121094 1.847656 4.121094 4.125v66.753906c0 2.277344-1.847656 4.121094-4.121094 4.121094zm0 0" fill="#fff"/><path d="m76.5 162.957031v-66.753906c0-2.277344 1.847656-4.125 4.121094-4.125h-50c-2.273438 0-4.121094 1.847656-4.121094 4.125v66.753906c0 2.277344 1.847656 4.121094 4.121094 4.121094h50c-2.273438 0-4.121094-1.84375-4.121094-4.121094zm0 0" fill="#ebf0f3"/><path d="m491.925781 355.535156-4.832031-83.347656c-50.308594 0-91.09375 40.785156-91.09375 91.09375v107.058594c42.359375-27.722656 76.011719-67.652344 95.925781-114.804688zm0 0" fill="#303a59"/><path d="m24.90625 272.1875-4.832031 83.347656c19.914062 47.152344 53.566406 87.082032 95.925781 114.804688v-107.058594c0-50.308594-40.785156-91.09375-91.09375-91.09375zm0 0" fill="#303a59"/><path d="m24.90625 272.1875-4.835938 83.347656c11.21875 26.5625 26.800782 50.828125 45.832032 71.914063l8.167968-140.867188c-14.183593-9.109375-31.054687-14.394531-49.164062-14.394531zm0 0" fill="#232d47"/><path d="m212.574219 263.5c-4.140625 0-7.5-3.359375-7.5-7.5v-126.421875c0-4.140625 3.359375-7.5 7.5-7.5 4.144531 0 7.5 3.359375 7.5 7.5v126.421875c0 4.140625-3.355469 7.5-7.5 7.5zm0 0" fill="#232d47"/><path d="m299.425781 263.5c-4.144531 0-7.5-3.359375-7.5-7.5v-126.421875c0-4.140625 3.355469-7.5 7.5-7.5 4.140625 0 7.5 3.359375 7.5 7.5v126.421875c0 4.140625-3.359375 7.5-7.5 7.5zm0 0" fill="#232d47"/><path d="m222.25 280h-19.351562c-3.175782 0-5.75-2.574219-5.75-5.75v-26.824219c0-8.519531 6.90625-15.425781 15.425781-15.425781s15.425781 6.90625 15.425781 15.425781v26.824219c0 3.175781-2.574219 5.75-5.75 5.75zm0 0" fill="#fff"/><path d="m309.101562 280h-19.351562c-3.175781 0-5.75-2.574219-5.75-5.75v-26.824219c0-8.519531 6.90625-15.425781 15.425781-15.425781s15.425781 6.90625 15.425781 15.425781v26.824219c0 3.175781-2.574218 5.75-5.75 5.75zm0 0" fill="#fff"/></svg>