<svg height="512pt" viewBox="0 0 512 512" width="512pt" xmlns="http://www.w3.org/2000/svg"><path d="m512 256c0 141.386719-114.613281 256-256 256s-256-114.613281-256-256 114.613281-256 256-256 256 114.613281 256 256zm0 0" fill="#0fe1c2"/><path d="m113.136719 83.667969v85.691406h30v-79.359375c0-5.523438 4.476562-10 10-10h126.863281c5.523438 0 10 4.476562 10 10v79.359375h30v-85.691406c0-18.59375-15.074219-33.667969-33.667969-33.667969h-139.527343c-18.59375 0-33.667969 15.074219-33.667969 33.667969zm0 0" fill="#3e4a68"/><path d="m512 174.449219v81.550781c0 56.851562-18.539062 109.378906-49.890625 151.859375-4.71875 6.390625-9.71875 12.5625-15 18.46875-3.859375 4.332031-7.859375 8.523437-12 12.582031-7.558594 7.398438-15.570313 14.328125-23.988281 20.75-7.671875 5.851563-15.679688 11.28125-23.992188 16.238282-3.929687 2.363281-7.929687 4.601562-12 6.742187-35.578125 18.75-76.117187 29.359375-119.128906 29.359375-71.699219 0-136.511719-29.480469-182.988281-76.96875-5.242188-5.359375-10.25-10.941406-15-16.742188-4.203125-5.117187-8.210938-10.398437-12-15.839843-9.28125-13.277344-17.339844-27.480469-23.992188-42.4375-14.148437-31.78125-22.019531-66.980469-22.019531-104.011719s7.871094-72.230469 22.019531-104.011719c3.160157-7.117187 6.652344-14.058593 10.421875-20.808593h436.296875c4.050781 0 7.980469.558593 11.703125 1.601562 18.207032 5.109375 31.558594 21.828125 31.558594 41.667969zm0 0" fill="#0c99e6"/><path d="m73.011719 131.179688v303.851562c-5.242188-5.359375-10.25-10.941406-15-16.742188-4.203125-5.117187-8.210938-10.398437-12-15.839843-9.28125-13.277344-17.339844-27.480469-23.992188-42.4375v-208.023438c3.160157-7.117187 6.652344-14.058593 10.421875-20.808593zm0 0" fill="#066ae7"/><path d="m462.109375 131.179688v276.679687c-4.71875 6.390625-9.71875 12.5625-15 18.46875-3.859375 4.332031-7.859375 8.523437-12 12.582031-7.558594 7.398438-15.570313 14.328125-23.988281 20.75v-328.480468zm0 0" fill="#066ae7"/><path d="m447.109375 132.144531v294.183594c-3.859375 4.332031-7.859375 8.523437-12 12.582031-7.558594 7.398438-15.570313 14.328125-23.988281 20.75-7.671875 5.851563-15.679688 11.28125-23.992188 16.238282-3.929687 2.363281-7.929687 4.601562-12 6.742187v-350.496094c0-6.054687 4.910156-10.964843 10.964844-10.964843h50.050781c6.054688 0 10.964844 4.910156 10.964844 10.964843zm0 0" fill="#fff"/><path d="m395.128906 132.144531c0-6.054687 4.910156-10.964843 10.964844-10.964843h-20c-6.054688 0-10.964844 4.910156-10.964844 10.964843v350.496094c4.070313-2.140625 8.070313-4.378906 12-6.742187 2.703125-1.613282 5.363282-3.292969 8-5.003907zm0 0" fill="#ebf0f3"/><path d="m58.011719 418.285156v-286.140625c0-6.054687-4.910157-10.964843-10.964844-10.964843h-8.691406c-24.304688 39.15625-38.355469 85.34375-38.355469 134.820312 0 61.597656 21.761719 118.113281 58.011719 162.285156zm0 0" fill="#fff"/><path d="m111.671875 232.839844c-13.691406 0-24.828125-11.136719-24.828125-24.828125 0-13.6875 11.136719-24.824219 24.828125-24.824219h209.792969c13.691406 0 24.828125 11.136719 24.828125 24.824219 0 13.691406-11.136719 24.828125-24.828125 24.828125zm0 0" fill="#ebf0f3"/><path d="m105.496094 212.4375 8.777344-3.882812c.78125-.34375 1.667968-.34375 2.449218 0l8.773438 3.882812c.78125.34375 1.667968.34375 2.449218 0l8.777344-3.882812c.777344-.34375 1.667969-.34375 2.449219 0l8.773437 3.882812c.78125.34375 1.667969.34375 2.449219 0l8.777344-3.882812c.78125-.34375 1.671875-.34375 2.449219 0l8.777344 3.882812c.78125.34375 1.667968.34375 2.449218 0l8.777344-3.882812c.78125-.34375 1.671875-.34375 2.449219 0l8.78125 3.882812c.78125.34375 1.667969.34375 2.449219 0l8.777343-3.882812c.78125-.34375 1.667969-.34375 2.449219 0l8.78125 3.882812c.777344.34375 1.667969.34375 2.445312 0l8.78125-3.882812c.78125-.34375 1.671876-.34375 2.449219 0l8.78125 3.882812c.78125.34375 1.671875.34375 2.449219 0l8.78125-3.882812c.78125-.34375 1.667969-.34375 2.449219 0l8.777343 3.882812c.78125.34375 1.667969.34375 2.449219 0l8.777344-3.882812c.78125-.34375 1.671875-.34375 2.449219 0l8.78125 3.882812c.78125.34375 1.667968.34375 2.449218 0l8.78125-3.882812c.78125-.34375 1.667969-.34375 2.449219 0l8.785157 3.882812c.78125.34375 1.667968.34375 2.449218 0l8.785156-3.882812c.777344-.34375 1.667969-.34375 2.445313 0l8.792969 3.882812c.777344.34375 1.667968.34375 2.445312 0l10.019532-4.425781c0-10.28125-8.339844-18.617188-18.621094-18.617188h-209.792969c-10.285156 0-18.621094 8.335938-18.621094 18.617188l9.996094 4.425781c.78125.34375 1.671875.34375 2.449219 0zm0 0" fill="#fff"/><path d="m300.777344 282.492188c-10.285156 0-18.621094-8.335938-18.621094-18.621094v-55.859375h37.238281v55.859375c.003907 10.285156-8.335937 18.621094-18.617187 18.621094zm0 0" fill="#303a59"/><path d="m282.15625 208.011719h37.238281v15.515625h-37.238281zm0 0" fill="#232d47"/><path d="m300.777344 263.871094v-55.859375h-18.621094v55.859375c0 10.285156 8.335938 18.621094 18.621094 18.621094 3.394531 0 6.570312-.925782 9.308594-2.511719-5.558594-3.21875-9.308594-9.21875-9.308594-16.109375zm0 0" fill="#232d47"/><path d="m300.207031 270.054688c-3.257812-.292969-5.636719-3.242188-5.636719-6.507813v-30.707031c0-3.429688 2.78125-6.207032 6.207032-6.207032 3.429687 0 6.207031 2.777344 6.207031 6.207032v31.03125c0 3.613281-3.101563 6.511718-6.777344 6.183594zm0 0" fill="#0c99e6"/><path d="m324.585938 217.324219h-47.617188c-1.691406 0-3.0625-1.371094-3.0625-3.0625v-12.496094c0-1.691406 1.371094-3.0625 3.0625-3.0625h47.617188c1.691406 0 3.0625 1.371094 3.0625 3.0625v12.496094c0 1.691406-1.371094 3.0625-3.0625 3.0625zm0 0" fill="#3e4a68"/><path d="m292.527344 214.261719v-12.496094c0-1.691406 1.371094-3.0625 3.0625-3.0625h-18.621094c-1.691406 0-3.0625 1.371094-3.0625 3.0625v12.496094c0 1.691406 1.371094 3.0625 3.0625 3.0625h18.621094c-1.691406 0-3.0625-1.371094-3.0625-3.0625zm0 0" fill="#303a59"/></svg>