<svg height="512pt" viewBox="0 0 512 512" width="512pt" xmlns="http://www.w3.org/2000/svg"><path d="m512 256c0 141.386719-114.613281 256-256 256s-256-114.613281-256-256 114.613281-256 256-256 256 114.613281 256 256zm0 0" fill="#ffcf11"/><path d="m400 25v442.679688c-41.03125 27.96875-90.601562 44.320312-144 44.320312-40.160156 0-78.171875-9.25-112-25.75-11.148438-5.421875-21.839844-11.640625-32-18.570312v-442.679688c0-13.808594 11.191406-25 25-25h238c13.808594 0 25 11.191406 25 25zm0 0" fill="#3e4a68"/><path d="m169 0c-13.808594 0-25 11.191406-25 25v461.25c-11.148438-5.421875-21.839844-11.640625-32-18.570312v-442.679688c0-13.808594 11.191406-25 25-25zm0 0" fill="#303a59"/><path d="m365.097656 416h-218.195312c-1.601563 0-2.902344-1.300781-2.902344-2.902344v-346.195312c0-1.601563 1.300781-2.902344 2.902344-2.902344h218.195312c1.601563 0 2.902344 1.300781 2.902344 2.902344v346.195312c0 1.601563-1.300781 2.902344-2.902344 2.902344zm0 0" fill="#66fade"/><path d="m184 413.097656v-346.195312c0-1.601563 1.300781-2.902344 2.902344-2.902344h-40c-1.601563 0-2.902344 1.300781-2.902344 2.902344v346.195312c0 1.601563 1.300781 2.902344 2.902344 2.902344h40c-1.601563 0-2.902344-1.300781-2.902344-2.902344zm0 0" fill="#0fe1c2"/><path d="m211.199219 37.761719c0 5.300781-4.296875 9.597656-9.597657 9.597656-5.304687 0-9.601562-4.296875-9.601562-9.597656 0-5.304688 4.296875-9.601563 9.601562-9.601563 5.300782 0 9.597657 4.296875 9.597657 9.601563zm0 0" fill="#303a59"/><path d="m320 37.761719c0 5.300781-4.296875 9.597656-9.601562 9.597656-5.300782 0-9.597657-4.296875-9.597657-9.597656 0-5.304688 4.296875-9.601563 9.597657-9.601563 5.304687 0 9.601562 4.296875 9.601562 9.601563zm0 0" fill="#303a59"/><path d="m282.238281 464c0 14.492188-11.746093 26.238281-26.238281 26.238281s-26.238281-11.746093-26.238281-26.238281 11.746093-26.238281 26.238281-26.238281 26.238281 11.746093 26.238281 26.238281zm0 0" fill="#303a59"/><path d="m278.398438 47.359375h-44.796876c-5.304687 0-9.601562-4.296875-9.601562-9.597656 0-5.304688 4.296875-9.601563 9.601562-9.601563h44.796876c5.304687 0 9.601562 4.296875 9.601562 9.601563 0 5.300781-4.296875 9.597656-9.601562 9.597656zm0 0" fill="#303a59"/><path d="m254.144531 180.976562-17.671875-17.671874c-16.914062-16.914063-44.335937-16.914063-61.25 0-16.910156 16.914062-16.910156 44.335937 0 61.246093l78.921875 78.921875c1.027344 1.027344 2.6875 1.027344 3.710938 0l78.921875-78.921875c16.914062-16.914062 16.914062-44.335937 0-61.246093-16.910156-16.914063-44.335938-16.914063-61.246094 0l-17.671875 17.671874c-1.027344 1.023438-2.691406 1.023438-3.714844 0zm0 0" fill="#0c99e6"/><path d="m215.222656 224.550781c-16.914062-16.914062-16.914062-44.335937 0-61.246093 3.210938-3.210938 6.800782-5.808594 10.625-7.800782-16.320312-8.5-36.921875-5.902344-50.625 7.800782-16.914062 16.914062-16.914062 44.335937 0 61.246093l78.921875 78.921875c1.027344 1.027344 2.6875 1.027344 3.710938 0l18.144531-18.144531zm0 0" fill="#066ae7"/><path d="m255.996094 262.359375c-3.503906 0-6.539063-2.425781-7.3125-5.84375l-6.554688-28.941406-3.875 11.410156c-.914062 2.695313-3.273437 4.636719-6.09375 5.019531-2.824218.378906-5.613281-.863281-7.210937-3.21875l-9.707031-14.285156c-.300782-.445312-.808594-.714844-1.351563-.714844h-69.890625v-15h69.890625c5.515625 0 10.660156 2.726563 13.761719 7.285156l1.242187 1.832032 7.578125-22.316406c1.082032-3.179688 4.136719-5.25 7.496094-5.078126 3.351562.175782 6.179688 2.558594 6.921875 5.835938l5.105469 22.554688 5.109375-22.554688c.742187-3.277344 3.570312-5.660156 6.921875-5.835938 3.332031-.171874 6.414062 1.898438 7.492187 5.078126l7.582031 22.316406 1.246094-1.832032c3.101563-4.5625 8.246094-7.285156 13.757813-7.285156h69.894531v15h-69.894531c-.539063 0-1.046875.269532-1.351563.714844l-9.703125 14.285156c-1.601562 2.355469-4.390625 3.605469-7.210937 3.21875-2.820313-.382812-5.179688-2.328125-6.097656-5.019531l-3.875-11.414063-6.554688 28.941407c-.773438 3.421875-3.8125 5.847656-7.316406 5.847656zm0 0" fill="#fff"/><g fill="#0fe1c2"><path d="m336.480469 322.980469h-22.480469c-4.140625 0-7.5-3.355469-7.5-7.5 0-4.140625 3.359375-7.5 7.5-7.5h22.480469c4.140625 0 7.5 3.359375 7.5 7.5 0 4.144531-3.359375 7.5-7.5 7.5zm0 0"/><path d="m325.238281 334.222656c-4.140625 0-7.5-3.359375-7.5-7.5v-22.480468c0-4.140626 3.359375-7.5 7.5-7.5 4.144531 0 7.5 3.359374 7.5 7.5v22.480468c0 4.140625-3.355469 7.5-7.5 7.5zm0 0"/><path d="m235.238281 372.703125h-22.476562c-4.144531 0-7.5-3.359375-7.5-7.5s3.355469-7.5 7.5-7.5h22.476562c4.144531 0 7.5 3.359375 7.5 7.5s-3.355469 7.5-7.5 7.5zm0 0"/><path d="m224 383.941406c-4.140625 0-7.5-3.355468-7.5-7.5v-22.476562c0-4.144532 3.359375-7.5 7.5-7.5s7.5 3.355468 7.5 7.5v22.476562c0 4.144532-3.359375 7.5-7.5 7.5zm0 0"/><path d="m274.238281 103.613281h-22.476562c-4.144531 0-7.5-3.359375-7.5-7.5 0-4.144531 3.355469-7.5 7.5-7.5h22.476562c4.144531 0 7.5 3.355469 7.5 7.5 0 4.140625-3.355469 7.5-7.5 7.5zm0 0"/><path d="m263 114.851562c-4.140625 0-7.5-3.359374-7.5-7.5v-22.480468c0-4.140625 3.359375-7.5 7.5-7.5s7.5 3.359375 7.5 7.5v22.480468c0 4.140626-3.359375 7.5-7.5 7.5zm0 0"/></g></svg>