<svg height="512pt" viewBox="0 0 512.0005 512" width="512pt" xmlns="http://www.w3.org/2000/svg"><path d="m512 256c0 141.386719-114.613281 256-256 256s-256-114.613281-256-256c0-141.382812 114.613281-256 256-256s256 114.617188 256 256zm0 0" fill="#ff3345"/><path d="m151.5 188.257812c-76.53125 29.679688-124.054688 101.808594-126.105469 179.035157 41.40625 85.636719 129.105469 144.707031 230.605469 144.707031 50.65625 0 97.871094-14.714844 137.613281-40.101562 29.167969-50.136719 36.105469-112.589844 13.5-170.878907-39.445312-101.722656-153.890625-152.207031-255.613281-112.761719zm85.449219 220.347657c-19.972657 7.746093-42.4375-2.164063-50.183594-22.136719-7.742187-19.96875 2.167969-42.4375 22.136719-50.179688 19.972656-7.746093 42.441406 2.164063 50.183594 22.136719 7.742187 19.96875-2.167969 42.4375-22.136719 50.179688zm0 0" fill="#3e4a68"/><path d="m162.347656 216.230469c-83.535156 32.390625-126.40625 124.832031-98.460937 208.949219 46.914062 53.230468 115.585937 86.820312 192.113281 86.820312 25.878906 0 50.855469-3.855469 74.402344-10.996094 53.53125-44.828125 75.355468-120.507812 48.742187-189.136718-33.40625-86.136719-130.660156-129.039063-216.796875-95.636719zm74.601563 192.375c-19.972657 7.746093-42.4375-2.164063-50.183594-22.136719-7.742187-19.96875 2.167969-42.4375 22.136719-50.179688 19.972656-7.746093 42.441406 2.164063 50.183594 22.136719 7.742187 19.96875-2.167969 42.4375-22.136719 50.179688zm0 0" fill="#303a59"/><g fill="#232d47"><path d="m96.480469 405.394531 51.460937-19.957031c3.929688-1.523438 6.503906-5.375 6.296875-9.585938-1.054687-21.609374 8.222657-42.640624 24.894531-56.425781 3.246094-2.6875 4.355469-7.1875 2.832032-11.117187l-19.984375-51.53125c-.949219-2.445313-2.828125-4.414063-5.226563-5.472656l-27.136718-11.96875c-3.316407-1.464844-7.1875-1.015626-10.042969 1.222656-43.703125 34.285156-67.734375 88.558594-63.769531 143.945312.253906 3.582032 2.484374 6.730469 5.75 8.222656l27.242187 12.441407c2.425781 1.109375 5.195313 1.1875 7.683594.226562zm0 0"/><path d="m189.980469 246 19.957031 51.460938c1.523438 3.933593 5.375 6.507812 9.585938 6.300781 21.609374-1.054688 42.636718 8.222656 56.425781 24.890625 2.6875 3.25 7.183593 4.359375 11.117187 2.832031l51.53125-19.980469c2.441406-.949218 4.410156-2.828125 5.46875-5.226562l11.972656-27.140625c1.464844-3.316407 1.015626-7.183594-1.222656-10.039063-34.285156-43.703125-88.5625-67.738281-143.949218-63.773437-3.582032.257812-6.726563 2.484375-8.21875 5.753906l-12.445313 27.242187c-1.105469 2.425782-1.1875 5.195313-.222656 7.679688zm0 0"/><path d="m384.296875 352.167969-27.242187-12.441407c-2.425782-1.109374-5.195313-1.1875-7.683594-.226562l-51.460938 19.957031c-3.929687 1.523438-6.503906 5.375-6.296875 9.585938 1.054688 21.609375-8.222656 42.636719-24.890625 56.425781-3.25 2.6875-4.359375 7.183594-2.835937 11.117188l19.984375 51.53125c.949218 2.445312 2.828125 4.410156 5.226562 5.46875l26.109375 11.519531c5.117188-1.210938 10.175781-2.582031 15.171875-4.09375 41.097656-34.40625 63.507813-86.992188 59.671875-140.621094-.257812-3.582031-2.488281-6.730469-5.753906-8.222656zm0 0"/><path d="m255.871094 498.894531-19.957032-51.460937c-1.523437-3.933594-5.375-6.507813-9.585937-6.300782-21.605469 1.054688-42.636719-8.222656-56.425781-24.890624-2.6875-3.25-7.183594-4.359376-11.117188-2.832032l-51.53125 19.980469c-2.441406.949219-4.410156 2.828125-5.46875 5.226563l-7.121094 16.136718c43.355469 35.234375 98.453126 56.5625 158.519532 57.210938l2.464844-5.390625c1.105468-2.425781 1.1875-5.195313.222656-7.679688zm0 0"/></g><path d="m230.175781 48.285156c-64.386719 64.386719-64.378906 169.148438.007813 233.535156 64.386718 64.386719 169.140625 64.386719 233.527344 0 64.386718-64.386718 64.386718-169.140624 0-233.527343-64.386719-64.386719-169.148438-64.394531-233.535157-.007813zm143.796875 143.796875c-14.925781 14.925781-39.125 14.925781-54.050781 0-14.929687-14.925781-14.933594-39.128906-.007813-54.058593 14.925782-14.925782 39.128907-14.917969 54.058594.007812 14.925782 14.925781 14.925782 39.125 0 54.050781zm0 0" fill="#3e4a68"/><path d="m251.082031 69.191406c-52.859375 52.859375-52.851562 138.863282.007813 191.722656 52.851562 52.851563 138.855468 52.859376 191.714844 0 52.859374-52.859374 52.851562-138.863281 0-191.714843-52.859376-52.859375-138.863282-52.867188-191.722657-.007813zm122.890625 122.890625c-14.925781 14.925781-39.125 14.925781-54.050781 0-14.929687-14.925781-14.933594-39.128906-.007813-54.058593 14.925782-14.925782 39.128907-14.917969 54.058594.007812 14.925782 14.925781 14.925782 39.125 0 54.050781zm0 0" fill="#303a59"/><path d="m258.800781 232.292969 27.785157-27.785157c1.820312-1.820312 2.164062-4.613281.925781-6.871093-11.078125-20.226563-11.078125-44.9375 0-65.164063 1.238281-2.257812.894531-5.050781-.925781-6.871094l-27.816407-27.8125c-1.089843-1.09375-2.574219-1.707031-4.117187-1.707031h-21.050782c-2.132812 0-4.085937 1.171875-5.121093 3.035157-22.65625 40.738281-22.710938 90.765624-.175781 131.554687 1.019531 1.847656 2.941406 3.023437 5.050781 3.050781l21.25.273438c1.570312.023437 3.085937-.59375 4.195312-1.703125zm0 0" fill="#232d47"/><path d="m279.710938 76.914062 27.78125 27.78125c1.820312 1.820313 4.613281 2.164063 6.871093.925782 20.226563-11.074219 44.9375-11.074219 65.164063 0 2.257812 1.238281 5.050781.894531 6.871094-.925782l27.816406-27.8125c1.089844-1.09375 1.707031-2.578124 1.707031-4.121093v-21.050781c0-2.132813-1.171875-4.082032-3.035156-5.121094-40.742188-22.65625-90.769531-22.710938-131.558594-.171875-1.847656 1.019531-3.023437 2.9375-3.050781 5.050781l-.273438 21.25c-.023437 1.570312.59375 3.082031 1.707032 4.195312zm0 0" fill="#232d47"/><path d="m414.179688 253.199219-27.78125-27.785157c-1.820313-1.820312-4.613282-2.164062-6.871094-.925781-20.226563 11.078125-44.9375 11.078125-65.164063 0-2.257812-1.238281-5.050781-.894531-6.871093.925781l-27.8125 27.816407c-1.09375 1.089843-1.707032 2.574219-1.707032 4.117187v21.050782c0 2.132812 1.167969 4.082031 3.035156 5.121093 40.738282 22.65625 90.765626 22.710938 131.554688.175781 1.847656-1.023437 3.023438-2.941406 3.050781-5.054687l.273438-21.246094c.019531-1.574219-.59375-3.085937-1.707031-4.195312zm0 0" fill="#232d47"/><path d="m435.085938 97.820312-27.78125 27.78125c-1.820313 1.820313-2.164063 4.613282-.925782 6.871094 11.074219 20.226563 11.074219 44.9375 0 65.164063-1.238281 2.257812-.894531 5.050781.925782 6.871093l27.8125 27.8125c1.09375 1.09375 2.574218 1.707032 4.121093 1.707032h21.050781c2.132813 0 4.082032-1.167969 5.117188-3.03125 22.65625-40.742188 22.714844-90.769532.175781-131.558594-1.019531-1.847656-2.941406-3.023438-5.050781-3.050781l-21.25-.273438c-1.570312-.019531-3.082031.59375-4.195312 1.707031zm0 0" fill="#232d47"/></svg>