<svg height="512pt" viewBox="0 0 512 512" width="512pt" xmlns="http://www.w3.org/2000/svg"><path d="m512 256c0 141.386719-114.613281 256-256 256s-256-114.613281-256-256 114.613281-256 256-256 256 114.613281 256 256zm0 0" fill="#94d400"/><path d="m239.535156 54.875h32.929688v217.3125h-32.929688zm0 0" fill="#fff"/><path d="m239.535156 54.875h16.464844v217.3125h-16.464844zm0 0" fill="#ebf0f3"/><path d="m364.027344 82.316406h-216.054688c-4.285156 0-7.761718-3.476562-7.761718-7.765625v-39.347656c0-4.289063 3.476562-7.765625 7.761718-7.765625h216.050782c4.289062 0 7.765624 3.476562 7.765624 7.765625v39.347656c0 4.289063-3.476562 7.765625-7.761718 7.765625zm0 0" fill="#303a59"/><path d="m195.085938 74.550781v-39.347656c0-4.289063 3.476562-7.765625 7.765624-7.765625h-54.875c-4.289062 0-7.765624 3.476562-7.765624 7.765625v39.347656c0 4.289063 3.476562 7.765625 7.765624 7.765625h54.875c-4.289062 0-7.765624-3.476562-7.765624-7.765625zm0 0" fill="#232d47"/><path d="m382.171875 54.875h-252.34375c-4.621094 0-8.367187-3.746094-8.367187-8.367188v-38.140624c0-4.621094 3.746093-8.367188 8.367187-8.367188h252.34375c4.621094 0 8.367187 3.746094 8.367187 8.367188v38.140624c0 4.621094-3.746093 8.367188-8.367187 8.367188zm0 0" fill="#3e4a68"/><path d="m176.339844 46.507812v-38.140624c0-4.621094 3.746094-8.367188 8.367187-8.367188h-54.878906c-4.621094 0-8.367187 3.746094-8.367187 8.367188v38.140624c0 4.621094 3.746093 8.371094 8.367187 8.371094h54.878906c-4.621093-.003906-8.367187-3.75-8.367187-8.371094zm0 0" fill="#303a59"/><path d="m416.359375 347.371094c0 95.164062-71.796875 164.628906-160.359375 164.628906s-160.359375-69.464844-160.359375-164.628906c0-95.164063 86.277344-216.214844 160.359375-216.214844s160.359375 121.046875 160.359375 216.214844zm0 0" fill="#3e4a68"/><path d="m128.566406 347.371094c0-88.183594 74.082032-198.574219 143.898438-214.300782-5.527344-1.246093-11.03125-1.914062-16.464844-1.914062-74.082031 0-160.359375 121.050781-160.359375 216.214844 0 95.164062 71.796875 164.628906 160.359375 164.628906 5.558594 0 11.050781-.273438 16.464844-.8125-80.832032-8.007812-143.898438-74.625-143.898438-163.816406zm0 0" fill="#303a59"/><path d="m348.128906 347.371094c0 95.164062-41.246094 164.628906-92.128906 164.628906s-92.128906-69.464844-92.128906-164.628906c0-95.164063 49.566406-216.214844 92.128906-216.214844s92.128906 121.046875 92.128906 216.214844zm0 0" fill="#ff3345"/><path d="m196.796875 347.371094c0-83.0625 37.761719-185.832032 75.667969-210.632813-5.523438-3.613281-11.050782-5.582031-16.464844-5.582031-42.5625 0-92.128906 121.050781-92.128906 216.214844 0 95.164062 41.246094 164.628906 92.128906 164.628906 5.621094 0 11.121094-.851562 16.464844-2.484375-43.027344-13.175781-75.667969-77.488281-75.667969-162.144531zm0 0" fill="#e32828"/></svg>