<svg height="512pt" viewBox="0 0 512 512" width="512pt" xmlns="http://www.w3.org/2000/svg"><path d="m512 256c0 141.386719-114.613281 256-256 256s-256-114.613281-256-256 114.613281-256 256-256 256 114.613281 256 256zm0 0" fill="#0fe1c2"/><path d="m73.859375 221.730469 24.96875-17.933594 52.101563 72.535156-24.964844 17.933594zm0 0" fill="#232d47"/><path d="m78.410156 163.367188-36.339844 26.101562c-2.511718 1.804688-3.085937 5.304688-1.28125 7.816406l26.742188 37.230469c1.804688 2.511719 5.304688 3.085937 7.816406 1.28125l36.339844-26.105469c2.511719-1.804687 3.085938-5.300781 1.28125-7.8125l-26.742188-37.230468c-1.804687-2.511719-5.304687-3.085938-7.816406-1.28125zm0 0" fill="#3e4a68"/><path d="m256 193.667969c-53.394531 0-96.832031-43.441407-96.832031-96.832031 0-53.394532 43.4375-96.835938 96.832031-96.835938s96.832031 43.4375 96.832031 96.832031-43.4375 96.835938-96.832031 96.835938zm0-178.667969c-45.121094 0-81.832031 36.710938-81.832031 81.832031 0 45.125 36.710937 81.832031 81.832031 81.832031s81.832031-36.707031 81.832031-81.832031c0-45.121093-36.710937-81.832031-81.832031-81.832031zm0 0" fill="#ebf0f3"/><path d="m231 115.394531h50v145.273438h-50zm0 0" fill="#232d47"/><path d="m256 512c100.820312 0 188.015625-58.292969 229.757812-143.003906-31.875-96.382813-122.6875-165.933594-229.757812-165.933594s-197.882812 69.550781-229.757812 165.933594c41.742187 84.710937 128.9375 143.003906 229.757812 143.003906zm0 0" fill="#3e4a68"/><path d="m26.242188 368.996094c10.257812 20.816406 23.261718 40.03125 38.535156 57.1875 8.976562-116.546875 100.511718-209.964844 216.222656-221.839844-8.21875-.847656-16.558594-1.28125-25-1.28125-107.070312 0-197.882812 69.550781-229.757812 165.933594zm0 0" fill="#303a59"/><path d="m256 512c75.953125 0 144.167969-33.089844 191.050781-85.621094-9.40625-97.132812-91.496093-173.316406-191.050781-173.316406s-181.644531 76.183594-191.050781 173.316406c46.882812 52.53125 115.097656 85.621094 191.050781 85.621094zm0 0" fill="#fff"/><path d="m64.949219 426.378906c11.984375 13.425782 25.355469 25.578125 39.898437 36.234375-.527344-5.792969-.804687-11.660156-.804687-17.59375 0-99.089843 75.476562-180.882812 171.957031-190.917969-6.574219-.683593-13.246094-1.039062-20-1.039062-99.554688 0-181.644531 76.183594-191.050781 173.316406zm0 0" fill="#ebf0f3"/><path d="m292.390625 42.613281h-72.78125c-5.03125 0-9.109375 4.078125-9.109375 9.109375v74.5625c0 5.03125 4.078125 9.109375 9.109375 9.109375h72.78125c5.03125 0 9.109375-4.078125 9.109375-9.109375v-74.5625c0-5.03125-4.078125-9.109375-9.109375-9.109375zm0 0" fill="#303a59"/><path d="m250.5 126.285156v-74.5625c0-5.03125 4.078125-9.109375 9.109375-9.109375h-40c-5.03125 0-9.109375 4.078125-9.109375 9.109375v74.5625c0 5.03125 4.078125 9.109375 9.109375 9.109375h40c-5.03125 0-9.109375-4.078125-9.109375-9.109375zm0 0" fill="#232d47"/><path d="m303.890625 150.394531h-95.78125c-5.03125 0-9.109375-4.078125-9.109375-9.109375v-11.777344c0-5.03125 4.078125-9.109374 9.109375-9.109374h95.78125c5.03125 0 9.109375 4.078124 9.109375 9.109374v11.777344c0 5.03125-4.078125 9.109375-9.109375 9.109375zm0 0" fill="#3e4a68"/><path d="m239 141.285156v-11.777344c0-5.03125 4.078125-9.109374 9.109375-9.109374h-40c-5.03125 0-9.109375 4.078124-9.109375 9.109374v11.777344c0 5.03125 4.078125 9.109375 9.109375 9.109375h40c-5.03125 0-9.109375-4.078125-9.109375-9.109375zm0 0" fill="#303a59"/><path d="m241 445.019531 6.621094-139.988281c.214844-4.472656 3.902344-7.988281 8.378906-7.988281s8.164062 3.515625 8.378906 7.988281l6.621094 139.988281zm0 0" fill="#e32828"/><path d="m284.332031 445.019531c0 15.648438-12.683593 28.335938-28.332031 28.335938s-28.332031-12.6875-28.332031-28.335938c0-15.644531 12.683593-28.332031 28.332031-28.332031s28.332031 12.6875 28.332031 28.332031zm0 0" fill="#ff3345"/></svg>