<svg height="512pt" viewBox="0 0 512 512" width="512pt" xmlns="http://www.w3.org/2000/svg"><path d="m512 256c0 141.386719-114.613281 256-256 256s-256-114.613281-256-256 114.613281-256 256-256 256 114.613281 256 256zm0 0" fill="#0c99e6"/><path d="m167.667969 0h176.667969v87.667969h-176.667969zm0 0" fill="#3e4a68"/><path d="m167.667969 0h40v87.667969h-40zm0 0" fill="#303a59"/><path d="m344.332031 424.332031h-176.664062v72.015625c27.53125 10.121094 57.285156 15.652344 88.332031 15.652344s60.800781-5.53125 88.332031-15.652344zm0 0" fill="#3e4a68"/><path d="m167.667969 496.347656c12.878906 4.734375 26.246093 8.449219 40 11.074219v-83.089844h-40zm0 0" fill="#303a59"/><path d="m346 117.667969h-180c-6.441406 0-11.664062-5.222657-11.664062-11.667969v-36.664062c0-6.445313 5.222656-11.667969 11.664062-11.667969h180c6.441406 0 11.664062 5.222656 11.664062 11.667969v36.664062c.003907 6.441406-5.222656 11.667969-11.664062 11.667969zm0 0" fill="#ffcf11"/><path d="m194.332031 106v-36.664062c0-6.445313 5.222657-11.667969 11.667969-11.667969h-40c-6.441406 0-11.667969 5.222656-11.667969 11.667969v36.664062c0 6.441406 5.222657 11.664062 11.667969 11.664062h40c-6.441406.003907-11.667969-5.222656-11.667969-11.664062zm0 0" fill="#ff9e00"/><path d="m346 454.332031h-180c-6.441406 0-11.664062-5.222656-11.664062-11.664062v-36.667969c0-6.441406 5.222656-11.664062 11.664062-11.664062h180c6.441406 0 11.664062 5.222656 11.664062 11.664062v36.667969c.003907 6.441406-5.222656 11.664062-11.664062 11.664062zm0 0" fill="#ffcf11"/><path d="m194.332031 442.664062v-36.664062c0-6.441406 5.222657-11.664062 11.667969-11.664062h-40c-6.441406 0-11.667969 5.222656-11.667969 11.664062v36.667969c0 6.441406 5.222657 11.664062 11.667969 11.664062h40c-6.441406 0-11.667969-5.222656-11.667969-11.667969zm0 0" fill="#ff9e00"/><path d="m146.574219 424.332031c-17.960938 0-32.574219-14.609375-32.574219-32.574219v-271.515624c0-17.964844 14.613281-32.574219 32.574219-32.574219h218.851562c17.960938 0 32.574219 14.609375 32.574219 32.574219v271.515624c0 17.964844-14.613281 32.574219-32.574219 32.574219zm0 0" fill="#3e4a68"/><path d="m365.425781 394.332031h-218.851562c-1.421875 0-2.574219-1.152343-2.574219-2.574219v-271.515624c0-1.421876 1.152344-2.574219 2.574219-2.574219h218.851562c1.421875 0 2.574219 1.152343 2.574219 2.574219v271.515624c0 1.421876-1.152344 2.574219-2.574219 2.574219zm0 0" fill="#66fade"/><g fill="#0fe1c2"><path d="m341.480469 321.507812h-22.480469c-4.144531 0-7.5-3.359374-7.5-7.5 0-4.144531 3.355469-7.5 7.5-7.5h22.480469c4.140625 0 7.5 3.355469 7.5 7.5 0 4.140626-3.359375 7.5-7.5 7.5zm0 0"/><path d="m330.238281 332.746094c-4.140625 0-7.5-3.355469-7.5-7.5v-22.480469c0-4.140625 3.359375-7.5 7.5-7.5 4.144531 0 7.5 3.359375 7.5 7.5v22.480469c0 4.144531-3.355469 7.5-7.5 7.5zm0 0"/><path d="m224.90625 368.761719h-22.480469c-4.140625 0-7.5-3.359375-7.5-7.5s3.359375-7.5 7.5-7.5h22.480469c4.144531 0 7.5 3.359375 7.5 7.5s-3.355469 7.5-7.5 7.5zm0 0"/><path d="m213.667969 380c-4.144531 0-7.5-3.355469-7.5-7.5v-22.480469c0-4.140625 3.355469-7.5 7.5-7.5 4.140625 0 7.5 3.359375 7.5 7.5v22.480469c0 4.144531-3.359375 7.5-7.5 7.5zm0 0"/><path d="m256 160.597656h-22.480469c-4.140625 0-7.5-3.359375-7.5-7.5s3.359375-7.5 7.5-7.5h22.480469c4.144531 0 7.5 3.359375 7.5 7.5s-3.355469 7.5-7.5 7.5zm0 0"/><path d="m244.761719 171.839844c-4.144531 0-7.5-3.359375-7.5-7.5v-22.480469c0-4.144531 3.355469-7.5 7.5-7.5 4.140625 0 7.5 3.355469 7.5 7.5v22.480469c0 4.140625-3.359375 7.5-7.5 7.5zm0 0"/><path d="m184 391.757812v-271.515624c0-1.421876 1.152344-2.574219 2.574219-2.574219h-40c-1.421875 0-2.574219 1.152343-2.574219 2.574219v271.515624c0 1.421876 1.152344 2.574219 2.574219 2.574219h40c-1.421875 0-2.574219-1.152343-2.574219-2.574219zm0 0"/></g><path d="m254.144531 209.546875-17.671875-17.675781c-16.914062-16.910156-44.335937-16.910156-61.25 0-16.910156 16.914062-16.910156 44.339844 0 61.25l78.921875 78.921875c1.027344 1.027343 2.6875 1.027343 3.710938 0l78.921875-78.921875c16.914062-16.914063 16.914062-44.335938 0-61.25-16.910156-16.910156-44.335938-16.910156-61.246094 0l-17.671875 17.675781c-1.027344 1.023437-2.691406 1.023437-3.714844 0zm0 0" fill="#ff3345"/><path d="m215.222656 253.121094c-16.914062-16.910156-16.914062-44.335938 0-61.25 3.210938-3.207032 6.800782-5.804688 10.625-7.796875-16.320312-8.503907-36.921875-5.90625-50.625 7.796875-16.914062 16.914062-16.914062 44.339844 0 61.25l78.921875 78.921875c1.023438 1.027343 2.683594 1.027343 3.710938 0l18.144531-18.144531zm0 0" fill="#e32828"/><path d="m255.996094 290.929688c-3.503906 0-6.539063-2.425782-7.3125-5.84375l-6.554688-28.941407-3.875 11.410157c-.914062 2.695312-3.273437 4.636718-6.09375 5.019531-2.824218.378906-5.613281-.863281-7.210937-3.214844l-9.707031-14.285156c-.304688-.449219-.808594-.71875-1.351563-.71875h-69.890625v-15h69.894531c5.515625 0 10.65625 2.726562 13.757813 7.289062l1.242187 1.828125 7.578125-22.3125c1.082032-3.179687 4.164063-5.246094 7.496094-5.078125 3.351562.175781 6.179688 2.558594 6.921875 5.832031l5.105469 22.558594 5.109375-22.558594c.742187-3.273437 3.570312-5.65625 6.921875-5.835937 3.351562-.175781 6.414062 1.898437 7.496094 5.078125l7.582031 22.316406 1.242187-1.832031c3.101563-4.5625 8.242188-7.285156 13.757813-7.285156h69.894531v15h-69.894531c-.539063 0-1.046875.269531-1.347657.714843l-9.710937 14.285157c-1.597656 2.355469-4.390625 3.597656-7.207031 3.21875-2.820313-.382813-5.183594-2.328125-6.097656-5.019531l-3.875-11.414063-6.558594 28.945313c-.769532 3.417968-3.808594 5.84375-7.3125 5.84375zm0 0" fill="#fff"/><path d="m316.417969 36.335938h-120.835938c-4.140625 0-7.5-3.359376-7.5-7.5 0-4.144532 3.359375-7.5 7.5-7.5h120.832031c4.144532 0 7.5 3.355468 7.5 7.5.003907 4.140624-3.355468 7.5-7.496093 7.5zm0 0" fill="#303a59"/><path d="m316.417969 490.664062h-120.835938c-4.140625 0-7.5-3.355468-7.5-7.5 0-4.140624 3.359375-7.5 7.5-7.5h120.832031c4.144532 0 7.5 3.359376 7.5 7.5.003907 4.144532-3.355468 7.5-7.496093 7.5zm0 0" fill="#303a59"/></svg>