<svg height="512pt" viewBox="0 0 512 512" width="512pt" xmlns="http://www.w3.org/2000/svg"><path d="m512 256c0 141.386719-114.613281 256-256 256s-256-114.613281-256-256 114.613281-256 256-256 256 114.613281 256 256zm0 0" fill="#ffcf11"/><path d="m438.808594 264h-365.617188l45.242188 207.929688c39.734375 25.367187 86.929687 40.070312 137.566406 40.070312s97.832031-14.703125 137.566406-40.070312zm0 0" fill="#e32828"/><path d="m103.191406 264h-30l45.242188 207.929688c10.761718 6.867187 22.074218 12.949218 33.847656 18.175781zm0 0" fill="#aa1e1e"/><path d="m319.8125 91.699219 40.1875-31.699219h37.375v-60h-37.375l-49.6875 39.191406c-15.472656 12.207032-34.605469 18.84375-54.3125 18.84375s-38.839844-6.640625-54.3125-18.84375l-49.6875-39.191406h-37.375v60h37.375l40.1875 31.699219c21.085938 16.628906 33.386719 42.003906 33.386719 68.855469v98.601562h60.851562v-98.601562c0-26.851563 12.300781-52.226563 33.386719-68.855469zm0 0" fill="#aa1e1e"/><path d="m415 160.976562v-149.226562c0-6.488281-5.261719-11.75-11.75-11.75h-43.25v69.429688c0 57.628906-47.15625 105.652343-104.785156 105.226562-28.40625-.210938-54.105469-11.808594-72.753906-30.457031-18.820313-18.820313-30.460938-44.820313-30.460938-73.539063v-70.660156h-43.25c-6.488281 0-11.75 5.261719-11.75 11.75v149.226562c0 9.027344-3.546875 17.625-9.660156 24.265626-15.71875 17.070312-25.402344 39.785156-25.667969 64.753906-.570313 54.015625 44.367187 98.21875 98.386719 98.21875h191.882812c54.019532 0 98.957032-44.203125 98.386719-98.21875-.265625-24.96875-9.949219-47.683594-25.667969-64.753906-6.113281-6.640626-9.660156-15.238282-9.660156-24.265626zm0 0" fill="#ff3345"/><path d="m91.671875 249.996094c.265625-24.972656 9.949219-47.683594 25.667969-64.753906 6.113281-6.640626 9.660156-15.238282 9.660156-24.265626v-149.226562c0-6.488281 5.261719-11.75 11.75-11.75h-30c-6.488281 0-11.75 5.261719-11.75 11.75v149.226562c0 9.027344-3.546875 17.625-9.660156 24.265626-15.71875 17.070312-25.402344 39.785156-25.667969 64.753906-.570313 54.015625 44.367187 98.21875 98.386719 98.21875h30c-54.019532-.003906-98.957032-44.203125-98.386719-98.21875zm0 0" fill="#e32828"/><path d="m287.96875 232.492188h-63.941406c-2.839844 0-5.144532-2.304688-5.144532-5.144532v-16.710937c0-2.839844 2.304688-5.144531 5.144532-5.144531h63.941406c2.84375 0 5.144531 2.304687 5.144531 5.144531v16.710937c0 2.839844-2.300781 5.144532-5.144531 5.144532zm0 0" fill="#fff"/></svg>