<svg height="512pt" viewBox="0 0 512.00007 512" width="512pt" xmlns="http://www.w3.org/2000/svg"><path d="m512 256c0 141.386719-114.613281 256-256 256s-256-114.613281-256-256 114.613281-256 256-256 256 114.613281 256 256zm0 0" fill="#303a59"/><path d="m203.632812 5.371094c-60.421874 12.558594-113.027343 46.414062-149.632812 93.363281v228.710937h149.632812zm0 0" fill="#ffcfc2"/><path d="m203.632812 283.265625c-.921874 1.566406-1.757812 3.191406-2.511718 4.875-3.199219 7.152344-10.320313 11.773437-18.148438 11.773437-1.785156 0-3.578125-.246093-5.316406-.730468l-103.746094-28.757813c-4.339844-1.203125-8.824218-1.816406-13.328125-1.816406h-.289062c-2.132813 0-4.230469.144531-6.292969.402344v58.433593h149.632812zm0 0" fill="#ffaea1"/><path d="m94 57.78125c-14.808594 12.117188-28.230469 25.855469-40 40.953125v228.710937h40zm0 0" fill="#ffaea1"/><path d="m260.261719 276.378906-28.089844-46.425781c-7.144531-11.804687-19.9375-19.019531-33.738281-19.019531-21.777344 0-39.433594 17.65625-39.433594 39.433594v100.035156h101.261719zm0 0" fill="#0c99e6"/><path d="m218.421875 216.394531c-5.964844-3.511719-12.839844-5.460937-19.988281-5.460937-21.777344 0-39.433594 17.65625-39.433594 39.433594v100.035156h40v-100.035156c0-14.472657 7.800781-27.113282 19.421875-33.972657zm0 0" fill="#066ae7"/><path d="m497.210938 456.796875v-56.984375c0-14.011719-8.382813-26.664062-21.285157-32.125l-215.664062-91.308594c-17.492188-7.40625-37.695313.542969-45.449219 17.882813-7.042969 15.75-24.539062 23.988281-41.164062 19.378906l-103.746094-28.761719c-3.035156-.839844-6.171875-1.269531-9.320313-1.269531h-.289062c-18.003907 0-33.050781 13.703125-34.730469 31.628906l-13.273438 141.558594zm0 0" fill="#fff"/><path d="m89.679688 290.363281-19.777344-5.484375c-3.035156-.839844-6.171875-1.269531-9.320313-1.269531h-.289062c-18.003907 0-33.050781 13.703125-34.730469 31.628906l-13.273438 141.558594h50l13.273438-141.554687c.960938-10.28125 6.328125-19.164063 14.117188-24.878907zm0 0" fill="#ebf0f3"/><path d="m137.621094 374.589844c0-26.035156-21.105469-47.144532-47.144532-47.144532h-66.058593l-12.128907 129.351563h125.332032zm0 0" fill="#066ae7"/><path d="m24.417969 327.445312-12.128907 129.351563h50l12.128907-129.351563zm0 0" fill="#045bba"/><path d="m250.257812 399.8125c-18.109374 0-32.789062 14.679688-32.789062 32.785156v24.199219h279.742188v-56.984375zm0 0" fill="#066ae7"/><path d="m5.078125 447.546875-5.0078125 49.265625c-.8242185 8.128906 5.5546875 15.1875 13.7265625 15.1875h51.453125c6.265625 0 11.742188-4.222656 13.339844-10.28125 1.59375-6.0625 7.070312-10.285156 13.335937-10.285156h53.988281c6.265626 0 11.742188 4.222656 13.339844 10.285156 1.59375 6.058594 7.070313 10.28125 13.335938 10.28125h325.617187c7.617188 0 13.792969-6.175781 13.792969-13.792969v-49.265625c0-7.617187-6.175781-13.792968-13.792969-13.792968h-479.40625c-7.078125 0-13.007812 5.359374-13.722656 12.398437zm0 0" fill="#0c99e6"/><path d="m50.070312 496.8125 5.007813-49.265625c.714844-7.039063 6.644531-12.398437 13.722656-12.398437h-50c-7.078125 0-13.007812 5.359374-13.722656 12.398437l-5.0078125 49.265625c-.8242185 8.128906 5.5546875 15.1875 13.7265625 15.1875h50c-8.171875 0-14.550781-7.058594-13.726563-15.1875zm0 0" fill="#066ae7"/><path d="m284 313.445312c0 7.734376-6.269531 14-14 14s-14-6.265624-14-14c0-7.730468 6.269531-14 14-14s14 6.269532 14 14zm0 0" fill="#b5ccf4"/><path d="m327.332031 328.445312c0 7.734376-6.265625 14-14 14-7.730469 0-14-6.265624-14-14 0-7.730468 6.269531-14 14-14 7.734375 0 14 6.269532 14 14zm0 0" fill="#b5ccf4"/><path d="m370.667969 348.445312c0 7.734376-6.269531 14-14 14-7.734375 0-14-6.265624-14-14 0-7.730468 6.265625-14 14-14 7.730469 0 14 6.269532 14 14zm0 0" fill="#b5ccf4"/><g fill="#066ae7"><path d="m228.734375 512h-30v-23.425781c0-8.285157 6.714844-15 15-15s15 6.714843 15 15zm0 0"/><path d="m288.734375 512h-30v-23.425781c0-8.285157 6.714844-15 15-15s15 6.714843 15 15zm0 0"/><path d="m348.734375 512h-30v-23.425781c0-8.285157 6.714844-15 15-15s15 6.714843 15 15zm0 0"/><path d="m408.734375 512h-30v-23.425781c0-8.285157 6.714844-15 15-15s15 6.714843 15 15zm0 0"/><path d="m468.734375 512h-30v-23.425781c0-8.285157 6.714844-15 15-15s15 6.714843 15 15zm0 0"/></g></svg>