<svg height="512pt" viewBox="0 0 512 512" width="512pt" xmlns="http://www.w3.org/2000/svg"><path d="m512 256c0 141.386719-114.613281 256-256 256s-256-114.613281-256-256 114.613281-256 256-256 256 114.613281 256 256zm0 0" fill="#94d400"/><path d="m355.929688 66.925781h-197.859376c-63.730468 0-115.394531 81.664063-115.394531 145.394531 0 50.421876 13.390625 144.257813 25.214844 217.296876 45.09375 48.832031 108.953125 80.070312 180.136719 82.246093v-226.703125c0-4.957031 4.019531-8.972656 8.972656-8.972656s8.972656 4.015625 8.972656 8.972656v226.628906c71.664063-2.746093 135.769532-34.941406 180.566406-84.839843 11.71875-72.640625 24.785157-164.820313 24.785157-214.628907 0-63.730468-51.664063-145.394531-115.394531-145.394531zm0 0" fill="#3e4a68"/><path d="m42.675781 212.320312c0 50.421876 13.390625 144.257813 25.214844 217.296876 17.042969 18.457031 36.765625 34.394531 58.554687 47.207031-12.675781-73.742188-33.097656-202.234375-33.097656-264.503907 0-63.730468 51.664063-145.394531 115.398438-145.394531h-50.675782c-63.730468 0-115.394531 81.664063-115.394531 145.394531zm0 0" fill="#303a59"/><path d="m430.640625 109.578125h-349.28125c-2.132813 0-3.859375-1.726563-3.859375-3.859375v-67.28125c0-2.132812 1.726562-3.859375 3.859375-3.859375h349.28125c2.132813 0 3.859375 1.726563 3.859375 3.859375v67.28125c0 2.132812-1.726562 3.859375-3.859375 3.859375zm0 0" fill="#ebf0f3"/><g fill="#c7d9ff"><path d="m133.078125 34.578125h22.351563v75h-22.351563zm0 0"/><path d="m177.777344 34.578125h22.351562v75h-22.351562zm0 0"/><path d="m311.871094 34.578125h22.351562v75h-22.351562zm0 0"/><path d="m356.570312 34.578125h22.351563v75h-22.351563zm0 0"/><path d="m401.269531 34.578125h22.347657v75h-22.347657zm0 0"/><path d="m121.320312 105.457031v-66.753906c0-2.277344 1.621094-4.125 3.613282-4.125h-43.820313c-1.996093 0-3.613281 1.847656-3.613281 4.125v66.753906c0 2.277344 1.617188 4.121094 3.613281 4.121094h43.820313c-1.996094 0-3.613282-1.84375-3.613282-4.121094zm0 0"/></g><path d="m452.035156 134.210938h-390.070312c-2.003906 0-3.632813-1.628907-3.632813-3.636719v-60.015625c0-2.007813 1.628907-3.632813 3.632813-3.632813h390.066406c2.007812 0 3.632812 1.625 3.632812 3.632813v60.015625c.003907 2.007812-1.625 3.636719-3.628906 3.636719zm0 0" fill="#fff"/><path d="m101.617188 130.511719v-59.886719c0-2.042969 1.597656-3.699219 3.566406-3.699219h-43.28125c-1.972656 0-3.570313 1.65625-3.570313 3.699219v59.886719c0 2.042969 1.597657 3.699219 3.570313 3.699219h43.28125c-1.96875 0-3.566406-1.65625-3.566406-3.699219zm0 0" fill="#ebf0f3"/><path d="m471.035156 204h-50.035156c-30.375 0-55 24.625-55 55v228.214844c30.722656-14.640625 58.0625-35.226563 80.542969-60.265625 11.714843-72.640625 24.78125-164.820313 24.78125-214.628907 0-2.742187-.101563-5.519531-.289063-8.320312zm0 0" fill="#303a59"/><path d="m93 204h-50.035156c-.1875 2.800781-.289063 5.578125-.289063 8.320312 0 50.421876 13.390625 144.257813 25.214844 217.296876 22.503906 24.367187 49.679687 44.351562 80.109375 58.53125v-229.148438c0-30.375-24.625-55-55-55zm0 0" fill="#303a59"/><path d="m42.964844 204c-.1875 2.800781-.289063 5.578125-.289063 8.320312 0 50.421876 13.390625 144.257813 25.214844 217.296876 16.847656 18.242187 36.3125 34.027343 57.804687 46.761718-12.679687-73.8125-33.019531-201.914062-33.019531-264.058594 0-2.742187.101563-5.519531.289063-8.320312zm0 0" fill="#232d47"/></svg>