<svg height="512pt" viewBox="0 0 512 512.00013" width="512pt" xmlns="http://www.w3.org/2000/svg"><path d="m512 256c0 141.386719-114.613281 256-256 256s-256-114.613281-256-256 114.613281-256 256-256 256 114.613281 256 256zm0 0" fill="#ff3345"/><path d="m144.144531 36.0625c7.105469 12.300781 2.875 28.09375-9.429687 35.199219-12.304688 7.101562-28.097656 2.871093-35.199219-9.433594-1.183594-2.046875-2.046875-4.195313-2.617187-6.382813-10.457032 8.308594-20.25 17.417969-29.289063 27.238282 18.117187 29.148437 56.21875 38.867187 86.160156 21.582031 30.554688-17.640625 41.023438-56.707031 23.382813-87.257813-.761719-1.320312-1.578125-2.585937-2.417969-3.828124-12.75 4.265624-25.050781 9.511718-36.824219 15.640624 2.449219 1.949219 4.578125 4.371094 6.234375 7.242188zm0 0" fill="#ffcf11"/><path d="m214.113281 105.976562-89.03125 51.402344c-2.359375 1.359375-5.371093.554688-6.730469-1.804687l-22.777343-39.449219c-1.363281-2.359375-.554688-5.371094 1.804687-6.730469l89.027344-51.402343c2.359375-1.363282 5.371094-.554688 6.734375 1.804687l22.777344 39.449219c1.359375 2.355468.550781 5.371094-1.804688 6.730468zm0 0" fill="#ff9e00"/><path d="m486.054688 398.261719-40.6875 4.957031c-4.625.566406-9.136719-1.6875-11.46875-5.722656l-27.621094-47.84375c-2.328125-4.035156-2.023438-9.066406.777344-12.792969l24.636718-32.757813c2.800782-3.722656 3.109375-8.757812.777344-12.789062l-75.960938-131.574219c-40.191406-69.613281-128.667968-95.761719-199.300781-57.398437-73.355469 39.847656-99.03125 132.035156-57.550781 203.878906 32.335938 56.011719 95.789062 82.847656 155.917969 71.296875 4.15625-.796875 8.421875.640625 11.148437 3.875l106.625 126.480469c3.628906 4.300781 9.820313 5.386718 14.691406 2.570312l118.148438-68.210937c5.558594-3.207031 7.460938-10.3125 4.253906-15.871094l-12.917968-22.375c-2.328126-4.035156-6.84375-6.289063-11.46875-5.722656zm0 0" fill="#ffe854"/><path d="m433.972656 472.871094-106.628906-126.480469c-2.726562-3.234375-6.992188-4.671875-11.144531-3.875-60.128907 11.550781-123.582031-15.285156-155.921875-71.296875-34.78125-60.242188-22.335938-134.785156 25.835937-180.78125-9.84375 2.867188-19.535156 6.8125-28.90625 11.902344-73.355469 39.84375-99.03125 132.035156-57.550781 203.878906 32.339844 56.011719 95.792969 82.847656 155.921875 71.296875 4.152344-.796875 8.417969.640625 11.144531 3.875l106.625 126.480469c3.628906 4.300781 9.820313 5.386718 14.691406 2.570312l60.621094-35c-4.871094 2.816406-11.0625 1.730469-14.6875-2.570312zm0 0" fill="#ffcf11"/><path d="m148.757812 283.523438c-30.367187-46.9375-13.578124-109.585938 36.1875-135.050782 42.613282-21.804687 95.675782-7.585937 121.675782 32.601563 30.363281 46.9375 13.578125 109.585937-36.1875 135.050781-42.613282 21.804688-95.675782 7.589844-121.675782-32.601562zm0 0" fill="#ffcf11"/><g fill="#ff9e00"><path d="m192.058594 258.523438c-24.695313-38.171876-18.199219-86.738282 11.855468-117.242188-6.464843 1.675781-12.824218 4.046875-18.96875 7.191406-49.765624 25.464844-66.550781 88.113282-36.1875 135.050782 26 40.1875 79.0625 54.40625 121.675782 32.601562 9.292968-4.753906 17.433594-10.804688 24.335937-17.808594-38.382812 9.953125-80.457031-5.394531-102.710937-39.792968zm0 0"/><path d="m167.839844 271.140625c-23.027344-35.589844-10.296875-83.097656 27.4375-102.40625 32.3125-16.535156 72.546875-5.753906 92.265625 24.722656 23.023437 35.589844 10.292969 83.09375-27.441407 102.40625-32.3125 16.535157-72.546874 5.753907-92.261718-24.722656zm0 0"/></g></svg>