<svg height="512pt" viewBox="0 0 512 512" width="512pt" xmlns="http://www.w3.org/2000/svg"><path d="m512 256c0 141.386719-114.613281 256-256 256s-256-114.613281-256-256 114.613281-256 256-256 256 114.613281 256 256zm0 0" fill="#0fe1c2"/><path d="m398.523438 211.832031h-284.265626c-4.144531 0-7.5-3.355469-7.5-7.5 0-4.140625 3.355469-7.5 7.5-7.5h284.265626c4.140624 0 7.5 3.359375 7.5 7.5 0 4.144531-3.359376 7.5-7.5 7.5zm0 0" fill="#c7d9ff"/><path d="m256 187c-51.554688 0-93.5-41.945312-93.5-93.5s41.945312-93.5 93.5-93.5 93.5 41.945312 93.5 93.5-41.945312 93.5-93.5 93.5zm0-172c-43.285156 0-78.5 35.214844-78.5 78.5s35.214844 78.5 78.5 78.5 78.5-35.214844 78.5-78.5-35.214844-78.5-78.5-78.5zm0 0" fill="#c7d9ff"/><path d="m363.484375 319.707031c-4.140625 0-7.5-3.355469-7.5-7.5v-197.222656c0-55.128906-44.851563-99.984375-99.984375-99.984375s-99.984375 44.855469-99.984375 99.984375v197.222656c0 4.144531-3.359375 7.5-7.5 7.5-4.144531 0-7.5-3.355469-7.5-7.5v-197.222656c0-63.402344 51.582031-114.984375 114.984375-114.984375s114.984375 51.582031 114.984375 114.984375v197.222656c0 4.144531-3.355469 7.5-7.5 7.5zm0 0" fill="#ebf0f3"/><path d="m179.960938 275.667969h-61.332032c-2.414062 0-4.371094-1.957031-4.371094-4.371094v-18.59375c0-2.414063 1.957032-4.367187 4.371094-4.367187h61.332032c2.414062 0 4.371093 1.953124 4.371093 4.367187v18.59375c0 2.414063-1.957031 4.371094-4.371093 4.371094zm0 0" fill="#ffe854"/><path d="m144.257812 271.296875v-18.59375c0-2.414063 1.957032-4.371094 4.371094-4.371094h-30c-2.414062 0-4.371094 1.957031-4.371094 4.371094v18.59375c0 2.414063 1.957032 4.367187 4.371094 4.367187h30c-2.414062.003907-4.371094-1.953124-4.371094-4.367187zm0 0" fill="#ffcf11"/><path d="m394.152344 275.667969h-61.332032c-2.414062 0-4.371093-1.957031-4.371093-4.371094v-18.59375c0-2.414063 1.957031-4.367187 4.371093-4.367187h61.332032c2.414062 0 4.371094 1.953124 4.371094 4.367187v18.59375c0 2.414063-1.957032 4.371094-4.371094 4.371094zm0 0" fill="#ffe854"/><path d="m358.449219 271.296875v-18.59375c0-2.414063 1.957031-4.371094 4.371093-4.371094h-30c-2.414062 0-4.371093 1.957031-4.371093 4.371094v18.59375c0 2.414063 1.957031 4.367187 4.371093 4.367187h30c-2.414062.003907-4.371093-1.953124-4.371093-4.367187zm0 0" fill="#ffcf11"/><path d="m187.65625 491.621094h-78.28125v-208.746094h78.28125zm0 0" fill="#303a59"/><path d="m109.375 282.875h41.75v208.746094h-41.75zm0 0" fill="#232d47"/><path d="m107.546875 303.75h81.9375c4.152344 0 7.519531-3.367188 7.519531-7.519531v-26.710938c0-4.152343-3.367187-7.519531-7.519531-7.519531h-81.9375c-4.152344 0-7.519531 3.367188-7.519531 7.519531v26.710938c0 4.152343 3.367187 7.519531 7.519531 7.519531zm0 0" fill="#3e4a68"/><path d="m141.777344 296.230469v-26.710938c0-4.152343 3.363281-7.519531 7.519531-7.519531h-41.75c-4.15625 0-7.519531 3.367188-7.519531 7.519531v26.710938c0 4.152343 3.363281 7.519531 7.519531 7.519531h41.75c-4.152344 0-7.519531-3.367188-7.519531-7.519531zm0 0" fill="#303a59"/><path d="m107.546875 512h81.9375c4.152344 0 7.519531-3.367188 7.519531-7.519531v-26.710938c0-4.152343-3.367187-7.519531-7.519531-7.519531h-81.9375c-4.152344 0-7.519531 3.367188-7.519531 7.519531v26.710938c0 4.152343 3.367187 7.519531 7.519531 7.519531zm0 0" fill="#3e4a68"/><path d="m141.777344 504.480469v-26.710938c0-4.152343 3.363281-7.519531 7.519531-7.519531h-41.75c-4.15625 0-7.519531 3.367188-7.519531 7.519531v26.710938c0 4.152343 3.363281 7.519531 7.519531 7.519531h41.75c-4.152344 0-7.519531-3.367188-7.519531-7.519531zm0 0" fill="#303a59"/><path d="m187.65625 371.59375h-78.28125v-31.3125h78.28125zm0 0" fill="#232d47"/><path d="m187.65625 434.21875h-78.28125v-31.3125h78.28125zm0 0" fill="#232d47"/><path d="m402.625 491.621094h-78.28125v-208.746094h78.28125zm0 0" fill="#303a59"/><path d="m324.34375 282.875h41.75v208.746094h-41.75zm0 0" fill="#232d47"/><path d="m322.515625 303.75h81.9375c4.152344 0 7.519531-3.367188 7.519531-7.519531v-26.710938c0-4.152343-3.367187-7.519531-7.519531-7.519531h-81.9375c-4.152344 0-7.519531 3.367188-7.519531 7.519531v26.710938c0 4.152343 3.367187 7.519531 7.519531 7.519531zm0 0" fill="#3e4a68"/><path d="m356.746094 296.230469v-26.710938c0-4.152343 3.367187-7.519531 7.519531-7.519531h-41.75c-4.152344 0-7.519531 3.367188-7.519531 7.519531v26.710938c0 4.152343 3.367187 7.519531 7.519531 7.519531h41.75c-4.152344 0-7.519531-3.367188-7.519531-7.519531zm0 0" fill="#303a59"/><path d="m322.515625 512h81.9375c4.152344 0 7.519531-3.367188 7.519531-7.519531v-26.710938c0-4.152343-3.367187-7.519531-7.519531-7.519531h-81.9375c-4.152344 0-7.519531 3.367188-7.519531 7.519531v26.710938c0 4.152343 3.367187 7.519531 7.519531 7.519531zm0 0" fill="#3e4a68"/><path d="m356.746094 504.480469v-26.710938c0-4.152343 3.367187-7.519531 7.519531-7.519531h-41.75c-4.152344 0-7.519531 3.367188-7.519531 7.519531v26.710938c0 4.152343 3.367187 7.519531 7.519531 7.519531h41.75c-4.152344 0-7.519531-3.367188-7.519531-7.519531zm0 0" fill="#303a59"/><g fill="#232d47"><path d="m402.625 371.59375h-78.28125v-31.3125h78.28125zm0 0"/><path d="m402.625 434.21875h-78.28125v-31.3125h78.28125zm0 0"/></g></svg>