<svg height="512pt" viewBox="0 0 512 512" width="512pt" xmlns="http://www.w3.org/2000/svg"><path d="m512 256c0 141.386719-114.613281 256-256 256s-256-114.613281-256-256 114.613281-256 256-256 256 114.613281 256 256zm0 0" fill="#303a59"/><path d="m379.320312 18.75v461.640625c-4.898437 2.699219-9.910156 5.25-15 7.621094v-469.261719c0-2.070312-1.671874-3.75-3.742187-3.75h-67.339844c-2.066406 0-3.738281 1.679688-3.738281 3.75v42.679688h-15v-42.679688c0-7.46875 4.359375-13.910156 10.671875-16.921875.109375-.046875.21875-.097656.328125-.148437 2.351562-1.078126 4.980469-1.679688 7.738281-1.679688h67.339844c10.351563 0 18.742187 8.390625 18.742187 18.75zm0 0" fill="#fff"/><path d="m292.132812 93.929688h-20.28125c-2.683593 0-4.859374-2.175782-4.859374-4.859376v-50.285156c0-2.679687 2.175781-4.855468 4.859374-4.855468h20.28125c2.683594 0 4.859376 2.175781 4.859376 4.855468v50.285156c0 2.683594-2.175782 4.859376-4.859376 4.859376zm0 0" fill="#fff"/><path d="m332.78125 73.640625v418.648437c0 3.082032-.703125 5.992188-1.960938 8.589844-23.671874 7.230469-48.789062 11.121094-74.820312 11.121094-68.851562 0-131.351562-27.179688-177.359375-71.390625-13.410156-12.898437-25.429687-27.238281-35.789063-42.78125v-324.1875c0-10.890625 8.828126-19.710937 19.707032-19.710937h250.511718c10.890626 0 19.710938 8.820312 19.710938 19.710937zm0 0" fill="#0c99e6"/><path d="m98.351562 53.929688c-10.082031 0-18.382812 7.550781-19.5625 17.320312-.097656.78125-.148437 1.578125-.148437 2.390625v366.96875c-13.410156-12.898437-25.429687-27.238281-35.789063-42.78125v-324.1875c0-10.890625 8.828126-19.710937 19.707032-19.710937zm0 0" fill="#066ae7"/><path d="m78.640625 224.1875v-127.066406c0-4.089844 3.316406-7.40625 7.40625-7.40625h203.542969c4.085937 0 7.402344 3.316406 7.402344 7.40625v127.066406c0 4.089844-3.316407 7.40625-7.402344 7.40625h-203.542969c-4.089844 0-7.40625-3.316406-7.40625-7.40625zm0 0" fill="#66fade"/><path d="m114.429688 224.1875v-127.066406c0-4.089844 3.3125-7.40625 7.402343-7.40625h-35.785156c-4.089844 0-7.40625 3.316406-7.40625 7.40625v127.066406c0 4.089844 3.316406 7.40625 7.40625 7.40625h35.785156c-4.089843 0-7.402343-3.316406-7.402343-7.40625zm0 0" fill="#0fe1c2"/><path d="m296.992188 374.984375c0 60.117187-48.734376 108.847656-108.847657 108.847656-60.117187 0-108.847656-48.730469-108.847656-108.847656 0-60.113281 48.730469-108.847656 108.847656-108.847656 60.113281 0 108.847657 48.734375 108.847657 108.847656zm0 0" fill="#fff"/><path d="m115.082031 374.984375c0-54.019531 39.355469-98.839844 90.953125-107.375-5.820312-.964844-11.796875-1.472656-17.890625-1.472656-60.117187 0-108.847656 48.734375-108.847656 108.847656 0 60.117187 48.730469 108.847656 108.847656 108.847656 6.09375 0 12.070313-.507812 17.890625-1.472656-51.597656-8.535156-90.953125-53.355469-90.953125-107.375zm0 0" fill="#ebf0f3"/><path d="m236.605469 374.984375c0 26.765625-21.695313 48.460937-48.460938 48.460937s-48.460937-21.695312-48.460937-48.460937c0-26.761719 21.695312-48.460937 48.460937-48.460937s48.460938 21.699218 48.460938 48.460937zm0 0" fill="#0c99e6"/><path d="m175.46875 374.984375c0-20.441406 12.664062-37.914063 30.566406-45.035156-5.535156-2.203125-11.570312-3.425781-17.890625-3.425781-26.765625 0-48.460937 21.699218-48.460937 48.460937 0 26.765625 21.695312 48.460937 48.460937 48.460937 6.320313 0 12.355469-1.222656 17.890625-3.425781-17.902344-7.121093-30.566406-24.59375-30.566406-45.035156zm0 0" fill="#066ae7"/><path d="m241.105469 107.003906-77.390625 8.230469c-.308594.03125-.542969.292969-.542969.605469v60.546875c-2.765625-1.433594-5.902344-2.25-9.230469-2.25-11.09375 0-20.085937 8.996093-20.085937 20.085937 0 11.09375 8.992187 20.085938 20.085937 20.085938s20.085938-8.992188 20.085938-20.085938v-47.074218c0-.3125.234375-.574219.542968-.605469l55.675782-5.921875c.359375-.039063.675781.242187.675781.605468v24.953126c-2.765625-1.433594-5.902344-2.246094-9.230469-2.246094-11.09375 0-20.085937 8.992187-20.085937 20.085937s8.992187 20.085938 20.085937 20.085938 20.085938-8.992188 20.085938-20.085938v-76.410156c0-.363281-.3125-.644531-.671875-.605469zm0 0" fill="#0fe1c2"/><path d="m419.460938 256h19.851562v-37.902344h-19.851562c-2.472657 0-4.480469 2.003906-4.480469 4.476563v28.945312c0 2.476563 2.007812 4.480469 4.480469 4.480469zm0 0" fill="#ebf0f3"/><path d="m469.144531 397.816406v-179.714844c0-4-3.238281-7.242187-7.230469-7.242187h-27.539062c-3.988281 0-7.230469 3.242187-7.230469 7.242187v34.660157c0 13.308593 10.792969 24.097656 24.101563 24.097656.800781 0 1.519531.320313 2.050781.851563.527344.527343.847656 1.25.847656 2.050781v138.328125c5.324219-6.5 10.328125-13.265625 15-20.273438zm0 0" fill="#fff"/><path d="m393.460938 326h19.851562v-37.902344h-19.851562c-2.472657 0-4.480469 2.003906-4.480469 4.476563v28.945312c0 2.476563 2.007812 4.480469 4.480469 4.480469zm0 0" fill="#ebf0f3"/><path d="m443.148438 430.652344v-142.554688c0-3.996094-3.238282-7.234375-7.234376-7.234375h-27.535156c-3.992187 0-7.230468 3.238281-7.230468 7.234375v34.664063c0 13.3125 10.789062 24.101562 24.101562 24.101562 1.601562 0 2.898438 1.296875 2.898438 2.898438v95.71875c5.203124-4.734375 10.199218-9.6875 15-14.828125zm0 0" fill="#fff"/></svg>