<svg height="512pt" viewBox="0 0 512 512" width="512pt" xmlns="http://www.w3.org/2000/svg"><path d="m512 256c0 141.386719-114.613281 256-256 256s-256-114.613281-256-256 114.613281-256 256-256 256 114.613281 256 256zm0 0" fill="#ffcf11"/><path d="m359.800781 58.144531-106.59375 106.59375c-4.539062 4.539063-11.902343 4.539063-16.445312 0-4.539063-4.542969-4.539063-11.90625 0-16.445312l106.59375-106.59375c4.539062-4.539063 11.902343-4.539063 16.445312 0 4.539063 4.542969 4.539063 11.90625 0 16.445312zm0 0" fill="#ebf0f3"/><path d="m383.035156 97.589844h-254.070312c-3.746094 0-6.78125 3.035156-6.78125 6.78125v32.953125c0 3.746093 3.035156 6.78125 6.78125 6.78125h254.070312c3.746094 0 6.78125-3.035157 6.78125-6.78125v-32.953125c0-3.746094-3.035156-6.78125-6.78125-6.78125zm0 0" fill="#fff"/><path d="m162.183594 137.324219v-32.953125c0-3.746094 3.035156-6.78125 6.78125-6.78125h-40c-3.746094 0-6.78125 3.035156-6.78125 6.78125v32.953125c0 3.746093 3.035156 6.78125 6.78125 6.78125h40c-3.746094 0-6.78125-3.035157-6.78125-6.78125zm0 0" fill="#ebf0f3"/><path d="m395.800781 124.492188c-.921875-2.207032-3.082031-3.644532-5.472656-3.644532h-268.65625c-2.390625 0-4.550781 1.4375-5.472656 3.644532l-23.746094 56.910156c-.304687.726562-.457031 1.5-.457031 2.285156v268.867188c44.417968 37.105468 101.601562 59.445312 164.003906 59.445312s119.585938-22.339844 164.003906-59.441406v-268.871094c0-.785156-.152344-1.558594-.457031-2.285156zm0 0" fill="#ff3345"/><path d="m419.546875 181.402344-23.746094-56.910156c-.921875-2.207032-3.082031-3.644532-5.472656-3.644532h-268.65625c-2.390625 0-4.550781 1.4375-5.472656 3.644532l-23.746094 56.914062c-.148437.351562-.261719.71875-.335937 1.09375-.082032.390625-.121094.789062-.121094 1.1875v268.871094c12.394531 10.351562 25.78125 19.550781 40 27.4375.011718-58.902344.042968-256.6875.101562-292.058594.003906-3.003906 2.445313-5.433594 5.453125-5.433594h282.332031c-.074218-.378906-.1875-.746094-.335937-1.101562zm0 0" fill="#e32828"/><path d="m303.753906 220.921875-62.292968-.066406c-2.316407 0-4.375 1.472656-5.121094 3.664062l-35.730469 105.183594c-.535156 1.574219.632813 3.207031 2.296875 3.210937l37.335938.035157c1.667968.003906 2.835937 1.648437 2.289062 3.226562l-34.257812 98.738281c-.917969 2.636719 2.609374 4.480469 4.253906 2.226563l98.519531-135.125c1.167969-1.605469.023437-3.855469-1.960937-3.859375l-37.570313-.039062c-1.820313 0-2.992187-1.933594-2.148437-3.550782l36.539062-70.09375c.84375-1.617187-.328125-3.550781-2.152344-3.550781zm0 0" fill="#ffcf11"/><path d="m144.144531 409.710938h-52.148437v-160.421876h52.148437c7.652344 0 13.855469 6.203126 13.855469 13.855469v132.710938c0 7.652343-6.203125 13.855469-13.855469 13.855469zm0 0" fill="#fff"/><path d="m91.996094 249.289062h40v160.421876h-40zm0 0" fill="#ebf0f3"/><path d="m420.003906 409.710938h-52.148437c-7.652344 0-13.855469-6.203126-13.855469-13.855469v-132.710938c0-7.652343 6.203125-13.855469 13.855469-13.855469h52.148437zm0 0" fill="#fff"/><g fill="#ebf0f3"><path d="m135.574219 300.25h-43.578125v-20h43.578125c5.523437 0 10 4.476562 10 10s-4.476563 10-10 10zm0 0"/><path d="m135.574219 379.066406h-43.578125v-20h43.578125c5.523437 0 10 4.476563 10 10 0 5.523438-4.476563 10-10 10zm0 0"/><path d="m135.574219 339.5h-43.578125v-20h43.578125c5.523437 0 10 4.476562 10 10s-4.476563 10-10 10zm0 0"/><path d="m376.425781 359.066406h43.578125v20h-43.578125c-5.523437 0-10-4.476562-10-10 0-5.523437 4.476563-10 10-10zm0 0"/><path d="m376.425781 280.25h43.578125v20h-43.578125c-5.523437 0-10-4.476562-10-10s4.476563-10 10-10zm0 0"/><path d="m376.425781 319.816406h43.578125v20h-43.578125c-5.523437 0-10-4.476562-10-10 0-5.523437 4.476563-10 10-10zm0 0"/></g></svg>