<svg height="512pt" viewBox="0 0 512 512" width="512pt" xmlns="http://www.w3.org/2000/svg"><path d="m512 256c0 141.386719-114.613281 256-256 256s-256-114.613281-256-256 114.613281-256 256-256 256 114.613281 256 256zm0 0" fill="#94d400"/><path d="m466.292969 205c-4.144531 0-7.5 3.359375-7.5 7.5v82.082031c0 58.296875-24.78125 110.902344-64.347657 147.871094 21.304688-28.636719 33.929688-64.097656 33.929688-102.453125 0-94.839844-77.160156-172-172-172-94.84375 0-172 77.160156-172 172 0 38.355469 12.621094 73.8125 33.925781 102.449219-39.566406-36.96875-64.34375-89.574219-64.34375-147.867188v-82.558593c0-4.144532-3.359375-7.5-7.5-7.5-4.144531 0-7.5 3.355468-7.5 7.5v82.558593c0 58.074219 22.613281 112.671875 63.679688 153.738281 41.0625 41.066407 95.664062 63.679688 153.738281 63.679688s112.671875-22.613281 153.738281-63.679688c41.0625-41.066406 63.679688-95.664062 63.679688-153.738281v-82.082031c0-4.140625-3.355469-7.5-7.5-7.5zm-213.023438 291.960938c-65.007812-1.652344-117.382812-55.050782-117.382812-120.449219 0-66.4375 54.050781-120.484375 120.488281-120.484375 66.433594 0 120.484375 54.046875 120.484375 120.484375 0 65.398437-52.375 118.796875-117.378906 120.449219-1.035157.019531-2.070313.039062-3.105469.039062-1.039062 0-2.074219-.019531-3.105469-.039062zm3.105469-313.960938c86.570312 0 157 70.429688 157 157 0 39.941406-15.003906 76.441406-39.65625 104.179688 11.535156-19.921876 18.144531-43.035157 18.144531-67.667969 0-74.707031-60.78125-135.484375-135.488281-135.484375s-135.488281 60.777344-135.488281 135.484375c0 24.632812 6.609375 47.746093 18.144531 67.667969-24.65625-27.738282-39.65625-64.238282-39.65625-104.179688 0-86.570312 70.429688-157 157-157zm0 0" fill="#fff"/><path d="m83.957031 220h-75v-200h75zm0 0" fill="#e32828"/><path d="m8.957031 20h40v200h-40zm0 0" fill="#aa1e1e"/><path d="m7.203125 40h78.503906c3.980469 0 7.203125-3.226562 7.203125-7.203125v-25.59375c0-3.976563-3.222656-7.203125-7.203125-7.203125h-78.503906c-3.976563 0-7.203125 3.226562-7.203125 7.203125v25.59375c0 3.976563 3.226562 7.203125 7.203125 7.203125zm0 0" fill="#ff3345"/><path d="m40 32.796875v-25.59375c0-3.976563 3.226562-7.203125 7.203125-7.203125h-40c-3.976563 0-7.203125 3.226562-7.203125 7.203125v25.59375c0 3.976563 3.226562 7.203125 7.203125 7.203125h40c-3.976563 0-7.203125-3.226562-7.203125-7.203125zm0 0" fill="#e32828"/><path d="m7.203125 239.523438h78.503906c3.980469 0 7.203125-3.226563 7.203125-7.203126v-25.59375c0-3.980468-3.222656-7.203124-7.203125-7.203124h-78.503906c-3.976563 0-7.203125 3.222656-7.203125 7.203124v25.59375c0 3.976563 3.226562 7.203126 7.203125 7.203126zm0 0" fill="#ff3345"/><path d="m40 232.320312v-25.59375c0-3.980468 3.226562-7.203124 7.203125-7.203124h-40c-3.976563 0-7.203125 3.222656-7.203125 7.203124v25.59375c0 3.976563 3.226562 7.203126 7.203125 7.203126h40c-3.976563 0-7.203125-3.226563-7.203125-7.203126zm0 0" fill="#e32828"/><path d="m83.957031 105h-75v-30h75zm0 0" fill="#aa1e1e"/><path d="m83.957031 165h-75v-30h75zm0 0" fill="#aa1e1e"/><path d="m503.042969 220h-75v-200h75zm0 0" fill="#e32828"/><path d="m428.042969 20h40v200h-40zm0 0" fill="#aa1e1e"/><path d="m426.292969 40h78.503906c3.976563 0 7.203125-3.226562 7.203125-7.203125v-25.59375c0-3.976563-3.226562-7.203125-7.203125-7.203125h-78.503906c-3.980469 0-7.203125 3.226562-7.203125 7.203125v25.59375c0 3.976563 3.222656 7.203125 7.203125 7.203125zm0 0" fill="#ff3345"/><path d="m459.089844 32.796875v-25.59375c0-3.976563 3.222656-7.203125 7.203125-7.203125h-40c-3.980469 0-7.203125 3.226562-7.203125 7.203125v25.59375c0 3.976563 3.222656 7.203125 7.203125 7.203125h40c-3.980469 0-7.203125-3.226562-7.203125-7.203125zm0 0" fill="#e32828"/><path d="m426.292969 239.523438h78.503906c3.976563 0 7.203125-3.226563 7.203125-7.203126v-25.59375c0-3.980468-3.226562-7.203124-7.203125-7.203124h-78.503906c-3.980469 0-7.203125 3.222656-7.203125 7.203124v25.59375c0 3.976563 3.222656 7.203126 7.203125 7.203126zm0 0" fill="#ff3345"/><path d="m459.089844 232.320312v-25.59375c0-3.980468 3.222656-7.203124 7.203125-7.203124h-40c-3.980469 0-7.203125 3.222656-7.203125 7.203124v25.59375c0 3.976563 3.222656 7.203126 7.203125 7.203126h40c-3.980469 0-7.203125-3.226563-7.203125-7.203126zm0 0" fill="#e32828"/><g fill="#aa1e1e"><path d="m503.042969 105h-75v-30h75zm0 0"/><path d="m503.042969 165h-75v-30h75zm0 0"/></g></svg>