<svg height="512pt" viewBox="0 0 512 512" width="512pt" xmlns="http://www.w3.org/2000/svg"><path d="m512 256c0 141.386719-114.613281 256-256 256s-256-114.613281-256-256 114.613281-256 256-256 256 114.613281 256 256zm0 0" fill="#94d400"/><path d="m414.878906 512h-141.601562c-9.542969 0-17.277344-7.734375-17.277344-17.277344v-294.808594c0-9.539062 7.734375-17.277343 17.277344-17.277343h141.601562c9.542969 0 17.277344 7.734375 17.277344 17.277343v294.808594c0 9.542969-7.734375 17.277344-17.277344 17.277344zm0 0" fill="#ff3345"/><path d="m296 494.722656v-294.808594c0-9.539062 7.734375-17.277343 17.277344-17.277343h-40c-9.542969 0-17.277344 7.734375-17.277344 17.277343v294.808594c0 9.542969 7.734375 17.277344 17.277344 17.277344h40c-9.542969 0-17.277344-7.734375-17.277344-17.277344zm0 0" fill="#e32828"/><path d="m378.222656 191.378906c-3.753906 1.753906-8.214844.128906-9.964844-3.625l-23.316406-50c-1.75-3.753906-.125-8.214844 3.628906-9.96875 3.753907-1.75 8.214844-.125 9.96875 3.628906l23.3125 50c1.75 3.753907.125 8.214844-3.628906 9.964844zm0 0" fill="#fff"/><path d="m310.09375 191.378906c3.753906 1.753906 8.214844.128906 9.964844-3.625l23.316406-50c1.75-3.753906.125-8.214844-3.628906-9.96875-3.753906-1.75-8.214844-.125-9.96875 3.628906l-23.3125 50c-1.75 3.753907-.125 8.214844 3.628906 9.964844zm0 0" fill="#fff"/><g fill="#ebf0f3"><path d="m344.078125 25.289062c-13.648437 0-24.710937 11.0625-24.710937 24.710938s11.0625 24.710938 24.710937 24.710938 24.710937-11.0625 24.710937-24.710938-11.0625-24.710938-24.710937-24.710938zm0 34.421876c-5.355469 0-9.710937-4.355469-9.710937-9.710938s4.355468-9.710938 9.710937-9.710938 9.710937 4.355469 9.710937 9.710938-4.355468 9.710938-9.710937 9.710938zm0 0"/><path d="m382.554688 177.621094c-13.648438 0-24.710938 11.066406-24.710938 24.714844 0 13.644531 11.0625 24.710937 24.710938 24.710937 13.648437 0 24.714843-11.066406 24.714843-24.710937 0-13.648438-11.066406-24.714844-24.714843-24.714844zm0 34.425781c-5.355469 0-9.710938-4.359375-9.710938-9.714844s4.355469-9.710937 9.710938-9.710937c5.355468 0 9.714843 4.355468 9.714843 9.710937s-4.359375 9.714844-9.714843 9.714844zm0 0"/><path d="m305.761719 177.621094c-13.648438 0-24.710938 11.066406-24.710938 24.714844 0 13.644531 11.0625 24.710937 24.710938 24.710937 13.648437 0 24.710937-11.066406 24.710937-24.710937 0-13.648438-11.0625-24.714844-24.710937-24.714844zm0 34.425781c-5.355469 0-9.710938-4.359375-9.710938-9.714844s4.355469-9.710937 9.710938-9.710937 9.710937 4.355468 9.710937 9.710937-4.355468 9.714844-9.710937 9.714844zm0 0"/></g><path d="m344.078125 124.5c-4.140625 0-7.5-3.359375-7.5-7.5v-55.167969c0-4.140625 3.359375-7.5 7.5-7.5 4.144531 0 7.5 3.359375 7.5 7.5v55.167969c0 4.140625-3.355469 7.5-7.5 7.5zm0 0" fill="#fff"/><path d="m344.078125 99.789062c-13.648437 0-24.710937 11.0625-24.710937 24.710938s11.0625 24.710938 24.710937 24.710938 24.710937-11.0625 24.710937-24.710938-11.0625-24.710938-24.710937-24.710938zm0 0" fill="#ebf0f3"/><path d="m306.246094 264c-16.753906 0-30.332032-13.582031-30.332032-30.332031v-23.5c0-4.328125 3.507813-7.832031 7.832032-7.832031h45c4.324218 0 7.832031 3.503906 7.832031 7.832031v23.5c0 16.75-13.582031 30.332031-30.332031 30.332031zm0 0" fill="#e32828"/><path d="m382.554688 264c-16.75 0-30.332032-13.582031-30.332032-30.332031v-23.5c0-4.328125 3.507813-7.832031 7.832032-7.832031h45c4.328124 0 7.835937 3.503906 7.835937 7.832031v23.5c0 16.75-13.582031 30.332031-30.335937 30.332031zm0 0" fill="#e32828"/><path d="m154 5.5 44.5 44.5-44.5 44.5-44.5-44.5zm0 0" fill="#232d47"/><path d="m154 24.171875v466.699219c-8.589844-3.742188-16.929688-7.929688-25-12.550782-8.660156-4.960937-17.011719-10.410156-25-16.320312v-437.828125zm0 0" fill="#303a59"/><path d="m129 24.171875v454.148437c-8.660156-4.960937-17.011719-10.410156-25-16.320312v-437.828125zm0 0" fill="#232d47"/><path d="m433.167969 50h-376c-4.878907 0-8.832031-3.953125-8.832031-8.832031v-32.335938c-.003907-4.878906 3.953124-8.832031 8.832031-8.832031h376c4.878906 0 8.832031 3.953125 8.832031 8.832031v32.332031c0 4.882813-3.953125 8.835938-8.832031 8.835938zm0 0" fill="#3e4a68"/><path d="m48.332031 41.167969c0 4.878906 3.957031 8.832031 8.832031 8.832031h376c4.878907 0 8.835938-3.953125 8.835938-8.832031v-16.167969h-393.667969zm0 0" fill="#303a59"/></svg>