<svg height="512pt" viewBox="0 0 512 512" width="512pt" xmlns="http://www.w3.org/2000/svg"><path d="m512 256c0 141.386719-114.613281 256-256 256s-256-114.613281-256-256 114.613281-256 256-256 256 114.613281 256 256zm0 0" fill="#0c99e6"/><path d="m130.332031 132.671875h34.351563v172.394531h-34.351563zm0 0" fill="#ebf0f3"/><path d="m130.332031 132.671875h16.621094v172.394531h-16.621094zm0 0" fill="#c7d9ff"/><path d="m396.359375 353.175781h-34.347656l66.601562-252.222656h34.351563zm0 0" fill="#ebf0f3"/><path d="m428.613281 100.953125-66.601562 252.222656h19.464843l66.601563-252.222656zm0 0" fill="#c7d9ff"/><path d="m462.453125 407.367188c-3.46875-33.707032-24.753906-63.332032-56.234375-77.152344l-133.007812-58.398438c-15.886719-6.976562-33.050782-10.578125-50.40625-10.578125h-75.296876c-61.691406 0-112.976562 44.558594-123.429687 103.246094 40.832031 87.148437 129.320313 147.515625 231.921875 147.515625 84.746094 0 159.863281-41.191406 206.453125-104.632812zm0 0" fill="#3e4a68"/><path d="m24.074219 364.484375c11.875 25.335937 27.761719 48.417969 46.871093 68.402344-5.6875-14.316407-8.816406-29.925781-8.816406-46.269531 0-69.246094 56.132813-125.378907 125.378906-125.378907h-40c-61.691406 0-112.976562 44.558594-123.433593 103.246094zm0 0" fill="#303a59"/><path d="m147.507812 288.105469c-54.40625 0-98.511718 44.105469-98.511718 98.511719 0 8.261718 1.023437 16.285156 2.9375 23.953124 23.617187 31.132813 54.195312 56.691407 89.417968 74.367188 2.039063.125 4.089844.195312 6.15625.195312 54.410157 0 98.515626-44.105468 98.515626-98.515624 0-54.40625-44.109376-98.511719-98.515626-98.511719zm0 0" fill="#94d400"/><path d="m218.328125 386.617188c0 39.113281-31.707031 70.820312-70.820313 70.820312-39.113281 0-70.820312-31.707031-70.820312-70.820312 0-39.109376 31.707031-70.816407 70.820312-70.816407 39.113282 0 70.820313 31.707031 70.820313 70.816407zm0 0" fill="#3e4a68"/><path d="m408.402344 413.484375c0 24.277344-19.675782 43.957031-43.953125 43.957031-24.273438 0-43.953125-19.679687-43.953125-43.957031 0-24.273437 19.679687-43.953125 43.953125-43.953125 24.277343 0 43.953125 19.679688 43.953125 43.953125zm0 0" fill="#94d400"/><path d="m351.703125 413.484375c0-18.777344 11.78125-34.796875 28.351563-41.089844-4.851563-1.84375-10.109376-2.863281-15.605469-2.863281-24.273438 0-43.953125 19.679688-43.953125 43.953125 0 24.277344 19.679687 43.957031 43.953125 43.957031 5.496093 0 10.753906-1.019531 15.605469-2.863281-16.570313-6.292969-28.351563-22.3125-28.351563-41.09375zm0 0" fill="#85ae11"/><path d="m229.542969 456.507812-75.960938-75.960937-12.144531 12.144531 80.957031 80.960938c.761719.757812 1.789063 1.1875 2.863281 1.1875l32.171876.023437c4.742187.003907 8.589843-3.839843 8.589843-8.582031s-3.84375-8.585938-8.585937-8.585938h-25.023438c-1.074218 0-2.105468-.425781-2.867187-1.1875zm0 0" fill="#c7d9ff"/><path d="m180.953125 386.617188c0 18.472656-14.972656 33.445312-33.445313 33.445312-18.46875 0-33.441406-14.972656-33.441406-33.445312 0-18.46875 14.972656-33.441407 33.441406-33.441407 18.472657 0 33.445313 14.972657 33.445313 33.441407zm0 0" fill="#fff"/><path d="m144.066406 386.617188c0-13.074219 7.507813-24.386719 18.441406-29.886719-4.511718-2.269531-9.605468-3.554688-15-3.554688-18.46875 0-33.441406 14.972657-33.441406 33.445313 0 18.46875 14.972656 33.441406 33.441406 33.441406 5.394532 0 10.488282-1.285156 15-3.550781-10.933593-5.503907-18.441406-16.816407-18.441406-29.894531zm0 0" fill="#ebf0f3"/><path d="m477.765625 118.683594h-70.824219c-2.574218 0-4.664062-2.089844-4.664062-4.664063v-26.167969c0-2.578124 2.089844-4.664062 4.664062-4.664062h70.824219c2.574219 0 4.664063 2.089844 4.664063 4.664062v26.164063c0 2.578125-2.089844 4.667969-4.664063 4.667969zm0 0" fill="#94d400"/><path d="m442.277344 114.015625v-26.164063c0-2.578124 2.089844-4.664062 4.664062-4.664062h-40c-2.574218 0-4.664062 2.085938-4.664062 4.664062v26.164063c0 2.578125 2.089844 4.667969 4.664062 4.667969h40c-2.574218 0-4.664062-2.089844-4.664062-4.667969zm0 0" fill="#85ae11"/><path d="m455.519531 5.160156v61.441406l-139.289062 16.238282c-4.582031.535156-8.035157 4.414062-8.035157 9.027344 0 5.015624 4.066407 9.085937 9.085938 9.085937h167.429688c2.851562 0 5.160156-2.3125 5.160156-5.164063v-90.628906c0-2.847656-2.308594-5.160156-5.160156-5.160156h-24.027344c-2.851563 0-5.164063 2.3125-5.164063 5.160156zm0 0" fill="#3e4a68"/><path d="m169.796875 166.515625h-44.574219c-2.078125 0-3.761718-1.683594-3.761718-3.757813v-27.976562c0-2.074219 1.683593-3.757812 3.761718-3.757812h44.574219c2.078125 0 3.761719 1.683593 3.761719 3.757812v27.976562c0 2.074219-1.683594 3.757813-3.761719 3.757813zm0 0" fill="#94d400"/><path d="m151.460938 162.753906v-27.972656c0-2.078125 1.683593-3.761719 3.757812-3.761719h-30c-2.074219 0-3.757812 1.683594-3.757812 3.761719v27.972656c0 2.078125 1.683593 3.761719 3.757812 3.761719h30c-2.074219 0-3.757812-1.683594-3.757812-3.761719zm0 0" fill="#85ae11"/><path d="m209.195312 148.769531h-105.417968c-3.003906 0-5.4375-2.433593-5.4375-5.441406v-34.804687c0-12.058594 9.773437-21.832032 21.832031-21.832032h16.792969c1.816406 0 3.628906.226563 5.390625.675782l72.230469 18.410156c9.671874 2.464844 16.441406 11.175781 16.441406 21.160156 0 12.054688-9.773438 21.832031-21.832032 21.832031zm0 0" fill="#3e4a68"/><path d="m138.339844 143.328125v-34.804687c0-8.328126 4.664062-15.5625 11.519531-19.246094l-7.5-1.910156c-1.761719-.449219-3.574219-.679688-5.394531-.679688h-16.789063c-12.058593 0-21.835937 9.777344-21.835937 21.835938v34.804687c0 3.003906 2.4375 5.441406 5.441406 5.441406h40c-3.007812 0-5.441406-2.433593-5.441406-5.441406zm0 0" fill="#303a59"/></svg>