<svg height="512pt" viewBox="0 0 512 512" width="512pt" xmlns="http://www.w3.org/2000/svg"><path d="m512 256c0 141.386719-114.613281 256-256 256s-256-114.613281-256-256 114.613281-256 256-256 256 114.613281 256 256zm0 0" fill="#3e4a68"/><path d="m248.429688 263.570312c-22.441407-22.441406-22.441407-58.828124 0-81.269531l125.710937-125.710937c22.441406-22.441406 58.828125-22.441406 81.269531 0s22.441406 58.828125 0 81.269531l-125.710937 125.710937c-22.441407 22.441407-58.828125 22.441407-81.269531 0zm0 0" fill="#fff"/><path d="m271.652344 205.519531 125.707031-125.710937c18.410156-18.40625 46.195313-21.710938 67.976563-9.921875-2.582032-4.777344-5.890626-9.261719-9.925782-13.296875-22.441406-22.441406-58.824218-22.441406-81.269531 0l-125.710937 125.710937c-22.441407 22.441407-22.441407 58.828125 0 81.269531 4.035156 4.035157 8.523437 7.339844 13.296874 9.921876-11.789062-21.777344-8.484374-49.566407 9.925782-67.972657zm0 0" fill="#ebf0f3"/><path d="m455.410156 56.589844c-22.441406-22.441406-58.828125-22.441406-81.269531 0l-62.855469 62.855468 81.269532 81.269532 62.855468-62.855469c22.445313-22.441406 22.445313-58.828125 0-81.269531zm0 0" fill="#0c99e6"/><path d="m465.335938 69.886719c-2.582032-4.777344-5.890626-9.261719-9.925782-13.296875-22.441406-22.441406-58.824218-22.441406-81.269531 0l-62.855469 62.855468 23.222656 23.21875 62.851563-62.855468c18.410156-18.40625 46.195313-21.710938 67.976563-9.921875zm0 0" fill="#066ae7"/><path d="m236.375 275.625c-22.441406-22.441406-58.828125-22.441406-81.273438 0l-116.148437 116.152344c20.59375 32.84375 48.425781 60.679687 81.273437 81.269531l116.148438-116.148437c22.441406-22.445313 22.441406-58.832032 0-81.273438zm0 0" fill="#fff"/><path d="m236.375 275.625c-22.441406-22.441406-58.828125-22.441406-81.273438 0l-116.148437 116.152344c5.910156 9.421875 12.398437 18.445312 19.449219 26.992187l119.921875-119.921875c18.40625-18.410156 46.191406-21.714844 67.972656-9.925781-2.582031-4.773437-5.886719-9.261719-9.921875-13.296875zm0 0" fill="#ebf0f3"/><path d="m38.953125 391.777344c20.59375 32.84375 48.425781 60.679687 81.273437 81.269531l53.292969-53.292969-81.273437-81.273437zm0 0" fill="#ffcf11"/><path d="m58.402344 418.769531 57.066406-57.066406-23.222656-23.222656-53.292969 53.296875c5.910156 9.421875 12.398437 18.445312 19.449219 26.992187zm0 0" fill="#ff9e00"/><path d="m445.820312 262.390625c-22.441406-22.441406-58.828124-22.441406-81.269531 0l-125.710937 125.710937c-22.441406 22.441407-22.441406 58.828126 0 81.269532 22.441406 22.445312 58.828125 22.445312 81.269531 0l125.710937-125.707032c22.441407-22.445312 22.441407-58.828124 0-81.273437zm0 0" fill="#fff"/><path d="m387.769531 285.613281-125.710937 125.707031c-18.40625 18.410157-21.710938 46.195313-9.921875 67.976563-4.773438-2.582031-9.261719-5.890625-13.296875-9.925781-22.441406-22.441406-22.441406-58.824219 0-81.269532l125.710937-125.710937c22.441407-22.441406 58.828125-22.441406 81.269531 0 4.035157 4.035156 7.339844 8.523437 9.925782 13.296875-21.78125-11.789062-49.570313-8.484375-67.976563 9.925781zm0 0" fill="#ebf0f3"/><path d="m238.839844 469.371094c-22.441406-22.441406-22.441406-58.824219 0-81.269532l62.855468-62.855468 81.269532 81.273437-62.855469 62.851563c-22.441406 22.445312-58.828125 22.445312-81.269531 0zm0 0" fill="#ff3345"/><path d="m252.136719 479.296875c-4.777344-2.582031-9.261719-5.890625-13.296875-9.925781-22.441406-22.441406-22.441406-58.824219 0-81.269532l62.855468-62.855468 23.21875 23.222656-62.855468 62.851562c-18.40625 18.410157-21.710938 46.195313-9.921875 67.976563zm0 0" fill="#e32828"/><path d="m249.609375 66.179688c-22.445313-22.441407-58.828125-22.441407-81.273437 0l-125.707032 125.710937c-22.445312 22.441406-22.445312 58.828125 0 81.269531 22.441406 22.441406 58.824219 22.441406 81.269532 0l125.710937-125.710937c22.441406-22.441407 22.441406-58.828125 0-81.269531zm0 0" fill="#fff"/><path d="m191.558594 89.398438-125.710938 125.710937c-18.40625 18.40625-21.714844 46.195313-9.925781 67.976563-4.773437-2.585938-9.261719-5.890626-13.292969-9.925782-22.445312-22.441406-22.445312-58.828125 0-81.269531l125.707032-125.710937c22.441406-22.441407 58.828124-22.441407 81.273437 0 4.035156 4.035156 7.339844 8.523437 9.921875 13.296874-21.777344-11.789062-49.566406-8.484374-67.972656 9.921876zm0 0" fill="#ebf0f3"/><path d="m42.628906 273.160156c-22.445312-22.441406-22.445312-58.828125 0-81.269531l62.851563-62.855469 81.273437 81.269532-62.855468 62.855468c-22.441407 22.441406-58.828126 22.441406-81.269532 0zm0 0" fill="#8c4cd1"/><path d="m55.921875 283.085938c-4.773437-2.585938-9.261719-5.890626-13.292969-9.925782-22.445312-22.441406-22.445312-58.828125 0-81.269531l62.851563-62.855469 23.222656 23.21875-62.855469 62.855469c-18.40625 18.410156-21.710937 46.195313-9.925781 67.976563zm0 0" fill="#6e35b8"/></svg>