<svg height="512pt" viewBox="0 0 512 512" width="512pt" xmlns="http://www.w3.org/2000/svg"><path d="m512 256c0 141.386719-114.613281 256-256 256s-256-114.613281-256-256 114.613281-256 256-256 256 114.613281 256 256zm0 0" fill="#0fe1c2"/><path d="m476.148438 361.851562v52.507813h-421.296876c-6.582031-8.347656-12.660156-17.121094-18.171874-26.257813-5.101563-8.441406-9.71875-17.203124-13.828126-26.25zm0 0" fill="#3e4a68"/><path d="m462.117188 388.101562h-149.265626v-42.175781c0-16.457031 13.34375-29.800781 29.800782-29.800781h119.464844zm0 0" fill="#ff3345"/><path d="m382.652344 316.125h-40c-16.457032 0-29.800782 13.34375-29.800782 29.800781v42.179688h40v-42.179688c0-16.457031 13.34375-29.800781 29.800782-29.800781zm0 0" fill="#e32828"/><path d="m500.480469 424.011719-4.539063 16.597656-5.402344 19.769531c-.910156 3.320313-3.929687 5.621094-7.367187 5.621094h-373.613281c-10.957032-7.660156-21.296875-16.148438-30.917969-25.390625-8.511719-8.1875-16.46875-16.960937-23.789063-26.25h438.257813c5.039063 0 8.699219 4.789063 7.371094 9.652344zm0 0" fill="#b5ccf4"/><path d="m512 392.660156v39.070313c0 4.910156-3.96875 8.878906-8.878906 8.878906h-424.480469c-8.511719-8.1875-16.46875-16.960937-23.789063-26.25-6.582031-8.347656-12.660156-17.121094-18.171874-26.257813h420.582031c2.167969 0 3.519531-2.332031 2.449219-4.210937l-12.609376-22.039063-152.75-266.910156h49.878907l148.300781 259.136719 17.207031 30.070313c1.480469 2.589843 2.261719 5.523437 2.261719 8.511718zm0 0" fill="#ebf0f3"/><path d="m512 405.480469v26.25c0 4.910156-3.96875 8.878906-8.878906 8.878906h-424.480469c-8.511719-8.1875-16.46875-16.960937-23.789063-26.25h448.269532c4.910156 0 8.878906-3.980469 8.878906-8.878906zm0 0" fill="#c7d9ff"/><path d="m457.265625 388.101562h25.1875c2.164063 0 3.519531-2.335937 2.445313-4.210937l-165.359376-288.949219h-25.191406l165.359375 288.949219c1.074219 1.875-.28125 4.210937-2.441406 4.210937zm0 0" fill="#c7d9ff"/><path d="m375.839844 114.632812h-94.722656c-5.742188 0-10.394532-4.65625-10.394532-10.398437v-18.585937c0-5.742188 4.652344-10.394532 10.394532-10.394532h94.722656c5.742187 0 10.394531 4.652344 10.394531 10.394532v18.589843c0 5.738281-4.652344 10.394531-10.394531 10.394531zm0 0" fill="#ff3345"/><path d="m310.722656 104.238281v-18.589843c0-5.742188 4.652344-10.394532 10.394532-10.394532h-40c-5.742188 0-10.394532 4.652344-10.394532 10.394532v18.589843c0 5.738281 4.652344 10.394531 10.394532 10.394531h40c-5.742188 0-10.394532-4.65625-10.394532-10.394531zm0 0" fill="#e32828"/><path d="m473.59375 0h-52.011719c-2.5625 0-4.800781 1.738281-5.429687 4.226562l-12.386719 48.769532c-.589844 2.328125-2.597656 4.023437-4.992187 4.210937l-220.351563 17.304688c-5.324219.417969-9.433594 4.859375-9.433594 10.199219 0 5.652343 4.582031 10.230468 10.234375 10.230468h238.613282c2.5625 0 4.800781-1.738281 5.429687-4.222656l19.117187-75.285156c.628907-2.484375 2.867188-4.222656 5.429688-4.222656h25.78125c3.09375 0 5.605469-2.511719 5.605469-5.605469-.003907-3.097657-2.511719-5.605469-5.605469-5.605469zm0 0" fill="#3e4a68"/></svg>