<svg height="512pt" viewBox="0 0 512 512" width="512pt" xmlns="http://www.w3.org/2000/svg"><path d="m512 256c0 141.386719-114.613281 256-256 256s-256-114.613281-256-256 114.613281-256 256-256 256 114.613281 256 256zm0 0" fill="#ff3345"/><path d="m137.339844 29.121094v265.945312h30v-279.289062c-10.332032 3.816406-20.347656 8.285156-30 13.34375zm0 0" fill="#ebf0f3"/><path d="m137.339844 29.121094v265.945312h15v-273.191406c-5.09375 2.257812-10.09375 4.675781-15 7.246094zm0 0" fill="#c7d9ff"/><path d="m152.339844 277.324219c-62.042969 0-112.339844 50.292969-112.339844 112.335937 0 62.042969 50.296875 112.339844 112.339844 112.339844 62.042968 0 112.335937-50.296875 112.335937-112.339844 0-62.042968-50.292969-112.335937-112.335937-112.335937zm0 194.675781c-45.402344 0-82.339844-36.9375-82.339844-82.339844s36.9375-82.335937 82.339844-82.335937c45.398437 0 82.335937 36.9375 82.335937 82.335937 0 45.402344-36.9375 82.339844-82.335937 82.339844zm0 0" fill="#ff9e00"/><path d="m122.675781 280v31.214844c0 3.3125 3.210938 5.703125 6.367188 4.703125 7.355469-2.332031 15.179687-3.59375 23.296875-3.59375 8.113281 0 15.941406 1.261719 23.296875 3.59375 3.152343 1 6.363281-1.390625 6.363281-4.703125v-31.214844c0-2.308594-1.601562-4.304688-3.855469-4.8125-8.304687-1.875-16.941406-2.863281-25.804687-2.863281-8.863282 0-17.5.988281-25.804688 2.863281-2.253906.507812-3.859375 2.503906-3.859375 4.8125zm0 0" fill="#fff"/><path d="m344.660156 15.777344v279.289062h30v-265.945312c-9.652344-5.058594-19.667968-9.527344-30-13.34375zm0 0" fill="#ebf0f3"/><path d="m344.660156 15.777344v279.289062h15v-273.191406c-4.921875-2.183594-9.917968-4.222656-15-6.097656zm0 0" fill="#c7d9ff"/><path d="m359.660156 277.324219c-62.042968 0-112.335937 50.292969-112.335937 112.335937 0 62.042969 50.292969 112.339844 112.335937 112.339844 62.042969 0 112.339844-50.296875 112.339844-112.339844 0-62.042968-50.296875-112.335937-112.339844-112.335937zm0 194.675781c-45.398437 0-82.335937-36.9375-82.335937-82.339844 0-45.398437 36.9375-82.335937 82.335937-82.335937 45.402344 0 82.339844 36.9375 82.339844 82.335937 0 45.402344-36.9375 82.339844-82.339844 82.339844zm0 0" fill="#ffcf11"/><path d="m330 280v31.214844c0 3.3125 3.210938 5.703125 6.367188 4.703125 7.351562-2.332031 15.179687-3.59375 23.292968-3.59375 8.117188 0 15.941406 1.261719 23.296875 3.59375 3.15625 1 6.367188-1.390625 6.367188-4.703125v-31.214844c0-2.308594-1.601563-4.304688-3.855469-4.8125-8.304688-1.875-16.941406-2.863281-25.804688-2.863281-8.863281 0-17.5.988281-25.808593 2.863281-2.253907.507812-3.855469 2.503906-3.855469 4.8125zm0 0" fill="#fff"/></svg>