<svg height="512pt" viewBox="0 0 512 512" width="512pt" xmlns="http://www.w3.org/2000/svg"><path d="m512 256c0 141.386719-114.613281 256-256 256s-256-114.613281-256-256 114.613281-256 256-256 256 114.613281 256 256zm0 0" fill="#0c99e6"/><path d="m323.542969 79.378906h-40.976563c-6.277344 0-11.363281 5.085938-11.363281 11.363282v68.015624h63.703125v-68.015624c0-6.273438-5.085938-11.363282-11.363281-11.363282zm0 0" fill="#ff9e00"/><path d="m328.476562 191.183594-57.273437 54.714844v-126.832032h63.703125v57.082032c0 5.679687-2.320312 11.113281-6.429688 15.035156zm0 0" fill="#232d47"/><path d="m291.691406 0h-214.347656c-6.277344 0-11.363281 5.089844-11.363281 11.363281v68.015625h237.074219v-68.015625c0-6.273437-5.085938-11.363281-11.363282-11.363281zm0 0" fill="#ffcf11"/><path d="m119.679688 0h-42.335938c-6.277344 0-11.363281 5.089844-11.363281 11.363281v68.015625h42.332031v-68.015625c0-6.273437 5.089844-11.363281 11.367188-11.363281zm0 0" fill="#ff9e00"/><path d="m303.054688 285.585938h-189.953126l-43.765624-112.882813c-2.21875-5.71875-3.355469-11.800781-3.355469-17.9375v-115.078125h237.074219zm0 0" fill="#303a59"/><g fill="#232d47"><path d="m108.3125 154.769531v-115.082031h-42.335938v115.078125c0 6.136719 1.140626 12.214844 3.355469 17.9375l43.769531 112.882813h42.332032l-43.765625-112.882813c-2.21875-5.71875-3.355469-11.800781-3.355469-17.933594zm0 0"/><path d="m187.566406 129.980469c-23.492187 0-42.535156 19.042969-42.535156 42.535156v113.070313h85.070312v-113.070313c0-23.492187-19.042968-42.535156-42.535156-42.535156zm0 0"/><path d="m72.074219 325.277344h230.980469c3.367187 0 6.097656-2.730469 6.097656-6.097656v-67.183594c0-3.367188-2.730469-6.097656-6.097656-6.097656h-230.980469c-3.367188 0-6.097657 2.730468-6.097657 6.097656v67.183594c0 3.367187 2.730469 6.097656 6.097657 6.097656zm0 0"/></g><path d="m140.441406 325.277344h162.613282c3.371093 0 6.097656-2.730469 6.097656-6.097656v-67.183594c0-3.367188-2.726563-6.097656-6.097656-6.097656h-162.613282c-21.917968 0-39.6875 17.765624-39.6875 39.6875 0 21.921874 17.769532 39.691406 39.6875 39.691406zm0 0" fill="#3e4a68"/><path d="m143.089844 285.585938c0-21.917969 17.769531-39.6875 39.6875-39.6875h-42.335938c-21.917968 0-39.6875 17.769531-39.6875 39.6875 0 21.921874 17.769532 39.691406 39.6875 39.691406h42.335938c-21.917969 0-39.6875-17.769532-39.6875-39.691406zm0 0" fill="#303a59"/><path d="m224.355469 95.253906h-73.582031c-3.171876 0-5.746094-2.570312-5.746094-5.746094v-20.261718c0-3.171875 2.574218-5.742188 5.746094-5.742188h73.582031c3.171875 0 5.746093 2.570313 5.746093 5.742188v20.261718c0 3.175782-2.570312 5.746094-5.746093 5.746094zm0 0" fill="#fff"/><path d="m180.578125 89.507812v-20.261718c0-3.171875 2.574219-5.742188 5.746094-5.742188h-35.546875c-3.175782 0-5.746094 2.570313-5.746094 5.742188v20.261718c0 3.171876 2.570312 5.746094 5.746094 5.746094h35.546875c-3.171875 0-5.746094-2.570312-5.746094-5.746094zm0 0" fill="#ebf0f3"/><path d="m188.457031 266.101562h40.976563c6.277344 0 11.363281 5.089844 11.363281 11.367188v68.011719h-63.703125v-68.011719c0-6.277344 5.085938-11.367188 11.363281-11.367188zm0 0" fill="#ff9e00"/><path d="m183.523438 377.90625 57.273437 54.714844v-126.832032h-63.703125v57.082032c0 5.679687 2.320312 11.113281 6.429688 15.035156zm0 0" fill="#232d47"/><path d="m220.308594 186.722656h214.347656c6.277344 0 11.367188 5.089844 11.367188 11.367188v68.011718h-237.078126v-68.011718c0-6.277344 5.085938-11.367188 11.363282-11.367188zm0 0" fill="#ffcf11"/><path d="m255.859375 186.722656h-35.550781c-6.277344 0-11.363282 5.089844-11.363282 11.367188v68.011718h35.546876v-68.011718c0-6.277344 5.089843-11.367188 11.367187-11.367188zm0 0" fill="#ff9e00"/><path d="m400.949219 467.019531 41.71875-107.59375c2.214843-5.71875 3.355469-11.800781 3.355469-17.933593v-115.078126h-237.078126v245.898438h184.007813c2.703125-1.714844 5.367187-3.484375 7.996094-5.292969zm0 0" fill="#303a59"/><path d="m208.945312 226.414062h35.546876v245.898438h-35.546876zm0 0" fill="#232d47"/><path d="m324.433594 316.703125c23.492187 0 42.535156 19.042969 42.535156 42.535156v113.070313h-85.070312v-113.070313c0-23.492187 19.042968-42.535156 42.535156-42.535156zm0 0" fill="#232d47"/><path d="m441.183594 432.753906c-.40625-.085937-.828125-.132812-1.257813-.132812h-230.980469c-3.367187 0-6.097656 2.730468-6.097656 6.097656v67.183594c0 .191406.011719.378906.027344.5625 17.140625 3.617187 34.90625 5.535156 53.125 5.535156 72.835938 0 138.566406-30.421875 185.183594-79.246094zm0 0" fill="#232d47"/><path d="m371.558594 432.621094h-162.613282c-3.367187 0-6.097656 2.730468-6.097656 6.097656v67.183594c0 .191406.011719.378906.027344.5625 17.140625 3.617187 34.90625 5.535156 53.125 5.535156 57.613281 0 110.777344-19.035156 153.558594-51.15625-4.921875-16.328125-20.070313-28.222656-38-28.222656zm0 0" fill="#3e4a68"/><path d="m244.492188 432.621094h-35.546876c-3.367187 0-6.097656 2.730468-6.097656 6.097656v67.183594c0 .191406.011719.375.027344.5625 12.863281 2.714844 26.082031 4.472656 39.578125 5.179687-2.359375-.839843-4.058594-3.089843-4.058594-5.742187v-67.183594c0-3.367188 2.730469-6.097656 6.097657-6.097656zm0 0" fill="#303a59"/><path d="m287.644531 281.976562h73.582031c3.171876 0 5.746094-2.570312 5.746094-5.746093v-20.257813c0-3.171875-2.574218-5.746094-5.746094-5.746094h-73.582031c-3.171875 0-5.746093 2.570313-5.746093 5.746094v20.257813c0 3.175781 2.570312 5.746093 5.746093 5.746093zm0 0" fill="#fff"/><path d="m317.445312 276.230469v-20.257813c0-3.171875 2.574219-5.746094 5.746094-5.746094h-35.546875c-3.171875 0-5.746093 2.570313-5.746093 5.746094v20.257813c0 3.175781 2.570312 5.746093 5.746093 5.746093h35.546875c-3.171875 0-5.746094-2.570312-5.746094-5.746093zm0 0" fill="#ebf0f3"/></svg>