<svg height="512pt" viewBox="0 0 512 512" width="512pt" xmlns="http://www.w3.org/2000/svg"><path d="m512 256c0 141.386719-114.613281 256-256 256s-256-114.613281-256-256 114.613281-256 256-256 256 114.613281 256 256zm0 0" fill="#ff3345"/><path d="m0 256c0 12.738281.945312 25.257812 2.742188 37.5h506.515624c1.796876-12.242188 2.742188-24.761719 2.742188-37.5s-.945312-25.257812-2.742188-37.5h-506.515624c-1.796876 12.242188-2.742188 24.761719-2.742188 37.5zm0 0" fill="#fff"/><path d="m.121094 263.5c.292968 10.160156 1.179687 20.171875 2.621094 30h506.515624c1.445313-9.828125 2.328126-19.839844 2.625-30zm0 0" fill="#ebf0f3"/><path d="m431.136719 324.078125h-350.273438c-6.195312 0-11.214843-5.023437-11.214843-11.214844v-113.726562c0-6.191407 5.019531-11.214844 11.214843-11.214844h350.273438c6.195312 0 11.214843 5.023437 11.214843 11.214844v113.726562c0 6.191407-5.019531 11.214844-11.214843 11.214844zm0 0" fill="#ffcf11"/><path d="m431.136719 284.078125h-350.273438c-6.195312 0-11.214843-5.023437-11.214843-11.214844v40c0 6.191407 5.019531 11.214844 11.214843 11.214844h350.273438c6.195312 0 11.214843-5.023437 11.214843-11.214844v-40c0 6.191407-5.019531 11.214844-11.214843 11.214844zm0 0" fill="#ff9e00"/><path d="m160.382812 32.851562h191.234376v446.296876h-191.234376zm0 0" fill="#232d47"/><path d="m413.171875 32.128906v425.949219c-22.742187 17.722656-48.5625 31.683594-76.511719 40.953125-9.929687 3.296875-20.128906 6-30.558594 8.070312-9.5625-5.3125-16.03125-15.523437-16.03125-27.230468v-447.742188c0-11.707031 6.46875-21.917968 16.03125-27.230468 4.46875-2.488282 9.617188-3.898438 15.097657-3.898438h60.839843c17.191407 0 31.132813 13.941406 31.132813 31.128906zm0 0" fill="#3e4a68"/><path d="m221.929688 32.128906v447.742188c0 11.707031-6.46875 21.917968-16.03125 27.230468-23.609376-4.691406-46.039063-12.621093-66.820313-23.3125-14.25-7.320312-27.71875-15.9375-40.25-25.710937v-425.949219c0-17.1875 13.941406-31.128906 31.132813-31.128906h60.839843c5.480469 0 10.628907 1.410156 15.097657 3.898438 9.5625 5.3125 16.03125 15.523437 16.03125 27.230468zm0 0" fill="#3e4a68"/><g fill="#303a59"><path d="m169.960938 1c-15.859376 0-28.949219 11.871094-30.882813 27.210938-.167969 1.277343-.25 2.589843-.25 3.917968v447.742188c0 1.328125.082031 2.640625.25 3.917968-14.25-7.320312-27.71875-15.9375-40.25-25.710937v-425.949219c0-17.1875 13.941406-31.128906 31.132813-31.128906zm0 0"/><path d="m98.835938 41.386719h66.625c7.011718 0 12.691406 5.679687 12.691406 12.691406 0 7.007813-5.683594 12.691406-12.691406 12.691406h-66.625zm0 0"/><path d="m98.835938 81.769531h66.625c7.011718 0 12.691406 5.683594 12.691406 12.691407 0 7.011718-5.683594 12.691406-12.691406 12.691406h-66.625zm0 0"/><path d="m98.835938 122.152344h66.625c7.011718 0 12.691406 5.683594 12.691406 12.695312 0 7.007813-5.683594 12.691406-12.691406 12.691406h-66.625zm0 0"/><path d="m98.835938 162.539062h66.625c7.011718 0 12.691406 5.683594 12.691406 12.691407 0 7.007812-5.683594 12.691406-12.691406 12.691406h-66.625zm0 0"/><path d="m98.835938 202.921875h66.625c7.011718 0 12.691406 5.683594 12.691406 12.691406 0 7.011719-5.683594 12.695313-12.691406 12.695313h-66.625zm0 0"/><path d="m98.835938 243.308594h66.625c7.011718 0 12.691406 5.683594 12.691406 12.691406 0 7.011719-5.683594 12.691406-12.691406 12.691406h-66.625zm0 0"/><path d="m98.835938 283.691406h66.625c7.011718 0 12.691406 5.683594 12.691406 12.691406 0 7.011719-5.683594 12.691407-12.691406 12.691407h-66.625zm0 0"/><path d="m98.835938 324.078125h66.625c7.011718 0 12.691406 5.683594 12.691406 12.691406 0 7.007813-5.683594 12.691407-12.691406 12.691407h-66.625zm0 0"/><path d="m98.835938 364.460938h66.625c7.011718 0 12.691406 5.683593 12.691406 12.691406 0 7.011718-5.683594 12.695312-12.691406 12.695312h-66.625zm0 0"/><path d="m98.835938 404.847656h66.625c7.011718 0 12.691406 5.679688 12.691406 12.691406 0 7.007813-5.683594 12.691407-12.691406 12.691407h-66.625zm0 0"/><path d="m178.148438 457.921875c0 3.5-1.417969 6.679687-3.71875 8.976563-2.289063 2.300781-5.46875 3.722656-8.96875 3.722656h-49.0625c-6.027344-3.941406-11.898438-8.121094-17.570313-12.542969v-12.847656h66.632813c7.007812 0 12.6875 5.679687 12.6875 12.691406zm0 0"/><path d="m361.199219 1c-9.960938 0-18.839844 4.679688-24.539063 11.96875-4.121094 5.28125-6.589844 11.941406-6.589844 19.160156v447.742188c0 7.21875 2.46875 13.878906 6.589844 19.160156-9.929687 3.296875-20.128906 6-30.558594 8.070312-9.5625-5.3125-16.03125-15.523437-16.03125-27.230468v-447.742188c0-11.707031 6.46875-21.917968 16.03125-27.230468 4.46875-2.488282 9.617188-3.898438 15.097657-3.898438zm0 0"/><path d="m290.074219 41.386719h66.625c7.011719 0 12.691406 5.679687 12.691406 12.691406 0 7.007813-5.679687 12.691406-12.691406 12.691406h-66.625zm0 0"/><path d="m290.074219 81.769531h66.625c7.011719 0 12.691406 5.683594 12.691406 12.691407 0 7.011718-5.679687 12.691406-12.691406 12.691406h-66.625zm0 0"/><path d="m290.074219 122.152344h66.625c7.011719 0 12.691406 5.683594 12.691406 12.695312 0 7.007813-5.679687 12.691406-12.691406 12.691406h-66.625zm0 0"/><path d="m290.074219 162.539062h66.625c7.011719 0 12.691406 5.683594 12.691406 12.691407 0 7.007812-5.679687 12.691406-12.691406 12.691406h-66.625zm0 0"/><path d="m290.074219 202.921875h66.625c7.011719 0 12.691406 5.683594 12.691406 12.691406 0 7.011719-5.679687 12.695313-12.691406 12.695313h-66.625zm0 0"/><path d="m290.074219 243.308594h66.625c7.011719 0 12.691406 5.683594 12.691406 12.691406 0 7.011719-5.679687 12.691406-12.691406 12.691406h-66.625zm0 0"/><path d="m290.074219 283.691406h66.625c7.011719 0 12.691406 5.683594 12.691406 12.691406 0 7.011719-5.679687 12.691407-12.691406 12.691407h-66.625zm0 0"/><path d="m290.074219 324.078125h66.625c7.011719 0 12.691406 5.683594 12.691406 12.691406 0 7.007813-5.679687 12.691407-12.691406 12.691407h-66.625zm0 0"/><path d="m290.074219 364.460938h66.625c7.011719 0 12.691406 5.683593 12.691406 12.691406 0 7.011718-5.679687 12.695312-12.691406 12.695312h-66.625zm0 0"/><path d="m290.074219 404.847656h66.625c7.011719 0 12.691406 5.679688 12.691406 12.691406 0 7.007813-5.679687 12.691407-12.691406 12.691407h-66.625zm0 0"/><path d="m290.074219 445.230469h66.625c7.011719 0 12.691406 5.683593 12.691406 12.691406 0 7.011719-5.679687 12.691406-12.691406 12.691406h-66.625zm0 0"/></g></svg>