<svg height="512pt" viewBox="0 0 512 512" width="512pt" xmlns="http://www.w3.org/2000/svg"><path d="m512 256c0 141.386719-114.613281 256-256 256s-256-114.613281-256-256 114.613281-256 256-256 256 114.613281 256 256zm0 0" fill="#ffcf11"/><path d="m512 255.539062v248.191407c0 4.570312-3.699219 8.269531-8.269531 8.269531h-103c-4.558594 0-8.269531-3.699219-8.269531-8.269531v-100.152344c0-5.738281-2.300782-11.226563-6.402344-15.25l-15.75-15.429687c-3.988282-3.910157-9.359375-6.097657-14.949219-6.097657h-330.199219c-4.5-9.359375-8.449218-19.039062-11.808594-29-6.363281-18.859375-10.570312-38.699219-12.371093-59.230469-.652344-7.441406-.980469-14.960937-.980469-22.570312v-.460938zm0 0" fill="#3e4a68"/><path d="m40 256c0-.152344.007812-.304688.007812-.460938h-40.007812v.460938c0 7.609375.328125 15.128906.980469 22.570312 1.800781 20.53125 6.007812 40.371094 12.371093 59.230469 3.359376 9.960938 7.308594 19.640625 11.808594 29h39.996094c-16.121094-33.527343-25.15625-71.109375-25.15625-110.800781zm0 0" fill="#303a59"/><path d="m512 226.539062v111.261719h-498.648438c-6.363281-18.859375-10.570312-38.699219-12.371093-59.230469-.652344-7.441406-.980469-14.960937-.980469-22.570312v-.460938c.0195312-9.808593.589844-19.480468 1.679688-29zm0 0" fill="#ebf0f3"/><path d="m512 226.539062h-510.320312c-1.089844 9.519532-1.6601568 19.191407-1.679688 29v.460938c0 7.609375.328125 15.128906.980469 22.570312.441406 5.042969 1.035156 10.042969 1.761719 15h288.589843l1.433594 3.996094c2.847656 8.078125 10.519531 13.503906 19.09375 13.503906h43.609375c8.929688 0 16.921875-5.976562 19.4375-14.53125l9.621094-32.640624h62.148437l9.625 32.640624c2.519531 8.554688 10.515625 14.53125 19.4375 14.53125h36.261719zm0 0" fill="#c7d9ff"/><path d="m40 256c0-9.964844.589844-19.792969 1.695312-29.460938h-40.015624c-1.089844 9.519532-1.6601568 19.191407-1.679688 29v.460938c0 7.609375.328125 15.128906.980469 22.570312 1.800781 20.53125 6.007812 40.371094 12.371093 59.230469h40c-8.65625-25.6875-13.351562-53.195312-13.351562-81.800781zm0 0" fill="#c7d9ff"/><path d="m512 168.929688v127.140624h-36.261719c-2.339843 0-4.386719-1.53125-5.046875-3.769531l-9.953125-33.730469c-.316406-1.082031-.757812-2.101562-1.316406-3.03125-2.382813-4.039062-6.761719-6.640624-11.613281-6.640624h-64.417969c-4.851563 0-9.230469 2.601562-11.609375 6.640624-.5625.929688-1 1.949219-1.320312 3.03125l-9.941407 33.730469c-.660156 2.238281-2.71875 3.769531-5.050781 3.769531h-43.609375c-2.21875 0-4.210937-1.390624-4.949219-3.492187l-3.769531-10.519531c-.742187-2.089844-2.730469-3.488282-4.949219-3.488282h-297.210937c-.652344-7.441406-.980469-14.960937-.980469-22.570312v-.460938c.0195312-9.808593.589844-19.480468 1.679688-29 2.789062-24.390624 9.011718-47.730468 18.171874-69.539062h480.21875c6.589844 0 11.929688 5.339844 11.929688 11.929688zm0 0" fill="#0c99e6"/><g fill="#066ae7"><path d="m81 217.785156c-4.140625 0-7.5-3.355468-7.5-7.5v-53.28125h15v53.28125c0 4.144532-3.359375 7.5-7.5 7.5zm0 0"/><path d="m111 217.785156c-4.140625 0-7.5-3.355468-7.5-7.5v-53.28125h15v53.28125c0 4.144532-3.359375 7.5-7.5 7.5zm0 0"/><path d="m141 217.785156c-4.140625 0-7.5-3.355468-7.5-7.5v-53.28125h15v53.28125c0 4.144532-3.359375 7.5-7.5 7.5zm0 0"/><path d="m171 217.785156c-4.140625 0-7.5-3.355468-7.5-7.5v-53.28125h15v53.28125c0 4.144532-3.359375 7.5-7.5 7.5zm0 0"/><path d="m201 217.785156c-4.140625 0-7.5-3.355468-7.5-7.5v-53.28125h15v53.28125c0 4.144532-3.359375 7.5-7.5 7.5zm0 0"/><path d="m311 217.785156c-4.140625 0-7.5-3.355468-7.5-7.5v-53.28125h15v53.28125c0 4.144532-3.359375 7.5-7.5 7.5zm0 0"/><path d="m341 217.785156c-4.140625 0-7.5-3.355468-7.5-7.5v-53.28125h15v53.28125c0 4.144532-3.359375 7.5-7.5 7.5zm0 0"/><path d="m371 217.785156c-4.140625 0-7.5-3.355468-7.5-7.5v-53.28125h15v53.28125c0 4.144532-3.359375 7.5-7.5 7.5zm0 0"/><path d="m401 217.785156c-4.140625 0-7.5-3.355468-7.5-7.5v-53.28125h15v53.28125c0 4.144532-3.359375 7.5-7.5 7.5zm0 0"/><path d="m431 217.785156c-4.140625 0-7.5-3.355468-7.5-7.5v-53.28125h15v53.28125c0 4.144532-3.359375 7.5-7.5 7.5zm0 0"/><path d="m40 256c0-35.097656 7.070312-68.546875 19.855469-99h-40.003907c-9.160156 21.808594-15.382812 45.148438-18.171874 69.539062-1.089844 9.519532-1.6601568 19.191407-1.679688 29v.460938c0 7.609375.328125 15.128906.980469 22.570312h40.023437c-.652344-7.4375-1.003906-14.964843-1.003906-22.570312zm0 0"/></g></svg>