<svg height="511pt" viewBox="0 0 511.99966 511" width="511pt" xmlns="http://www.w3.org/2000/svg"><path d="m511.996094 256.410156c0 141.332032-114.574219 255.90625-255.90625 255.90625-141.335938 0-255.910156-114.574218-255.910156-255.90625 0-141.335937 114.574218-255.910156 255.910156-255.910156 141.332031 0 255.90625 114.574219 255.90625 255.910156zm0 0" fill="#303a59"/><path d="m202.324219 63.960938h171.710937v79.789062h-171.710937zm0 0" fill="#85ae11"/><path d="m294.246094 127.417969h-12.132813c-4.378906 0-7.933593-3.550781-7.933593-7.933594v-111.050781c0-4.382813 3.554687-7.933594 7.933593-7.933594h12.132813c4.378906 0 7.929687 3.550781 7.929687 7.933594v111.050781c0 4.382813-3.550781 7.933594-7.929687 7.933594zm0 0" fill="#c55733"/><path d="m288.179688 119.484375v-111.050781c0-4.066406 3.058593-7.410156 7-7.875-.308594-.035156-.617188-.058594-.933594-.058594h-12.132813c-4.378906 0-7.933593 3.550781-7.933593 7.933594v111.050781c0 4.378906 3.554687 7.933594 7.933593 7.933594h12.132813c.316406 0 .625-.027344.933594-.0625-3.941407-.460938-7-3.804688-7-7.871094zm0 0" fill="#a63811"/><path d="m454.175781 75.414062c.40625.5625.808594 1.136719 1.199219 1.714844 12.402344 18.253906 17.570312 40.03125 15.261719 61.273438-1.179688 10.886718-4.324219 21.640625-9.46875 31.710937l-62.085938 121.542969c-2.128906 4.167969-4.585937 8.089844-7.339843 11.757812-21.132813 14.53125-45.460938 24.742188-71.722657 29.34375-1.84375.324219-3.761719-.054687-5.316406-1.09375-2.765625-1.847656-5.132813-4.308593-6.902344-7.261718-.113281-.195313-.230469-.386719-.351562-.585938-8.726563-14.589844-29.863281-14.578125-38.578125.019532l-.347656.59375c-1.761719 2.9375-4.125 5.398437-6.878907 7.234374-.007812.003907-.015625.011719-.027343.015626-1.519532 1.027343-3.402344 1.40625-5.210938 1.089843-26.28125-4.59375-50.640625-14.808593-71.789062-29.355469-2.753907-3.667968-5.210938-7.59375-7.34375-11.761718l-62.082032-121.539063c-5.148437-10.074219-8.292968-20.824219-9.472656-31.710937-.355469-3.289063-.535156-6.589844-.535156-9.886719 0-18.011719 5.3125-35.957031 15.796875-51.386719.394531-.582031.792969-1.152344 1.203125-1.71875 13.625-18.875 35.519531-30.113281 58.886718-30.113281h33.230469c.265625 0 .523438.003906.78125.011719.261719.007812.519531.023437.777344.03125-.027344 0-.0625 0-.09375.007812 12.667969.449219 24.417969 6.855469 31.640625 17.347656l21.929688 31.851563c9.09375 13.203125 28.59375 13.203125 37.6875 0l21.929687-31.851563c7.496094-10.894531 19.878906-17.398437 33.105469-17.398437h33.230468c12.039063 0 23.675782 2.980469 33.996094 8.449219 9.730469 5.15625 18.277344 12.511718 24.890625 21.667968zm0 0" fill="#94d400"/><path d="m261.644531 331.664062c-.007812.003907-.015625.011719-.027343.015626-1.542969 1.035156-3.453126 1.398437-5.285157 1.078124-26.253906-4.601562-50.585937-14.8125-71.71875-29.34375-2.75-3.667968-5.210937-7.589843-7.339843-11.757812l-62.082032-121.542969c-5.148437-10.074219-8.292968-20.824219-9.472656-31.710937-.359375-3.285156-.535156-6.589844-.535156-9.886719 0-18.011719 5.3125-35.953125 15.796875-51.386719.394531-.578125.792969-1.152344 1.199219-1.714844 13.625-18.878906 35.523437-30.117187 58.890624-30.117187h33.230469c.265625 0 .523438.007813.777344.015625.265625.007812.523437.019531.78125.027344-11.554687.410156-22.683594 3.546875-32.546875 8.992187-9.871094 5.441407-18.484375 13.191407-25.003906 22.796875-18.757813 27.613282-20.976563 63.253906-5.792969 92.984375l62.085937 121.542969c9.886719 19.355469 26.976563 33.558594 47.042969 40.007812zm0 0" fill="#85ae11"/><path d="m506.667969 204.207031c-13.132813 58.917969-50.109375 115.339844-105.652344 155.945313-12.246094 8.945312-25.378906 17.125-39.375 24.390625-5.648437 2.929687-11.324219 5.667969-17.042969 8.195312-129.183594 54.253907-278.269531-5.578125-333.949218-134.511719-1.050782-2.449218-2.082032-4.917968-3.039063-7.386718.050781.359375.117187.710937.179687 1.070312-.082031-.378906-.152343-.75-.210937-1.128906-.078125-.410156-.148437-.828125-.210937-1.25-.277344-1.578125-.527344-3.160156-.769532-4.738281-.230468-1.589844-.4375-3.179688-.640625-4.769531-.007812-.039063-.007812-.078126-.019531-.117188-.289062-2.351562-.539062-4.699219-.726562-7.050781-.160157-1.765625-.28125-3.535157-.390626-5.304688-.042968-.703125-.082031-1.390625-.121093-2.082031-.058594-1.347656-.109375-2.699219-.160157-4.046875-.121093-4.039063-.140624-8.085937-.019531-12.144531.300781-1.671875.628907-3.320313.96875-4.96875 1.488281-1.820313 4.488281-2.148438 6.207031-.011719 67.539063 83.582031 199.328126 105.394531 313.730469 45.945313 62.316407-32.378907 107.847657-82.871094 131.671875-138.8125 1.148438-2.707032 3.058594-4.867188 5.386719-6.335938 3.410156-2.160156 7.71875-2.828125 11.824219-1.53125l20.054687 6.347656 3.027344.960938 2.109375.660156c5.070312 1.597656 8.789062 5.90625 9.679688 11.15625 4.535156 26.839844 3.527343 54.441406-2.511719 81.519531zm0 0" fill="#ffcf11"/><path d="m509.175781 122.691406c14.410157 85.242188-27.101562 178.191406-108.164062 237.457032-12.242188 8.945312-25.378907 17.125-39.367188 24.394531-5.648437 2.929687-11.328125 5.664062-17.046875 8.203125-129.183594 54.238281-278.265625-5.585938-333.945312-134.515625-1.058594-2.453125-2.082032-4.917969-3.046875-7.386719-.089844-.429688-.171875-.871094-.242188-1.308594-.277343-1.582031-.523437-3.160156-.761719-4.746094-.230468-1.589843-.445312-3.171874-.644531-4.765624-.003906-.039063-.011719-.078126-.019531-.121094-.28125-2.339844-.523438-4.695313-.730469-7.042969-.414062-4.789063-.660156-9.59375-.734375-14.40625 1.886719 4.421875 3.9375 8.796875 6.1875 13.117187 57.0625 109.820313 207.144532 144.902344 335.210938 78.347657 84.496094-43.902344 138.136718-121.054688 148.496094-200.007813l3.027343.957032 2.105469.660156c5.066406 1.601562 8.792969 5.917968 9.675781 11.164062zm0 0" fill="#ff9e00"/><path d="m511.527344 329.621094c-20.5625 83.972656-95.527344 152.847656-193.441406 175.117187-14.785157 3.359375-30.089844 5.660157-45.8125 6.789063-6.347657.449218-12.648438.710937-18.90625.769531-140.097657-1.417969-253.246094-115.449219-253.246094-255.886719 0-2.671875.039062-5.339844.128906-7.988281-.089844.351563-.171875.699219-.25 1.050781.0703125-.382812.160156-.75.25-1.121094.089844-.410156.191406-.820312.300781-1.230468.367188-1.558594.769531-3.109375 1.179688-4.65625.417969-1.550782.847656-3.089844 1.296875-4.628906.011718-.039063.023437-.082032.03125-.121094.660156-2.269532 1.371094-4.519532 2.121094-6.757813.558593-1.683593 1.148437-3.355469 1.753906-5.023437.238281-.65625.472656-1.308594.714844-1.960938.472656-1.265625.960937-2.523437 1.460937-3.78125 1.796875-4.554687 3.746094-9.054687 5.875-13.484375 1.601563-3.339843 6.488281-2.960937 7.476563.597657 28.859374 103.515624 141.210937 175.789062 269.804687 166.5625 70.042969-5.019532 131.871094-33.320313 175.917969-75.234376 5.246094-4.996093 13.441406-5.128906 18.921875-.390624l15.894531 13.777343 2.398438 2.078125 1.667968 1.441406c4.019532 3.476563 5.730469 8.914063 4.460938 14.082032zm0 0" fill="#ffcf11"/><path d="m511.585938 329.621094c-20.5625 83.972656-95.523438 152.847656-193.4375 175.117187-14.785157 3.359375-30.089844 5.660157-45.816407 6.789063-6.347656.449218-12.644531.710937-18.902343.769531-140.097657-1.417969-253.25-115.449219-253.25-255.886719 0-2.671875.042968-5.339844.132812-7.988281.089844-.429687.1875-.871094.296875-1.300781.371094-1.558594.769531-3.109375 1.179687-4.65625.421876-1.550782.851563-3.089844 1.300782-4.628906.011718-.039063.019531-.082032.03125-.121094.667968-2.257813 1.378906-4.519532 2.117187-6.757813 1.519531-4.558593 3.199219-9.066406 5.039063-13.515625-.019532 4.808594.128906 9.636719.480468 14.496094 8.847657 123.445312 132.722657 215.152344 276.679688 204.828125 94.976562-6.808594 174.808594-56.371094 215.621094-124.746094l2.402344 2.078125 1.667968 1.441406c4.019532 3.476563 5.726563 8.914063 4.457032 14.082032zm0 0" fill="#ff9e00"/><path d="m.246094 261.460938 43.722656-3.132813c6.90625-.496094 12.101562-6.496094 11.605469-13.402344l-5.46875-76.28125c-.496094-6.90625-6.496094-12.101562-13.402344-11.605469l-17.007813 1.21875c-12.566406 30.226563-19.515624 63.375-19.515624 98.152344 0 1.6875.035156 3.371094.066406 5.050782zm0 0" fill="#ffe854"/><path d="m.246094 261.460938 26.371094-1.890626c-6.90625.496094-12.90625-4.703124-13.398438-11.605468l-4.191406-58.429688c-5.757813 21.320313-8.847656 43.734375-8.847656 66.875 0 1.6875.035156 3.371094.066406 5.050782zm0 0" fill="#ffcf11"/></svg>