<svg height="512pt" viewBox="0 0 512 512" width="512pt" xmlns="http://www.w3.org/2000/svg"><path d="m512 256c0 141.386719-114.613281 256-256 256s-256-114.613281-256-256 114.613281-256 256-256 256 114.613281 256 256zm0 0" fill="#0fe1c2"/><path d="m150.023438 258.015625h127.222656c17.019531 0 31.496094-12.414063 34.085937-29.234375l11.878907-77.109375c3.21875-20.894531-12.945313-39.742187-34.085938-39.742187h-139.101562c-19.046876 0-34.488282 15.441406-34.488282 34.488281v77.109375c0 19.046875 15.441406 34.488281 34.488282 34.488281zm0 0" fill="#aa1e1e"/><path d="m179.300781 306.25c54.574219 0 101.210938-39.320312 110.433594-93.113281l14.089844-82.152344c11.734375-68.453125-40.988281-130.984375-110.4375-130.984375h-28.171875c-69.453125 0-122.175782 62.53125-110.4375 130.984375l14.085937 82.152344c9.222657 53.792969 55.859375 93.113281 110.4375 93.113281zm0 0" fill="#ff3345"/><path d="m110.175781 213.136719-14.085937-82.152344c-11.363282-66.277344 37.699218-127 103.867187-130.796875-2.171875-.1210938-4.363281-.1875-6.570312-.1875h-28.171875c-69.453125 0-122.175782 62.53125-110.4375 130.984375l14.085937 82.152344c9.222657 53.792969 55.859375 93.113281 110.4375 93.113281 7.039063 0 13.941407-.660156 20.652344-1.914062-45.324219-8.476563-81.742187-44.347657-89.777344-91.199219zm0 0" fill="#e32828"/><path d="m88.023438 363.710938h182.554687c6.347656 0 11.496094-5.148438 11.496094-11.496094v-70.742188c0-6.347656-5.148438-11.496094-11.496094-11.496094h-182.554687c-6.351563 0-11.496094 5.148438-11.496094 11.496094v70.742188c0 6.347656 5.144531 11.496094 11.496094 11.496094zm0 0" fill="#3e4a68"/><path d="m114.035156 281.472656v70.742188c0 6.347656 5.144532 11.496094 11.496094 11.496094h-37.507812c-6.351563 0-11.496094-5.148438-11.496094-11.496094v-70.742188c0-6.347656 5.144531-11.496094 11.496094-11.496094h37.507812c-6.351562 0-11.496094 5.148438-11.496094 11.496094zm0 0" fill="#303a59"/><path d="m138.46875 335.597656h81.664062c2.308594 0 4.175782-1.871094 4.175782-4.179687v-29.152344c0-2.304687-1.871094-4.175781-4.175782-4.175781h-81.664062c-2.308594 0-4.179688 1.871094-4.179688 4.175781v29.152344c0 2.308593 1.871094 4.179687 4.179688 4.179687zm0 0" fill="#fff"/><path d="m171.796875 302.265625v29.152344c0 2.308593 1.871094 4.179687 4.179687 4.179687h-37.507812c-2.308594 0-4.179688-1.871094-4.179688-4.179687v-29.152344c0-2.304687 1.871094-4.175781 4.179688-4.175781h37.507812c-2.308593 0-4.179687 1.871094-4.179687 4.175781zm0 0" fill="#ebf0f3"/><path d="m361.976562 406.308594h-127.222656c-17.019531 0-31.496094-12.417969-34.085937-29.238282l-11.878907-77.109374c-3.21875-20.894532 12.945313-39.738282 34.085938-39.738282h139.101562c19.046876 0 34.488282 15.4375 34.488282 34.488282v77.109374c0 19.046876-15.441406 34.488282-34.488282 34.488282zm0 0" fill="#aa1e1e"/><path d="m332.699219 454.539062c-54.574219 0-101.210938-39.320312-110.433594-93.109374l-14.089844-82.152344c-11.734375-68.453125 40.984375-130.984375 110.4375-130.984375h28.171875c69.453125 0 122.175782 62.53125 110.4375 130.984375l-14.085937 82.152344c-9.222657 53.789062-55.859375 93.109374-110.4375 93.109374zm0 0" fill="#ff3345"/><path d="m263.578125 361.429688-14.089844-82.15625c-11.363281-66.273438 37.703125-127 103.867188-130.792969-2.171875-.125-4.359375-.191407-6.570313-.191407h-28.171875c-69.449219 0-122.171875 62.535157-110.433593 130.988282l14.085937 82.152344c9.222656 53.789062 55.859375 93.109374 110.433594 93.109374 7.039062 0 13.945312-.65625 20.65625-1.910156-45.324219-8.476562-81.746094-44.347656-89.777344-91.199218zm0 0" fill="#e32828"/><path d="m423.976562 512h-182.554687c-6.347656 0-11.496094-5.148438-11.496094-11.496094v-70.738281c0-6.351563 5.148438-11.496094 11.496094-11.496094h182.554687c6.351563 0 11.496094 5.144531 11.496094 11.496094v70.738281c0 6.347656-5.144531 11.496094-11.496094 11.496094zm0 0" fill="#3e4a68"/><path d="m267.4375 500.503906v-70.738281c0-6.351563 5.144531-11.496094 11.496094-11.496094h-37.511719c-6.347656 0-11.496094 5.144531-11.496094 11.496094v70.738281c0 6.347656 5.148438 11.496094 11.496094 11.496094h37.511719c-6.351563 0-11.496094-5.148438-11.496094-11.496094zm0 0" fill="#303a59"/><path d="m373.53125 483.890625h-81.664062c-2.304688 0-4.175782-1.871094-4.175782-4.179687v-29.152344c0-2.308594 1.871094-4.175782 4.175782-4.175782h81.664062c2.308594 0 4.179688 1.871094 4.179688 4.175782v29.152344c0 2.308593-1.871094 4.179687-4.179688 4.179687zm0 0" fill="#fff"/><path d="m325.199219 479.710938v-29.152344c0-2.308594 1.871093-4.179688 4.179687-4.179688h-37.511718c-2.308594 0-4.175782 1.871094-4.175782 4.179688v29.152344c0 2.308593 1.871094 4.179687 4.175782 4.179687h37.511718c-2.308594 0-4.179687-1.871094-4.179687-4.179687zm0 0" fill="#ebf0f3"/></svg>