<svg height="512pt" viewBox="0 0 512 512" width="512pt" xmlns="http://www.w3.org/2000/svg"><path d="m512 256c0 141.386719-114.613281 256-256 256s-256-114.613281-256-256 114.613281-256 256-256 256 114.613281 256 256zm0 0" fill="#94d400"/><path d="m463.628906 55.78125v439.949219c0 8.988281-7.277344 16.269531-16.269531 16.269531h-191.359375c-43.5 0-84.46875-10.851562-120.339844-30-15.332031-8.171875-29.730468-17.871094-43-28.878906-10.78125-8.941406-20.820312-18.75-30-29.332032-11.378906-13.089843-21.449218-27.359374-30-42.589843-15.410156-27.417969-25.910156-57.96875-30.320312-90.449219-1.339844-9.828125-2.109375-19.839844-2.2890628-30-.0390624-1.578125-.0507812-3.160156-.0507812-4.75 0-45.480469 11.859375-88.179688 32.660156-125.199219 8.550782-15.230469 18.621094-29.5 30-42.589843 5.667969-6.53125 11.660156-12.769532 17.960938-18.699219 11.890625-11.183594 24.839844-21.242188 38.699218-30h328.039063c8.992187 0 16.269531 7.277343 16.269531 16.269531zm0 0" fill="#232d47"/><path d="m50 256c0-91.128906 47.625-171.125 119.332031-216.488281h-50.011719c-13.859374 8.757812-26.808593 18.816406-38.699218 30-6.300782 5.929687-12.292969 12.167969-17.960938 18.699219-11.378906 13.089843-21.449218 27.359374-30 42.589843-20.800781 37.019531-32.660156 79.71875-32.660156 125.199219 0 1.589844.0117188 3.171875.0507812 4.75.1796878 10.160156.9492188 20.171875 2.2890628 30 4.410156 32.480469 14.910156 63.03125 30.320312 90.449219 8.550782 15.230469 18.621094 29.5 30 42.589843 9.179688 10.582032 19.21875 20.390626 30 29.332032 13.269532 11.007812 27.667969 20.707031 43 28.878906 35.871094 19.148438 76.839844 30 120.339844 30h50c-141.386719 0-256-114.613281-256-256zm0 0" fill="#1a2338"/><path d="m463.550781 54.21875c-.785156-8.257812-7.730469-14.707031-16.191406-14.707031h-4.691406c7.210937 4.558593 14.183593 9.46875 20.882812 14.707031zm0 0" fill="#1a2338"/><path d="m32.660156 130.800781v120.949219c0 4.96875-4.03125 9-9 9h-23.6093748c-.0390624-1.578125-.0507812-3.160156-.0507812-4.75 0-45.480469 11.859375-88.179688 32.660156-125.199219zm0 0" fill="#303a59"/><path d="m233.148438 78.511719v173.238281c0 4.96875-4.027344 9-9 9h-152.5c-4.96875 0-8.988282-4.03125-8.988282-9v-163.539062c5.667969-6.53125 11.660156-12.769532 17.960938-18.699219h143.527344c4.972656 0 9 4.027343 9 9zm0 0" fill="#3e4a68"/><path d="m130.640625 69.511719h-50.019531c-6.300782 5.929687-12.292969 12.167969-17.960938 18.699219v88.117187c13.480469-41.199219 37.125-77.792969 67.980469-106.816406zm0 0" fill="#303a59"/><path d="m101.648438 260.75h-30c-4.96875 0-8.988282-4.03125-8.988282-9v-163.539062c5.667969-6.53125 11.660156-12.769532 17.960938-18.699219h21.027344c-4.96875 0-8.988282 4.027343-8.988282 9v173.238281c0 4.96875 4.019532 9 8.988282 9zm0 0" fill="#303a59"/><path d="m92.660156 78.511719c0-4.972657 4.019532-9 8.988282-9h-21.027344c-6.300782 5.929687-12.292969 12.167969-17.960938 18.699219v88.117187c7.226563-22.089844 17.382813-42.855469 30-61.839844zm0 0" fill="#232d47"/><path d="m272.144531 69.507812h152.492188c4.96875 0 9 4.027344 9 9v173.246094c0 4.96875-4.03125 9-9 9h-152.492188c-4.96875 0-9-4.03125-9-9v-173.246094c0-4.972656 4.03125-9 9-9zm0 0" fill="#3e4a68"/><path d="m293.144531 251.753906v-173.246094c0-4.972656 4.03125-9 9-9h-30c-4.96875 0-9 4.027344-9 9v173.246094c0 4.96875 4.03125 9 9 9h30c-4.96875 0-9-4.03125-9-9zm0 0" fill="#303a59"/><path d="m32.660156 299.75v81.449219c-15.410156-27.417969-25.910156-57.96875-30.320312-90.449219h21.320312c4.96875 0 9 4.03125 9 9zm0 0" fill="#303a59"/><path d="m233.148438 299.75v173.25c0 4.96875-4.027344 9-9 9h-88.488282c-15.332031-8.171875-29.730468-17.871094-43-28.878906-10.78125-8.941406-20.820312-18.75-30-29.332032v-124.039062c0-4.96875 4.019532-9 8.988282-9h152.5c4.972656 0 9 4.03125 9 9zm0 0" fill="#3e4a68"/><path d="m101.648438 290.75c-4.96875 0-8.988282 4.03125-8.988282 9v153.371094c-10.78125-8.941406-20.820312-18.75-30-29.332032v-124.039062c0-4.96875 4.019532-9 8.988282-9zm0 0" fill="#303a59"/><path d="m272.144531 290.753906h152.492188c4.96875 0 9 4.027344 9 9v173.246094c0 4.96875-4.03125 8.996094-9 8.996094h-152.492188c-4.96875 0-9-4.027344-9-8.996094v-173.246094c0-4.972656 4.03125-9 9-9zm0 0" fill="#3e4a68"/><path d="m293.144531 473v-173.246094c0-4.972656 4.03125-9 9-9h-30c-4.96875 0-9 4.027344-9 9v173.246094c0 4.96875 4.03125 8.996094 9 8.996094h30c-4.96875 0-9-4.027344-9-8.996094zm0 0" fill="#303a59"/><path d="m293.476562 240.753906c-5.707031 0-10.332031-4.625-10.332031-10.332031v-29.335937c0-5.707032 4.625-10.332032 10.332031-10.332032 5.707032 0 10.335938 4.625 10.335938 10.332032v29.335937c0 5.703125-4.628906 10.332031-10.335938 10.332031zm0 0" fill="#fff"/><path d="m293.144531 240.734375v-49.964844c-5.550781.179688-10 4.722657-10 10.316407v29.335937c0 5.59375 4.449219 10.136719 10 10.3125zm0 0" fill="#b5ccf4"/><path d="m92.988281 240.753906c-5.707031 0-10.332031-4.625-10.332031-10.332031v-29.335937c0-5.707032 4.625-10.332032 10.332031-10.332032s10.332031 4.625 10.332031 10.332032v29.335937c0 5.703125-4.625 10.332031-10.332031 10.332031zm0 0" fill="#fff"/><path d="m92.65625 240.734375v-49.964844c-5.550781.179688-10 4.722657-10 10.316407v29.335937c0 5.59375 4.449219 10.136719 10 10.3125zm0 0" fill="#b5ccf4"/><path d="m293.476562 360.753906c-5.707031 0-10.332031-4.625-10.332031-10.332031v-29.335937c0-5.707032 4.625-10.332032 10.332031-10.332032 5.707032 0 10.335938 4.625 10.335938 10.332032v29.335937c0 5.703125-4.628906 10.332031-10.335938 10.332031zm0 0" fill="#fff"/><path d="m293.144531 360.734375v-49.964844c-5.550781.179688-10 4.722657-10 10.316407v29.335937c0 5.59375 4.449219 10.136719 10 10.3125zm0 0" fill="#b5ccf4"/><path d="m92.988281 360.753906c-5.707031 0-10.332031-4.625-10.332031-10.332031v-29.335937c0-5.707032 4.625-10.332032 10.332031-10.332032s10.332031 4.625 10.332031 10.332032v29.335937c0 5.703125-4.625 10.332031-10.332031 10.332031zm0 0" fill="#fff"/><path d="m92.65625 360.734375v-49.964844c-5.550781.179688-10 4.722657-10 10.316407v29.335937c0 5.59375 4.449219 10.136719 10 10.3125zm0 0" fill="#b5ccf4"/><path d="m62.660156 335.671875v88.117187c9.179688 10.582032 19.21875 20.390626 30 29.332032 13.269532 11.007812 27.667969 20.707031 43 28.878906h50.015625c-57.785156-30.828125-102.347656-83.164062-123.015625-146.328125zm0 0" fill="#303a59"/><path d="m62.660156 335.671875v88.117187c9.179688 10.582032 19.21875 20.390626 30 29.332032v-55.625c-12.613281-18.980469-22.773437-39.738282-30-61.824219zm0 0" fill="#232d47"/></svg>