<svg height="512pt" viewBox="0 0 512 512" width="512pt" xmlns="http://www.w3.org/2000/svg"><path d="m512 256c0 141.386719-114.613281 256-256 256s-256-114.613281-256-256 114.613281-256 256-256 256 114.613281 256 256zm0 0" fill="#0fe1c2"/><path d="m3.691406 212.5c-2.429687 14.140625-3.691406 28.671875-3.691406 43.5 0 7.75.339844 15.421875 1.019531 23 11.421875 128.21875 117.371094 229.238281 247.671875 232.898438 15.167969-.277344 30.019532-1.160157 44.457032-2.578126.011718-.011718.011718-.011718.023437 0 124.886719-12.332031 218.828125-65.601562 218.828125-129.449218v-167.371094zm387.238282 58.5c-.019532.011719-.03125.011719-.039063.019531-.992187.410157-2 .820313-3.011719 1.21875-.1875.082031-.390625.152344-.578125.230469-38.339843 15.160156-91.109375 24.519531-149.390625 24.519531-58.269531 0-111.058594-9.359375-149.390625-24.519531-.609375-.238281-1.21875-.488281-1.820312-.730469-.605469-.242187-1.195313-.492187-1.792969-.742187 38.589844-16.015625 92.878906-25.984375 153.003906-25.984375 60.140625 0 114.417969 9.96875 153.019532 25.988281zm0 0" fill="#303a59"/><g fill="#232d47"><path d="m50 256c0-14.828125 1.277344-29.359375 3.699219-43.5h-50.007813c-2.429687 14.140625-3.691406 28.671875-3.691406 43.5 0 7.75.339844 15.421875 1.019531 23 11.421875 128.21875 117.371094 229.238281 247.671875 232.898438 10.113282-.183594 20.070313-.660157 29.875-1.363282-128.484375-13.691406-228.566406-122.421875-228.566406-254.535156zm0 0"/><path d="m478.90625 237.992188c-4.140625 0-7.5 3.359374-7.5 7.5v203.597656c5.515625-4.316406 10.523438-8.792969 15-13.417969v-190.179687c0-4.140626-3.359375-7.5-7.5-7.5zm0 0"/><path d="m432 278.027344c-4.140625 0-7.5 3.355468-7.5 7.5v191.117187c5.191406-2.328125 10.195312-4.75 15-7.261719v-183.855468c0-4.144532-3.359375-7.5-7.5-7.5zm0 0"/><path d="m357.152344 313.199219c0-4.140625-3.355469-7.5-7.5-7.5-4.140625 0-7.5 3.359375-7.5 7.5v188.898437c5.078125-1.007812 10.082031-2.078125 15-3.226562zm0 0"/><path d="m126.167969 305.699219c-4.140625 0-7.5 3.359375-7.5 7.5v158.875c4.890625 3.117187 9.890625 6.070312 15 8.855469v-167.730469c0-4.140625-3.355469-7.5-7.5-7.5zm0 0"/><path d="m237.910156 324.671875c-4.140625 0-7.5 3.355469-7.5 7.5v178.558594c4.960938.492187 9.964844.828125 15 1.035156v-179.59375c0-4.144531-3.355468-7.5-7.5-7.5zm0 0"/></g><path d="m496.859375 169.089844c-37.25-51.648438-139.121094-88.71875-258.949219-88.71875-79.019531 0-150.230468 16.117187-200.25 41.910156-16.660156 27.140625-28.398437 57.628906-33.96875 90.21875-2.429687 14.140625-3.691406 28.671875-3.691406 43.5 0 7.75.339844 15.421875 1.019531 23 47.519531 39.25 135.820313 65.628906 236.890625 65.628906 141.238282 0 257.53125-51.5 272.460938-117.667968 1.078125-4.75 1.628906-9.570313 1.628906-14.460938 0-15.210938-5.328125-29.808594-15.140625-43.410156zm-105.96875 101.929687c-.992187.410157-2 .820313-3.011719 1.21875-.1875.082031-.390625.152344-.578125.230469-38.339843 15.160156-91.109375 24.519531-149.390625 24.519531-58.269531 0-111.058594-9.359375-149.390625-24.519531-.609375-.238281-1.21875-.488281-1.820312-.730469-.605469-.242187-1.195313-.492187-1.792969-.742187 38.589844-16.015625 92.878906-25.984375 153.003906-25.984375 60.140625 0 114.417969 9.96875 153.019532 25.988281-.019532.011719-.03125.011719-.039063.019531zm0 0" fill="#3e4a68"/><path d="m50 256c0-60.183594 20.777344-115.507812 55.539062-159.214844-25.347656 6.75-48.25 15.375-67.878906 25.496094-16.660156 27.140625-28.398437 57.628906-33.96875 90.21875-2.429687 14.140625-3.691406 28.671875-3.691406 43.5 0 7.75.339844 15.421875 1.019531 23 14.703125 12.144531 33.316407 23.054688 54.996094 32.335938-3.925781-17.824219-6.015625-36.332032-6.015625-55.335938zm0 0" fill="#303a59"/><path d="m237.910156 128.011719c-117.132812 0-212.085937 37.824219-212.085937 84.488281 0 23.445312 23.980469 44.660156 62.699219 59.96875-1.222657-.484375-2.429688-.972656-3.625-1.46875 38.59375-16.015625 92.878906-25.988281 153.011718-25.988281 60.136719 0 114.417969 9.972656 153.015625 25.988281-1.191406.496094-2.402343.984375-3.625 1.46875 38.71875-15.308594 62.699219-36.523438 62.699219-59.96875 0-46.664062-94.953125-84.488281-212.089844-84.488281zm0 0" fill="#303a59"/><path d="m75.824219 212.5c0-43.292969 81.738281-78.972656 187.085937-83.902344-8.199218-.382812-16.539062-.585937-25-.585937-117.132812 0-212.085937 37.824219-212.085937 84.488281 0 22.707031 22.488281 43.316406 59.074219 58.5 8.929687-3.707031 18.707031-7.082031 29.191406-10.09375-24.105469-13.710938-38.265625-30.398438-38.265625-48.40625zm0 0" fill="#232d47"/><path d="m84.898438 271c.011718.003906.023437.007812.035156.015625-.011719-.007813-.023438-.011719-.035156-.015625zm0 0" fill="#232d47"/><path d="m387.300781 272.46875c1.222657-.484375 2.429688-.976562 3.625-1.46875-1.195312.492188-2.402343.984375-3.625 1.46875zm0 0" fill="#232d47"/><path d="m84.933594 271.015625c1.183594.488281 2.378906.972656 3.589844 1.453125-1.210938-.480469-2.40625-.964844-3.589844-1.453125zm0 0" fill="#232d47"/></svg>