<svg height="512pt" viewBox="0 0 512 512" width="512pt" xmlns="http://www.w3.org/2000/svg"><path d="m512 256c0 141.386719-114.613281 256-256 256s-256-114.613281-256-256 114.613281-256 256-256 256 114.613281 256 256zm0 0" fill="#0c99e6"/><path d="m104.289062 147.011719c-20.457031.003906-37.042968 16.574219-37.042968 37.027343v244.886719c22.179687 24.195313 48.945312 44.105469 78.921875 58.367188h78.265625v-340.292969h-120.144532zm0 0" fill="#ebf0f3"/><path d="m104.289062 147v.011719c-7.335937 0-14.164062 2.140625-19.914062 5.8125 10.292969 6.578125 17.125 18.09375 17.125 31.214843v276.0625c13.859375 10.507813 28.808594 19.648438 44.667969 27.195313h78.265625v-340.296875zm0 0" fill="#c7d9ff"/><path d="m508.699219 145.859375c-2.109375-3.308594-5.140625-6.03125-8.847657-7.757813l-22.28125-10.390624-203.898437-95.109376c-1.261719-.582031-2.0625-1.851562-2.0625-3.230468v-28.902344c-5.160156-.308594-10.371094-.46875-15.609375-.46875s-10.449219.160156-15.609375.46875v28.902344c0 1.378906-.800781 2.648437-2.0625 3.230468l-203.898437 95.109376-22.28125 10.390624c-7.410157 3.457032-12.148438 10.886719-12.148438 19.070313 0 5.808594 2.359375 11.078125 6.160156 14.886719 1.839844 1.839844 4.019532 3.339844 6.441406 4.390625 2.589844 1.140625 5.449219 1.769531 8.449219 1.769531h469.898438c3 0 5.859375-.628906 8.449219-1.769531 7.421874-3.25 12.601562-10.660157 12.601562-19.277344 0-4.09375-1.179688-7.992187-3.300781-11.3125zm-71.109375 1.140625h-363.179688c-1.789062 0-2.332031-2.429688-.710937-3.179688l180.789062-84.390624c.960938-.449219 2.0625-.449219 3.023438 0l180.789062 84.390624c1.621094.75 1.078125 3.179688-.710937 3.179688zm0 0" fill="#3e4a68"/><path d="m256 512c74.71875 0 141.953125-32.019531 188.753906-83.074219v-244.886719c0-20.453124-16.585937-37.039062-37.042968-37.039062h-303.421876c20.457032 0 37.039063 16.585938 37.039063 37.039062v300.886719c34.5 17.3125 73.441406 27.074219 114.671875 27.074219zm0 0" fill="#fff"/><path d="m181.328125 463.863281v-279.824219c0-20.453124-16.582031-37.039062-37.039063-37.039062h-40c20.457032 0 37.039063 16.585938 37.039063 37.039062v300.886719c34.5 17.3125 73.441406 27.074219 114.671875 27.074219 6.722656 0 13.382812-.269531 19.972656-.777344-25.984375-2.011718-50.878906-7.910156-74.109375-17.101562-12.402343-4.910156-20.535156-16.917969-20.535156-30.257813zm0 0" fill="#ebf0f3"/><path d="m141.328125 317.148438h303.425781v86.996093h-303.425781zm0 0" fill="#ffcf11"/><path d="m141.328125 317.148438h40v86.996093h-40zm0 0" fill="#ff9e00"/></svg>