<svg height="512pt" viewBox="0 0 512 512" width="512pt" xmlns="http://www.w3.org/2000/svg"><path d="m512 256c0 141.386719-114.613281 256-256 256s-256-114.613281-256-256 114.613281-256 256-256 256 114.613281 256 256zm0 0" fill="#ff3345"/><g fill="#ff6375"><path d="m189.65625 53.167969c0 8.097656-6.566406 14.667969-14.667969 14.667969-8.097656 0-14.664062-6.570313-14.664062-14.667969 0-8.101563 6.566406-14.667969 14.664062-14.667969 8.101563 0 14.667969 6.566406 14.667969 14.667969zm0 0"/><path d="m255.058594 441.167969c0 8.097656-6.566406 14.667969-14.664063 14.667969-8.101562 0-14.667969-6.570313-14.667969-14.667969 0-8.101563 6.566407-14.667969 14.667969-14.667969 8.097657 0 14.664063 6.566406 14.664063 14.667969zm0 0"/><path d="m357.375 104.082031c0 12.886719-10.445312 23.332031-23.332031 23.332031s-23.332031-10.445312-23.332031-23.332031 10.445312-23.332031 23.332031-23.332031 23.332031 10.445312 23.332031 23.332031zm0 0"/></g><path d="m512 256c0 21.738281-2.710938 42.851562-7.820312 63.011719-2.589844 10.25-5.800782 20.25-9.589844 29.96875-6.019532 15.441406-13.5 30.140625-22.25 43.949219-45.398438 71.570312-125.320313 119.070312-216.339844 119.070312-90.679688 0-170.351562-47.148438-215.828125-118.28125-11.09375-17.339844-20.140625-36.097656-26.832031-55.949219-4.429688-13.140625-7.820313-26.757812-10.070313-40.757812-2.148437-13.351563-3.269531-27.050781-3.269531-41.011719 0-11.828125.800781-23.46875 2.359375-34.871094 2.949219-21.679687 8.621094-42.5 16.652344-62.097656 38.207031-93.300781 129.929687-159.03125 236.988281-159.03125 112.679688 0 208.371094 72.808594 242.570312 173.949219 5.121094 15.140625 8.859376 30.921875 11.070313 47.179687 1.558594 11.402344 2.359375 23.042969 2.359375 34.871094zm0 0" fill="#ff3345"/><path d="m512 221.128906v124.242188h-.011719c0 .550781-.007812 1.097656-.027343 1.648437-.03125.808594-.070313 1.609375-.140626 2.402344-.03125.417969-.070312.828125-.121093 1.25-.007813.058594-.007813.128906-.019531.199219-.050782.398437-.101563.800781-.160157 1.199218-.109375.878907-.257812 1.75-.429687 2.609376-.089844.429687-.167969.859374-.269532 1.28125-.101562.429687-.199218.847656-.300781 1.269531-.628906 2.53125-1.46875 4.988281-2.5 7.339843-.167969.390626-.347656.78125-.53125 1.167969 0-.007812-.007812-.007812-.007812-.019531-6.5 13.992188-19.5 24.382812-35.140625 27.210938-.351563.058593-.699219.121093-1.058594.179687-.339844.0625-.691406.109375-1.042969.160156-2.148437.300781-4.347656.449219-6.589843.449219h-423.476563c-11.09375-17.339844-20.140625-36.097656-26.832031-55.949219-4.429688-13.140625-7.820313-26.757812-10.070313-40.757812-2.148437-13.351563-3.269531-27.050781-3.269531-41.011719 0-11.828125.800781-23.46875 2.359375-34.871094zm0 0" fill="#303a59"/><path d="m512 221.128906v124.242188h-.011719c0 .550781-.007812 1.097656-.027343 1.648437-.03125.808594-.070313 1.609375-.140626 2.402344-.03125.417969-.070312.828125-.121093 1.25-.007813.058594-.007813.128906-.019531.199219-.050782.398437-.101563.800781-.160157 1.199218-.121093.878907-.257812 1.75-.429687 2.609376-.089844.429687-.167969.859374-.269532 1.28125-.101562.429687-.199218.847656-.300781 1.269531-.640625 2.53125-1.480469 4.980469-2.5 7.339843-.167969.390626-.347656.78125-.53125 1.167969 0-.007812-.007812-.007812-.007812-.019531-3.03125-6.488281-7.449219-12.199219-12.890625-16.738281-.238282-.199219-.480469-.402344-.71875-.589844l-.722656-.570313c-8.160157-6.300781-18.386719-10.050781-29.5-10.050781h-450.308594c-4.429688-13.140625-7.820313-26.757812-10.070313-40.757812-2.148437-13.351563-3.269531-27.050781-3.269531-41.011719 0-11.828125.800781-23.46875 2.359375-34.871094zm0 0" fill="#232d47"/><path d="m498.570312 173.949219c-.46875-.488281-.949218-.96875-1.441406-1.4375-.449218-.441407-.917968-.871094-1.390625-1.292969-8.527343-7.589844-19.777343-12.1875-32.089843-12.1875h-444.636719c-8.03125 19.597656-13.703125 40.417969-16.652344 62.097656-1.558594 11.402344-2.359375 23.042969-2.359375 34.871094 0 13.960938 1.121094 27.660156 3.269531 41.011719h460.378907c16.113281 0 30.371093 7.867187 39.160156 19.976562.242187.332031.472656.660157.691406.992188.230469.339843.460938.679687.679688 1.03125 4.949218 7.578125 7.820312 16.628906 7.820312 26.359375v-137.980469c0-12.980469-5.109375-24.761719-13.429688-33.441406zm-144.859374 6.980469c7.5 0 13.589843 6.082031 13.589843 13.582031 0 7.507812-6.089843 13.589843-13.589843 13.589843s-13.582032-6.082031-13.582032-13.589843c0-7.5 6.082032-13.582031 13.582032-13.582031zm-76.402344 0c7.5 0 13.582031 6.082031 13.582031 13.582031 0 7.507812-6.082031 13.589843-13.582031 13.589843s-13.589844-6.082031-13.589844-13.589843c0-7.5 6.089844-13.582031 13.589844-13.582031zm-240.039063 0c7.5 0 13.589844 6.082031 13.589844 13.582031 0 7.507812-6.089844 13.589843-13.589844 13.589843s-13.578125-6.082031-13.578125-13.589843c0-7.5 6.078125-13.582031 13.578125-13.582031zm0 94.191406c-7.5 0-13.578125-6.089844-13.578125-13.589844s6.078125-13.582031 13.578125-13.582031 13.589844 6.082031 13.589844 13.582031-6.089844 13.589844-13.589844 13.589844zm240.039063 0c-7.5 0-13.589844-6.089844-13.589844-13.589844s6.089844-13.582031 13.589844-13.582031 13.582031 6.082031 13.582031 13.582031-6.082031 13.589844-13.582031 13.589844zm76.402344 0c-7.5 0-13.582032-6.089844-13.582032-13.589844s6.082032-13.582031 13.582032-13.582031 13.589843 6.082031 13.589843 13.582031-6.089843 13.589844-13.589843 13.589844zm0 0" fill="#3e4a68"/><path d="m399.929688 307.425781h52.917968c4.144532 0 7.503906-3.359375 7.503906-7.5v-143.804687c0-4.140625-3.359374-7.5-7.503906-7.5h-52.917968c-4.140626 0-7.5 3.359375-7.5 7.5v143.804687c0 4.140625 3.355468 7.5 7.5 7.5zm0 0" fill="#ebf0f3"/><path d="m419.597656 156.121094v143.804687c0 4.140625 3.359375 7.5 7.5 7.5h-27.167968c-4.144532 0-7.5-3.359375-7.5-7.5v-143.804687c0-4.140625 3.355468-7.5 7.5-7.5h27.171874c-4.144531 0-7.503906 3.359375-7.503906 7.5zm0 0" fill="#c7d9ff"/><path d="m108.601562 118.277344h153.324219c8.496094 0 15.382813 6.886718 15.382813 15.382812v25.371094h-135.21875c-4.484375 0-8.117188 3.632812-8.117188 8.117188v121.75c0 4.480468 3.632813 8.113281 8.117188 8.113281h135.21875v25.371093c0 8.496094-6.886719 15.382813-15.382813 15.382813h-153.324219c-8.496093 0-15.382812-6.886719-15.382812-15.382813v-188.722656c0-8.496094 6.886719-15.382812 15.382812-15.382812zm0 0" fill="#c7d9ff"/><path d="m142.089844 159.03125c-4.484375 0-8.117188 3.632812-8.117188 8.117188v121.75c0 4.480468 3.632813 8.113281 8.117188 8.113281h135.21875v25.371093h-140.949219c-10.65625 0-19.292969-8.636718-19.292969-19.289062v-150.140625c0-10.652344 8.636719-19.289063 19.292969-19.289063h140.949219v25.367188zm0 0" fill="#ebf0f3"/><path d="m193.960938 208.101562h-69.15625c-7.503907 0-13.585938-6.082031-13.585938-13.585937s6.082031-13.585937 13.585938-13.585937h69.15625c7.503906 0 13.585937 6.082031 13.585937 13.585937s-6.082031 13.585937-13.585937 13.585937zm0 0" fill="#fff"/><path d="m193.960938 275.117188h-69.15625c-7.503907 0-13.585938-6.082032-13.585938-13.585938s6.082031-13.585938 13.585938-13.585938h69.15625c7.503906 0 13.585937 6.082032 13.585937 13.585938s-6.082031 13.585938-13.585937 13.585938zm0 0" fill="#fff"/></svg>