<svg height="512pt" viewBox="0 0 512 512" width="512pt" xmlns="http://www.w3.org/2000/svg"><path d="m512 256c0 141.386719-114.613281 256-256 256s-256-114.613281-256-256 114.613281-256 256-256 256 114.613281 256 256zm0 0" fill="#ffcf11"/><path d="m367.25 146.492188c-4.144531 0-7.5 3.355468-7.5 7.5v195.824218c0 82.023438-66.730469 148.75-148.75 148.75s-148.75-66.726562-148.75-148.75v-195.824218c0-4.144532-3.355469-7.5-7.5-7.5s-7.5 3.355468-7.5 7.5v195.824218c0 29.140625 7.660156 56.519532 21.058594 80.25 42.90625 46.242188 102.683594 76.605469 169.550781 81.285156 77.558594-12.855468 136.890625-80.390624 136.890625-161.535156v-195.824218c0-4.140626-3.355469-7.5-7.5-7.5zm0 0" fill="#b5ccf4"/><path d="m397.25 146.492188c-4.144531 0-7.5 3.355468-7.5 7.5v195.824218c0 82.023438-66.730469 148.75-148.75 148.75s-148.75-66.726562-148.75-148.75v-195.824218c0-4.144532-3.355469-7.5-7.5-7.5s-7.5 3.355468-7.5 7.5v195.824218c0 64.371094 37.34375 120.179688 91.496094 146.917969 27.234375 9.875 56.613281 15.265625 87.253906 15.265625 2.945312 0 5.871094-.066406 8.789062-.167969 79.058594-11.554687 139.960938-79.804687 139.960938-162.015625v-195.824218c0-4.140626-3.355469-7.5-7.5-7.5zm0 0" fill="#c7d9ff"/><path d="m427.25 146.492188c-4.144531 0-7.5 3.355468-7.5 7.5v195.824218c0 82.023438-66.730469 148.75-148.75 148.75s-148.75-66.726562-148.75-148.75v-195.824218c0-4.144532-3.355469-7.5-7.5-7.5s-7.5 3.355468-7.5 7.5v195.824218c0 82.210938 60.902344 150.460938 139.960938 162.015625 2.917968.101563 5.84375.167969 8.789062.167969 30.640625 0 60.019531-5.390625 87.253906-15.261719 54.152344-26.742187 91.496094-82.546875 91.496094-146.921875v-195.824218c0-4.140626-3.355469-7.5-7.5-7.5zm0 0" fill="#ebf0f3"/><path d="m464.75 153.992188c0-4.144532-3.355469-7.5-7.5-7.5s-7.5 3.355468-7.5 7.5v195.824218c0 82.023438-66.730469 148.75-148.75 148.75s-148.75-66.726562-148.75-148.75v-195.824218c0-4.144532-3.355469-7.5-7.5-7.5s-7.5 3.355468-7.5 7.5v195.824218c0 81.144532 59.332031 148.679688 136.890625 161.535156 66.867187-4.679687 126.644531-35.042968 169.550781-81.285156 13.398438-23.730468 21.058594-51.109375 21.058594-80.25zm0 0" fill="#fff"/><path d="m157.976562 175h-116.453124c-2.472657 0-4.480469-2.003906-4.480469-4.476562v-26.546876c0-2.472656 2.007812-4.476562 4.480469-4.476562h116.453124c2.472657 0 4.480469 2.003906 4.480469 4.476562v26.546876c0 2.472656-2.007812 4.476562-4.480469 4.476562zm0 0" fill="#3e4a68"/><path d="m21.75 12.621094v136.253906c0 4.625 3.75 8.375 8.371094 8.375h139.253906c4.625 0 8.375-3.75 8.375-8.375v-136.253906c0-4.625-3.75-8.371094-8.375-8.371094h-139.253906c-4.621094 0-8.371094 3.75-8.371094 8.371094zm124 21.628906c1.105469 0 2 .894531 2 2v89c0 1.105469-.894531 2-2 2h-92c-1.105469 0-2-.894531-2-2v-89c0-1.105469.894531-2 2-2zm0 0" fill="#ff3345"/><path d="m162.457031 135.519531v-109.539062c0-3.71875-3.015625-6.730469-6.730469-6.730469h-111.949218c-3.71875 0-6.730469 3.015625-6.730469 6.730469v109.539062c0 3.714844 3.011719 6.730469 6.730469 6.730469h111.949218c3.714844 0 6.730469-3.015625 6.730469-6.730469zm-108.707031-8.269531c-1.105469 0-2-.894531-2-2v-89c0-1.105469.894531-2 2-2h92c1.105469 0 2 .894531 2 2v89c0 1.105469-.894531 2-2 2zm0 0" fill="#e32828"/><path d="m141 3.722656v31.054688c0 2.054687-1.667969 3.722656-3.722656 3.722656h-75.054688c-2.054687 0-3.722656-1.664062-3.722656-3.722656v-31.054688c0-2.054687 1.667969-3.722656 3.722656-3.722656h75.054688c2.054687 0 3.722656 1.667969 3.722656 3.722656zm0 0" fill="#3e4a68"/><path d="m62.222656 19.25h75.054688c2.058594 0 3.722656 1.667969 3.722656 3.722656v-19.25c0-2.054687-1.667969-3.722656-3.722656-3.722656h-75.054688c-2.054687 0-3.722656 1.667969-3.722656 3.722656v19.25c0-2.054687 1.667969-3.722656 3.722656-3.722656zm0 0" fill="#303a59"/><path d="m470.476562 175h-116.453124c-2.472657 0-4.480469-2.003906-4.480469-4.476562v-26.546876c0-2.472656 2.007812-4.476562 4.480469-4.476562h116.453124c2.472657 0 4.480469 2.003906 4.480469 4.476562v26.546876c0 2.472656-2.007812 4.476562-4.480469 4.476562zm0 0" fill="#3e4a68"/><path d="m334.25 12.621094v136.253906c0 4.625 3.75 8.375 8.371094 8.375h139.253906c4.625 0 8.375-3.75 8.375-8.375v-136.253906c0-4.625-3.75-8.371094-8.375-8.371094h-139.253906c-4.621094 0-8.371094 3.75-8.371094 8.371094zm124 21.628906c1.105469 0 2 .894531 2 2v89c0 1.105469-.894531 2-2 2h-92c-1.105469 0-2-.894531-2-2v-89c0-1.105469.894531-2 2-2zm0 0" fill="#ff3345"/><path d="m474.957031 135.519531v-109.539062c0-3.71875-3.015625-6.730469-6.730469-6.730469h-111.949218c-3.71875 0-6.730469 3.015625-6.730469 6.730469v109.539062c0 3.714844 3.011719 6.730469 6.730469 6.730469h111.949218c3.714844 0 6.730469-3.015625 6.730469-6.730469zm-108.707031-8.269531c-1.105469 0-2-.894531-2-2v-89c0-1.105469.894531-2 2-2h92c1.105469 0 2 .894531 2 2v89c0 1.105469-.894531 2-2 2zm0 0" fill="#e32828"/><path d="m453.5 3.722656v31.054688c0 2.054687-1.667969 3.722656-3.722656 3.722656h-75.054688c-2.054687 0-3.722656-1.664062-3.722656-3.722656v-31.054688c0-2.054687 1.667969-3.722656 3.722656-3.722656h75.054688c2.054687 0 3.722656 1.667969 3.722656 3.722656zm0 0" fill="#3e4a68"/><path d="m374.722656 19.25h75.054688c2.058594 0 3.722656 1.667969 3.722656 3.722656v-19.25c0-2.054687-1.664062-3.722656-3.722656-3.722656h-75.054688c-2.054687 0-3.722656 1.667969-3.722656 3.722656v19.25c0-2.054687 1.667969-3.722656 3.722656-3.722656zm0 0" fill="#303a59"/></svg>