<svg height="512pt" viewBox="0 0 512 512" width="512pt" xmlns="http://www.w3.org/2000/svg"><path d="m512 256c0 141.386719-114.613281 256-256 256s-256-114.613281-256-256 114.613281-256 256-256 256 114.613281 256 256zm0 0" fill="#0c99e6"/><path d="m466.015625 69.527344-47.09375 47.09375-23.742187-23.738282 47.09375-47.097656c2.835937-2.832031 7.433593-2.832031 10.269531 0l13.472656 13.476563c2.835937 2.835937 2.835937 7.429687 0 10.265625zm0 0" fill="#ebf0f3"/><path d="m369.953125 173.703125c-15.765625 15.761719-29.632813 18.753906-40.777344 21.15625-9.242187 1.996094-15.347656 3.3125-24.117187 12.082031-8.769532 8.769532-10.085938 14.875-12.078125 24.113282-2.40625 11.144531-5.394531 25.015624-21.160157 40.777343-15.761718 15.761719-29.632812 18.753907-40.773437 21.15625-9.242187 1.996094-15.347656 3.3125-24.117187 12.078125-8.765626 8.769532-10.082032 14.875-12.074219 24.113282-2.40625 11.144531-5.394531 25.015624-21.15625 40.777343-15.765625 15.761719-29.632813 18.753907-40.777344 21.15625-9.238281 1.992188-15.34375 3.308594-24.113281 12.078125l-23.742188-23.742187c15.761719-15.761719 29.632813-18.753907 40.777344-21.15625 9.238281-1.992188 15.34375-3.308594 24.113281-12.078125 8.769531-8.769532 10.082031-14.871094 12.078125-24.113282 2.402344-11.144531 5.394532-25.011718 21.15625-40.773437 15.761719-15.761719 29.628906-18.753906 40.773438-21.15625 9.238281-1.996094 15.347656-3.3125 24.113281-12.082031 8.769531-8.769532 10.085937-14.871094 12.082031-24.113282 2.402344-11.144531 5.394532-25.011718 21.15625-40.777343 15.765625-15.761719 29.632813-18.753907 40.777344-21.160157 9.242188-1.992187 15.347656-3.308593 24.117188-12.078124 8.769531-8.769532 10.085937-14.875 12.078124-24.113282 2.40625-11.148437 5.398438-25.015625 21.160157-40.78125l23.742187 23.742188c-8.769531 8.769531-10.085937 14.875-12.082031 24.117187-2.402344 11.144531-5.394531 25.011719-21.15625 40.777344zm0 0" fill="#ebf0f3"/><path d="m357.984375 161.734375c-8.769531 8.769531-14.875 10.085937-24.117187 12.078125-11.144532 2.40625-25.015626 5.398438-40.777344 21.160156-15.765625 15.761719-18.753906 29.632813-21.160156 40.773438-1.992188 9.242187-3.308594 15.347656-12.078126 24.117187-8.769531 8.769531-14.875 10.085938-24.113281 12.078125-11.144531 2.402344-25.015625 5.394532-40.777343 21.15625-15.761719 15.761719-18.75 29.632813-21.15625 40.777344-1.992188 9.238281-3.308594 15.34375-12.074219 24.113281-8.769531 8.769531-14.875 10.082031-24.117188 12.078125-11.140625 2.402344-25.011719 5.394532-40.773437 21.15625l11.96875 11.96875c8.769531-8.769531 14.875-10.085937 24.113281-12.078125 11.144531-2.402343 25.015625-5.394531 40.777344-21.15625s18.75-29.632812 21.15625-40.777343c1.992187-9.238282 3.308593-15.34375 12.074219-24.113282 8.769531-8.765625 14.875-10.082031 24.117187-12.078125 11.140625-2.402343 25.011719-5.394531 40.773437-21.15625 15.765626-15.761719 18.753907-29.632812 21.160157-40.777343 1.992187-9.238282 3.308593-15.34375 12.078125-24.113282 8.769531-8.769531 14.875-10.085937 24.117187-12.082031 11.144531-2.402344 25.011719-5.394531 40.777344-21.15625 15.761719-15.765625 18.753906-29.632813 21.15625-40.777344 1.996094-9.242187 3.3125-15.347656 12.082031-24.117187l-11.96875-11.96875c-15.765625 15.765625-18.753906 29.632812-21.160156 40.777344-1.992188 9.242187-3.308594 15.347656-12.078125 24.117187zm0 0" fill="#c7d9ff"/><path d="m160.515625 402.921875-12.410156 12.410156c-2.398438 2.398438-6.292969 2.398438-8.691407 0l-42.742187-42.746093c-2.402344-2.398438-2.402344-6.292969 0-8.691407l12.40625-12.410156c2.402344-2.402344 6.292969-2.402344 8.695313 0l42.742187 42.742187c2.398437 2.402344 2.398437 6.292969 0 8.695313zm0 0" fill="#ffcf11"/><path d="m415.328125 148.105469-12.40625 12.410156c-2.402344 2.402344-6.292969 2.402344-8.695313 0l-42.742187-42.742187c-2.402344-2.402344-2.402344-6.292969 0-8.695313l12.410156-12.40625c2.398438-2.402344 6.292969-2.402344 8.691407 0l42.742187 42.742187c2.402344 2.398438 2.402344 6.292969 0 8.691407zm0 0" fill="#ffcf11"/><path d="m507.1875 156.902344-16.335938 16.335937c-6.414062 6.414063-16.816406 6.414063-23.230468 0l-128.859375-128.859375c-6.414063-6.414062-6.414063-16.816406 0-23.230468l16.335937-16.335938c6.414063-6.414062 16.816406-6.414062 23.230469 0l128.859375 128.859375c6.417969 6.414063 6.417969 16.816406 0 23.230469zm0 0" fill="#232d47"/><path d="m499.019531 190.144531-14.492187 14.492188c-6.921875 6.925781-18.148438 6.925781-25.074219 0l-152.089844-152.089844c-6.925781-6.925781-6.925781-18.148437 0-25.074219l14.492188-14.492187c6.921875-6.925781 18.148437-6.925781 25.074219 0l152.089843 152.089843c6.925781 6.925782 6.925781 18.152344 0 25.074219zm0 0" fill="#3e4a68"/><path d="m321.855469 12.980469-14.492188 14.492187c-.226562.222656-.425781.464844-.632812.699219 6.960937-6.261719 17.671875-6.066406 24.371093.632813l152.09375 152.09375c6.699219 6.699218 6.898438 17.414062.632813 24.375.234375-.210938.476563-.410157.699219-.632813l14.496094-14.496094c6.921874-6.921875 6.921874-18.148437 0-25.074219l-152.09375-152.089843c-6.925782-6.925781-18.152344-6.925781-25.074219 0zm0 0" fill="#303a59"/><path d="m44.378906 338.761719c-6.414062-6.414063-16.816406-6.414063-23.230468 0l-5.515626 5.515625c25.851563 70.371094 81.71875 126.238281 152.089844 152.089844l5.515625-5.515626c6.414063-6.414062 6.414063-16.816406 0-23.230468zm0 0" fill="#232d47"/><path d="m52.546875 307.363281c-6.925781-6.925781-18.148437-6.925781-25.074219 0l-14.492187 14.492188c-1.328125 1.328125-2.398438 2.816406-3.214844 4.402343 2.597656 9.125 5.707031 18.039063 9.261719 26.71875l139.996094 139.996094c8.679687 3.554688 17.589843 6.664063 26.71875 9.261719 1.585937-.820313 3.074218-1.886719 4.402343-3.214844l14.492188-14.492187c6.925781-6.925782 6.925781-18.152344 0-25.074219zm0 0" fill="#3e4a68"/><path d="m180.898438 483.195312-152.09375-152.09375c-6.699219-6.699218-6.894532-17.414062-.632813-24.375-.234375.210938-.472656.410157-.699219.632813l-14.492187 14.496094c-1.328125 1.328125-2.398438 2.816406-3.214844 4.402343 2.597656 9.125 5.707031 18.039063 9.261719 26.71875l139.996094 139.996094c8.679687 3.554688 17.589843 6.664063 26.71875 9.261719 1.585937-.820313 3.074218-1.886719 4.402343-3.214844l14.492188-14.496093c.226562-.222657.421875-.464844.632812-.699219-6.957031 6.265625-17.671875 6.070312-24.371093-.628907zm0 0" fill="#303a59"/></svg>