<svg height="512pt" viewBox="0 0 512 512" width="512pt" xmlns="http://www.w3.org/2000/svg"><path d="m512 256c0 141.386719-114.613281 256-256 256s-256-114.613281-256-256 114.613281-256 256-256 256 114.613281 256 256zm0 0" fill="#ffcf11"/><path d="m256 96.292969c-124.925781 0-228.929688 89.488281-251.460938 207.855469 22.53125 118.363281 126.535157 207.851562 251.460938 207.851562s228.929688-89.488281 251.460938-207.851562c-22.53125-118.367188-126.535157-207.855469-251.460938-207.855469zm0 0" fill="#0c99e6"/><path d="m4.539062 304.148438c8.230469 43.234374 27.320313 82.617187 54.339844 115.191406-5.785156-21.371094-8.878906-43.847656-8.878906-67.046875 0-132.949219 101.347656-242.214844 231-254.78125-8.226562-.796875-16.5625-1.21875-25-1.21875-124.925781 0-228.929688 89.488281-251.460938 207.855469zm0 0" fill="#066ae7"/><path d="m8.824219 322.804688c10.753906 39.890624 30.890625 75.925781 57.917969 105.582031 46.820312 22.675781 114.273437 36.910156 189.257812 36.910156s142.4375-14.234375 189.257812-36.910156c27.027344-29.65625 47.164063-65.691407 57.917969-105.582031-29.386719-48.105469-128.90625-83.511719-247.175781-83.511719s-217.789062 35.40625-247.175781 83.511719zm0 0" fill="#066ae7"/><path d="m23.035156 246.042969c-8.363281 18.304687-14.628906 37.761719-18.5 58.074219 9.488282 49.878906 33.4375 94.628906 67.335938 129.71875 22.585937-19.914063 36.835937-49.0625 36.835937-81.542969 0-52.132813-36.699219-95.683594-85.671875-106.25zm0 0" fill="#0fe1c2"/><path d="m23.035156 246.042969c-8.363281 18.304687-14.628906 37.761719-18.5 58.074219 8.226563 43.25 27.320313 82.648437 54.355469 115.234374-5.789063-21.375-8.890625-43.851562-8.890625-67.058593 0-30.539063 5.359375-59.828125 15.171875-86.988281-12.292969-9.222657-26.59375-15.910157-42.136719-19.261719zm0 0" fill="#19b89e"/><path d="m507.464844 304.117188c-3.871094-20.3125-10.136719-39.773438-18.5-58.074219-48.972656 10.566406-85.671875 54.117187-85.671875 106.25 0 32.480469 14.25 61.625 36.835937 81.542969 33.898438-35.089844 57.847656-79.839844 67.335938-129.71875zm0 0" fill="#0fe1c2"/><path d="m365 367.292969h-218c-8.285156 0-15-6.714844-15-15 0-8.28125 6.714844-15 15-15h218c8.285156 0 15 6.71875 15 15 0 8.285156-6.714844 15-15 15zm0 0" fill="#ebf0f3"/><g fill="#fff"><path d="m237.421875 374.589844v-44.589844c0-8.285156 6.71875-15 15-15 8.285156 0 15 6.714844 15 15v44.589844c0 8.28125-6.714844 15-15 15-8.28125 0-15-6.71875-15-15zm0 0"/><path d="m173.421875 374.589844v-44.589844c0-8.285156 6.71875-15 15-15 8.285156 0 15 6.714844 15 15v44.589844c0 8.28125-6.714844 15-15 15-8.28125 0-15-6.71875-15-15zm0 0"/><path d="m308.578125 374.589844v-44.589844c0-8.285156 6.714844-15 15-15 8.28125 0 15 6.714844 15 15v44.589844c0 8.28125-6.71875 15-15 15-8.285156 0-15-6.71875-15-15zm0 0"/></g></svg>