<svg height="512pt" viewBox="0 0 512 512" width="512pt" xmlns="http://www.w3.org/2000/svg"><path d="m512 256c0 141.386719-114.613281 256-256 256s-256-114.613281-256-256 114.613281-256 256-256 256 114.613281 256 256zm0 0" fill="#ff3345"/><path d="m135.628906 481.976562c35.882813 19.152344 76.855469 30.023438 120.371094 30.023438s84.488281-10.871094 120.371094-30.023438v-110.914062h-240.742188zm0 0" fill="#c7d9ff"/><path d="m135.628906 481.976562c15.757813 8.410157 32.492188 15.230469 50 20.226563v-131.140625h-50zm0 0" fill="#b5ccf4"/><path d="m376.371094 31.929688h-240.742188v241.859374l92.695313 61.34375v35.929688h55.679687l-.328125-35.929688 92.695313-61.34375zm0 0" fill="#0fe1c2"/><path d="m185.628906 273.789062v-241.859374h-50v241.859374l92.695313 61.34375v35.929688h50v-35.929688zm0 0" fill="#19b89e"/><path d="m378.445312 63.855469h-244.890624c-10.5625 0-19.121094-8.558594-19.121094-19.117188v-25.617187c0-10.5625 8.558594-19.121094 19.121094-19.121094h244.894531c10.558593 0 19.117187 8.558594 19.117187 19.121094v25.613281c0 10.5625-8.558594 19.121094-19.121094 19.121094zm0 0" fill="#66fade"/><path d="m164.433594 44.734375v-25.613281c0-10.5625 8.558594-19.121094 19.117187-19.121094h-50c-10.558593 0-19.117187 8.5625-19.117187 19.121094v25.613281c0 10.5625 8.558594 19.121094 19.117187 19.121094h50c-10.558593 0-19.117187-8.558594-19.117187-19.121094zm0 0" fill="#0fe1c2"/><path d="m378.445312 168.820312h-244.890624c-10.5625 0-19.121094-8.558593-19.121094-19.117187v-25.617187c0-10.558594 8.558594-19.121094 19.121094-19.121094h244.894531c10.558593 0 19.117187 8.5625 19.117187 19.121094v25.617187c0 10.558594-8.558594 19.117187-19.121094 19.117187zm0 0" fill="#66fade"/><path d="m164.433594 149.703125v-25.617187c0-10.558594 8.558594-19.121094 19.117187-19.121094h-50c-10.558593 0-19.117187 8.5625-19.117187 19.121094v25.617187c0 10.558594 8.558594 19.117187 19.117187 19.117187h50c-10.558593 0-19.117187-8.558593-19.117187-19.117187zm0 0" fill="#0fe1c2"/><path d="m378.445312 273.789062h-244.890624c-10.5625 0-19.121094-8.5625-19.121094-19.121093v-25.617188c0-10.558593 8.558594-19.117187 19.121094-19.117187h244.894531c10.558593 0 19.117187 8.558594 19.117187 19.117187v25.617188c0 10.558593-8.558594 19.121093-19.121094 19.121093zm0 0" fill="#66fade"/><path d="m164.433594 254.667969v-25.617188c0-10.558593 8.558594-19.121093 19.117187-19.121093h-50c-10.558593 0-19.117187 8.5625-19.117187 19.121093v25.617188c0 10.558593 8.558594 19.117187 19.117187 19.117187h50c-10.558593.003906-19.117187-8.558594-19.117187-19.117187zm0 0" fill="#0fe1c2"/><path d="m389.617188 398.519531h-267.234376c-4.390624 0-7.949218-3.558593-7.949218-7.949219v-47.953124c0-4.390626 3.558594-7.953126 7.949218-7.953126h267.234376c4.390624 0 7.949218 3.5625 7.949218 7.953126v47.953124c0 4.390626-3.558594 7.949219-7.949218 7.949219zm0 0" fill="#fff"/><path d="m164.433594 390.570312v-47.953124c0-4.390626 3.558594-7.953126 7.949218-7.953126h-50c-4.390624 0-7.949218 3.5625-7.949218 7.953126v47.953124c0 4.390626 3.558594 7.949219 7.949218 7.949219h50c-4.390624 0-7.949218-3.558593-7.949218-7.949219zm0 0" fill="#ebf0f3"/><path d="m193.332031 470v-38c0-8.285156 6.71875-15 15-15 8.285157 0 15 6.714844 15 15v38c0 8.285156-6.714843 15-15 15-8.28125 0-15-6.714844-15-15zm0 0" fill="#fff"/><path d="m227.332031 447h-38c-8.28125 0-15-6.714844-15-15s6.71875-15 15-15h38c8.285157 0 15 6.714844 15 15s-6.714843 15-15 15zm0 0" fill="#ff3345"/><path d="m204.332031 432c0-8.285156 6.71875-15 15-15h-30c-8.28125 0-15 6.714844-15 15s6.71875 15 15 15h30c-8.28125 0-15-6.714844-15-15zm0 0" fill="#e32828"/><path d="m288.667969 470v-38c0-8.285156 6.714843-15 15-15 8.28125 0 15 6.714844 15 15v38c0 8.285156-6.71875 15-15 15-8.285157 0-15-6.714844-15-15zm0 0" fill="#fff"/><path d="m322.667969 447h-38c-8.285157 0-15-6.714844-15-15s6.714843-15 15-15h38c8.28125 0 15 6.714844 15 15s-6.71875 15-15 15zm0 0" fill="#0c99e6"/><path d="m299.667969 432c0-8.285156 6.714843-15 15-15h-30c-8.285157 0-15 6.714844-15 15s6.714843 15 15 15h30c-8.285157 0-15-6.714844-15-15zm0 0" fill="#066ae7"/></svg>