<svg height="512pt" viewBox="0 0 512 512" width="512pt" xmlns="http://www.w3.org/2000/svg"><path d="m512 256c0 141.386719-114.613281 256-256 256s-256-114.613281-256-256 114.613281-256 256-256 256 114.613281 256 256zm0 0" fill="#303a59"/><path d="m507.453125 304.175781c-9.269531-48.691406-32.742187-95.210937-70.433594-132.902343-99.972656-99.972657-262.066406-99.972657-362.039062 0-37.691407 37.691406-61.164063 84.210937-70.433594 132.902343 8.636719 45.359375 29.234375 86.480469 58.402344 119.945313-27.105469-73.183594-11.316407-158.789063 47.386719-217.492188 80.320312-80.316406 211.007812-80.316406 291.328124 0 58.699219 58.703125 74.488282 144.308594 47.386719 217.492188 29.167969-33.464844 49.765625-74.585938 58.402344-119.945313zm0 0" fill="#ff3345"/><path d="m256 118.574219c-129.082031 0-233.722656 104.640625-233.722656 233.71875 0 2.90625.074218 5.792969.179687 8.671875 10.382813 23.070312 24.078125 44.324218 40.492188 63.15625-27.101563-73.183594-11.3125-158.789063 47.386719-217.492188 80.320312-80.316406 211.011718-80.316406 291.328124 0 58.703126 58.703125 74.492188 144.308594 47.386719 217.492188 16.414063-18.832032 30.113281-40.085938 40.496094-63.15625.105469-2.878906.175781-5.765625.175781-8.671875 0-129.078125-104.640625-233.71875-233.722656-233.71875zm0 0" fill="#e32828"/><path d="m507.453125 304.175781c-9.269531-48.691406-32.742187-95.210937-70.433594-132.902343l-35.355469 35.355468c58.703126 58.703125 74.492188 144.308594 47.386719 217.492188 29.167969-33.464844 49.765625-74.585938 58.402344-119.945313zm0 0" fill="#0c99e6"/><path d="m421.265625 187.027344-19.601563 19.601562c58.703126 58.703125 74.492188 144.308594 47.386719 217.492188 16.414063-18.832032 30.113281-40.085938 40.496094-63.15625.101563-2.878906.175781-5.765625.175781-8.671875 0-64.539063-26.160156-122.96875-68.457031-165.265625zm0 0" fill="#066ae7"/><path d="m401.664062 206.628906 35.355469-35.355468c-99.972656-99.972657-262.066406-99.972657-362.039062 0l35.355469 35.355468c80.320312-80.320312 211.007812-80.320312 291.328124 0zm0 0" fill="#ebf0f3"/><path d="m256 118.574219c-64.539062 0-122.972656 26.160156-165.265625 68.453125l19.601563 19.601562c80.320312-80.316406 211.007812-80.316406 291.328124 0l19.601563-19.601562c-42.292969-42.292969-100.726563-68.453125-165.265625-68.453125zm0 0" fill="#c7d9ff"/><path d="m445.917969 292.597656 5.472656-5.472656c-3.25-9.808594-7.253906-19.417969-12.019531-28.734375l.023437-.011719 49.402344-49.402344c6.972656-6.972656 7.503906-18.34375.769531-25.546874-7.042968-7.53125-18.859375-7.679688-26.09375-.449219l7.851563-7.851563c6.976562-6.972656 7.507812-18.34375.769531-25.546875-7.039062-7.527343-18.859375-7.679687-26.089844-.445312l-8.1875 8.1875c7.230469-7.230469 7.082032-19.046875-.449218-26.089844-7.199219-6.738281-18.574219-6.207031-25.546876.765625l-7.851562 7.855469c7.230469-7.234375 7.082031-19.050781-.449219-26.09375-7.203125-6.734375-18.574219-6.203125-25.546875.769531l-120.605468 120.609375-191.863282 191.863281c28.417969 31.632813 64.597656 56.140625 105.542969 70.542969l182.351563-182.351563c5.382812-5.382812 12.636718-8.496093 20.25-8.683593l44.871093-1.121094c9.617188-.238281 18.769531-4.164063 25.570313-10.964844zm0 0" fill="#ffcfc2"/><path d="m290.226562 313.628906-163.414062 163.414063c13.957031 8.171875 28.753906 15.058593 44.234375 20.503906l182.351563-182.351563c5.386718-5.382812 12.636718-8.496093 20.25-8.683593l28.347656-.707031h-92.882813c-7.085937 0-13.878906 2.8125-18.886719 7.824218zm0 0" fill="#ffaea1"/></svg>