<svg height="512pt" viewBox="0 0 512.00013 512" width="512pt" xmlns="http://www.w3.org/2000/svg"><path d="m512 256c0 141.386719-114.613281 256-256 256s-256-114.613281-256-256 114.613281-256 256-256 256 114.613281 256 256zm0 0" fill="#94d400"/><path d="m330.46875 433.683594 41-41 20.273438 20.269531c5.855468 5.859375 15.355468 5.859375 21.214843 0 5.855469-5.855469 5.855469-15.351563 0-21.210937l-20.273437-20.273438 41-41c6.511718-6.515625 10.101562-15.175781 10.101562-24.386719 0-9.214843-3.589844-17.875-10.101562-24.390625l-203.375-203.375c-6.515625-6.511718-15.175782-10.101562-24.390625-10.101562-9.210938 0-17.871094 3.589844-24.386719 10.101562l-41 41-20.273438-20.269531c-5.855468-5.859375-15.355468-5.859375-21.210937 0-2.929687 2.925781-4.394531 6.765625-4.394531 10.605469 0 3.835937 1.464844 7.675781 4.394531 10.605468l20.269531 20.273438-41 41c-6.511718 6.511719-10.101562 15.171875-10.101562 24.386719 0 9.214843 3.589844 17.875 10.101562 24.386719l203.375 203.375c6.515625 6.515624 15.175782 10.101562 24.390625 10.101562 9.210938.003906 17.875-3.585938 24.386719-10.097656zm-157.132812-150.785156 109.5625-109.5625 55.765624 55.765624-109.5625 109.5625zm-73.804688-73.804688c-1.085938-1.085938-1.3125-2.324219-1.3125-3.171875 0-.851563.226562-2.089844 1.3125-3.175781l103.210938-103.214844c1.753906-1.75 4.601562-1.75 6.351562 0l52.59375 52.589844-109.566406 109.566406zm203.375 203.375-52.59375-52.589844 109.566406-109.5625 52.589844 52.589844c1.085938 1.085938 1.3125 2.328125 1.3125 3.175781 0 .847657-.226562 2.085938-1.3125 3.175781l-103.210938 103.210938c-1.753906 1.75-4.601562 1.75-6.351562 0zm0 0" fill="#ebf0f3"/><path d="m302.691406 412.683594-203.375-203.375c-6.511718-6.515625-10.101562-15.175782-10.101562-24.386719 0-9.214844 3.589844-17.875 10.101562-24.390625l-21 21c-6.511718 6.515625-10.101562 15.175781-10.101562 24.390625 0 9.210937 3.589844 17.871094 10.101562 24.386719l203.375 203.375c6.515625 6.511718 15.175782 10.101562 24.390625 10.101562 9.210938 0 17.875-3.589844 24.386719-10.101562l21-21c-6.511719 6.511718-15.175781 10.101562-24.386719 10.101562-9.214843 0-17.875-3.589844-24.390625-10.101562zm0 0" fill="#c7d9ff"/><path d="m427.503906 391.335938-36.167968 36.167968 26.695312 26.691406c13.222656-10.824218 25.339844-22.941406 36.164062-36.164062zm0 0" fill="#303a59"/><path d="m410.042969 408.796875-18.707031 18.707031 26.695312 26.691406c6.835938-5.597656 13.382812-11.542968 19.605469-17.804687zm0 0" fill="#232d47"/><path d="m38.179688 2.015625 82.484374 82.484375-36.164062 36.164062-82.484375-82.484374c-2.6875-2.6875-2.6875-7.039063 0-9.726563l26.4375-26.4375c2.6875-2.6875 7.039063-2.6875 9.726563 0zm0 0" fill="#303a59"/><path d="m20.71875 9.75-18.703125 18.703125c-2.6875 2.6875-2.6875 7.039063 0 9.726563l82.484375 82.484374 18.703125-18.707031-82.484375-82.484375c-2.683594-2.683594-2.683594-7.039062 0-9.722656zm0 0" fill="#232d47"/><path d="m385.335938 447.6875-14.1875-14.183594c-1.246094-1.246094-1.246094-3.273437 0-4.519531l57.835937-57.835937c1.246094-1.246094 3.269531-1.246094 4.519531 0l14.183594 14.1875c1.25 1.246093 1.25 3.269531 0 4.519531l-57.832031 57.832031c-1.246094 1.25-3.269531 1.25-4.519531 0zm0 0" fill="#3e4a68"/><path d="m404.042969 428.984375-14.1875-14.1875c-1.246094-1.246094-1.246094-3.269531 0-4.519531l-18.707031 18.707031c-1.246094 1.246094-1.246094 3.269531 0 4.519531l14.1875 14.183594c1.246093 1.25 3.269531 1.25 4.519531 0l18.707031-18.703125c-1.25 1.246094-3.273438 1.246094-4.519531 0zm0 0" fill="#303a59"/><path d="m126.664062 64.3125 14.1875 14.183594c1.246094 1.246094 1.246094 3.273437 0 4.519531l-57.835937 57.835937c-1.246094 1.246094-3.269531 1.246094-4.519531 0l-14.183594-14.1875c-1.25-1.246093-1.25-3.269531 0-4.519531l57.832031-57.832031c1.246094-1.25 3.273438-1.25 4.519531 0zm0 0" fill="#3e4a68"/><path d="m97.203125 122.144531-14.1875-14.183593c-1.246094-1.25-1.246094-3.273438 0-4.523438l-18.703125 18.707031c-1.25 1.246094-1.25 3.273438 0 4.519531l14.183594 14.1875c1.246094 1.246094 3.273437 1.246094 4.519531 0l18.707031-18.707031c-1.246094 1.246094-3.273437 1.246094-4.519531 0zm0 0" fill="#303a59"/></svg>